<?xml version="1.0" encoding="utf-8"?>
<!-- Generator: Adobe Illustrator 21.0.2, SVG Export Plug-In . SVG Version: 6.00 Build 0)  -->
<svg version="1.1" id="_x32__екран" xmlns="http://www.w3.org/2000/svg" xmlns:xlink="http://www.w3.org/1999/xlink" x="0px"
	 y="0px" viewBox="0 0 24 24" style="enable-background:new 0 0 24 24;" xml:space="preserve">
<style type="text/css">
	.st0{fill:#4ABEC7;}
	.st1{fill:#101633;}
</style>
<rect class="st0" width="24" height="24"/>
<g>
	<rect x="6.1" y="4.5" transform="matrix(0.7071 -0.7071 0.7071 0.7071 -1.851 6.7314)" class="st1" width="2.3" height="2.3"/>
	<rect x="4.5" y="6.1" transform="matrix(0.7071 -0.7071 0.7071 0.7071 -3.451 6.0686)" class="st1" width="2.3" height="2.3"/>
	<rect x="9.3" y="4.5" transform="matrix(0.7071 -0.7071 0.7071 0.7071 -0.9137 8.9941)" class="st1" width="2.3" height="2.3"/>
	<rect x="11.7" y="8.9" transform="matrix(0.7071 -0.7071 0.7071 0.7071 -4.1861 12.3689)" class="st1" width="2.3" height="4.6"/>
	<rect x="10.9" y="6.1" transform="matrix(0.7071 -0.7071 0.7071 0.7071 -1.5765 10.5941)" class="st1" width="2.3" height="2.3"/>
	<rect x="17.3" y="15.7" transform="matrix(0.7071 -0.7071 0.7071 0.7071 -6.4902 17.9314)" class="st1" width="2.3" height="2.3"/>
	<rect x="15.7" y="17.3" transform="matrix(0.7071 -0.7071 0.7071 0.7071 -8.0902 17.2686)" class="st1" width="2.3" height="2.3"/>
	<rect x="17.3" y="12.5" transform="matrix(0.7071 -0.7071 0.7071 0.7071 -4.2274 16.9941)" class="st1" width="2.3" height="2.3"/>
	<rect x="15.7" y="10.9" transform="matrix(0.7071 -0.7071 0.7071 0.7071 -3.5647 15.3941)" class="st1" width="2.3" height="2.3"/>
	<rect x="9.3" y="7.7" transform="matrix(0.7071 -0.7071 0.7071 0.7071 -3.1765 9.9314)" class="st1" width="2.3" height="2.3"/>
	<rect x="14.1" y="12.5" transform="matrix(0.7071 -0.7071 0.7071 0.7071 -5.1647 14.7314)" class="st1" width="2.3" height="2.3"/>
	<rect x="8.5" y="7.6" transform="matrix(0.7071 -0.7071 0.7071 0.7071 -7.3706 11.0059)" class="st1" width="2.3" height="13.6"/>
</g>
</svg>
