<?xml version="1.0" encoding="utf-8"?>
<!-- Generator: Adobe Illustrator 21.0.2, SVG Export Plug-In . SVG Version: 6.00 Build 0)  -->
<svg version="1.1" id="_x32__екран" xmlns="http://www.w3.org/2000/svg" xmlns:xlink="http://www.w3.org/1999/xlink" x="0px"
	 y="0px" viewBox="0 0 24 24" style="enable-background:new 0 0 24 24;" xml:space="preserve">
<style type="text/css">
	.st0{fill:#4ABEC7;}
	.st1{fill:#101633;}
</style>
<rect class="st0" width="24" height="24"/>
<g>
	<rect x="2.7" y="6.3" class="st1" width="2.3" height="11.3"/>
	<rect x="19" y="6.3" class="st1" width="2.3" height="11.3"/>
	<rect x="5" y="4.1" class="st1" width="14" height="2.3"/>
	<rect x="5" y="17.7" class="st1" width="14" height="2.3"/>
	<rect x="14.5" y="7.5" class="st1" width="2.3" height="2.3"/>
	<rect x="12.2" y="8.6" class="st1" width="2.3" height="2.3"/>
	<rect x="9.5" y="8.6" class="st1" width="2.7" height="2.3"/>
	<rect x="16.7" y="6.3" class="st1" width="2.3" height="2.3"/>
	<rect x="10.9" y="10.9" transform="matrix(-1 -1.224647e-16 1.224647e-16 -1 24 24)" class="st1" width="2.3" height="2.3"/>
	
		<rect x="7.3" y="7.4" transform="matrix(-1 -1.224647e-16 1.224647e-16 -1 16.7882 16.9798)" class="st1" width="2.3" height="2.3"/>
	<rect x="5" y="6.3" transform="matrix(-1 -1.224647e-16 1.224647e-16 -1 12.2627 14.949)" class="st1" width="2.3" height="2.3"/>
</g>
</svg>
