<?xml version="1.0" encoding="utf-8"?>
<!-- Generator: Adobe Illustrator 21.0.2, SVG Export Plug-In . SVG Version: 6.00 Build 0)  -->
<svg version="1.1" id="FAQ" xmlns="http://www.w3.org/2000/svg" xmlns:xlink="http://www.w3.org/1999/xlink" x="0px" y="0px"
	 viewBox="0 0 27 21.1" style="enable-background:new 0 0 27 21.1;" xml:space="preserve">
<style type="text/css">
	.st0{fill:#FF814D;}
</style>
<g>
	<rect x="15" y="9.1" class="st0" width="3" height="3"/>
	<rect x="12" y="12.1" class="st0" width="3" height="3"/>
	<rect x="9" y="15.1" class="st0" width="3" height="3"/>
	<rect x="6" y="18.1" class="st0" width="3" height="3"/>
	<rect x="3" y="21.1" class="st0" width="3" height="3"/>
	<rect x="12" y="6.1" class="st0" width="3" height="3"/>
	<rect x="9" y="3.1" class="st0" width="3" height="3"/>
	<rect x="6" y="0.1" class="st0" width="3" height="3"/>
	<rect x="3" y="-2.9" class="st0" width="3" height="3"/>
</g>
<g>
	<rect x="21" y="9.1" class="st0" width="3" height="3"/>
	<rect x="18" y="12.1" class="st0" width="3" height="3"/>
	<rect x="15" y="15.1" class="st0" width="3" height="3"/>
	<rect x="12" y="18.1" class="st0" width="3" height="3"/>
	<rect x="9" y="21.1" class="st0" width="3" height="3"/>
	<rect x="18" y="6.1" class="st0" width="3" height="3"/>
	<rect x="15" y="3.1" class="st0" width="3" height="3"/>
	<rect x="12" y="0.1" class="st0" width="3" height="3"/>
	<rect x="9" y="-2.9" class="st0" width="3" height="3"/>
</g>
</svg>
