<?xml version="1.0" encoding="utf-8"?>
<!-- Generator: Adobe Illustrator 21.0.2, SVG Export Plug-In . SVG Version: 6.00 Build 0)  -->
<svg version="1.1" id="елеенти_по_сторінці_2"
	 xmlns="http://www.w3.org/2000/svg" xmlns:xlink="http://www.w3.org/1999/xlink" x="0px" y="0px" viewBox="0 0 65.8 229.6"
	 style="enable-background:new 0 0 65.8 229.6;" xml:space="preserve">
<style type="text/css">
	.st0{fill:#FF814D;}
</style>
<rect x="16.9" class="st0" width="2.5" height="2.5"/>
<rect x="16.9" y="15" class="st0" width="2.5" height="2.5"/>
<rect x="16.9" y="29.9" class="st0" width="2.5" height="2.5"/>
<rect x="16.9" y="44.9" class="st0" width="2.5" height="2.5"/>
<rect x="16.8" y="102.7" class="st0" width="2.5" height="2.5"/>
<rect x="16.9" y="59.2" class="st0" width="2.5" height="2.5"/>
<rect x="16.9" y="73.7" class="st0" width="2.5" height="2.5"/>
<rect x="16.9" y="88.2" class="st0" width="2.5" height="2.5"/>
<rect x="16.9" y="117.3" class="st0" width="2.5" height="2.5"/>
<rect x="16.9" y="131.8" class="st0" width="2.5" height="2.5"/>
<rect x="16.9" y="146.3" class="st0" width="2.5" height="2.5"/>
<rect x="16.8" y="160.8" class="st0" width="2.5" height="2.5"/>
<rect x="16.9" y="218.9" class="st0" width="2.5" height="2.5"/>
<rect x="16.9" y="175.4" class="st0" width="2.5" height="2.5"/>
<rect x="16.8" y="189.9" class="st0" width="2.5" height="2.5"/>
<rect x="16.9" y="204.4" class="st0" width="2.5" height="2.5"/>
<rect x="37.9" y="108.5" class="st0" width="5.5" height="5.5"/>
<rect x="61.8" y="197.2" class="st0" width="2.5" height="2.5"/>
<rect x="60.3" y="210.7" class="st0" width="5.5" height="5.5"/>
<rect x="61.8" y="227.1" class="st0" width="2.5" height="2.5"/>
<rect x="39.4" y="73.7" class="st0" width="2.5" height="2.5"/>
<rect x="39.4" y="88.2" class="st0" width="2.5" height="2.5"/>
<rect x="37.8" y="123" class="st0" width="5.5" height="5.5"/>
<rect x="39.4" y="139.1" class="st0" width="2.5" height="2.5"/>
<rect x="39.4" y="153.6" class="st0" width="2.5" height="2.5"/>
<rect x="37.8" y="166.6" class="st0" width="5.5" height="5.5"/>
<rect x="39.4" y="226.2" class="st0" width="2.5" height="2.5"/>
<rect x="39.3" y="182.6" class="st0" width="2.5" height="2.5"/>
<rect x="39.3" y="197.1" class="st0" width="2.5" height="2.5"/>
<rect x="39.4" y="211.6" class="st0" width="2.5" height="2.5"/>
<rect x="1.5" y="160.9" class="st0" width="2.5" height="2.5"/>
<rect y="174.4" class="st0" width="5.5" height="5.5"/>
<rect x="1.5" y="189.8" class="st0" width="2.5" height="2.5"/>
</svg>
