<?xml version="1.0" encoding="utf-8"?>
<!-- Generator: Adobe Illustrator 21.0.2, SVG Export Plug-In . SVG Version: 6.00 Build 0)  -->
<svg version="1.1" id="елементи_оформлення"
	 xmlns="http://www.w3.org/2000/svg" xmlns:xlink="http://www.w3.org/1999/xlink" x="0px" y="0px" viewBox="0 0 65.8 370.8"
	 style="enable-background:new 0 0 65.8 370.8;" xml:space="preserve">
<style type="text/css">
	.st0{fill:#FF814D;}
</style>
<rect x="16.8" class="st0" width="2.5" height="2.5"/>
<rect x="16.8" y="15" class="st0" width="2.5" height="2.5"/>
<rect x="16.8" y="29.9" class="st0" width="2.5" height="2.5"/>
<rect x="16.8" y="44.9" class="st0" width="2.5" height="2.5"/>
<rect x="16.8" y="105.2" class="st0" width="2.5" height="2.5"/>
<rect x="16.8" y="60.1" class="st0" width="2.5" height="2.5"/>
<rect x="16.8" y="75.1" class="st0" width="2.5" height="2.5"/>
<rect x="16.8" y="90.2" class="st0" width="2.5" height="2.5"/>
<rect x="16.8" y="120.2" class="st0" width="2.5" height="2.5"/>
<rect x="16.8" y="135.3" class="st0" width="2.5" height="2.5"/>
<rect x="16.8" y="150.1" class="st0" width="2.5" height="2.5"/>
<rect x="16.8" y="165.1" class="st0" width="2.5" height="2.5"/>
<rect x="16.8" y="223.1" class="st0" width="2.5" height="2.5"/>
<rect x="16.8" y="180.4" class="st0" width="2.5" height="2.5"/>
<rect x="16.8" y="195.4" class="st0" width="2.5" height="2.5"/>
<rect x="16.8" y="208.5" class="st0" width="2.5" height="2.5"/>
<rect x="16.8" y="237.8" class="st0" width="2.5" height="2.5"/>
<rect x="16.8" y="252.8" class="st0" width="2.5" height="2.5"/>
<rect x="16.8" y="266.6" class="st0" width="2.5" height="2.5"/>
<rect x="16.8" y="281.4" class="st0" width="2.5" height="2.5"/>
<rect x="16.8" y="339.3" class="st0" width="2.5" height="2.5"/>
<rect x="16.8" y="353.8" class="st0" width="2.5" height="2.5"/>
<rect x="16.8" y="368.3" class="st0" width="2.5" height="2.5"/>
<rect x="16.8" y="295.7" class="st0" width="2.5" height="2.5"/>
<rect x="16.8" y="310.2" class="st0" width="2.5" height="2.5"/>
<rect x="16.8" y="324.7" class="st0" width="2.5" height="2.5"/>
<rect x="1.5" y="273.8" class="st0" width="2.5" height="2.5"/>
<rect y="287.3" class="st0" width="5.5" height="5.5"/>
<rect x="1.5" y="303.7" class="st0" width="2.5" height="2.5"/>
<rect x="1.5" y="317.5" class="st0" width="2.5" height="2.5"/>
<rect x="37.8" y="103.7" class="st0" width="5.5" height="5.5"/>
<rect x="1.5" y="331.9" class="st0" width="2.5" height="2.5"/>
<rect x="61.8" y="201.7" class="st0" width="2.5" height="2.5"/>
<rect x="60.3" y="215.2" class="st0" width="5.5" height="5.5"/>
<rect x="61.8" y="231.6" class="st0" width="2.5" height="2.5"/>
<rect x="61.8" y="245.4" class="st0" width="2.5" height="2.5"/>
<rect x="61.8" y="259.8" class="st0" width="2.5" height="2.5"/>
<rect x="38.8" y="75.1" class="st0" width="2.5" height="2.5"/>
<rect x="39.3" y="90.2" class="st0" width="2.5" height="2.5"/>
<rect x="37.8" y="118.7" class="st0" width="5.5" height="5.5"/>
<rect x="39.3" y="135.3" class="st0" width="2.5" height="2.5"/>
<rect x="39.3" y="150.1" class="st0" width="2.5" height="2.5"/>
<rect x="37.8" y="163.6" class="st0" width="5.5" height="5.5"/>
<rect x="39.3" y="223.1" class="st0" width="2.5" height="2.5"/>
<rect x="39.3" y="180.4" class="st0" width="2.5" height="2.5"/>
<rect x="39.3" y="195.4" class="st0" width="2.5" height="2.5"/>
<rect x="39.3" y="208.5" class="st0" width="2.5" height="2.5"/>
<rect x="39.3" y="237.8" class="st0" width="2.5" height="2.5"/>
<rect x="37.8" y="251.3" class="st0" width="5.5" height="5.5"/>
<rect x="39.3" y="266.6" class="st0" width="2.5" height="2.5"/>
<rect x="39.3" y="281.4" class="st0" width="2.5" height="2.5"/>
<rect x="39.3" y="339.3" class="st0" width="2.5" height="2.5"/>
<rect x="39.5" y="353.8" class="st0" width="2.5" height="2.5"/>
<rect x="39.3" y="295.7" class="st0" width="2.5" height="2.5"/>
<rect x="37.8" y="308.7" class="st0" width="5.5" height="5.5"/>
<rect x="39.3" y="324.7" class="st0" width="2.5" height="2.5"/>
</svg>
