<?xml version="1.0" encoding="utf-8"?>
<!-- Generator: Adobe Illustrator 21.0.2, SVG Export Plug-In . SVG Version: 6.00 Build 0)  -->
<svg version="1.1" id="елементи_оформлення"
	 xmlns="http://www.w3.org/2000/svg" xmlns:xlink="http://www.w3.org/1999/xlink" x="0px" y="0px" viewBox="0 0 26.5 125.3"
	 style="enable-background:new 0 0 26.5 125.3;" xml:space="preserve">
<style type="text/css">
	.st0{fill:#FF814D;}
</style>
<rect x="21" y="119.8" class="st0" width="5.4" height="5.4"/>
<rect x="21" y="89.4" class="st0" width="5.4" height="5.4"/>
<rect x="21" y="44.6" class="st0" width="5.4" height="5.4"/>
<rect x="21" y="14.6" class="st0" width="5.4" height="5.4"/>
<rect x="21" y="-0.5" class="st0" width="5.4" height="5.4"/>
<rect x="22.5" y="30.9" class="st0" width="2.5" height="2.5"/>
<rect x="22.5" y="76.1" class="st0" width="2.5" height="2.5"/>
<rect x="22.5" y="61.1" class="st0" width="2.5" height="2.5"/>
<rect x="22.5" y="106.1" class="st0" width="2.5" height="2.5"/>
<rect y="1" class="st0" width="2.5" height="2.5"/>
<rect y="16" class="st0" width="2.5" height="2.5"/>
<rect y="30.9" class="st0" width="2.5" height="2.5"/>
<rect y="45.9" class="st0" width="2.5" height="2.5"/>
<rect y="53.5" class="st0" width="2.5" height="2.5"/>
<rect y="68.6" class="st0" width="2.5" height="2.5"/>
<rect y="83.6" class="st0" width="2.5" height="2.5"/>
<rect y="98.6" class="st0" width="2.5" height="2.5"/>
</svg>
