<?xml version="1.0" encoding="utf-8"?>
<!-- Generator: Adobe Illustrator 21.0.2, SVG Export Plug-In . SVG Version: 6.00 Build 0)  -->
<svg version="1.1" id="_x33__розділ" xmlns="http://www.w3.org/2000/svg" xmlns:xlink="http://www.w3.org/1999/xlink" x="0px"
	 y="0px" viewBox="0 0 167.7 168" style="enable-background:new 0 0 167.7 168;" xml:space="preserve">
<style type="text/css">
	.st0{fill:#FF814D;stroke:#101633;stroke-width:0.5;stroke-miterlimit:10;}
</style>
<g>
	<rect x="131" y="41.4" class="st0" width="8.4" height="8.4"/>
	<rect x="158.8" y="32.1" class="st0" width="5.5" height="5.5"/>
	<rect x="126.4" y="46.1" class="st0" width="3.7" height="3.6"/>
	<rect x="126.4" y="41.4" class="st0" width="3.7" height="3.6"/>
	<rect x="126.4" y="50.7" class="st0" width="3.7" height="3.6"/>
	<rect x="126.4" y="55.4" class="st0" width="17.8" height="3.6"/>
	<rect x="126.4" y="60.3" class="st0" width="3.7" height="3.6"/>
	<rect x="126.4" y="65" class="st0" width="3.7" height="3.6"/>
	<rect x="126.4" y="69.5" class="st0" width="3.7" height="3.6"/>
	<rect x="131" y="60.3" class="st0" width="3.7" height="3.6"/>
	<rect x="131" y="65" class="st0" width="3.7" height="3.6"/>
	<rect x="131" y="69.5" class="st0" width="3.7" height="3.6"/>
	<rect x="135.7" y="60.3" class="st0" width="3.7" height="3.6"/>
	<rect x="135.7" y="65" class="st0" width="3.7" height="3.6"/>
	<rect x="135.7" y="69.5" class="st0" width="3.7" height="3.6"/>
	<rect x="131.1" y="74.4" class="st0" width="3.7" height="3.6"/>
	<rect x="131.1" y="79.2" class="st0" width="3.7" height="3.6"/>
	<rect x="131.1" y="84" class="st0" width="3.7" height="3.6"/>
	<rect x="135.6" y="74.4" class="st0" width="3.7" height="3.6"/>
	<rect x="135.6" y="79.2" class="st0" width="3.7" height="3.6"/>
	<rect x="135.6" y="84" class="st0" width="3.7" height="3.6"/>
	<rect x="140.4" y="74.4" class="st0" width="3.7" height="3.6"/>
	<rect x="140.4" y="79.2" class="st0" width="3.7" height="3.6"/>
	<rect x="140.4" y="84" class="st0" width="3.7" height="3.6"/>
	<rect x="145.3" y="74.4" class="st0" width="3.7" height="3.6"/>
	<rect x="145.3" y="79.2" class="st0" width="3.7" height="3.6"/>
	<rect x="145.3" y="84" class="st0" width="3.7" height="3.6"/>
	<rect x="126.4" y="74.4" class="st0" width="3.7" height="3.6"/>
	<rect x="126.4" y="79.2" class="st0" width="3.7" height="3.6"/>
	<rect x="154.5" y="84" class="st0" width="3.7" height="3.6"/>
	<rect x="159" y="84" class="st0" width="3.7" height="3.6"/>
	<rect x="149.8" y="84" class="st0" width="3.7" height="3.6"/>
	<rect x="135.9" y="98.4" class="st0" width="3.7" height="3.6"/>
	<rect x="140.5" y="98.4" class="st0" width="3.7" height="3.6"/>
	<rect x="131.3" y="98.4" class="st0" width="3.7" height="3.6"/>
	<rect x="113.3" y="103.6" class="st0" width="3.7" height="3.6"/>
	<rect x="126.4" y="107.5" class="st0" width="3.7" height="3.6"/>
	<rect x="126.4" y="112.4" class="st0" width="3.7" height="3.6"/>
	<rect x="126.4" y="117.1" class="st0" width="3.7" height="3.6"/>
	<rect x="126.4" y="122" class="st0" width="3.7" height="3.6"/>
	<rect x="126.4" y="126.8" class="st0" width="3.7" height="3.6"/>
	<rect x="126.4" y="131.2" class="st0" width="3.7" height="3.6"/>
	<rect x="126.4" y="136" class="st0" width="3.7" height="3.6"/>
	<rect x="126.4" y="140.5" class="st0" width="3.7" height="3.6"/>
	<rect x="126.4" y="145.1" class="st0" width="3.7" height="3.6"/>
	<rect x="131" y="50.7" class="st0" width="3.7" height="3.6"/>
	<rect x="135.7" y="50.7" class="st0" width="3.7" height="3.6"/>
	<rect x="145.3" y="55.4" class="st0" width="3.7" height="3.6"/>
	<rect x="150" y="55.4" class="st0" width="3.7" height="3.6"/>
	<rect x="140.5" y="46.1" class="st0" width="3.7" height="8.3"/>
	<rect x="140.5" y="41.3" class="st0" width="3.7" height="3.6"/>
	<rect x="145.3" y="46.1" class="st0" width="3.7" height="3.6"/>
	<rect x="145.3" y="50.7" class="st0" width="3.7" height="3.6"/>
	<rect x="149.8" y="50.7" class="st0" width="3.7" height="3.6"/>
	<rect x="131" y="37" class="st0" width="3.7" height="3.6"/>
	<rect x="135.7" y="37" class="st0" width="3.7" height="3.6"/>
	<rect x="149.8" y="60.3" class="st0" width="3.7" height="3.6"/>
	<rect x="140.5" y="60.2" class="st0" width="3.7" height="13"/>
	<rect x="145.3" y="60.3" class="st0" width="3.7" height="3.6"/>
	<rect x="145.3" y="64.8" class="st0" width="3.7" height="3.6"/>
	<rect x="145.3" y="69.7" class="st0" width="3.7" height="3.6"/>
	<rect x="145.3" y="98.4" class="st0" width="3.7" height="3.6"/>
	<rect x="145.3" y="103.1" class="st0" width="3.7" height="3.6"/>
	<rect x="145.3" y="107.5" class="st0" width="3.7" height="3.6"/>
	<rect x="145.3" y="88.8" class="st0" width="3.7" height="3.6"/>
	<rect x="140.5" y="88.7" class="st0" width="3.7" height="8.4"/>
	<rect x="145.3" y="93.7" class="st0" width="3.7" height="3.6"/>
	<rect x="131" y="88.7" class="st0" width="8.4" height="8.4"/>
	<rect x="159.6" y="103" class="st0" width="3.7" height="8.4"/>
	<rect x="149.8" y="102.7" class="st0" width="8.4" height="8.4"/>
	<rect x="135.8" y="103.1" class="st0" width="3.7" height="3.6"/>
	<rect x="135.8" y="107.8" class="st0" width="3.7" height="3.6"/>
	<rect x="135.8" y="112.3" class="st0" width="3.7" height="3.6"/>
	<rect x="140.6" y="103.1" class="st0" width="3.7" height="3.6"/>
	<rect x="140.6" y="107.8" class="st0" width="3.7" height="3.6"/>
	<rect x="140.6" y="112.3" class="st0" width="8.2" height="3.6"/>
	<rect x="140.6" y="117.2" class="st0" width="3.7" height="3.6"/>
	<rect x="135.9" y="122" class="st0" width="3.7" height="3.6"/>
	<rect x="135.9" y="126.8" class="st0" width="3.7" height="3.6"/>
	<rect x="145.1" y="117.2" class="st0" width="3.7" height="3.6"/>
	<rect x="140.5" y="122" class="st0" width="3.7" height="3.6"/>
	<rect x="140.5" y="126.8" class="st0" width="3.7" height="3.6"/>
	<rect x="131.3" y="117.2" class="st0" width="8.2" height="3.6"/>
	<rect x="131.3" y="122" class="st0" width="3.7" height="3.6"/>
	<rect x="131.3" y="126.8" class="st0" width="3.7" height="3.6"/>
	<rect x="112.1" y="122" class="st0" width="3.7" height="3.6"/>
	<rect x="112.1" y="126.8" class="st0" width="3.7" height="3.6"/>
	<rect x="121.5" y="122" class="st0" width="3.7" height="3.6"/>
	<rect x="121.5" y="126.8" class="st0" width="3.7" height="3.6"/>
	<rect x="116.9" y="122" class="st0" width="3.7" height="3.6"/>
	<rect x="116.9" y="126.8" class="st0" width="3.7" height="3.6"/>
	<rect x="159.6" y="89.3" class="st0" width="3.7" height="3.6"/>
	<rect x="163.8" y="89.3" class="st0" width="3.7" height="3.6"/>
	<rect x="163.8" y="94" class="st0" width="3.7" height="3.6"/>
	<rect x="163.8" y="98.4" class="st0" width="3.7" height="3.6"/>
	<rect x="164" y="102.9" class="st0" width="3.7" height="3.6"/>
	<rect x="150.1" y="89.2" class="st0" width="3.7" height="3.6"/>
	<rect x="150.1" y="94" class="st0" width="3.7" height="3.6"/>
	<rect x="150.1" y="98.4" class="st0" width="3.7" height="3.6"/>
	<rect x="155" y="89.3" class="st0" width="3.7" height="12.7"/>
	<rect x="159.5" y="94" class="st0" width="3.7" height="3.6"/>
	<rect x="159.3" y="98.4" class="st0" width="3.7" height="3.6"/>
	<rect x="131" y="131.3" class="st0" width="8.6" height="8.6"/>
	<rect x="107.6" y="131.1" class="st0" width="3.7" height="3.6"/>
	<rect x="107.6" y="135.9" class="st0" width="3.7" height="3.6"/>
	<rect x="112.2" y="131.1" class="st0" width="3.7" height="3.6"/>
	<rect x="112.2" y="135.9" class="st0" width="3.7" height="3.6"/>
	<rect x="117" y="131.1" class="st0" width="3.7" height="3.6"/>
	<rect x="117" y="135.9" class="st0" width="3.7" height="3.6"/>
	<rect x="121.5" y="131.1" class="st0" width="3.7" height="3.6"/>
	<rect x="121.7" y="135.9" class="st0" width="3.7" height="3.6"/>
	<rect x="103" y="131.1" class="st0" width="3.7" height="3.6"/>
	<rect x="98.3" y="140.5" class="st0" width="3.7" height="3.6"/>
	<rect x="98.3" y="145.4" class="st0" width="3.7" height="3.6"/>
	<rect x="102.8" y="140.5" class="st0" width="3.7" height="3.6"/>
	<rect x="102.8" y="145.4" class="st0" width="3.7" height="3.6"/>
	<rect x="107.6" y="140.5" class="st0" width="3.7" height="3.6"/>
	<rect x="107.6" y="145.4" class="st0" width="3.7" height="13"/>
	<rect x="112.2" y="140.5" class="st0" width="3.7" height="3.6"/>
	<rect x="112.3" y="145.4" class="st0" width="3.7" height="3.6"/>
	<rect x="93.6" y="140.5" class="st0" width="3.7" height="3.6"/>
	<rect x="93.6" y="145.4" class="st0" width="3.7" height="3.6"/>
	<rect x="84.2" y="131.1" class="st0" width="3.7" height="3.6"/>
	<rect x="84.2" y="135.9" class="st0" width="3.7" height="3.6"/>
	<rect x="88.8" y="131.1" class="st0" width="3.7" height="3.6"/>
	<rect x="88.8" y="135.9" class="st0" width="17.9" height="3.6"/>
	<rect x="93.5" y="131.1" class="st0" width="3.7" height="3.6"/>
	<rect x="98.1" y="131.1" class="st0" width="3.7" height="3.6"/>
	<rect x="79.6" y="131.1" class="st0" width="3.7" height="3.6"/>
	<rect x="79.6" y="135.9" class="st0" width="3.7" height="3.6"/>
	<rect x="74.9" y="131.1" class="st0" width="3.7" height="3.6"/>
	<rect x="74.9" y="135.9" class="st0" width="3.7" height="13.1"/>
	<rect x="70.2" y="131.1" class="st0" width="3.7" height="3.6"/>
	<rect x="70.2" y="135.9" class="st0" width="3.7" height="3.6"/>
	<rect x="51.5" y="131.1" class="st0" width="3.7" height="3.6"/>
	<rect x="51.5" y="135.9" class="st0" width="3.7" height="3.6"/>
	<rect x="56" y="131.1" class="st0" width="3.7" height="3.6"/>
	<rect x="56" y="135.9" class="st0" width="3.7" height="3.6"/>
	<rect x="60.8" y="135.9" class="st0" width="3.7" height="3.6"/>
	<rect x="60.8" y="126.3" class="st0" width="8.3" height="8.5"/>
	<rect x="107.6" y="126.3" class="st0" width="3.7" height="3.6"/>
	<rect x="103" y="126.3" class="st0" width="3.7" height="3.6"/>
	<rect x="84.2" y="126.3" class="st0" width="3.7" height="3.6"/>
	<rect x="88.8" y="126.3" class="st0" width="3.7" height="3.6"/>
	<rect x="93.5" y="126.3" class="st0" width="3.7" height="3.6"/>
	<rect x="98.1" y="126.3" class="st0" width="3.7" height="3.6"/>
	<rect x="79.6" y="126.3" class="st0" width="3.7" height="3.6"/>
	<rect x="74.9" y="126.3" class="st0" width="3.7" height="3.6"/>
	<rect x="70.2" y="126.3" class="st0" width="3.7" height="3.6"/>
	<rect x="65.5" y="135.9" class="st0" width="3.7" height="3.6"/>
	<rect x="46.8" y="131.1" class="st0" width="3.7" height="3.6"/>
	<rect x="46.8" y="135.9" class="st0" width="3.7" height="3.6"/>
	<rect x="79.4" y="140.5" class="st0" width="3.7" height="3.6"/>
	<rect x="79.4" y="145.4" class="st0" width="3.7" height="3.6"/>
	<rect x="84.2" y="140.5" class="st0" width="3.7" height="3.6"/>
	<rect x="84.2" y="145.4" class="st0" width="3.7" height="3.6"/>
	<rect x="88.8" y="140.5" class="st0" width="3.7" height="3.6"/>
	<rect x="88.9" y="145.4" class="st0" width="3.7" height="3.6"/>
	<rect x="70.2" y="140.5" class="st0" width="3.7" height="3.6"/>
	<rect x="70.2" y="145.4" class="st0" width="3.7" height="3.6"/>
	<rect x="98.2" y="149.9" class="st0" width="3.7" height="3.6"/>
	<rect x="98.2" y="154.7" class="st0" width="3.7" height="3.6"/>
	<rect x="102.8" y="149.9" class="st0" width="3.7" height="3.6"/>
	<rect x="102.9" y="154.7" class="st0" width="3.7" height="3.6"/>
	<rect x="84.2" y="149.9" class="st0" width="3.7" height="3.6"/>
	<rect x="84.2" y="154.7" class="st0" width="3.7" height="3.6"/>
	<rect x="88.7" y="159.5" class="st0" width="3.7" height="3.6"/>
	<rect x="88.7" y="164.3" class="st0" width="3.7" height="3.6"/>
	<rect x="93.3" y="159.5" class="st0" width="3.7" height="3.6"/>
	<rect x="93.3" y="164.3" class="st0" width="3.7" height="3.6"/>
	<rect x="98" y="159.5" class="st0" width="3.7" height="3.6"/>
	<rect x="98" y="164.3" class="st0" width="3.7" height="3.6"/>
	<rect x="102.6" y="159.5" class="st0" width="3.7" height="3.6"/>
	<rect x="102.8" y="164.3" class="st0" width="3.7" height="3.6"/>
	<rect x="107.5" y="159.5" class="st0" width="3.7" height="3.6"/>
	<rect x="84.1" y="159.5" class="st0" width="3.7" height="3.6"/>
	<rect x="65.3" y="140.8" class="st0" width="3.7" height="3.6"/>
	<rect x="65.5" y="145.6" class="st0" width="3.7" height="3.6"/>
	<rect x="51.5" y="140.8" class="st0" width="12.7" height="3.6"/>
	<rect x="60.5" y="145.6" class="st0" width="3.7" height="3.6"/>
	<rect x="55.5" y="149.9" class="st0" width="3.7" height="3.6"/>
	<rect x="60.5" y="149.9" class="st0" width="3.7" height="3.6"/>
	<rect x="46" y="140.8" class="st0" width="3.7" height="3.6"/>
	<rect x="46" y="145.6" class="st0" width="3.7" height="3.6"/>
	<rect x="50.8" y="145.6" class="st0" width="3.7" height="3.6"/>
	<rect x="55.5" y="145.6" class="st0" width="3.7" height="3.6"/>
	<rect x="50.8" y="149.9" class="st0" width="3.7" height="3.6"/>
	<rect x="121.7" y="140.5" class="st0" width="3.7" height="3.6"/>
	<rect x="88.9" y="150" class="st0" width="8.4" height="8.4"/>
	<rect x="131" y="140.6" class="st0" width="3.7" height="3.6"/>
	<rect x="131" y="145.3" class="st0" width="3.7" height="3.6"/>
	<rect x="140.5" y="140.5" class="st0" width="3.7" height="3.6"/>
	<rect x="140.5" y="145.4" class="st0" width="3.7" height="3.6"/>
	<rect x="135.8" y="140.5" class="st0" width="3.7" height="3.6"/>
	<rect x="135.8" y="145.4" class="st0" width="3.7" height="3.6"/>
	<rect x="140.6" y="131.5" class="st0" width="3.7" height="3.6"/>
	<rect x="140.6" y="136.2" class="st0" width="3.7" height="3.6"/>
	<rect x="150" y="131.5" class="st0" width="3.7" height="3.6"/>
	<rect x="150" y="136.3" class="st0" width="3.7" height="3.6"/>
	<rect x="145.4" y="131.5" class="st0" width="3.7" height="3.6"/>
	<rect x="145.4" y="136.3" class="st0" width="3.7" height="3.6"/>
	<rect x="145.2" y="126.8" class="st0" width="3.7" height="3.6"/>
	<rect x="145.4" y="140.6" class="st0" width="3.7" height="3.6"/>
	<rect x="135.9" y="149.9" class="st0" width="3.7" height="3.6"/>
	<rect x="131.3" y="150" class="st0" width="3.7" height="3.6"/>
	<rect x="117" y="140.6" class="st0" width="3.7" height="3.6"/>
	<rect x="116.9" y="145.4" class="st0" width="3.7" height="3.6"/>
	<rect x="131.3" y="103.1" class="st0" width="3.7" height="13"/>
	<rect x="121.8" y="117.1" class="st0" width="3.7" height="3.6"/>
	<rect x="121.8" y="112.4" class="st0" width="3.7" height="3.6"/>
	<rect x="116.9" y="117.1" class="st0" width="3.7" height="3.6"/>
	<rect x="74.2" y="121.6" class="st0" width="3.7" height="3.6"/>
	<rect x="69.8" y="116.9" class="st0" width="3.7" height="3.6"/>
	<rect x="69.6" y="121.6" class="st0" width="3.7" height="3.6"/>
	<rect x="50.8" y="121.6" class="st0" width="3.7" height="3.6"/>
	<rect x="55.4" y="121.6" class="st0" width="3.7" height="3.6"/>
	<rect x="60.1" y="121.6" class="st0" width="3.7" height="3.6"/>
	<rect x="64.7" y="121.6" class="st0" width="3.7" height="3.6"/>
	<rect x="46.2" y="121.6" class="st0" width="3.7" height="3.6"/>
	<rect x="31.3" y="133.4" class="st0" width="3.7" height="3.6"/>
	<rect x="32" y="121.6" class="st0" width="3.7" height="3.6"/>
	<rect x="112.4" y="45.8" class="st0" width="3.7" height="3.6"/>
	<rect x="112.4" y="50.5" class="st0" width="3.7" height="3.6"/>
	<rect x="112.4" y="55" class="st0" width="3.7" height="3.6"/>
	<rect x="116.9" y="45.8" class="st0" width="3.7" height="3.6"/>
	<rect x="116.9" y="50.5" class="st0" width="3.7" height="3.6"/>
	<rect x="116.9" y="55" class="st0" width="3.7" height="3.6"/>
	<rect x="121.7" y="45.8" class="st0" width="3.7" height="3.6"/>
	<rect x="121.7" y="50.5" class="st0" width="3.7" height="3.6"/>
	<rect x="121.7" y="55" class="st0" width="3.7" height="3.6"/>
	<rect x="117" y="59.9" class="st0" width="3.7" height="3.6"/>
	<rect x="117" y="64.7" class="st0" width="3.7" height="3.6"/>
	<rect x="117" y="69.5" class="st0" width="3.7" height="3.6"/>
	<rect x="121.6" y="59.9" class="st0" width="3.7" height="3.6"/>
	<rect x="121.6" y="64.7" class="st0" width="3.7" height="3.6"/>
	<rect x="121.6" y="69.5" class="st0" width="3.7" height="3.6"/>
	<rect x="112.4" y="59.9" class="st0" width="3.7" height="3.6"/>
	<rect x="112.4" y="64.7" class="st0" width="3.7" height="3.6"/>
	<rect x="121.7" y="74.4" class="st0" width="3.7" height="3.6"/>
	<rect x="98" y="45.8" class="st0" width="3.7" height="3.6"/>
	<rect x="98" y="55" class="st0" width="3.7" height="3.6"/>
	<rect x="102.6" y="45.8" class="st0" width="3.7" height="3.6"/>
	<rect x="102.6" y="50.6" class="st0" width="3.7" height="3.6"/>
	<rect x="102.6" y="55" class="st0" width="3.7" height="3.6"/>
	<rect x="107.4" y="45.8" class="st0" width="3.7" height="3.6"/>
	<rect x="107.4" y="50.6" class="st0" width="3.7" height="3.6"/>
	<rect x="107.4" y="55" class="st0" width="3.7" height="3.6"/>
	<rect x="102.7" y="59.9" class="st0" width="3.7" height="3.6"/>
	<rect x="88.8" y="55.1" class="st0" width="3.7" height="3.6"/>
	<rect x="88.8" y="59.9" class="st0" width="3.7" height="3.6"/>
	<rect x="107.3" y="59.9" class="st0" width="3.7" height="3.6"/>
	<rect x="93.3" y="55.1" class="st0" width="3.7" height="3.6"/>
	<rect x="93.3" y="59.9" class="st0" width="3.7" height="3.6"/>
	<rect x="98" y="59.9" class="st0" width="3.7" height="3.6"/>
	<rect x="84.1" y="55.1" class="st0" width="3.7" height="3.6"/>
	<rect x="84.1" y="59.9" class="st0" width="3.7" height="3.6"/>
	<rect x="50.9" y="93.1" class="st0" width="3.7" height="3.6"/>
	<rect x="50.9" y="102.3" class="st0" width="3.7" height="3.6"/>
	<rect x="55.5" y="93.1" class="st0" width="3.7" height="3.6"/>
	<rect x="60.2" y="93.1" class="st0" width="3.7" height="3.6"/>
	<rect x="60.2" y="97.9" class="st0" width="3.7" height="3.6"/>
	<rect x="60.2" y="102.3" class="st0" width="3.7" height="3.6"/>
	<rect x="55.6" y="97.9" class="st0" width="3.7" height="22.6"/>
	<rect x="60.1" y="107.3" class="st0" width="3.7" height="3.6"/>
	<rect x="60.1" y="112.1" class="st0" width="3.7" height="3.6"/>
	<rect x="60.1" y="116.9" class="st0" width="3.7" height="3.6"/>
	<rect x="64.9" y="107.3" class="st0" width="3.7" height="3.6"/>
	<rect x="64.9" y="112.1" class="st0" width="3.7" height="3.6"/>
	<rect x="64.9" y="116.9" class="st0" width="3.7" height="3.6"/>
	<rect x="50.9" y="107.3" class="st0" width="3.7" height="3.6"/>
	<rect x="50.9" y="112.1" class="st0" width="3.7" height="3.6"/>
	<rect x="50.9" y="116.9" class="st0" width="3.7" height="3.6"/>
	<rect x="49.1" y="62.8" class="st0" width="3.7" height="3.6"/>
	<rect x="50.3" y="68.9" class="st0" width="3.7" height="3.6"/>
	<rect x="51" y="73.9" class="st0" width="3.7" height="3.6"/>
	<rect x="55.7" y="65" class="st0" width="3.7" height="3.6"/>
	<rect x="55.6" y="73.9" class="st0" width="3.7" height="3.6"/>
	<rect x="60.3" y="64.7" class="st0" width="3.7" height="3.6"/>
	<rect x="60.3" y="69.4" class="st0" width="3.7" height="3.6"/>
	<rect x="60.3" y="73.9" class="st0" width="3.7" height="3.6"/>
	<rect x="55.7" y="78.8" class="st0" width="3.7" height="3.6"/>
	<rect x="55.7" y="83.6" class="st0" width="3.7" height="3.6"/>
	<rect x="55.7" y="88.4" class="st0" width="3.7" height="3.6"/>
	<rect x="60.2" y="78.8" class="st0" width="3.7" height="3.6"/>
	<rect x="60.2" y="83.6" class="st0" width="3.7" height="3.6"/>
	<rect x="60.2" y="88.4" class="st0" width="3.7" height="3.6"/>
	<rect x="51" y="78.8" class="st0" width="3.7" height="3.6"/>
	<rect x="51" y="83.6" class="st0" width="3.7" height="3.6"/>
	<rect x="51" y="88.4" class="st0" width="3.7" height="3.6"/>
	<rect x="65.1" y="79.2" class="st0" width="3.7" height="3.6"/>
	<rect x="69.9" y="64.8" class="st0" width="3.7" height="3.6"/>
	<rect x="69.9" y="69.6" class="st0" width="3.7" height="3.6"/>
	<rect x="69.9" y="74.4" class="st0" width="3.7" height="3.6"/>
	<rect x="74.4" y="64.8" class="st0" width="3.7" height="3.6"/>
	<rect x="74.4" y="69.6" class="st0" width="3.7" height="3.6"/>
	<rect x="65.2" y="64.8" class="st0" width="3.7" height="3.6"/>
	<rect x="65.2" y="69.6" class="st0" width="3.7" height="3.6"/>
	<rect x="65.2" y="74.4" class="st0" width="3.7" height="3.6"/>
	<rect x="41.5" y="93.1" class="st0" width="3.7" height="3.6"/>
	<rect x="41.5" y="97.6" class="st0" width="3.7" height="3.6"/>
	<rect x="46.2" y="93.1" class="st0" width="3.7" height="3.6"/>
	<rect x="46.2" y="97.6" class="st0" width="3.7" height="3.6"/>
	<rect x="41.6" y="102.5" class="st0" width="3.7" height="3.6"/>
	<rect x="41.6" y="107.3" class="st0" width="3.7" height="3.6"/>
	<rect x="46.1" y="102.5" class="st0" width="3.7" height="3.6"/>
	<rect x="46.1" y="107.3" class="st0" width="3.7" height="3.6"/>
	<rect x="93.3" y="40.9" class="st0" width="3.7" height="3.6"/>
	<rect x="93.3" y="45.9" class="st0" width="3.7" height="3.6"/>
	<rect x="93.3" y="50.7" class="st0" width="3.7" height="3.6"/>
	<rect x="79.2" y="55.1" class="st0" width="3.7" height="3.6"/>
	<rect x="79.2" y="60" class="st0" width="3.7" height="3.6"/>
	<rect x="79.2" y="64.8" class="st0" width="3.7" height="3.6"/>
	<rect x="74.5" y="50.7" class="st0" width="3.7" height="3.6"/>
	<rect x="79.2" y="50.7" class="st0" width="3.7" height="3.6"/>
	<rect x="84.1" y="50.7" class="st0" width="3.7" height="3.6"/>
	<rect x="88.8" y="50.7" class="st0" width="3.7" height="3.6"/>
	<rect x="88.8" y="46" class="st0" width="3.7" height="3.6"/>
	<rect x="74.5" y="55.2" class="st0" width="3.7" height="3.6"/>
	<rect x="74.5" y="60" class="st0" width="3.7" height="3.6"/>
	<rect x="98" y="40.9" class="st0" width="13" height="3.6"/>
	<rect x="112.4" y="41" class="st0" width="3.7" height="3.6"/>
	<rect x="107" y="36.7" class="st0" width="3.7" height="3.6"/>
	<rect x="102.7" y="36.7" class="st0" width="3.7" height="3.6"/>
	<rect x="102.1" y="31.2" class="st0" width="3.7" height="3.6"/>
	<rect x="97.5" y="36.1" class="st0" width="3.7" height="3.6"/>
	<rect x="91.5" y="85.4" class="st0" width="3.7" height="3.6"/>
	<rect x="69.6" y="112.1" class="st0" width="3.7" height="3.6"/>
	<rect x="50.9" y="126.3" class="st0" width="3.7" height="3.6"/>
	<rect x="44.3" y="126.3" class="st0" width="3.7" height="3.6"/>
	<rect x="46" y="112.1" class="st0" width="3.7" height="3.6"/>
	<rect x="42.7" y="116.9" class="st0" width="3.7" height="3.6"/>
	<rect x="41.1" y="135.2" class="st0" width="3.7" height="3.6"/>
	<rect x="38.7" y="143.6" class="st0" width="3.7" height="3.6"/>
	<rect x="26.4" y="142.6" class="st0" width="3.7" height="3.6"/>
	<rect x="24.4" y="124.3" class="st0" width="3.7" height="3.6"/>
	<rect x="16.1" y="121" class="st0" width="3.7" height="3.6"/>
	<rect x="31.3" y="110.7" class="st0" width="3.7" height="3.6"/>
	<rect x="37" y="112.3" class="st0" width="3.7" height="3.6"/>
	<rect x="36.3" y="107.1" class="st0" width="3.7" height="3.6"/>
	<rect x="19" y="110.4" class="st0" width="3.7" height="3.6"/>
	<rect x="18.4" y="100.7" class="st0" width="3.7" height="3.6"/>
	<rect x="23.8" y="95" class="st0" width="3.7" height="3.6"/>
	<rect x="29.7" y="96.1" class="st0" width="3.7" height="3.6"/>
	<rect x="31.1" y="102" class="st0" width="3.7" height="3.6"/>
	<rect x="35.9" y="97.3" class="st0" width="3.7" height="3.6"/>
	<rect x="36.5" y="102.8" class="st0" width="3.7" height="3.6"/>
	<rect x="34.1" y="90.8" class="st0" width="3.7" height="3.6"/>
	<rect x="40.7" y="87.8" class="st0" width="3.7" height="3.6"/>
	<rect x="46.1" y="88.6" class="st0" width="3.7" height="3.6"/>
	<rect x="45.4" y="83.1" class="st0" width="3.7" height="3.6"/>
	<rect x="43.2" y="77.3" class="st0" width="3.7" height="3.6"/>
	<rect x="39.4" y="82.5" class="st0" width="3.7" height="3.6"/>
	<rect x="34.1" y="82" class="st0" width="3.7" height="3.6"/>
	<rect x="27.5" y="80.6" class="st0" width="3.7" height="3.6"/>
	<rect x="22.2" y="84.9" class="st0" width="3.7" height="3.6"/>
	<rect x="5" y="97.9" class="st0" width="3.7" height="3.6"/>
	<rect y="84.9" class="st0" width="3.7" height="3.6"/>
	<rect x="4.9" y="75.8" class="st0" width="3.7" height="3.6"/>
	<rect x="21.8" y="74.8" class="st0" width="3.7" height="3.6"/>
	<rect x="27.1" y="72.7" class="st0" width="3.7" height="3.6"/>
	<rect x="26.7" y="63.2" class="st0" width="3.7" height="3.6"/>
	<rect x="9.7" y="66.3" class="st0" width="3.7" height="3.6"/>
	<rect x="0.2" y="66.3" class="st0" width="3.7" height="3.6"/>
	<rect x="35.9" y="64.3" class="st0" width="3.7" height="3.6"/>
	<rect x="45.4" y="69.1" class="st0" width="3.7" height="3.6"/>
	<rect x="28.6" y="52.6" class="st0" width="3.7" height="3.6"/>
	<rect x="33.9" y="44.4" class="st0" width="3.7" height="3.6"/>
	<rect x="11.6" y="50.3" class="st0" width="3.7" height="3.6"/>
	<rect x="18.9" y="56.9" class="st0" width="3.7" height="3.6"/>
	<rect x="23.7" y="38" class="st0" width="3.7" height="3.6"/>
	<rect x="9.6" y="38" class="st0" width="3.7" height="3.6"/>
	<rect x="48" class="st0" width="3.7" height="3.6"/>
	<rect x="45.7" y="8.1" class="st0" width="3.7" height="3.6"/>
	<rect x="43" y="19.4" class="st0" width="3.7" height="3.6"/>
	<rect x="38.8" y="27.4" class="st0" width="3.7" height="3.6"/>
	<rect x="29.7" y="8.1" class="st0" width="3.7" height="3.6"/>
	<rect x="15.8" y="1.8" class="st0" width="3.7" height="3.6"/>
	<rect x="23.9" y="23.7" class="st0" width="3.7" height="3.6"/>
	<rect x="9.7" y="13.6" class="st0" width="3.7" height="3.6"/>
	<rect x="40.6" y="38.5" class="st0" width="3.7" height="3.6"/>
	<rect x="52.6" y="38" class="st0" width="3.7" height="3.6"/>
	<rect x="66" y="43.7" class="st0" width="3.7" height="3.6"/>
	<rect x="72.3" y="42.8" class="st0" width="3.7" height="3.6"/>
	<rect x="59.5" y="47.7" class="st0" width="3.7" height="3.6"/>
	<rect x="50" y="43.7" class="st0" width="3.7" height="3.6"/>
	<rect x="53.9" y="49.5" class="st0" width="3.7" height="3.6"/>
	<rect x="43.6" y="48.9" class="st0" width="3.7" height="3.6"/>
	<rect x="46.5" y="55.4" class="st0" width="3.7" height="3.6"/>
	<rect x="52" y="54.4" class="st0" width="3.7" height="3.6"/>
	<rect x="80.7" y="39.6" class="st0" width="3.7" height="3.6"/>
	<rect x="88.3" y="40.3" class="st0" width="3.7" height="3.6"/>
	<rect x="86.9" y="34.3" class="st0" width="3.7" height="3.6"/>
	<rect x="87.3" y="28.2" class="st0" width="3.7" height="3.6"/>
	<rect x="85.1" y="21.3" class="st0" width="3.7" height="3.6"/>
	<rect x="77.4" y="31.9" class="st0" width="3.7" height="3.6"/>
	<rect x="72.6" y="19.4" class="st0" width="3.7" height="3.6"/>
	<rect x="64.8" y="10.8" class="st0" width="3.7" height="3.6"/>
	<rect x="62.2" y="22.3" class="st0" width="3.7" height="3.6"/>
	<rect x="71.7" y="36.1" class="st0" width="3.7" height="3.6"/>
	<rect x="59.5" y="27.2" class="st0" width="3.7" height="3.6"/>
	<rect x="50.2" y="29.8" class="st0" width="3.7" height="3.6"/>
	<rect x="62.2" y="38.5" class="st0" width="3.7" height="3.6"/>
	<rect x="95.2" y="30" class="st0" width="3.7" height="3.6"/>
	<rect x="92.5" y="15.4" class="st0" width="3.7" height="3.6"/>
	<rect x="103.6" y="23.1" class="st0" width="3.7" height="3.6"/>
	<rect x="69.9" y="49.5" class="st0" width="3.7" height="3.6"/>
	<rect x="69.7" y="55.4" class="st0" width="3.7" height="3.6"/>
	<rect x="64.5" y="50.3" class="st0" width="3.7" height="3.6"/>
	<rect x="64.6" y="55.8" class="st0" width="3.7" height="3.6"/>
	<rect x="65.1" y="59.9" class="st0" width="3.7" height="3.6"/>
	<rect x="59.9" y="55.4" class="st0" width="3.7" height="3.6"/>
	<rect x="60.3" y="60" class="st0" width="3.7" height="3.6"/>
	<rect x="55.7" y="59.7" class="st0" width="3.7" height="3.6"/>
	<rect x="83.7" y="45.5" class="st0" width="3.7" height="3.6"/>
	<rect x="78" y="46" class="st0" width="3.7" height="3.6"/>
</g>
</svg>
