<?xml version="1.0" encoding="utf-8"?>
<!-- Generator: Adobe Illustrator 21.0.2, SVG Export Plug-In . SVG Version: 6.00 Build 0)  -->
<svg version="1.1" id="_x33__розділ" xmlns="http://www.w3.org/2000/svg" xmlns:xlink="http://www.w3.org/1999/xlink" x="0px"
	 y="0px" viewBox="0 0 188.2 157.6" style="enable-background:new 0 0 188.2 157.6;" xml:space="preserve">
<style type="text/css">
	.st0{fill:#FF814D;stroke:#101633;stroke-width:0.5;stroke-miterlimit:10;}
</style>
<g>
	<rect x="141.2" class="st0" width="3" height="3"/>
	<rect x="145.1" class="st0" width="3" height="3"/>
	<rect x="137.1" class="st0" width="3" height="3"/>
	<rect x="133.2" class="st0" width="3" height="3"/>
	<rect x="129.3" class="st0" width="3" height="3"/>
	<rect x="141.2" y="3.9" class="st0" width="3" height="10.8"/>
	<rect x="145.1" y="3.9" class="st0" width="3" height="3"/>
	<rect x="137.1" y="3.9" class="st0" width="3" height="3"/>
	<rect x="133.2" y="3.9" class="st0" width="3" height="3"/>
	<rect x="129.3" y="3.9" class="st0" width="3" height="3"/>
	<rect x="145.1" y="7.8" class="st0" width="3" height="3"/>
	<rect x="137.1" y="7.8" class="st0" width="3" height="3"/>
	<rect x="121.3" y="3.9" class="st0" width="3" height="3"/>
	<rect x="125.2" y="3.9" class="st0" width="3" height="3"/>
	<rect x="117.2" y="3.9" class="st0" width="3" height="3"/>
	<rect x="113.2" y="3.9" class="st0" width="3" height="3"/>
	<rect x="109.3" y="3.9" class="st0" width="3" height="3"/>
	<rect x="121.3" y="7.8" class="st0" width="3" height="3"/>
	<rect x="125.2" y="7.8" class="st0" width="3" height="3"/>
	<rect x="117.2" y="7.8" class="st0" width="3" height="3"/>
	<rect x="113.2" y="7.8" class="st0" width="3" height="3"/>
	<rect x="109.3" y="7.8" class="st0" width="3" height="3"/>
	<rect x="101.5" y="3.9" class="st0" width="3" height="3"/>
	<rect x="105.5" y="3.9" class="st0" width="3" height="3"/>
	<rect x="97.4" y="3.9" class="st0" width="3" height="3"/>
	<rect x="93.5" y="3.9" class="st0" width="3" height="3"/>
	<rect x="89.6" y="3.9" class="st0" width="3" height="3"/>
	<rect x="101.5" y="7.8" class="st0" width="3" height="3"/>
	<rect x="105.5" y="7.8" class="st0" width="3" height="3"/>
	<rect x="97.4" y="7.8" class="st0" width="3" height="3"/>
	<rect x="81.7" y="3.9" class="st0" width="3" height="3"/>
	<rect x="85.6" y="3.9" class="st0" width="3" height="3"/>
	<rect x="77.6" y="3.9" class="st0" width="3" height="3"/>
	<rect x="73.6" y="3.9" class="st0" width="3" height="3"/>
	<rect x="69.7" y="3.9" class="st0" width="3" height="3"/>
	<rect x="77.6" y="7.8" class="st0" width="3" height="3"/>
	<rect x="73.6" y="7.8" class="st0" width="3" height="3"/>
	<rect x="69.7" y="7.8" class="st0" width="3" height="3"/>
	<rect x="62" y="3.9" class="st0" width="3" height="3"/>
	<rect x="65.9" y="3.9" class="st0" width="3" height="3"/>
	<rect x="57.8" y="3.9" class="st0" width="3" height="3"/>
	<rect x="53.9" y="3.9" class="st0" width="3" height="3"/>
	<rect x="50" y="3.9" class="st0" width="3" height="3"/>
	<rect x="62" y="7.8" class="st0" width="3" height="3"/>
	<rect x="65.9" y="7.8" class="st0" width="3" height="3"/>
	<rect x="57.8" y="7.8" class="st0" width="3" height="3"/>
	<rect x="53.9" y="7.8" class="st0" width="3" height="3"/>
	<rect x="50" y="7.8" class="st0" width="3" height="3"/>
	<rect x="46" y="3.9" class="st0" width="3" height="3"/>
	<rect x="62" class="st0" width="3" height="3"/>
	<rect x="57.8" class="st0" width="3" height="3"/>
	<rect x="53.9" class="st0" width="3" height="3"/>
	<rect x="50" class="st0" width="3" height="3"/>
	<rect x="46" class="st0" width="3" height="3"/>
	<rect x="46" y="7.8" class="st0" width="3" height="3"/>
	<rect x="62" y="15.9" class="st0" width="3" height="3"/>
	<rect x="65.9" y="15.9" class="st0" width="3" height="3"/>
	<rect x="57.8" y="15.9" class="st0" width="3" height="3"/>
	<rect x="53.9" y="15.9" class="st0" width="3" height="3"/>
	<rect x="50" y="15.9" class="st0" width="3" height="3"/>
	<rect x="58" y="19.8" class="st0" width="7" height="6.9"/>
	<rect x="53.9" y="19.8" class="st0" width="3" height="3"/>
	<rect x="50" y="19.8" class="st0" width="3" height="3"/>
	<rect x="68.3" y="49.6" class="st0" width="3" height="3"/>
	<rect x="62" y="12" class="st0" width="3" height="3"/>
	<rect x="57.8" y="12" class="st0" width="3" height="3"/>
	<rect x="53.9" y="12" class="st0" width="3" height="3"/>
	<rect x="50" y="12" class="st0" width="3" height="3"/>
	<rect x="46" y="12" class="st0" width="3" height="3"/>
	<rect x="60.9" y="44.4" class="st0" width="3" height="3"/>
	<rect x="137.1" y="11.7" class="st0" width="3" height="3"/>
	<rect x="141.2" y="15.8" class="st0" width="3" height="3"/>
	<rect x="137.1" y="15.8" class="st0" width="3" height="3"/>
	<rect x="133.2" y="15.8" class="st0" width="3" height="3"/>
	<rect x="129.3" y="15.8" class="st0" width="3" height="3"/>
	<rect x="125.2" y="15.8" class="st0" width="3" height="3"/>
	<rect x="141.2" y="19.8" class="st0" width="3" height="3"/>
	<rect x="137.1" y="19.8" class="st0" width="3" height="3"/>
	<rect x="133.2" y="19.8" class="st0" width="3" height="3"/>
	<rect x="129.3" y="19.8" class="st0" width="3" height="3"/>
	<rect x="141.2" y="23.7" class="st0" width="3" height="3"/>
	<rect x="137.1" y="23.7" class="st0" width="3" height="3"/>
	<rect x="133.2" y="23.7" class="st0" width="3" height="3"/>
	<rect x="129.3" y="23.7" class="st0" width="3" height="3"/>
	<rect x="162.6" y="27" class="st0" width="3" height="3"/>
	<rect x="137.1" y="27.6" class="st0" width="3" height="3"/>
	<rect x="133.2" y="27.6" class="st0" width="3" height="3"/>
	<rect x="129.3" y="27.6" class="st0" width="3" height="3"/>
	<rect x="53.8" y="71" class="st0" width="3" height="3"/>
	<rect x="49.9" y="67.2" class="st0" width="3" height="3"/>
	<rect x="133.2" y="31.5" class="st0" width="3" height="3"/>
	<rect x="129.3" y="31.5" class="st0" width="3" height="3"/>
	<rect x="125.2" y="19.8" class="st0" width="3" height="3"/>
	<rect x="125.2" y="23.7" class="st0" width="3" height="3"/>
	<rect x="125.2" y="27.6" class="st0" width="3" height="3"/>
	<rect x="125.2" y="31.5" class="st0" width="3" height="3"/>
	<rect x="125.2" y="35.6" class="st0" width="3" height="3"/>
	<rect x="121.3" y="23.7" class="st0" width="3" height="14.9"/>
	<rect x="117.3" y="27.6" class="st0" width="3" height="3"/>
	<rect x="128.6" y="43.6" class="st0" width="3" height="3"/>
	<rect x="117.3" y="31.5" class="st0" width="3" height="3"/>
	<rect x="113.4" y="31.5" class="st0" width="3" height="3"/>
	<rect x="117.3" y="35.4" class="st0" width="3" height="3"/>
	<rect x="109.5" y="31.5" class="st0" width="3" height="3"/>
	<rect x="105.6" y="31.5" class="st0" width="3" height="3"/>
	<rect x="109.5" y="35.4" class="st0" width="3" height="3"/>
	<rect x="105.6" y="35.4" class="st0" width="3" height="3"/>
	<rect x="109.5" y="39.5" class="st0" width="3" height="3"/>
	<rect x="105.6" y="39.5" class="st0" width="3" height="3"/>
	<rect x="101.6" y="31.5" class="st0" width="3" height="3"/>
	<rect x="101.6" y="35.4" class="st0" width="3" height="3"/>
	<rect x="101.6" y="39.3" class="st0" width="3" height="3"/>
	<rect x="109.5" y="43.6" class="st0" width="3" height="3"/>
	<rect x="105.6" y="43.6" class="st0" width="3" height="3"/>
	<rect x="101.6" y="43.6" class="st0" width="3" height="3"/>
	<rect x="101.6" y="47.6" class="st0" width="3" height="3"/>
	<rect x="97.5" y="35.4" class="st0" width="3" height="3"/>
	<rect x="97.5" y="39.3" class="st0" width="3" height="3"/>
	<rect x="97.5" y="47.6" class="st0" width="3" height="3"/>
	<rect x="93.5" y="35.4" class="st0" width="3" height="3"/>
	<rect x="93.5" y="39.3" class="st0" width="3" height="3"/>
	<rect x="93.5" y="43.6" class="st0" width="3" height="3"/>
	<rect x="93.5" y="47.6" class="st0" width="3" height="3"/>
	<rect x="89.4" y="39.3" class="st0" width="3" height="3"/>
	<rect x="89.4" y="43.6" class="st0" width="3" height="3"/>
	<rect x="89.4" y="47.6" class="st0" width="3" height="3"/>
	<rect x="121.6" y="39.4" class="st0" width="3" height="3"/>
	<rect x="117.7" y="39.4" class="st0" width="3" height="3"/>
	<rect x="113.7" y="39.4" class="st0" width="3" height="3"/>
	<rect x="113.7" y="43.5" class="st0" width="3" height="3"/>
	<rect x="113.4" y="35.4" class="st0" width="3" height="3"/>
	<rect x="52.8" y="82.4" class="st0" width="3" height="3"/>
	<rect x="154.9" y="40.1" class="st0" width="3" height="3"/>
	<rect x="145.1" y="11.7" class="st0" width="3" height="3"/>
	<rect x="129.3" y="35.6" class="st0" width="3" height="3"/>
	<rect x="81.8" y="23.7" class="st0" width="3" height="3"/>
	<rect x="77.7" y="23.7" class="st0" width="3" height="3"/>
	<rect x="73.8" y="23.7" class="st0" width="3" height="3"/>
	<rect x="69.9" y="23.7" class="st0" width="3" height="3"/>
	<rect x="81.8" y="27.6" class="st0" width="3" height="3"/>
	<rect x="77.7" y="27.6" class="st0" width="3" height="3"/>
	<rect x="73.8" y="27.6" class="st0" width="3" height="3"/>
	<rect x="69.9" y="27.6" class="st0" width="3" height="3"/>
	<rect x="65.9" y="23.7" class="st0" width="3" height="3"/>
	<rect x="81.8" y="19.8" class="st0" width="3" height="3"/>
	<rect x="77.7" y="19.8" class="st0" width="3" height="3"/>
	<rect x="73.8" y="19.8" class="st0" width="3" height="3"/>
	<rect x="69.9" y="19.8" class="st0" width="3" height="3"/>
	<rect x="65.9" y="19.8" class="st0" width="3" height="3"/>
	<rect x="101.8" y="23.7" class="st0" width="3" height="3"/>
	<rect x="97.6" y="23.7" class="st0" width="3" height="3"/>
	<rect x="93.7" y="23.7" class="st0" width="3" height="3"/>
	<rect x="89.8" y="23.7" class="st0" width="3" height="3"/>
	<rect x="85.8" y="23.7" class="st0" width="3" height="3"/>
	<rect x="101.8" y="19.8" class="st0" width="3" height="3"/>
	<rect x="97.6" y="19.8" class="st0" width="3" height="3"/>
	<rect x="93.7" y="19.8" class="st0" width="3" height="3"/>
	<rect x="89.8" y="19.8" class="st0" width="3" height="3"/>
	<rect x="85.8" y="19.8" class="st0" width="3" height="3"/>
	<rect x="65.9" y="27.6" class="st0" width="3" height="3"/>
	<rect x="77.7" y="35.4" class="st0" width="3" height="3"/>
	<rect x="73.8" y="35.4" class="st0" width="3" height="3"/>
	<rect x="69.9" y="35.4" class="st0" width="3" height="3"/>
	<rect x="61.9" y="51.6" class="st0" width="3" height="3"/>
	<rect x="64.9" y="54.9" class="st0" width="3" height="3"/>
	<rect x="73.8" y="39.3" class="st0" width="3" height="3"/>
	<rect x="81.7" y="31.5" class="st0" width="3" height="3"/>
	<rect x="65.9" y="35.4" class="st0" width="3" height="3"/>
	<rect x="77.7" y="31.5" class="st0" width="3" height="3"/>
	<rect x="73.8" y="31.5" class="st0" width="3" height="3"/>
	<rect x="69.9" y="31.5" class="st0" width="3" height="3"/>
	<rect x="65.9" y="31.5" class="st0" width="3" height="3"/>
	<rect x="61.9" y="35.6" class="st0" width="3" height="3"/>
	<rect x="61.9" y="27.6" class="st0" width="3" height="3"/>
	<rect x="57.7" y="27.6" class="st0" width="3" height="3"/>
	<rect x="53.8" y="27.6" class="st0" width="3" height="3"/>
	<rect x="32.8" y="25.5" class="st0" width="3" height="3"/>
	<rect x="61.9" y="31.5" class="st0" width="3" height="3"/>
	<rect x="57.7" y="31.5" class="st0" width="3" height="3"/>
	<rect x="54.3" y="37.1" class="st0" width="3" height="3"/>
	<rect x="47.4" y="45.2" class="st0" width="3" height="3"/>
	<rect x="30" y="37.1" class="st0" width="3" height="3"/>
	<rect x="53.8" y="23.7" class="st0" width="3" height="3"/>
	<rect x="49.9" y="23.7" class="st0" width="3" height="3"/>
	<rect x="35.8" y="47.3" class="st0" width="3" height="3"/>
	<rect x="45.6" y="34.1" class="st0" width="3" height="3"/>
	<rect x="47.1" y="95.2" class="st0" width="3" height="3"/>
	<rect x="57.8" y="83" class="st0" width="3" height="3"/>
	<rect x="145.9" y="36.5" class="st0" width="3" height="3"/>
	<rect x="109.8" y="23.7" class="st0" width="3" height="3"/>
	<rect x="105.8" y="23.7" class="st0" width="3" height="3"/>
	<rect x="152.7" y="16.8" class="st0" width="3" height="3"/>
	<rect x="135.3" y="38.6" class="st0" width="3" height="3"/>
	<rect x="113.7" y="19.8" class="st0" width="3" height="3"/>
	<rect x="109.8" y="19.8" class="st0" width="3" height="3"/>
	<rect x="105.8" y="19.8" class="st0" width="3" height="3"/>
	<rect x="85.7" y="39.3" class="st0" width="3" height="3"/>
	<rect x="85.7" y="43.2" class="st0" width="3" height="3"/>
	<rect x="85.7" y="47.5" class="st0" width="3" height="3"/>
	<rect x="85.7" y="51.5" class="st0" width="3" height="3"/>
	<rect x="81.6" y="39.3" class="st0" width="3" height="3"/>
	<rect x="81.6" y="43.2" class="st0" width="3" height="3"/>
	<rect x="81.6" y="47.5" class="st0" width="3" height="3"/>
	<rect x="81.6" y="51.5" class="st0" width="3" height="3"/>
	<rect x="77.7" y="43.2" class="st0" width="3" height="3"/>
	<rect x="77.7" y="51.4" class="st0" width="3" height="3"/>
	<rect x="77.7" y="55.4" class="st0" width="3" height="3"/>
	<rect x="73.6" y="43.2" class="st0" width="3" height="3"/>
	<rect x="73.6" y="47.1" class="st0" width="3" height="3"/>
	<rect x="73.6" y="51.4" class="st0" width="3" height="3"/>
	<rect x="73.6" y="55.4" class="st0" width="3" height="3"/>
	<rect x="129.3" y="7.8" class="st0" width="6.9" height="6.9"/>
	<rect x="81.7" y="7.8" class="st0" width="18.8" height="3"/>
	<rect x="49.9" y="154.6" class="st0" width="3" height="3"/>
	<rect x="46" y="154.6" class="st0" width="3" height="3"/>
	<rect x="54.1" y="154.6" class="st0" width="3" height="3"/>
	<rect x="58" y="154.6" class="st0" width="3" height="3"/>
	<rect x="61.9" y="154.6" class="st0" width="3" height="3"/>
	<rect x="49.9" y="142.8" class="st0" width="3" height="10.8"/>
	<rect x="46" y="150.7" class="st0" width="3" height="3"/>
	<rect x="54.1" y="150.7" class="st0" width="3" height="3"/>
	<rect x="58" y="150.7" class="st0" width="3" height="3"/>
	<rect x="61.9" y="150.7" class="st0" width="3" height="3"/>
	<rect x="46" y="146.8" class="st0" width="3" height="3"/>
	<rect x="54.1" y="146.8" class="st0" width="3" height="3"/>
	<rect x="69.9" y="150.7" class="st0" width="3" height="3"/>
	<rect x="66" y="150.7" class="st0" width="3" height="3"/>
	<rect x="74" y="150.7" class="st0" width="3" height="3"/>
	<rect x="77.9" y="150.7" class="st0" width="3" height="3"/>
	<rect x="81.8" y="150.7" class="st0" width="3" height="3"/>
	<rect x="69.9" y="146.8" class="st0" width="3" height="3"/>
	<rect x="66" y="146.8" class="st0" width="3" height="3"/>
	<rect x="74" y="146.8" class="st0" width="3" height="3"/>
	<rect x="77.9" y="146.8" class="st0" width="3" height="3"/>
	<rect x="81.8" y="146.8" class="st0" width="3" height="3"/>
	<rect x="89.6" y="150.7" class="st0" width="3" height="3"/>
	<rect x="85.7" y="150.7" class="st0" width="3" height="3"/>
	<rect x="93.7" y="150.7" class="st0" width="3" height="3"/>
	<rect x="97.7" y="150.7" class="st0" width="3" height="3"/>
	<rect x="101.6" y="150.7" class="st0" width="3" height="3"/>
	<rect x="89.6" y="146.8" class="st0" width="3" height="3"/>
	<rect x="85.7" y="146.8" class="st0" width="3" height="3"/>
	<rect x="93.7" y="146.8" class="st0" width="3" height="3"/>
	<rect x="109.4" y="150.7" class="st0" width="3" height="3"/>
	<rect x="105.5" y="150.7" class="st0" width="3" height="3"/>
	<rect x="113.6" y="150.7" class="st0" width="3" height="3"/>
	<rect x="117.5" y="150.7" class="st0" width="3" height="3"/>
	<rect x="121.4" y="150.7" class="st0" width="3" height="3"/>
	<rect x="113.6" y="146.8" class="st0" width="3" height="3"/>
	<rect x="117.5" y="146.8" class="st0" width="3" height="3"/>
	<rect x="121.4" y="146.8" class="st0" width="3" height="3"/>
	<rect x="129.2" y="150.7" class="st0" width="3" height="3"/>
	<rect x="125.3" y="150.7" class="st0" width="3" height="3"/>
	<rect x="133.3" y="150.7" class="st0" width="3" height="3"/>
	<rect x="137.3" y="150.7" class="st0" width="3" height="3"/>
	<rect x="141.2" y="150.7" class="st0" width="3" height="3"/>
	<rect x="129.2" y="146.8" class="st0" width="3" height="3"/>
	<rect x="125.3" y="146.8" class="st0" width="3" height="3"/>
	<rect x="133.3" y="146.8" class="st0" width="3" height="3"/>
	<rect x="137.3" y="146.8" class="st0" width="3" height="3"/>
	<rect x="141.2" y="146.8" class="st0" width="3" height="3"/>
	<rect x="145.1" y="150.7" class="st0" width="3" height="3"/>
	<rect x="129.2" y="154.6" class="st0" width="3" height="3"/>
	<rect x="133.3" y="154.6" class="st0" width="3" height="3"/>
	<rect x="137.3" y="154.6" class="st0" width="3" height="3"/>
	<rect x="141.2" y="154.6" class="st0" width="3" height="3"/>
	<rect x="145.1" y="154.6" class="st0" width="3" height="3"/>
	<rect x="145.1" y="146.8" class="st0" width="3" height="3"/>
	<rect x="129.2" y="138.7" class="st0" width="3" height="3"/>
	<rect x="125.3" y="138.7" class="st0" width="3" height="3"/>
	<rect x="133.3" y="138.7" class="st0" width="3" height="3"/>
	<rect x="137.3" y="138.7" class="st0" width="3" height="3"/>
	<rect x="141.2" y="138.7" class="st0" width="3" height="3"/>
	<rect x="129.2" y="130.9" class="st0" width="7" height="6.9"/>
	<rect x="137.3" y="134.8" class="st0" width="3" height="3"/>
	<rect x="141.2" y="134.8" class="st0" width="3" height="3"/>
	<rect x="121.3" y="103.1" class="st0" width="3" height="3"/>
	<rect x="129.2" y="142.6" class="st0" width="3" height="3"/>
	<rect x="133.3" y="142.6" class="st0" width="3" height="3"/>
	<rect x="137.3" y="142.6" class="st0" width="3" height="3"/>
	<rect x="141.2" y="142.6" class="st0" width="3" height="3"/>
	<rect x="145.1" y="142.6" class="st0" width="3" height="3"/>
	<rect x="134.8" y="111.4" class="st0" width="3" height="3"/>
	<rect x="54.1" y="142.8" class="st0" width="3" height="3"/>
	<rect x="49.9" y="138.7" class="st0" width="3" height="3"/>
	<rect x="54.1" y="138.7" class="st0" width="3" height="3"/>
	<rect x="58" y="138.7" class="st0" width="3" height="3"/>
	<rect x="61.9" y="138.7" class="st0" width="3" height="3"/>
	<rect x="66" y="138.7" class="st0" width="3" height="3"/>
	<rect x="49.9" y="134.8" class="st0" width="3" height="3"/>
	<rect x="54.1" y="134.8" class="st0" width="3" height="3"/>
	<rect x="58" y="134.8" class="st0" width="3" height="3"/>
	<rect x="61.9" y="134.8" class="st0" width="3" height="3"/>
	<rect x="49.9" y="130.9" class="st0" width="3" height="3"/>
	<rect x="54.1" y="130.9" class="st0" width="3" height="3"/>
	<rect x="58" y="130.9" class="st0" width="3" height="3"/>
	<rect x="61.9" y="130.9" class="st0" width="3" height="3"/>
	<rect x="54.1" y="127" class="st0" width="3" height="3"/>
	<rect x="58" y="127" class="st0" width="3" height="3"/>
	<rect x="61.9" y="127" class="st0" width="3" height="3"/>
	<rect x="58" y="123.1" class="st0" width="3" height="3"/>
	<rect x="61.9" y="123.1" class="st0" width="3" height="3"/>
	<rect x="66" y="134.8" class="st0" width="3" height="3"/>
	<rect x="66" y="130.9" class="st0" width="3" height="3"/>
	<rect x="66" y="127" class="st0" width="3" height="3"/>
	<rect x="66" y="123.1" class="st0" width="3" height="3"/>
	<rect x="66" y="119" class="st0" width="3" height="3"/>
	<rect x="69.9" y="119" class="st0" width="3" height="14.9"/>
	<rect x="73.9" y="127" class="st0" width="3" height="3"/>
	<rect x="59.2" y="110.9" class="st0" width="3" height="3"/>
	<rect x="73.9" y="123.1" class="st0" width="3" height="3"/>
	<rect x="77.8" y="123.1" class="st0" width="3" height="3"/>
	<rect x="73.9" y="119.2" class="st0" width="3" height="3"/>
	<rect x="81.7" y="123.1" class="st0" width="3" height="3"/>
	<rect x="85.6" y="123.1" class="st0" width="3" height="3"/>
	<rect x="81.7" y="119.2" class="st0" width="3" height="3"/>
	<rect x="85.6" y="119.2" class="st0" width="3" height="3"/>
	<rect x="81.7" y="115.1" class="st0" width="3" height="3"/>
	<rect x="85.6" y="115.1" class="st0" width="3" height="3"/>
	<rect x="89.6" y="123.1" class="st0" width="3" height="3"/>
	<rect x="89.6" y="119.2" class="st0" width="3" height="3"/>
	<rect x="89.6" y="115.3" class="st0" width="3" height="3"/>
	<rect x="81.7" y="110.9" class="st0" width="3" height="3"/>
	<rect x="85.6" y="110.9" class="st0" width="3" height="3"/>
	<rect x="89.6" y="110.9" class="st0" width="3" height="3"/>
	<rect x="89.6" y="106.9" class="st0" width="3" height="3"/>
	<rect x="93.7" y="119.2" class="st0" width="3" height="3"/>
	<rect x="93.7" y="115.3" class="st0" width="3" height="3"/>
	<rect x="93.7" y="106.9" class="st0" width="3" height="3"/>
	<rect x="97.7" y="119.2" class="st0" width="3" height="3"/>
	<rect x="97.7" y="115.3" class="st0" width="3" height="3"/>
	<rect x="97.7" y="110.9" class="st0" width="3" height="3"/>
	<rect x="97.7" y="106.9" class="st0" width="3" height="3"/>
	<rect x="101.8" y="115.3" class="st0" width="3" height="3"/>
	<rect x="101.8" y="110.9" class="st0" width="3" height="3"/>
	<rect x="101.8" y="106.9" class="st0" width="3" height="3"/>
	<rect x="69.5" y="115.1" class="st0" width="3" height="3"/>
	<rect x="73.5" y="115.1" class="st0" width="3" height="3"/>
	<rect x="77.5" y="115.1" class="st0" width="3" height="3"/>
	<rect x="77.5" y="111.1" class="st0" width="3" height="3"/>
	<rect x="77.8" y="119.2" class="st0" width="3" height="3"/>
	<rect x="52.8" y="110.1" class="st0" width="3" height="3"/>
	<rect x="46" y="142.8" class="st0" width="3" height="3"/>
	<rect x="61.9" y="119" class="st0" width="3" height="3"/>
	<rect x="109.3" y="130.9" class="st0" width="3" height="3"/>
	<rect x="113.5" y="130.9" class="st0" width="3" height="3"/>
	<rect x="117.4" y="130.9" class="st0" width="3" height="3"/>
	<rect x="121.3" y="130.9" class="st0" width="3" height="3"/>
	<rect x="109.3" y="127" class="st0" width="3" height="3"/>
	<rect x="113.5" y="127" class="st0" width="3" height="3"/>
	<rect x="117.4" y="127" class="st0" width="3" height="3"/>
	<rect x="121.3" y="127" class="st0" width="3" height="3"/>
	<rect x="125.3" y="130.9" class="st0" width="3" height="3"/>
	<rect x="109.3" y="134.8" class="st0" width="3" height="3"/>
	<rect x="113.5" y="134.8" class="st0" width="3" height="3"/>
	<rect x="117.4" y="134.8" class="st0" width="3" height="3"/>
	<rect x="121.3" y="134.8" class="st0" width="3" height="3"/>
	<rect x="125.3" y="134.8" class="st0" width="3" height="3"/>
	<rect x="89.4" y="130.9" class="st0" width="3" height="3"/>
	<rect x="93.5" y="130.9" class="st0" width="3" height="3"/>
	<rect x="97.5" y="130.9" class="st0" width="3" height="3"/>
	<rect x="101.4" y="130.9" class="st0" width="3" height="3"/>
	<rect x="105.3" y="130.9" class="st0" width="3" height="3"/>
	<rect x="89.4" y="134.8" class="st0" width="3" height="3"/>
	<rect x="93.5" y="134.8" class="st0" width="3" height="3"/>
	<rect x="97.5" y="134.8" class="st0" width="3" height="3"/>
	<rect x="101.4" y="134.8" class="st0" width="3" height="3"/>
	<rect x="105.3" y="134.8" class="st0" width="3" height="3"/>
	<rect x="125.3" y="127" class="st0" width="3" height="3"/>
	<rect x="113.5" y="119.2" class="st0" width="3" height="3"/>
	<rect x="117.4" y="119.2" class="st0" width="3" height="3"/>
	<rect x="121.3" y="119.2" class="st0" width="3" height="3"/>
	<rect x="124.7" y="108.6" class="st0" width="3" height="3"/>
	<rect x="125.6" y="103" class="st0" width="3" height="3"/>
	<rect x="117.4" y="115.3" class="st0" width="3" height="3"/>
	<rect x="109.4" y="123.1" class="st0" width="3" height="3"/>
	<rect x="125.3" y="119.2" class="st0" width="3" height="3"/>
	<rect x="113.5" y="123.1" class="st0" width="3" height="3"/>
	<rect x="117.4" y="123.1" class="st0" width="3" height="3"/>
	<rect x="121.3" y="123.1" class="st0" width="3" height="3"/>
	<rect x="125.3" y="123.1" class="st0" width="3" height="3"/>
	<rect x="129.3" y="119" class="st0" width="3" height="3"/>
	<rect x="129.3" y="127" class="st0" width="3" height="3"/>
	<rect x="133.4" y="127" class="st0" width="3" height="3"/>
	<rect x="137.4" y="127" class="st0" width="3" height="3"/>
	<rect x="129.3" y="123.1" class="st0" width="3" height="3"/>
	<rect x="133.4" y="123.1" class="st0" width="3" height="3"/>
	<rect x="141.2" y="121.3" class="st0" width="3" height="3"/>
	<rect x="137.9" y="104.6" class="st0" width="3" height="3"/>
	<rect x="137.4" y="130.9" class="st0" width="3" height="3"/>
	<rect x="141.3" y="130.9" class="st0" width="3" height="3"/>
	<rect x="148.6" y="128.5" class="st0" width="3" height="3"/>
	<rect x="40.1" y="117.5" class="st0" width="3" height="3"/>
	<rect x="81.4" y="130.9" class="st0" width="3" height="3"/>
	<rect x="85.3" y="130.9" class="st0" width="3" height="3"/>
	<rect x="38.5" y="137.8" class="st0" width="3" height="3"/>
	<rect x="50" y="120.5" class="st0" width="3" height="3"/>
	<rect x="77.5" y="134.8" class="st0" width="3" height="3"/>
	<rect x="81.4" y="134.8" class="st0" width="3" height="3"/>
	<rect x="85.3" y="134.8" class="st0" width="3" height="3"/>
	<rect x="105.5" y="115.3" class="st0" width="3" height="3"/>
	<rect x="105.5" y="111.4" class="st0" width="3" height="3"/>
	<rect x="105.5" y="107" class="st0" width="3" height="3"/>
	<rect x="105.5" y="103" class="st0" width="3" height="3"/>
	<rect x="109.6" y="115.3" class="st0" width="3" height="3"/>
	<rect x="109.6" y="111.4" class="st0" width="3" height="3"/>
	<rect x="109.6" y="107" class="st0" width="3" height="3"/>
	<rect x="109.6" y="103" class="st0" width="3" height="3"/>
	<rect x="113.5" y="111.4" class="st0" width="3" height="3"/>
	<rect x="113.5" y="103.1" class="st0" width="3" height="3"/>
	<rect x="113.5" y="99.1" class="st0" width="3" height="3"/>
	<rect x="117.5" y="111.4" class="st0" width="3" height="3"/>
	<rect x="117.5" y="107.5" class="st0" width="3" height="3"/>
	<rect x="117.5" y="103.1" class="st0" width="3" height="3"/>
	<rect x="117.5" y="99.1" class="st0" width="3" height="3"/>
	<rect x="58" y="142.8" class="st0" width="6.9" height="6.9"/>
	<rect x="93.7" y="146.8" class="st0" width="18.8" height="3"/>
	<rect x="148.9" y="111.4" class="st0" width="3" height="3"/>
	<rect x="153.2" y="122.8" class="st0" width="3" height="3"/>
	<rect x="166.2" y="115.3" class="st0" width="3" height="3"/>
	<rect x="165" y="68.4" class="st0" width="3" height="3"/>
	<rect x="156" y="62.8" class="st0" width="3" height="3"/>
	<rect x="150" y="91.9" class="st0" width="3" height="3"/>
	<rect x="155.3" y="83.9" class="st0" width="3" height="3"/>
	<rect x="161.6" y="96.6" class="st0" width="3" height="3"/>
	<rect x="143.6" y="96.1" class="st0" width="3" height="3"/>
	<rect x="148.9" y="100.1" class="st0" width="3" height="3"/>
	<rect x="164.6" y="80.2" class="st0" width="3" height="3"/>
	<rect x="135.3" y="83.9" class="st0" width="3" height="3"/>
	<rect x="133.2" y="79.2" class="st0" width="3" height="3"/>
	<rect x="125.2" y="75.5" class="st0" width="3" height="3"/>
	<rect x="128.9" y="71.7" class="st0" width="3" height="3"/>
	<rect x="127.4" y="58.6" class="st0" width="3" height="3"/>
	<rect x="129.4" y="63.3" class="st0" width="3" height="3"/>
	<rect x="133.8" y="62.1" class="st0" width="3" height="3"/>
	<rect x="133.2" y="67.1" class="st0" width="3" height="3"/>
	<rect x="139" y="74.2" class="st0" width="3" height="3"/>
	<rect x="141" y="82.2" class="st0" width="3" height="3"/>
	<rect x="145.1" y="83.7" class="st0" width="3" height="3"/>
	<rect x="141" y="67.1" class="st0" width="3" height="3"/>
	<rect x="149.6" y="73.6" class="st0" width="3" height="3"/>
	<rect x="157.5" y="76.2" class="st0" width="3" height="3"/>
	<rect x="143.1" y="60.6" class="st0" width="3" height="3"/>
	<rect x="153" y="53.9" class="st0" width="3" height="3"/>
	<rect x="137.5" y="57.9" class="st0" width="3" height="3"/>
	<rect x="140.5" y="51.1" class="st0" width="3" height="3"/>
	<rect x="132.7" y="53.4" class="st0" width="3" height="3"/>
	<rect x="126.4" y="53.9" class="st0" width="3" height="3"/>
	<rect x="121.4" y="51.4" class="st0" width="3" height="3"/>
	<rect x="119" y="46.1" class="st0" width="3" height="3"/>
	<rect x="81.7" y="59.4" class="st0" width="3" height="3"/>
	<rect x="83.9" y="65.6" class="st0" width="3" height="3"/>
	<rect x="86.9" y="57.9" class="st0" width="3" height="3"/>
	<rect x="89.4" y="63.3" class="st0" width="3" height="3"/>
	<rect x="93.5" y="59.4" class="st0" width="3" height="3"/>
	<rect x="97.8" y="63.3" class="st0" width="3" height="3"/>
	<rect x="101.6" y="59.4" class="st0" width="3" height="3"/>
	<rect x="109.9" y="57.5" class="st0" width="3" height="3"/>
	<rect x="105.6" y="51.4" class="st0" width="3" height="3"/>
	<rect x="113.4" y="47.6" class="st0" width="3" height="3"/>
	<rect x="109.6" y="51.4" class="st0" width="3" height="3"/>
	<rect x="113.4" y="51.4" class="st0" width="3" height="3"/>
	<rect x="113.5" y="55.3" class="st0" width="3" height="3"/>
	<rect x="117.3" y="55.3" class="st0" width="3" height="3"/>
	<rect x="121.6" y="59.4" class="st0" width="3" height="3"/>
	<rect x="117.5" y="59.4" class="st0" width="3" height="3"/>
	<rect x="105.5" y="59.4" class="st0" width="3" height="3"/>
	<rect x="109.6" y="63.6" class="st0" width="3" height="3"/>
	<rect x="103.1" y="65.1" class="st0" width="3" height="3"/>
	<rect x="108.9" y="97.6" class="st0" width="3" height="3"/>
	<rect x="109.6" y="91.3" class="st0" width="3" height="3"/>
	<rect x="105.5" y="88.9" class="st0" width="3" height="3"/>
	<rect x="101.6" y="75.1" class="st0" width="3" height="3"/>
	<rect x="100" y="82.2" class="st0" width="3" height="3"/>
	<rect x="108.1" y="72.1" class="st0" width="3" height="3"/>
	<rect x="105.5" y="79.2" class="st0" width="3" height="3"/>
	<rect x="110.2" y="82.4" class="st0" width="3" height="3"/>
	<rect x="113.2" y="79.2" class="st0" width="3" height="3"/>
	<rect x="113.5" y="63.6" class="st0" width="3" height="3"/>
	<rect x="122.1" y="66.3" class="st0" width="3" height="3"/>
	<rect x="121.4" y="72.5" class="st0" width="3" height="3"/>
	<rect x="117.1" y="75.1" class="st0" width="3" height="3"/>
	<rect x="121.4" y="79.4" class="st0" width="3" height="3"/>
	<rect x="125.2" y="99.1" class="st0" width="3" height="3"/>
	<rect x="121.1" y="95.2" class="st0" width="3" height="3"/>
	<rect x="117.1" y="86.4" class="st0" width="3" height="3"/>
	<rect x="127.1" y="80.1" class="st0" width="3" height="3"/>
	<rect x="127.9" y="85.4" class="st0" width="3" height="3"/>
	<rect x="132.7" y="87.9" class="st0" width="3" height="3"/>
	<rect x="128.6" y="90.9" class="st0" width="3" height="3"/>
	<rect x="125.6" y="95.2" class="st0" width="3" height="3"/>
	<rect x="133.2" y="94.6" class="st0" width="3" height="3"/>
	<rect x="139" y="90.6" class="st0" width="3" height="3"/>
	<rect x="182.2" y="111.4" class="st0" width="3" height="3"/>
	<rect x="174.1" y="105.5" class="st0" width="3" height="3"/>
	<rect x="173.7" y="89.1" class="st0" width="3" height="3"/>
	<rect x="181.4" y="80.9" class="st0" width="3" height="3"/>
	<rect x="185.2" y="65.6" class="st0" width="3" height="3"/>
	<rect x="174.6" y="56" class="st0" width="3" height="3"/>
	<rect x="169.4" y="42" class="st0" width="3" height="3"/>
	<rect x="177.6" y="49.9" class="st0" width="3" height="3"/>
	<rect x="184.7" y="28.5" class="st0" width="3" height="3"/>
	<rect x="172.5" y="22.2" class="st0" width="3" height="3"/>
	<rect x="69.9" y="59.4" class="st0" width="3" height="3"/>
	<rect x="77.8" y="63.6" class="st0" width="3" height="3"/>
	<rect x="66.4" y="63.3" class="st0" width="3" height="3"/>
	<rect x="57.7" y="67.3" class="st0" width="3" height="3"/>
	<rect x="62.4" y="67.3" class="st0" width="3" height="3"/>
	<rect x="57.8" y="75.7" class="st0" width="3" height="3"/>
	<rect x="62.4" y="72.7" class="st0" width="3" height="3"/>
	<rect x="55.3" y="100.6" class="st0" width="3" height="3"/>
	<rect x="55.3" y="89.8" class="st0" width="3" height="3"/>
	<rect x="61.9" y="79.7" class="st0" width="3" height="3"/>
	<rect x="66" y="75.1" class="st0" width="3" height="3"/>
	<rect x="69.9" y="72.7" class="st0" width="3" height="3"/>
	<rect x="57.8" y="95.2" class="st0" width="3" height="3"/>
	<rect x="73.5" y="75.1" class="st0" width="3" height="3"/>
	<rect x="69.9" y="79.4" class="st0" width="3" height="3"/>
	<rect x="66.8" y="82.4" class="st0" width="3" height="3"/>
	<rect x="62.4" y="91" class="st0" width="3" height="3"/>
	<rect x="63.4" y="103.5" class="st0" width="3" height="3"/>
	<rect x="66" y="95.2" class="st0" width="3" height="3"/>
	<rect x="73.8" y="107.1" class="st0" width="3" height="3"/>
	<rect x="69.9" y="107.1" class="st0" width="3" height="3"/>
	<rect x="69.9" y="103" class="st0" width="3" height="3"/>
	<rect x="77.9" y="103.1" class="st0" width="3" height="3"/>
	<rect x="81.7" y="103" class="st0" width="3" height="3"/>
	<rect x="77.9" y="99.5" class="st0" width="3" height="3"/>
	<rect x="73.9" y="99.1" class="st0" width="3" height="3"/>
	<rect x="69.5" y="99.1" class="st0" width="3" height="3"/>
	<rect x="73.9" y="95.2" class="st0" width="3" height="3"/>
	<rect x="77.7" y="95.2" class="st0" width="3" height="3"/>
	<rect x="81.7" y="95.2" class="st0" width="3" height="3"/>
	<rect x="73.9" y="91" class="st0" width="3" height="3"/>
	<rect x="69.5" y="89.5" class="st0" width="3" height="3"/>
	<rect x="86.3" y="96.7" class="st0" width="3" height="3"/>
	<rect x="89.6" y="91" class="st0" width="3" height="3"/>
	<rect x="93" y="95.2" class="st0" width="3" height="3"/>
	<rect x="97.5" y="97.6" class="st0" width="3" height="3"/>
	<rect x="101.6" y="94.6" class="st0" width="3" height="3"/>
	<rect x="97.8" y="90.9" class="st0" width="3" height="3"/>
	<rect x="93.5" y="87.4" class="st0" width="3" height="3"/>
	<rect x="85.6" y="91.3" class="st0" width="3" height="3"/>
	<rect x="79.3" y="87.9" class="st0" width="3" height="3"/>
	<rect x="86.3" y="84.5" class="st0" width="3" height="3"/>
	<rect x="89.4" y="79.4" class="st0" width="3" height="3"/>
	<rect x="93.7" y="79.2" class="st0" width="3" height="3"/>
	<rect x="96.3" y="73.6" class="st0" width="3" height="3"/>
	<rect x="89.4" y="75.1" class="st0" width="3" height="3"/>
	<rect x="81.7" y="79.4" class="st0" width="3" height="3"/>
	<rect x="82.4" y="74.2" class="st0" width="3" height="3"/>
	<rect x="77.8" y="79" class="st0" width="3" height="3"/>
	<rect x="29.8" y="82" class="st0" width="3" height="3"/>
	<rect x="29.8" y="82" class="st0" width="3" height="3"/>
	<rect x="29.8" y="82" class="st0" width="3" height="3"/>
	<rect x="29.8" y="82" class="st0" width="3" height="3"/>
	<rect x="29.8" y="82" class="st0" width="3" height="3"/>
	<rect x="29.8" y="82" class="st0" width="3" height="3"/>
	<rect x="29.8" y="82" class="st0" width="3" height="3"/>
	<rect x="29.8" y="82" class="st0" width="3" height="3"/>
	<rect x="29.8" y="82" class="st0" width="3" height="3"/>
	<rect x="29.8" y="82" class="st0" width="3" height="3"/>
	<rect x="29.8" y="82" class="st0" width="3" height="3"/>
	<rect x="29.8" y="82" class="st0" width="3" height="3"/>
	<rect x="29.8" y="82" class="st0" width="3" height="3"/>
	<rect x="29.8" y="82" class="st0" width="3" height="3"/>
	<rect x="29.8" y="82" class="st0" width="3" height="3"/>
	<rect x="29.8" y="82" class="st0" width="3" height="3"/>
	<rect x="29.8" y="82" class="st0" width="3" height="3"/>
	<rect x="29.8" y="82" class="st0" width="3" height="3"/>
	<rect x="29.8" y="82" class="st0" width="3" height="3"/>
	<rect x="29.8" y="82" class="st0" width="3" height="3"/>
	<rect x="29.8" y="82" class="st0" width="3" height="3"/>
	<rect x="29.8" y="82" class="st0" width="3" height="3"/>
	<rect x="29.8" y="82" class="st0" width="3" height="3"/>
	<rect x="29.8" y="82" class="st0" width="3" height="3"/>
	<rect x="29.8" y="82" class="st0" width="3" height="3"/>
	<rect x="29.8" y="82" class="st0" width="3" height="3"/>
	<rect x="29.8" y="82" class="st0" width="3" height="3"/>
	<rect x="29.8" y="82" class="st0" width="3" height="3"/>
	<rect x="29.8" y="82" class="st0" width="3" height="3"/>
	<rect x="29.8" y="82" class="st0" width="3" height="3"/>
	<rect x="29.8" y="82" class="st0" width="3" height="3"/>
	<rect x="29.8" y="82" class="st0" width="3" height="3"/>
	<rect x="44.1" y="108.1" class="st0" width="3" height="3"/>
	<rect x="39.3" y="93.7" class="st0" width="3" height="3"/>
	<rect x="44.3" y="87.4" class="st0" width="3" height="3"/>
	<rect x="52.3" y="53.9" class="st0" width="3" height="3"/>
	<rect x="61.9" y="59.4" class="st0" width="3" height="3"/>
	<rect x="54.3" y="60.9" class="st0" width="3" height="3"/>
	<rect x="42.8" y="62.1" class="st0" width="3" height="3"/>
	<rect x="35" y="76.6" class="st0" width="3" height="3"/>
	<rect x="41.3" y="80.5" class="st0" width="3" height="3"/>
	<rect x="47.4" y="82.2" class="st0" width="3" height="3"/>
	<rect x="37.3" y="66.5" class="st0" width="3" height="3"/>
	<rect x="33.5" y="60.5" class="st0" width="3" height="3"/>
	<rect x="17.6" y="66.6" class="st0" width="3" height="3"/>
	<rect x="25.3" y="51.1" class="st0" width="3" height="3"/>
	<rect x="17.1" y="75.1" class="st0" width="3" height="3"/>
	<rect x="12.5" y="71" class="st0" width="3" height="3"/>
	<rect x="32.3" y="95.4" class="st0" width="3" height="3"/>
	<rect x="13.3" y="90.4" class="st0" width="3" height="3"/>
	<rect x="9.5" y="82.7" class="st0" width="3" height="3"/>
	<rect x="0.3" y="77.5" class="st0" width="3" height="3"/>
	<rect x="21.3" y="102.5" class="st0" width="3" height="3"/>
	<rect x="5.9" y="104.6" class="st0" width="3" height="3"/>
	<rect x="37" y="130" class="st0" width="3" height="3"/>
	<rect x="18.8" y="132.4" class="st0" width="3" height="3"/>
	<rect x="14.7" y="118.3" class="st0" width="3" height="3"/>
	<rect x="11" y="45.2" class="st0" width="3" height="3"/>
	<rect x="16.4" y="12" class="st0" width="3" height="3"/>
	<rect y="40.8" class="st0" width="3" height="3"/>
	<rect x="4.3" y="57.5" class="st0" width="3" height="3"/>
</g>
</svg>
