<?xml version="1.0" encoding="utf-8"?>
<!-- Generator: Adobe Illustrator 21.0.2, SVG Export Plug-In . SVG Version: 6.00 Build 0)  -->
<svg version="1.1" id="_x33__розділ" xmlns="http://www.w3.org/2000/svg" xmlns:xlink="http://www.w3.org/1999/xlink" x="0px"
	 y="0px" viewBox="0 0 184.2 128.5" style="enable-background:new 0 0 184.2 128.5;" xml:space="preserve">
<style type="text/css">
	.st0{fill:#FF814D;stroke:#101633;stroke-width:0.5;stroke-miterlimit:10;}
</style>
<g>
	<rect x="165.7" y="125.3" class="st0" width="3.2" height="3.2"/>
	<rect x="165.7" y="102.2" class="st0" width="3.2" height="3.2"/>
	<rect x="165.7" y="106" class="st0" width="3.2" height="3.2"/>
	<rect x="165.7" y="109.9" class="st0" width="3.2" height="3.2"/>
	<rect x="165.7" y="113.7" class="st0" width="3.2" height="3.2"/>
	<rect x="165.7" y="117.6" class="st0" width="3.2" height="3.2"/>
	<rect x="165.7" y="121.4" class="st0" width="3.2" height="3.2"/>
	<rect x="165.7" y="98.3" class="st0" width="3.2" height="3.2"/>
	<rect x="169.6" y="98.3" class="st0" width="3.2" height="3.2"/>
	<rect x="161.9" y="125.3" class="st0" width="3.2" height="3.2"/>
	<rect x="161.9" y="102.2" class="st0" width="3.2" height="3.2"/>
	<rect x="161.9" y="113.7" class="st0" width="3.2" height="3.2"/>
	<rect x="161.9" y="117.6" class="st0" width="3.2" height="3.2"/>
	<rect x="161.9" y="121.4" class="st0" width="3.2" height="3.2"/>
	<rect x="161.9" y="98.3" class="st0" width="3.2" height="3.2"/>
	<rect x="173.4" y="125.3" class="st0" width="3.2" height="3.2"/>
	<rect x="173.4" y="106" class="st0" width="3.2" height="3.2"/>
	<rect x="173.4" y="109.9" class="st0" width="3.2" height="3.2"/>
	<rect x="173.4" y="113.7" class="st0" width="3.2" height="3.2"/>
	<rect x="173.4" y="117.6" class="st0" width="3.2" height="3.2"/>
	<rect x="173.4" y="121.4" class="st0" width="3.2" height="3.2"/>
	<rect x="169.6" y="125.3" class="st0" width="3.2" height="3.2"/>
	<rect x="169.6" y="102.2" class="st0" width="3.2" height="3.2"/>
	<rect x="169.6" y="106" class="st0" width="3.2" height="3.2"/>
	<rect x="169.6" y="109.9" class="st0" width="3.2" height="3.2"/>
	<rect x="169.6" y="113.7" class="st0" width="3.2" height="3.2"/>
	<rect x="169.6" y="117.6" class="st0" width="3.2" height="3.2"/>
	<rect x="169.6" y="121.4" class="st0" width="3.2" height="3.2"/>
	<rect x="181" y="125.3" class="st0" width="3.2" height="3.2"/>
	<rect x="181" y="121.4" class="st0" width="3.2" height="3.2"/>
	<rect x="177.2" y="125.3" class="st0" width="3.2" height="3.2"/>
	<rect x="177.2" y="113.7" class="st0" width="3.2" height="3.2"/>
	<rect x="177.2" y="117.6" class="st0" width="3.2" height="3.2"/>
	<rect x="177.2" y="121.4" class="st0" width="3.2" height="3.2"/>
	<rect x="158" y="125.3" class="st0" width="3.2" height="3.2"/>
	<rect x="158" y="102.2" class="st0" width="3.2" height="3.2"/>
	<rect x="158" y="113.7" class="st0" width="3.2" height="3.2"/>
	<rect x="158" y="117.6" class="st0" width="3.2" height="3.2"/>
	<rect x="158" y="121.4" class="st0" width="3.2" height="3.2"/>
	<rect x="158" y="98.3" class="st0" width="3.2" height="3.2"/>
	<rect x="154.1" y="125.3" class="st0" width="3.2" height="3.2"/>
	<rect x="154.1" y="102.2" class="st0" width="3.2" height="3.2"/>
	<rect x="154.1" y="106" class="st0" width="3.2" height="3.2"/>
	<rect x="154.1" y="109.9" class="st0" width="3.2" height="3.2"/>
	<rect x="154.1" y="113.7" class="st0" width="3.2" height="3.2"/>
	<rect x="154.1" y="117.6" class="st0" width="3.2" height="3.2"/>
	<rect x="146.7" y="121.4" class="st0" width="10.6" height="3.2"/>
	<rect x="154.1" y="98.3" class="st0" width="3.2" height="3.2"/>
	<rect x="150.5" y="125.3" class="st0" width="3.2" height="3.2"/>
	<rect x="150.5" y="102.2" class="st0" width="3.2" height="3.2"/>
	<rect x="150.5" y="106" class="st0" width="3.2" height="3.2"/>
	<rect x="150.5" y="109.9" class="st0" width="3.2" height="3.2"/>
	<rect x="150.5" y="113.7" class="st0" width="3.2" height="3.2"/>
	<rect x="150.5" y="117.6" class="st0" width="3.2" height="3.2"/>
	<rect x="150.5" y="98.3" class="st0" width="3.2" height="3.2"/>
	<rect x="146.7" y="98.3" class="st0" width="3.2" height="3.2"/>
	<rect x="146.7" y="125.3" class="st0" width="3.2" height="3.2"/>
	<rect x="146.7" y="102.2" class="st0" width="3.2" height="3.2"/>
	<rect x="146.7" y="106" class="st0" width="3.2" height="3.2"/>
	<rect x="143.7" y="109.9" class="st0" width="3.2" height="3.2"/>
	<rect x="146.7" y="113.7" class="st0" width="3.2" height="3.2"/>
	<rect x="146.7" y="117.6" class="st0" width="3.2" height="3.2"/>
	<rect x="142.8" y="125.3" class="st0" width="3.2" height="3.2"/>
	<rect x="139.6" y="106" class="st0" width="3.2" height="3.2"/>
	<rect x="137" y="109.9" class="st0" width="3.2" height="3.2"/>
	<rect x="142.8" y="113.7" class="st0" width="3.2" height="3.2"/>
	<rect x="142.8" y="117.6" class="st0" width="3.2" height="3.2"/>
	<rect x="142.8" y="121.4" class="st0" width="3.2" height="3.2"/>
	<rect x="139" y="125.3" class="st0" width="3.2" height="3.2"/>
	<rect x="139" y="113.7" class="st0" width="3.2" height="3.2"/>
	<rect x="137.4" y="116.9" class="st0" width="3.2" height="3.2"/>
	<rect x="139" y="121.4" class="st0" width="3.2" height="3.2"/>
	<rect x="134.8" y="125.3" class="st0" width="3.2" height="3.2"/>
	<rect x="134.8" y="121.4" class="st0" width="3.2" height="3.2"/>
	<rect x="112.1" y="55.9" class="st0" width="3.2" height="3.2"/>
	<rect x="112.1" y="32.7" class="st0" width="3.2" height="3.2"/>
	<rect x="41.4" y="6" class="st0" width="3.2" height="3.2"/>
	<rect x="112.1" y="40.4" class="st0" width="3.2" height="3.2"/>
	<rect x="112.1" y="44.3" class="st0" width="3.2" height="3.2"/>
	<rect x="112.1" y="48.2" class="st0" width="3.2" height="7"/>
	<rect x="110.4" y="25.7" class="st0" width="3.2" height="3.2"/>
	<rect x="116" y="28.9" class="st0" width="3.2" height="3.2"/>
	<rect x="108.3" y="55.9" class="st0" width="3.2" height="3.2"/>
	<rect x="108.3" y="32.7" class="st0" width="3.2" height="3.2"/>
	<rect x="107.7" y="38.9" class="st0" width="3.2" height="3.2"/>
	<rect x="58.8" y="18.6" class="st0" width="3.2" height="3.2"/>
	<rect x="108.3" y="44.3" class="st0" width="3.2" height="3.2"/>
	<rect x="108.3" y="48.2" class="st0" width="3.2" height="3.2"/>
	<rect x="108.3" y="52" class="st0" width="3.2" height="3.2"/>
	<rect x="102.8" y="22.5" class="st0" width="3.2" height="3.2"/>
	<rect x="105.3" y="16.1" class="st0" width="3.2" height="3.2"/>
	<rect x="119.8" y="55.9" class="st0" width="3.2" height="3.2"/>
	<rect x="119.8" y="36.6" class="st0" width="3.2" height="3.2"/>
	<rect x="119.8" y="40.4" class="st0" width="3.2" height="3.2"/>
	<rect x="119.8" y="44.3" class="st0" width="3.2" height="3.2"/>
	<rect x="119.8" y="48.2" class="st0" width="3.2" height="3.2"/>
	<rect x="119.8" y="52" class="st0" width="3.2" height="3.2"/>
	<rect x="116" y="55.9" class="st0" width="3.2" height="3.2"/>
	<rect x="116" y="32.7" class="st0" width="3.2" height="3.2"/>
	<rect x="113.8" y="36.6" class="st0" width="3.2" height="3.2"/>
	<rect x="116" y="40.4" class="st0" width="3.2" height="3.2"/>
	<rect x="116" y="44.3" class="st0" width="3.2" height="3.2"/>
	<rect x="116" y="48.2" class="st0" width="3.2" height="3.2"/>
	<rect x="116" y="52" class="st0" width="3.2" height="3.2"/>
	<rect x="127.4" y="55.9" class="st0" width="3.2" height="3.2"/>
	<rect x="127.4" y="52" class="st0" width="3.2" height="3.2"/>
	<rect x="123.6" y="55.9" class="st0" width="3.2" height="3.2"/>
	<rect x="123.6" y="44.3" class="st0" width="3.2" height="3.2"/>
	<rect x="123.6" y="48.2" class="st0" width="3.2" height="3.2"/>
	<rect x="123.6" y="52" class="st0" width="3.2" height="3.2"/>
	<rect x="104.3" y="55.9" class="st0" width="3.2" height="3.2"/>
	<rect x="104.3" y="32.7" class="st0" width="3.2" height="3.2"/>
	<rect x="68.3" y="32.7" class="st0" width="3.2" height="3.2"/>
	<rect x="104.3" y="40.4" class="st0" width="3.2" height="3.2"/>
	<rect x="104.3" y="44.3" class="st0" width="3.2" height="3.2"/>
	<rect x="104.3" y="48.2" class="st0" width="3.2" height="3.2"/>
	<rect x="104.3" y="52" class="st0" width="3.2" height="3.2"/>
	<rect x="82.9" y="24.1" class="st0" width="3.2" height="3.2"/>
	<rect x="100.5" y="55.9" class="st0" width="3.2" height="3.2"/>
	<rect x="100.5" y="32.7" class="st0" width="3.2" height="3.2"/>
	<rect x="52" y="30.5" class="st0" width="3.2" height="3.2"/>
	<rect x="99.6" y="41.1" class="st0" width="3.2" height="3.2"/>
	<rect x="100.5" y="44.3" class="st0" width="3.2" height="3.2"/>
	<rect x="100.5" y="48.2" class="st0" width="3.2" height="3.2"/>
	<rect x="100.5" y="52" class="st0" width="3.2" height="3.2"/>
	<rect x="100.5" y="28.9" class="st0" width="3.2" height="3.2"/>
	<rect x="96.9" y="55.9" class="st0" width="3.2" height="3.2"/>
	<rect x="95.3" y="32.5" class="st0" width="3.2" height="3.2"/>
	<rect x="98.9" y="36.5" class="st0" width="3.2" height="3.2"/>
	<rect x="39" y="38.9" class="st0" width="3.2" height="3.2"/>
	<rect x="96.9" y="44.3" class="st0" width="3.2" height="3.2"/>
	<rect x="73" y="22.5" class="st0" width="3.2" height="3.2"/>
	<rect x="96.9" y="52" class="st0" width="3.2" height="3.2"/>
	<rect x="90.1" y="20.2" class="st0" width="3.2" height="3.2"/>
	<rect x="91.7" y="26.5" class="st0" width="3.2" height="3.2"/>
	<rect x="93.1" y="55.9" class="st0" width="3.2" height="3.2"/>
	<rect x="82.8" y="38.1" class="st0" width="3.2" height="3.2"/>
	<rect x="92.2" y="36.5" class="st0" width="3.2" height="3.2"/>
	<rect x="95" y="40.4" class="st0" width="3.2" height="3.2"/>
	<rect x="86.9" y="32.1" class="st0" width="3.2" height="3.2"/>
	<rect x="93.1" y="48.2" class="st0" width="3.2" height="3.2"/>
	<rect x="93.1" y="52" class="st0" width="3.2" height="3.2"/>
	<rect x="89.2" y="55.9" class="st0" width="3.2" height="3.2"/>
	<rect x="67.7" y="42" class="st0" width="3.2" height="3.2"/>
	<rect x="70.4" y="48.2" class="st0" width="3.2" height="3.2"/>
	<rect x="90.1" y="44.3" class="st0" width="3.2" height="3.2"/>
	<rect x="89.2" y="48.2" class="st0" width="3.2" height="3.2"/>
	<rect x="52.5" y="53.6" class="st0" width="3.2" height="3.2"/>
	<rect x="85.4" y="55.9" class="st0" width="3.2" height="3.2"/>
	<rect x="82.9" y="43.6" class="st0" width="3.2" height="3.2"/>
	<rect x="74.6" y="39.5" class="st0" width="3.2" height="3.2"/>
	<rect x="85.4" y="52" class="st0" width="3.2" height="3.2"/>
	<rect x="79.6" y="55.9" class="st0" width="3.2" height="3.2"/>
	<rect x="79" y="49.8" class="st0" width="3.2" height="3.2"/>
	<rect x="112" y="125.3" class="st0" width="3.2" height="3.2"/>
	<rect x="112" y="102.2" class="st0" width="3.2" height="3.2"/>
	<rect x="112" y="106" class="st0" width="3.2" height="3.2"/>
	<rect x="112" y="109.9" class="st0" width="3.2" height="3.2"/>
	<rect x="112" y="113.7" class="st0" width="3.2" height="3.2"/>
	<rect x="112" y="117.6" class="st0" width="3.2" height="3.2"/>
	<rect x="112" y="121.4" class="st0" width="3.2" height="3.2"/>
	<rect x="112" y="98.3" class="st0" width="3.2" height="3.2"/>
	<rect x="116" y="98.3" class="st0" width="3.2" height="3.2"/>
	<rect x="108.2" y="125.3" class="st0" width="3.2" height="3.2"/>
	<rect x="108.2" y="102.2" class="st0" width="3.2" height="3.2"/>
	<rect x="108.2" y="106" class="st0" width="3.2" height="3.2"/>
	<rect x="108.2" y="109.9" class="st0" width="3.2" height="3.2"/>
	<rect x="108.2" y="113.7" class="st0" width="3.2" height="3.2"/>
	<rect x="108.2" y="117.6" class="st0" width="3.2" height="3.2"/>
	<rect x="108.2" y="121.4" class="st0" width="3.2" height="3.2"/>
	<rect x="108.2" y="98.3" class="st0" width="3.2" height="3.2"/>
	<rect x="119.8" y="125.3" class="st0" width="3.2" height="3.2"/>
	<rect x="119.8" y="106" class="st0" width="3.2" height="3.2"/>
	<rect x="119.8" y="109.9" class="st0" width="3.2" height="3.2"/>
	<rect x="119.8" y="113.7" class="st0" width="3.2" height="3.2"/>
	<rect x="119.8" y="117.6" class="st0" width="3.2" height="3.2"/>
	<rect x="119.8" y="121.4" class="st0" width="3.2" height="3.2"/>
	<rect x="116" y="125.3" class="st0" width="3.2" height="3.2"/>
	<rect x="116" y="102.2" class="st0" width="3.2" height="3.2"/>
	<rect x="116" y="106" class="st0" width="3.2" height="3.2"/>
	<rect x="116" y="109.9" class="st0" width="3.2" height="3.2"/>
	<rect x="116" y="113.7" class="st0" width="3.2" height="3.2"/>
	<rect x="116" y="117.6" class="st0" width="3.2" height="3.2"/>
	<rect x="116" y="121.4" class="st0" width="3.2" height="3.2"/>
	<rect x="127.3" y="125.3" class="st0" width="3.2" height="3.2"/>
	<rect x="127.3" y="121.4" class="st0" width="3.2" height="3.2"/>
	<rect x="123.5" y="125.3" class="st0" width="3.2" height="3.2"/>
	<rect x="123.5" y="113.7" class="st0" width="3.2" height="3.2"/>
	<rect x="123.5" y="117.6" class="st0" width="3.2" height="3.2"/>
	<rect x="123.5" y="121.4" class="st0" width="3.2" height="3.2"/>
	<rect x="104.3" y="125.3" class="st0" width="3.2" height="3.2"/>
	<rect x="104.3" y="102.2" class="st0" width="3.2" height="14.8"/>
	<rect x="104.3" y="117.6" class="st0" width="3.2" height="3.2"/>
	<rect x="104.3" y="121.4" class="st0" width="3.2" height="3.2"/>
	<rect x="104.3" y="98.3" class="st0" width="3.2" height="3.2"/>
	<rect x="100.5" y="125.3" class="st0" width="3.2" height="3.2"/>
	<rect x="100.5" y="102.2" class="st0" width="3.2" height="3.2"/>
	<rect x="100.5" y="106" class="st0" width="3.2" height="3.2"/>
	<rect x="100.5" y="109.9" class="st0" width="3.2" height="3.2"/>
	<rect x="100.5" y="113.7" class="st0" width="3.2" height="3.2"/>
	<rect x="100.5" y="117.6" class="st0" width="3.2" height="3.2"/>
	<rect x="100.5" y="121.4" class="st0" width="3.2" height="3.2"/>
	<rect x="100.5" y="98.3" class="st0" width="3.2" height="3.2"/>
	<rect x="96.8" y="125.3" class="st0" width="3.2" height="3.2"/>
	<rect x="96.8" y="102.2" class="st0" width="3.2" height="3.2"/>
	<rect x="96.8" y="106" class="st0" width="3.2" height="3.2"/>
	<rect x="96.8" y="109.9" class="st0" width="3.2" height="3.2"/>
	<rect x="96.8" y="113.7" class="st0" width="3.2" height="3.2"/>
	<rect x="96.8" y="117.6" class="st0" width="3.2" height="3.2"/>
	<rect x="96.8" y="121.4" class="st0" width="3.2" height="3.2"/>
	<rect x="96.8" y="98.3" class="st0" width="3.2" height="3.2"/>
	<rect x="92.2" y="97.3" class="st0" width="3.2" height="3.2"/>
	<rect x="93" y="125.3" class="st0" width="3.2" height="3.2"/>
	<rect x="89.9" y="101.5" class="st0" width="3.2" height="3.2"/>
	<rect x="91.3" y="106" class="st0" width="3.2" height="3.2"/>
	<rect x="93" y="109.9" class="st0" width="3.2" height="3.2"/>
	<rect x="93" y="113.7" class="st0" width="3.2" height="3.2"/>
	<rect x="93" y="117.6" class="st0" width="3.2" height="3.2"/>
	<rect x="89.1" y="125.3" class="st0" width="3.2" height="3.2"/>
	<rect x="85.4" y="103.8" class="st0" width="3.2" height="3.2"/>
	<rect x="87.5" y="109.2" class="st0" width="3.2" height="3.2"/>
	<rect x="89.1" y="113.7" class="st0" width="3.2" height="3.2"/>
	<rect x="89.1" y="117.6" class="st0" width="3.2" height="3.2"/>
	<rect x="89.1" y="121.4" class="st0" width="3.2" height="3.2"/>
	<rect x="85.3" y="125.3" class="st0" width="3.2" height="3.2"/>
	<rect x="84.3" y="112.4" class="st0" width="3.2" height="3.2"/>
	<rect x="83.8" y="116.9" class="st0" width="3.2" height="3.2"/>
	<rect x="85.3" y="121.4" class="st0" width="3.2" height="3.2"/>
	<rect x="81.1" y="125.3" class="st0" width="3.2" height="3.2"/>
	<rect x="81.1" y="121.4" class="st0" width="3.2" height="3.2"/>
	<rect x="57.9" y="125.3" class="st0" width="3.2" height="3.2"/>
	<rect x="57.9" y="102.2" class="st0" width="3.2" height="3.2"/>
	<rect x="36.6" y="89.4" class="st0" width="3.2" height="3.2"/>
	<rect x="57.9" y="109.9" class="st0" width="3.2" height="3.2"/>
	<rect x="57.9" y="113.7" class="st0" width="3.2" height="3.2"/>
	<rect x="57.9" y="117.6" class="st0" width="3.2" height="3.2"/>
	<rect x="57.9" y="121.4" class="st0" width="3.2" height="3.2"/>
	<rect x="43.9" y="91.5" class="st0" width="3.2" height="3.2"/>
	<rect x="61.9" y="98.3" class="st0" width="3.2" height="3.2"/>
	<rect x="54.1" y="125.3" class="st0" width="3.2" height="3.2"/>
	<rect x="54.1" y="102.2" class="st0" width="3.2" height="3.2"/>
	<rect x="54.1" y="106" class="st0" width="3.2" height="3.2"/>
	<rect x="54.1" y="109.9" class="st0" width="3.2" height="3.2"/>
	<rect x="54.1" y="113.7" class="st0" width="3.2" height="3.2"/>
	<rect x="54.1" y="117.6" class="st0" width="3.2" height="3.2"/>
	<rect x="54.1" y="121.4" class="st0" width="3.2" height="3.2"/>
	<rect x="54.8" y="97.3" class="st0" width="3.2" height="3.2"/>
	<rect x="65.7" y="125.3" class="st0" width="3.2" height="3.2"/>
	<rect x="65.7" y="106" class="st0" width="3.2" height="3.2"/>
	<rect x="65.7" y="109.9" class="st0" width="3.2" height="3.2"/>
	<rect x="65.7" y="113.7" class="st0" width="3.2" height="3.2"/>
	<rect x="65.7" y="117.6" class="st0" width="3.2" height="3.2"/>
	<rect x="65.7" y="121.4" class="st0" width="3.2" height="3.2"/>
	<rect x="61.9" y="125.3" class="st0" width="3.2" height="3.2"/>
	<rect x="61.9" y="102.2" class="st0" width="3.2" height="3.2"/>
	<rect x="61.9" y="106" class="st0" width="3.2" height="3.2"/>
	<rect x="61.9" y="109.9" class="st0" width="3.2" height="3.2"/>
	<rect x="61.9" y="113.7" class="st0" width="3.2" height="3.2"/>
	<rect x="61.9" y="117.6" class="st0" width="3.2" height="3.2"/>
	<rect x="61.9" y="121.4" class="st0" width="3.2" height="3.2"/>
	<rect x="73.3" y="125.3" class="st0" width="3.2" height="3.2"/>
	<rect x="73.3" y="121.4" class="st0" width="3.2" height="3.2"/>
	<rect x="69.5" y="125.3" class="st0" width="3.2" height="3.2"/>
	<rect x="69.5" y="113.7" class="st0" width="3.2" height="3.2"/>
	<rect x="69.5" y="117.6" class="st0" width="3.2" height="3.2"/>
	<rect x="69.5" y="121.4" class="st0" width="3.2" height="3.2"/>
	<rect x="50.2" y="125.3" class="st0" width="3.2" height="3.2"/>
	<rect x="50.2" y="102.2" class="st0" width="3.2" height="3.2"/>
	<rect x="32.3" y="80.6" class="st0" width="3.2" height="3.2"/>
	<rect x="50.2" y="109.9" class="st0" width="3.2" height="3.2"/>
	<rect x="50.2" y="113.7" class="st0" width="3.2" height="3.2"/>
	<rect x="50.2" y="117.6" class="st0" width="3.2" height="3.2"/>
	<rect x="50.2" y="121.4" class="st0" width="3.2" height="3.2"/>
	<rect x="50.2" y="98.3" class="st0" width="3.2" height="3.2"/>
	<rect x="46.4" y="125.3" class="st0" width="3.2" height="3.2"/>
	<rect x="46.4" y="102.2" class="st0" width="3.2" height="3.2"/>
	<rect x="46.4" y="106" class="st0" width="3.2" height="3.2"/>
	<rect x="46.4" y="109.9" class="st0" width="3.2" height="3.2"/>
	<rect x="46.4" y="113.7" class="st0" width="3.2" height="3.2"/>
	<rect x="46.4" y="117.6" class="st0" width="3.2" height="3.2"/>
	<rect x="46.4" y="121.4" class="st0" width="3.2" height="3.2"/>
	<rect x="46.4" y="98.3" class="st0" width="3.2" height="3.2"/>
	<rect x="42.8" y="125.3" class="st0" width="3.2" height="3.2"/>
	<rect x="42.8" y="100.6" class="st0" width="3.2" height="3.2"/>
	<rect x="42.8" y="106" class="st0" width="3.2" height="3.2"/>
	<rect x="42.8" y="109.9" class="st0" width="3.2" height="3.2"/>
	<rect x="42.8" y="113.7" class="st0" width="3.2" height="3.2"/>
	<rect x="26.4" y="99.9" class="st0" width="3.2" height="3.2"/>
	<rect x="42.8" y="121.4" class="st0" width="3.2" height="3.2"/>
	<rect x="17.6" y="91" class="st0" width="3.2" height="3.2"/>
	<rect x="39" y="96.7" class="st0" width="3.2" height="3.2"/>
	<rect x="39" y="125.3" class="st0" width="3.2" height="3.2"/>
	<rect x="13.5" y="100.6" class="st0" width="3.2" height="3.2"/>
	<rect x="36.2" y="103.8" class="st0" width="3.2" height="3.2"/>
	<rect x="39" y="109.9" class="st0" width="3.2" height="3.2"/>
	<rect x="39" y="113.7" class="st0" width="3.2" height="3.2"/>
	<rect x="39" y="117.6" class="st0" width="3.2" height="3.2"/>
	<rect x="39" y="121.4" class="st0" width="3.2" height="3.2"/>
	<rect x="35" y="125.3" class="st0" width="3.2" height="3.2"/>
	<rect x="28" y="89.9" class="st0" width="3.2" height="3.2"/>
	<rect x="29.6" y="116.3" class="st0" width="3.2" height="3.2"/>
	<rect x="35" y="113.7" class="st0" width="3.2" height="3.2"/>
	<rect x="35" y="117.6" class="st0" width="3.2" height="3.2"/>
	<rect x="5.2" y="88.3" class="st0" width="3.2" height="3.2"/>
	<rect x="31.2" y="125.3" class="st0" width="3.2" height="3.2"/>
	<rect x="29.6" y="106.7" class="st0" width="3.2" height="3.2"/>
	<rect x="21.7" y="108.3" class="st0" width="3.2" height="3.2"/>
	<rect x="31.2" y="121.4" class="st0" width="3.2" height="3.2"/>
	<rect x="27" y="125.3" class="st0" width="3.2" height="3.2"/>
	<rect x="20.4" y="116.9" class="st0" width="3.2" height="3.2"/>
	<rect x="139.2" y="90.6" class="st0" width="3.2" height="3.2"/>
	<rect x="139.2" y="67.4" class="st0" width="3.2" height="3.2"/>
	<rect x="139.2" y="71.3" class="st0" width="3.2" height="3.2"/>
	<rect x="139.2" y="75.2" class="st0" width="3.2" height="3.2"/>
	<rect x="139.2" y="79" class="st0" width="3.2" height="3.2"/>
	<rect x="139.2" y="82.9" class="st0" width="3.2" height="3.2"/>
	<rect x="139.2" y="86.7" class="st0" width="3.2" height="3.2"/>
	<rect x="135.4" y="63.6" class="st0" width="10.9" height="3.2"/>
	<rect x="135.4" y="90.6" class="st0" width="3.2" height="3.2"/>
	<rect x="135.4" y="67.4" class="st0" width="3.2" height="3.2"/>
	<rect x="135.4" y="71.3" class="st0" width="3.2" height="3.2"/>
	<rect x="135.4" y="75.2" class="st0" width="3.2" height="3.2"/>
	<rect x="135.4" y="79" class="st0" width="3.2" height="3.2"/>
	<rect x="135.4" y="82.9" class="st0" width="3.2" height="3.2"/>
	<rect x="135.4" y="86.7" class="st0" width="3.2" height="3.2"/>
	<rect x="146.9" y="90.6" class="st0" width="3.2" height="3.2"/>
	<rect x="146.9" y="71.3" class="st0" width="3.2" height="3.2"/>
	<rect x="146.9" y="75.2" class="st0" width="3.2" height="3.2"/>
	<rect x="146.9" y="79" class="st0" width="3.2" height="3.2"/>
	<rect x="146.9" y="82.9" class="st0" width="3.2" height="3.2"/>
	<rect x="146.9" y="86.7" class="st0" width="3.2" height="3.2"/>
	<rect x="143.1" y="90.6" class="st0" width="3.2" height="3.2"/>
	<rect x="143.1" y="67.4" class="st0" width="3.2" height="3.2"/>
	<rect x="143.1" y="71.3" class="st0" width="3.2" height="3.2"/>
	<rect x="143.1" y="75.2" class="st0" width="3.2" height="3.2"/>
	<rect x="143.1" y="79" class="st0" width="3.2" height="3.2"/>
	<rect x="143.1" y="82.9" class="st0" width="3.2" height="3.2"/>
	<rect x="143.1" y="86.7" class="st0" width="3.2" height="3.2"/>
	<rect x="154.5" y="90.6" class="st0" width="3.2" height="3.2"/>
	<rect x="154.5" y="86.7" class="st0" width="3.2" height="3.2"/>
	<rect x="150.7" y="90.6" class="st0" width="3.2" height="3.2"/>
	<rect x="150.7" y="79" class="st0" width="3.2" height="3.2"/>
	<rect x="150.7" y="82.9" class="st0" width="3.2" height="3.2"/>
	<rect x="150.7" y="86.7" class="st0" width="3.2" height="3.2"/>
	<rect x="131.4" y="90.6" class="st0" width="3.2" height="3.2"/>
	<rect x="131.4" y="67.4" class="st0" width="3.2" height="3.2"/>
	<rect x="131.4" y="71.3" class="st0" width="3.2" height="3.2"/>
	<rect x="131.4" y="75.2" class="st0" width="3.2" height="3.2"/>
	<rect x="127.6" y="79.1" class="st0" width="7" height="7"/>
	<rect x="131.4" y="86.7" class="st0" width="3.2" height="3.2"/>
	<rect x="131.4" y="63.6" class="st0" width="3.2" height="3.2"/>
	<rect x="127.6" y="90.6" class="st0" width="3.2" height="3.2"/>
	<rect x="127.6" y="67.4" class="st0" width="3.2" height="3.2"/>
	<rect x="127.6" y="71.3" class="st0" width="3.2" height="3.2"/>
	<rect x="127.6" y="75.2" class="st0" width="3.2" height="3.2"/>
	<rect x="127.6" y="86.7" class="st0" width="3.2" height="3.2"/>
	<rect x="127.2" y="62" class="st0" width="3.2" height="3.2"/>
	<rect x="124" y="90.6" class="st0" width="3.2" height="3.2"/>
	<rect x="124" y="67.4" class="st0" width="3.2" height="3.2"/>
	<rect x="122.4" y="71.3" class="st0" width="3.2" height="3.2"/>
	<rect x="124" y="75.2" class="st0" width="3.2" height="3.2"/>
	<rect x="124" y="79" class="st0" width="3.2" height="3.2"/>
	<rect x="124" y="82.9" class="st0" width="3.2" height="3.2"/>
	<rect x="124" y="86.7" class="st0" width="3.2" height="3.2"/>
	<rect x="124" y="63.6" class="st0" width="3.2" height="3.2"/>
	<rect x="112" y="65.9" class="st0" width="3.2" height="3.2"/>
	<rect x="120.2" y="90.6" class="st0" width="3.2" height="3.2"/>
	<rect x="117" y="66.4" class="st0" width="3.2" height="3.2"/>
	<rect x="118.6" y="71.3" class="st0" width="3.2" height="3.2"/>
	<rect x="119.4" y="75.2" class="st0" width="3.2" height="3.2"/>
	<rect x="120.2" y="79" class="st0" width="3.2" height="3.2"/>
	<rect x="120.2" y="82.9" class="st0" width="3.2" height="3.2"/>
	<rect x="120.2" y="86.7" class="st0" width="3.2" height="3.2"/>
	<rect x="116.3" y="90.6" class="st0" width="3.2" height="3.2"/>
	<rect x="111.4" y="71.3" class="st0" width="3.2" height="3.2"/>
	<rect x="113.7" y="75.2" class="st0" width="3.2" height="3.2"/>
	<rect x="116.3" y="79" class="st0" width="3.2" height="3.2"/>
	<rect x="116.3" y="82.9" class="st0" width="3.2" height="3.2"/>
	<rect x="116.3" y="86.7" class="st0" width="3.2" height="3.2"/>
	<rect x="112.5" y="90.6" class="st0" width="3.2" height="3.2"/>
	<rect x="110.9" y="79" class="st0" width="3.2" height="3.2"/>
	<rect x="105.8" y="81.5" class="st0" width="3.2" height="3.2"/>
	<rect x="111.4" y="85.1" class="st0" width="3.2" height="3.2"/>
	<rect x="108.3" y="90.6" class="st0" width="3.2" height="3.2"/>
	<rect x="108.3" y="86.7" class="st0" width="3.2" height="3.2"/>
	<rect x="85.1" y="90.6" class="st0" width="3.2" height="3.2"/>
	<rect x="85.1" y="67.4" class="st0" width="3.2" height="3.2"/>
	<rect x="85.1" y="71.3" class="st0" width="3.2" height="3.2"/>
	<rect x="85.1" y="75.2" class="st0" width="3.2" height="3.2"/>
	<rect x="85.1" y="79" class="st0" width="3.2" height="3.2"/>
	<rect x="85.1" y="86.7" class="st0" width="3.2" height="3.2"/>
	<rect x="85.1" y="63.6" class="st0" width="3.2" height="3.2"/>
	<rect x="89.1" y="63.6" class="st0" width="3.2" height="3.2"/>
	<rect x="81.3" y="90.6" class="st0" width="3.2" height="3.2"/>
	<rect x="80.6" y="66.8" class="st0" width="3.2" height="3.2"/>
	<rect x="79.7" y="71.6" class="st0" width="3.2" height="3.2"/>
	<rect x="43" y="48.2" class="st0" width="3.2" height="3.2"/>
	<rect x="81.2" y="78.3" class="st0" width="3.2" height="3.2"/>
	<rect x="81.3" y="82.9" class="st0" width="3.2" height="3.2"/>
	<rect x="81.3" y="86.7" class="st0" width="3.2" height="3.2"/>
	<rect x="81.3" y="62" class="st0" width="3.2" height="3.2"/>
	<rect x="92.9" y="90.6" class="st0" width="3.2" height="3.2"/>
	<rect x="92.9" y="71.3" class="st0" width="3.2" height="3.2"/>
	<rect x="92.9" y="75.2" class="st0" width="3.2" height="3.2"/>
	<rect x="92.9" y="79" class="st0" width="3.2" height="3.2"/>
	<rect x="85.1" y="82.9" class="st0" width="10.9" height="3.2"/>
	<rect x="92.9" y="86.7" class="st0" width="3.2" height="3.2"/>
	<rect x="89.1" y="90.6" class="st0" width="3.2" height="3.2"/>
	<rect x="89.1" y="67.4" class="st0" width="3.2" height="3.2"/>
	<rect x="89.1" y="71.3" class="st0" width="3.2" height="3.2"/>
	<rect x="89.1" y="75.2" class="st0" width="3.2" height="3.2"/>
	<rect x="89.1" y="79" class="st0" width="3.2" height="3.2"/>
	<rect x="89.1" y="86.7" class="st0" width="3.2" height="3.2"/>
	<rect x="100.4" y="90.6" class="st0" width="3.2" height="3.2"/>
	<rect x="100.4" y="86.7" class="st0" width="3.2" height="3.2"/>
	<rect x="96.6" y="90.6" class="st0" width="3.2" height="3.2"/>
	<rect x="96.6" y="79" class="st0" width="3.2" height="3.2"/>
	<rect x="96.6" y="82.9" class="st0" width="3.2" height="3.2"/>
	<rect x="96.6" y="86.7" class="st0" width="3.2" height="3.2"/>
	<rect x="77.4" y="90.6" class="st0" width="3.2" height="3.2"/>
	<rect x="61.6" y="51.3" class="st0" width="3.2" height="3.2"/>
	<rect x="43.9" y="56.4" class="st0" width="3.2" height="3.2"/>
	<rect x="77.4" y="75.2" class="st0" width="3.2" height="3.2"/>
	<rect x="77.4" y="79" class="st0" width="3.2" height="3.2"/>
	<rect x="77.4" y="82.9" class="st0" width="3.2" height="3.2"/>
	<rect x="77.4" y="86.7" class="st0" width="3.2" height="3.2"/>
	<rect x="76.2" y="62.4" class="st0" width="3.2" height="3.2"/>
	<rect x="73.6" y="90.6" class="st0" width="3.2" height="3.2"/>
	<rect x="73.6" y="67.4" class="st0" width="3.2" height="3.2"/>
	<rect x="36" y="68.4" class="st0" width="3.2" height="3.2"/>
	<rect x="16" y="59.1" class="st0" width="3.2" height="3.2"/>
	<rect x="72.8" y="78.7" class="st0" width="3.2" height="3.2"/>
	<rect x="72.5" y="82.9" class="st0" width="3.2" height="3.2"/>
	<rect x="73.6" y="86.7" class="st0" width="3.2" height="3.2"/>
	<rect x="70.9" y="59.1" class="st0" width="3.2" height="3.2"/>
	<rect x="69.9" y="90.6" class="st0" width="3.2" height="3.2"/>
	<rect x="69.9" y="67.4" class="st0" width="3.2" height="3.2"/>
	<rect x="69.9" y="71.3" class="st0" width="3.2" height="3.2"/>
	<rect x="33.9" y="54.5" class="st0" width="3.2" height="3.2"/>
	<rect x="68.3" y="75.8" class="st0" width="3.2" height="3.2"/>
	<rect x="67.3" y="82.2" class="st0" width="3.2" height="3.2"/>
	<rect x="20.5" y="81.3" class="st0" width="3.2" height="3.2"/>
	<rect x="67.7" y="62.4" class="st0" width="3.2" height="3.2"/>
	<rect x="56.8" y="59.6" class="st0" width="3.2" height="3.2"/>
	<rect x="66.1" y="90.6" class="st0" width="3.2" height="3.2"/>
	<rect x="66.1" y="67.4" class="st0" width="3.2" height="3.2"/>
	<rect x="22.1" y="72.2" class="st0" width="3.2" height="3.2"/>
	<rect x="10.8" y="70.6" class="st0" width="3.2" height="3.2"/>
	<rect x="58.4" y="66.8" class="st0" width="3.2" height="3.2"/>
	<rect x="28.6" y="44.3" class="st0" width="3.2" height="3.2"/>
	<rect x="66.1" y="86.7" class="st0" width="3.2" height="3.2"/>
	<rect x="62.2" y="90.6" class="st0" width="3.2" height="3.2"/>
	<rect x="62.9" y="72.3" class="st0" width="3.2" height="3.2"/>
	<rect x="63.8" y="77.1" class="st0" width="3.2" height="3.2"/>
	<rect x="62.9" y="60.8" class="st0" width="3.2" height="3.2"/>
	<rect x="62.2" y="82.9" class="st0" width="3.2" height="3.2"/>
	<rect x="49" y="46.6" class="st0" width="3.2" height="3.2"/>
	<rect x="57.4" y="89.4" class="st0" width="3.2" height="3.2"/>
	<rect x="56.3" y="75.8" class="st0" width="3.2" height="3.2"/>
	<rect x="56.3" y="84.5" class="st0" width="3.2" height="3.2"/>
	<rect x="52.5" y="63.6" class="st0" width="3.2" height="3.2"/>
	<rect x="49" y="70.6" class="st0" width="3.2" height="3.2"/>
	<rect x="51.3" y="86.1" class="st0" width="3.2" height="3.2"/>
	<rect x="104.2" y="71.6" class="st0" width="3.2" height="3.2"/>
	<rect x="87.9" class="st0" width="3.2" height="3.2"/>
	<rect x="74.1" y="11.6" class="st0" width="3.2" height="3.2"/>
	<rect x="64.5" y="1.3" class="st0" width="3.2" height="3.2"/>
	<rect x="19.1" y="33.7" class="st0" width="3.2" height="3.2"/>
	<rect y="44.1" class="st0" width="3.2" height="3.2"/>
	<rect x="158" y="106" class="st0" width="7.1" height="7"/>
</g>
</svg>
