<?xml version="1.0" encoding="utf-8"?>
<!-- Generator: Adobe Illustrator 21.0.2, SVG Export Plug-In . SVG Version: 6.00 Build 0)  -->
<svg version="1.1" id="_x33__розділ" xmlns="http://www.w3.org/2000/svg" xmlns:xlink="http://www.w3.org/1999/xlink" x="0px"
	 y="0px" viewBox="0 0 195 101.2" style="enable-background:new 0 0 195 101.2;" xml:space="preserve">
<style type="text/css">
	.st0{fill:#FF814D;stroke:#101633;stroke-width:0.5;stroke-miterlimit:10;}
	.st1{fill:#FF814D;}
</style>
<g>
	<rect x="160.3" y="54.9" class="st0" width="2.8" height="2.8"/>
	<rect x="156.7" y="54.9" class="st0" width="2.8" height="2.8"/>
	<rect x="153.1" y="54.9" class="st0" width="2.8" height="2.8"/>
	<rect x="149.4" y="54.9" class="st0" width="2.8" height="2.8"/>
	<rect x="145.8" y="54.9" class="st0" width="2.8" height="2.8"/>
	<rect x="142.2" y="54.9" class="st0" width="2.8" height="2.8"/>
	<rect x="138.6" y="54.9" class="st0" width="2.8" height="2.8"/>
	<rect x="135" y="54.9" class="st0" width="2.8" height="2.8"/>
	<rect x="131.4" y="54.9" class="st0" width="2.8" height="2.8"/>
	<rect x="127.8" y="54.9" class="st0" width="2.8" height="2.8"/>
	<rect x="124.2" y="54.9" class="st0" width="2.8" height="2.8"/>
	<rect x="116.9" y="54.9" class="st0" width="2.8" height="2.8"/>
	<rect x="113.3" y="54.9" class="st0" width="2.8" height="2.8"/>
	<rect x="109.7" y="54.9" class="st0" width="2.8" height="2.8"/>
	<rect x="106.1" y="54.9" class="st0" width="2.8" height="2.8"/>
	<rect x="102.5" y="54.9" class="st0" width="2.8" height="2.8"/>
	<rect x="98.9" y="54.9" class="st0" width="2.8" height="2.8"/>
	<rect x="95.3" y="54.9" class="st0" width="2.8" height="2.8"/>
	<rect x="91.7" y="54.9" class="st0" width="2.8" height="2.8"/>
	<rect x="88" y="54.9" class="st0" width="2.8" height="2.8"/>
	<rect x="84.4" y="54.9" class="st0" width="2.8" height="2.8"/>
	<rect x="80.8" y="54.9" class="st0" width="2.8" height="2.8"/>
	<rect x="77.2" y="54.9" class="st0" width="2.8" height="2.8"/>
	<rect x="73.6" y="54.9" class="st0" width="2.8" height="2.8"/>
	<rect x="70" y="54.9" class="st0" width="2.8" height="2.8"/>
	<rect x="66.4" y="54.9" class="st0" width="2.8" height="2.8"/>
	<rect x="62.8" y="54.9" class="st0" width="2.8" height="2.8"/>
	<rect x="163.9" y="54.9" class="st0" width="2.8" height="2.8"/>
	<rect x="145.8" y="51.1" class="st0" width="2.8" height="2.8"/>
	<rect x="142.2" y="51.1" class="st0" width="2.8" height="2.8"/>
	<rect x="138.6" y="51.1" class="st0" width="2.8" height="2.8"/>
	<rect x="135" y="51.1" class="st0" width="2.8" height="2.8"/>
	<rect x="131.4" y="51.1" class="st0" width="2.8" height="2.8"/>
	<rect x="127.8" y="51.1" class="st0" width="2.8" height="2.8"/>
	<rect x="124.2" y="51.1" class="st0" width="2.8" height="2.8"/>
	<rect x="116.9" y="51.1" class="st0" width="2.8" height="2.8"/>
	<rect x="113.3" y="51.1" class="st0" width="2.8" height="2.8"/>
	<rect x="109.7" y="51.1" class="st0" width="2.8" height="2.8"/>
	<rect x="106.1" y="51.1" class="st0" width="2.8" height="2.8"/>
	<rect x="102.5" y="51.1" class="st0" width="2.8" height="2.8"/>
	<rect x="98.9" y="51.1" class="st0" width="2.8" height="2.8"/>
	<rect x="95.3" y="51.1" class="st0" width="2.8" height="2.8"/>
	<rect x="91.7" y="51.1" class="st0" width="2.8" height="2.8"/>
	<rect x="88" y="51.1" class="st0" width="2.8" height="2.8"/>
	<rect x="84.4" y="51.1" class="st0" width="2.8" height="2.8"/>
	<rect x="80.8" y="51.1" class="st0" width="2.8" height="2.8"/>
	<rect x="77.2" y="51.1" class="st0" width="2.8" height="2.8"/>
	<rect x="73.6" y="51.1" class="st0" width="2.8" height="2.8"/>
	<rect x="70" y="51.1" class="st0" width="2.8" height="2.8"/>
	<rect x="149.4" y="51.1" class="st0" width="17.3" height="2.8"/>
	<rect x="160.3" y="47.7" class="st0" width="2.8" height="2.8"/>
	<rect x="156.7" y="47.7" class="st0" width="2.8" height="2.8"/>
	<rect x="153.1" y="47.7" class="st0" width="2.8" height="2.8"/>
	<rect x="149.4" y="47.7" class="st0" width="2.8" height="2.8"/>
	<rect x="145.8" y="47.7" class="st0" width="2.8" height="2.8"/>
	<rect x="142.2" y="47.7" class="st0" width="2.8" height="2.8"/>
	<rect x="138.6" y="47.7" class="st0" width="2.8" height="2.8"/>
	<rect x="135" y="47.7" class="st0" width="2.8" height="2.8"/>
	<rect x="131.4" y="47.7" class="st0" width="2.8" height="2.8"/>
	<rect x="127.8" y="47.7" class="st0" width="2.8" height="2.8"/>
	<rect x="124.2" y="47.7" class="st0" width="2.8" height="2.8"/>
	<rect x="116.9" y="47.7" class="st0" width="2.8" height="2.8"/>
	<rect x="113.3" y="47.7" class="st0" width="2.8" height="2.8"/>
	<rect x="109.7" y="47.7" class="st0" width="2.8" height="2.8"/>
	<rect x="106.1" y="47.7" class="st0" width="2.8" height="2.8"/>
	<rect x="102.5" y="47.7" class="st0" width="2.8" height="2.8"/>
	<rect x="98.9" y="47.7" class="st0" width="2.8" height="2.8"/>
	<rect x="95.3" y="47.7" class="st0" width="2.8" height="2.8"/>
	<rect x="91.7" y="47.7" class="st0" width="2.8" height="2.8"/>
	<rect x="88" y="47.7" class="st0" width="2.8" height="2.8"/>
	<rect x="84.4" y="47.7" class="st0" width="2.8" height="2.8"/>
	<rect x="80.8" y="47.7" class="st0" width="2.8" height="2.8"/>
	<rect x="77.2" y="47.7" class="st0" width="2.8" height="2.8"/>
	<rect x="73.6" y="47.7" class="st0" width="2.8" height="2.8"/>
	<rect x="66.4" y="51.3" class="st0" width="2.8" height="2.8"/>
	<rect x="62.8" y="47.7" class="st0" width="2.8" height="2.8"/>
	<rect x="163.9" y="47.7" class="st0" width="2.8" height="2.8"/>
	<rect x="160.3" y="44" class="st0" width="2.8" height="2.8"/>
	<rect x="156.7" y="44" class="st0" width="2.8" height="2.8"/>
	<rect x="153.1" y="44" class="st0" width="2.8" height="2.8"/>
	<rect x="149.4" y="44" class="st0" width="2.8" height="2.8"/>
	<rect x="145.8" y="44" class="st0" width="2.8" height="2.8"/>
	<rect x="142.2" y="44" class="st0" width="2.8" height="2.8"/>
	<rect x="138.6" y="44" class="st0" width="2.8" height="2.8"/>
	<rect x="135" y="44" class="st0" width="2.8" height="2.8"/>
	<rect x="131.4" y="44" class="st0" width="2.8" height="2.8"/>
	<rect x="127.8" y="44" class="st0" width="2.8" height="2.8"/>
	<rect x="124.2" y="44" class="st0" width="2.8" height="2.8"/>
	<rect x="120.5" y="44" class="st0" width="2.8" height="17.5"/>
	<rect x="116.9" y="44" class="st0" width="2.8" height="2.8"/>
	<rect x="106.1" y="44" class="st0" width="2.8" height="2.8"/>
	<rect x="102.5" y="44" class="st0" width="2.8" height="2.8"/>
	<rect x="98.9" y="44" class="st0" width="2.8" height="2.8"/>
	<rect x="95.3" y="44" class="st0" width="2.8" height="2.8"/>
	<rect x="91.7" y="44" class="st0" width="2.8" height="2.8"/>
	<rect x="88" y="44" class="st0" width="2.8" height="2.8"/>
	<rect x="84.4" y="44" class="st0" width="2.8" height="2.8"/>
	<rect x="80.8" y="44" class="st0" width="2.8" height="2.8"/>
	<rect x="77.2" y="44" class="st0" width="2.8" height="2.8"/>
	<rect x="70" y="44" class="st0" width="2.8" height="2.8"/>
	<rect x="66.4" y="44" class="st0" width="2.8" height="2.8"/>
	<rect x="62.8" y="44" class="st0" width="2.8" height="2.8"/>
	<rect x="163.9" y="44" class="st0" width="2.8" height="2.8"/>
	<rect x="156.7" y="40.2" class="st0" width="2.8" height="2.8"/>
	<rect x="153.1" y="40.2" class="st0" width="2.8" height="2.8"/>
	<rect x="149.4" y="40.2" class="st0" width="2.8" height="2.8"/>
	<rect x="145.8" y="40.2" class="st0" width="2.8" height="2.8"/>
	<rect x="142.2" y="40.2" class="st0" width="2.8" height="2.8"/>
	<rect x="138.6" y="40.2" class="st0" width="2.8" height="2.8"/>
	<rect x="135" y="40.2" class="st0" width="2.8" height="2.8"/>
	<rect x="131.4" y="40.2" class="st0" width="2.8" height="2.8"/>
	<rect x="127.8" y="40.2" class="st0" width="2.8" height="2.8"/>
	<rect x="124.2" y="40.2" class="st0" width="2.8" height="2.8"/>
	<rect x="120.5" y="40.2" class="st0" width="2.8" height="2.8"/>
	<rect x="113.3" y="40.2" class="st0" width="2.8" height="2.8"/>
	<rect x="109.7" y="40.2" class="st0" width="2.8" height="2.8"/>
	<rect x="102.5" y="40.2" class="st0" width="2.8" height="2.8"/>
	<rect x="98.9" y="40.2" class="st0" width="2.8" height="2.8"/>
	<rect x="95.3" y="40.2" class="st0" width="2.8" height="2.8"/>
	<rect x="91.7" y="40.2" class="st0" width="2.8" height="2.8"/>
	<rect x="88" y="40.2" class="st0" width="2.8" height="2.8"/>
	<rect x="84.4" y="40.2" class="st0" width="2.8" height="2.8"/>
	<rect x="80.8" y="40.2" class="st0" width="2.8" height="2.8"/>
	<rect x="73.6" y="40.2" class="st0" width="2.8" height="2.8"/>
	<rect x="70" y="40.2" class="st0" width="2.8" height="2.8"/>
	<rect x="66.4" y="40.2" class="st0" width="2.8" height="2.8"/>
	<rect x="62.8" y="40.2" class="st0" width="2.8" height="2.8"/>
	<rect x="163.9" y="40.2" class="st0" width="2.8" height="2.8"/>
	<rect x="160.3" y="36.5" class="st0" width="2.8" height="2.8"/>
	<rect x="156.7" y="36.5" class="st0" width="2.8" height="2.8"/>
	<rect x="153.1" y="36.5" class="st0" width="2.8" height="2.8"/>
	<rect x="149.4" y="36.5" class="st0" width="2.8" height="2.8"/>
	<rect x="145.8" y="36.5" class="st0" width="2.8" height="2.8"/>
	<rect x="142.2" y="36.5" class="st0" width="2.8" height="2.8"/>
	<rect x="138.6" y="36.5" class="st0" width="2.8" height="2.8"/>
	<rect x="135" y="36.5" class="st0" width="2.8" height="2.8"/>
	<rect x="131.4" y="36.5" class="st0" width="2.8" height="2.8"/>
	<rect x="127.8" y="36.5" class="st0" width="2.8" height="2.8"/>
	<rect x="124.2" y="36.5" class="st0" width="2.8" height="2.8"/>
	<rect x="116.9" y="36.5" class="st0" width="2.8" height="2.8"/>
	<rect x="109.7" y="36.5" class="st0" width="6.4" height="2.8"/>
	<rect x="106.1" y="36.5" class="st0" width="2.8" height="2.8"/>
	<rect x="98.9" y="36.5" class="st0" width="2.8" height="2.8"/>
	<rect x="95.3" y="36.5" class="st0" width="2.8" height="2.8"/>
	<rect x="91.7" y="36.5" class="st0" width="2.8" height="2.8"/>
	<rect x="88" y="36.5" class="st0" width="2.8" height="2.8"/>
	<rect x="84.4" y="36.5" class="st0" width="2.8" height="2.8"/>
	<rect x="77.2" y="36.5" class="st0" width="2.8" height="2.8"/>
	<rect x="73.6" y="36.5" class="st0" width="2.8" height="2.8"/>
	<rect x="70" y="36.5" class="st0" width="2.8" height="2.8"/>
	<rect x="66.4" y="36.5" class="st0" width="2.8" height="2.8"/>
	<rect x="62.8" y="36.5" class="st0" width="2.8" height="2.8"/>
	<rect x="163.9" y="36.5" class="st0" width="2.8" height="2.8"/>
	<rect x="160.3" y="33" class="st0" width="2.8" height="2.8"/>
	<rect x="156.7" y="33" class="st0" width="2.8" height="2.8"/>
	<rect x="153.1" y="33" class="st0" width="2.8" height="2.8"/>
	<rect x="149.4" y="33" class="st0" width="2.8" height="2.8"/>
	<rect x="145.8" y="33" class="st0" width="2.8" height="2.8"/>
	<rect x="142.2" y="33" class="st0" width="2.8" height="2.8"/>
	<rect x="138.6" y="33" class="st0" width="2.8" height="2.8"/>
	<rect x="135" y="33" class="st0" width="2.8" height="2.8"/>
	<rect x="131.4" y="33" class="st0" width="2.8" height="2.8"/>
	<rect x="127.8" y="33" class="st0" width="2.8" height="2.8"/>
	<rect x="124.2" y="33" class="st0" width="2.8" height="2.8"/>
	<rect x="116.9" y="33" class="st0" width="2.8" height="2.8"/>
	<rect x="113.3" y="33" class="st0" width="2.8" height="2.8"/>
	<rect x="109.7" y="33" class="st0" width="2.8" height="2.8"/>
	<rect x="106.1" y="33" class="st0" width="2.8" height="2.8"/>
	<rect x="98.9" y="33" class="st0" width="2.8" height="2.8"/>
	<rect x="95.3" y="33" class="st0" width="2.8" height="2.8"/>
	<rect x="91.7" y="33" class="st0" width="2.8" height="2.8"/>
	<rect x="88" y="33" class="st0" width="2.8" height="2.8"/>
	<rect x="80.8" y="33" class="st0" width="2.8" height="2.8"/>
	<rect x="77.2" y="33" class="st0" width="2.8" height="2.8"/>
	<rect x="73.6" y="33" class="st0" width="2.8" height="2.8"/>
	<rect x="70" y="33" class="st0" width="2.8" height="2.8"/>
	<rect x="66.4" y="33" class="st0" width="2.8" height="2.8"/>
	<rect x="62.8" y="33" class="st0" width="2.8" height="2.8"/>
	<rect x="163.9" y="33" class="st0" width="2.8" height="2.8"/>
	<rect x="156.7" y="29.3" class="st0" width="2.8" height="2.8"/>
	<rect x="145.8" y="29.3" class="st0" width="2.8" height="2.8"/>
	<rect x="142.2" y="29.3" class="st0" width="2.8" height="2.8"/>
	<rect x="138.6" y="29.3" class="st0" width="2.8" height="2.8"/>
	<rect x="135" y="29.3" class="st0" width="2.8" height="2.8"/>
	<rect x="131.4" y="29.3" class="st0" width="2.8" height="2.8"/>
	<rect x="127.8" y="29.3" class="st0" width="2.8" height="2.8"/>
	<rect x="124.2" y="29.3" class="st0" width="2.8" height="2.8"/>
	<rect x="120.5" y="29.3" class="st0" width="2.8" height="2.8"/>
	<rect x="113.3" y="29.3" class="st0" width="2.8" height="2.8"/>
	<rect x="109.7" y="29.3" class="st0" width="2.8" height="2.8"/>
	<rect x="106.1" y="29.3" class="st0" width="2.8" height="2.8"/>
	<rect x="102.5" y="29.3" class="st0" width="2.8" height="2.8"/>
	<rect x="84.4" y="29.3" class="st0" width="2.8" height="2.8"/>
	<rect x="80.8" y="29.3" class="st0" width="2.8" height="2.8"/>
	<rect x="77.2" y="29.3" class="st0" width="2.8" height="2.8"/>
	<rect x="73.6" y="29.3" class="st0" width="2.8" height="2.8"/>
	<rect x="70" y="29.3" class="st0" width="2.8" height="2.8"/>
	<rect x="66.4" y="29.3" class="st0" width="2.8" height="2.8"/>
	<rect x="62.8" y="29.3" class="st0" width="2.8" height="2.8"/>
	<rect x="163.9" y="29.3" class="st0" width="2.8" height="2.8"/>
	<rect x="160.3" y="25.5" class="st0" width="2.8" height="2.8"/>
	<rect x="156.7" y="25.5" class="st0" width="2.8" height="2.8"/>
	<rect x="145.8" y="25.5" class="st0" width="2.8" height="2.8"/>
	<rect x="142.2" y="25.5" class="st0" width="2.8" height="2.8"/>
	<rect x="138.6" y="25.5" class="st0" width="2.8" height="2.8"/>
	<rect x="135" y="25.5" class="st0" width="2.8" height="2.8"/>
	<rect x="131.4" y="25.5" class="st0" width="2.8" height="2.8"/>
	<rect x="127.8" y="25.5" class="st0" width="2.8" height="2.8"/>
	<rect x="124.2" y="25.5" class="st0" width="2.8" height="2.8"/>
	<rect x="120.5" y="25.5" class="st0" width="2.8" height="2.8"/>
	<rect x="116.9" y="25.5" class="st0" width="2.8" height="2.8"/>
	<rect x="109.7" y="25.5" class="st0" width="2.8" height="2.8"/>
	<rect x="106.1" y="25.5" class="st0" width="2.8" height="2.8"/>
	<rect x="102.5" y="25.5" class="st0" width="2.8" height="2.8"/>
	<rect x="98.9" y="25.5" class="st0" width="2.8" height="2.8"/>
	<rect x="95.3" y="25.5" class="st0" width="2.8" height="2.8"/>
	<rect x="91.7" y="25.5" class="st0" width="2.8" height="2.8"/>
	<rect x="88" y="25.5" class="st0" width="2.8" height="2.8"/>
	<rect x="84.4" y="25.5" class="st0" width="2.8" height="2.8"/>
	<rect x="80.8" y="25.5" class="st0" width="2.8" height="2.8"/>
	<rect x="77.2" y="25.5" class="st0" width="2.8" height="2.8"/>
	<rect x="73.6" y="25.5" class="st0" width="2.8" height="2.8"/>
	<rect x="70" y="25.5" class="st0" width="2.8" height="2.8"/>
	<rect x="66.4" y="25.5" class="st0" width="2.8" height="2.8"/>
	<rect x="62.8" y="25.5" class="st0" width="2.8" height="2.8"/>
	<rect x="163.9" y="25.5" class="st0" width="2.8" height="2.8"/>
	<rect x="170.5" y="24.6" class="st0" width="2.8" height="2.8"/>
	<rect x="156.7" y="21.8" class="st0" width="2.8" height="2.8"/>
	<rect x="149.4" y="21.8" class="st0" width="2.8" height="2.8"/>
	<rect x="145.8" y="21.8" class="st0" width="2.8" height="2.8"/>
	<rect x="142.2" y="21.8" class="st0" width="2.8" height="2.8"/>
	<rect x="178.5" y="36.5" class="st0" width="2.8" height="2.8"/>
	<rect x="174.7" y="40.2" class="st0" width="2.8" height="2.8"/>
	<rect x="131.4" y="21.8" class="st0" width="2.8" height="2.8"/>
	<rect x="127.8" y="21.8" class="st0" width="2.8" height="2.8"/>
	<rect x="124.2" y="21.8" class="st0" width="2.8" height="2.8"/>
	<rect x="120.5" y="21.8" class="st0" width="2.8" height="2.8"/>
	<rect x="116.9" y="21.8" class="st0" width="2.8" height="2.8"/>
	<rect x="109.7" y="21.8" class="st0" width="2.8" height="2.8"/>
	<rect x="106.1" y="21.8" class="st0" width="2.8" height="2.8"/>
	<rect x="102.5" y="21.8" class="st0" width="2.8" height="2.8"/>
	<rect x="98.9" y="21.8" class="st0" width="2.8" height="2.8"/>
	<rect x="95.3" y="21.8" class="st0" width="2.8" height="2.8"/>
	<rect x="91.7" y="21.8" class="st0" width="2.8" height="2.8"/>
	<rect x="88" y="21.8" class="st0" width="2.8" height="2.8"/>
	<rect x="84.4" y="21.8" class="st0" width="2.8" height="2.8"/>
	<rect x="80.8" y="21.8" class="st0" width="2.8" height="2.8"/>
	<rect x="77.2" y="21.8" class="st0" width="2.8" height="2.8"/>
	<rect x="73.6" y="21.8" class="st0" width="2.8" height="2.8"/>
	<rect x="70" y="21.8" class="st0" width="2.8" height="2.8"/>
	<rect x="165.3" y="22.3" class="st0" width="2.8" height="2.8"/>
	<rect x="161.1" y="16.5" class="st0" width="2.8" height="2.8"/>
	<rect x="156.7" y="18.3" class="st0" width="2.8" height="2.8"/>
	<rect x="153.1" y="18.3" class="st0" width="2.8" height="2.8"/>
	<rect x="149.4" y="18.3" class="st0" width="2.8" height="2.8"/>
	<rect x="186.6" y="28.3" class="st0" width="2.8" height="2.8"/>
	<rect x="167.5" y="29.3" class="st0" width="2.8" height="2.8"/>
	<rect x="171.5" y="33" class="st0" width="2.8" height="2.8"/>
	<rect x="167.7" y="33" class="st0" width="2.8" height="2.8"/>
	<rect x="167.7" y="36.5" class="st0" width="2.8" height="2.8"/>
	<rect x="167.7" y="40.2" class="st0" width="2.8" height="2.8"/>
	<rect x="167.7" y="44" class="st0" width="2.8" height="2.8"/>
	<rect x="171.1" y="40.4" class="st0" width="2.8" height="2.8"/>
	<rect x="171.3" y="44.1" class="st0" width="2.8" height="2.8"/>
	<rect x="171.3" y="47.6" class="st0" width="2.8" height="2.8"/>
	<rect x="171.3" y="51.3" class="st0" width="2.8" height="2.8"/>
	<rect x="171.3" y="55.1" class="st0" width="2.8" height="2.8"/>
	<rect x="174.6" y="36.5" class="st0" width="2.8" height="2.8"/>
	<rect x="124.2" y="18.3" class="st0" width="2.8" height="2.8"/>
	<rect x="120.5" y="18.3" class="st0" width="2.8" height="2.8"/>
	<rect x="116.9" y="18.3" class="st0" width="2.8" height="2.8"/>
	<rect x="113.3" y="18.3" class="st0" width="2.8" height="2.8"/>
	<rect x="106.1" y="18.3" class="st0" width="2.8" height="2.8"/>
	<rect x="102.5" y="18.3" class="st0" width="2.8" height="2.8"/>
	<rect x="98.9" y="18.3" class="st0" width="2.8" height="2.8"/>
	<rect x="95.3" y="18.3" class="st0" width="2.8" height="2.8"/>
	<rect x="88" y="18.3" class="st0" width="2.8" height="2.8"/>
	<rect x="84.4" y="18.3" class="st0" width="2.8" height="2.8"/>
	<rect x="80.8" y="18.3" class="st0" width="2.8" height="2.8"/>
	<rect x="77.2" y="18.3" class="st0" width="2.8" height="2.8"/>
	<rect x="73.6" y="18.3" class="st0" width="2.8" height="2.8"/>
	<rect x="167.5" y="18.3" class="st0" width="2.8" height="2.8"/>
	<rect x="170.9" y="8.6" class="st0" width="2.8" height="2.8"/>
	<rect x="176" y="15.1" class="st0" width="2.8" height="2.8"/>
	<rect x="181.6" y="9.2" class="st0" width="2.8" height="2.8"/>
	<rect x="159.9" y="10.6" class="st0" width="2.8" height="2.8"/>
	<rect x="168.7" y="3.8" class="st0" width="2.8" height="2.8"/>
	<rect x="173.3" y="20.9" class="st0" width="2.8" height="2.8"/>
	<rect x="175.7" y="28.3" class="st0" width="2.8" height="2.8"/>
	<rect x="182.4" y="19.7" class="st0" width="2.8" height="2.8"/>
	<rect x="181.9" y="1.4" class="st0" width="2.8" height="2.8"/>
	<rect x="186.2" y="5.8" class="st0" width="2.8" height="2.8"/>
	<rect x="192.2" y="23.6" class="st0" width="2.8" height="2.8"/>
	<rect x="109.7" y="11.4" class="st0" width="2.8" height="2.8"/>
	<rect x="106.1" y="11.4" class="st0" width="2.8" height="2.8"/>
	<rect x="116.9" y="14.6" class="st0" width="2.8" height="2.8"/>
	<rect x="113.3" y="14.6" class="st0" width="2.8" height="2.8"/>
	<rect x="109.7" y="14.6" class="st0" width="2.8" height="2.8"/>
	<rect x="102.5" y="14.6" class="st0" width="2.8" height="2.8"/>
	<rect x="98.9" y="14.6" class="st0" width="2.8" height="2.8"/>
	<rect x="95.3" y="14.6" class="st0" width="2.8" height="2.8"/>
	<rect x="88" y="14.6" class="st0" width="2.8" height="2.8"/>
	<rect x="84.4" y="14.6" class="st0" width="2.8" height="2.8"/>
	<rect x="80.8" y="14.6" class="st0" width="2.8" height="2.8"/>
	<rect x="77.2" y="14.6" class="st0" width="2.8" height="2.8"/>
	<rect x="95.3" y="10.8" class="st0" width="2.8" height="2.8"/>
	<rect x="88" y="10.8" class="st0" width="2.8" height="2.8"/>
	<rect x="84.4" y="10.8" class="st0" width="2.8" height="2.8"/>
	<rect x="164.6" y="14.6" class="st0" width="2.8" height="2.8"/>
	<rect x="113.3" y="98.4" class="st0" width="2.8" height="2.8"/>
	<rect x="109.7" y="98.4" class="st0" width="2.8" height="2.8"/>
	<rect x="106.1" y="98.4" class="st0" width="2.8" height="2.8"/>
	<rect x="102.5" y="98.4" class="st0" width="2.8" height="2.8"/>
	<rect x="95.3" y="98.4" class="st0" width="2.8" height="2.8"/>
	<rect x="91.7" y="98.4" class="st0" width="2.8" height="2.8"/>
	<rect x="88" y="98.4" class="st0" width="2.8" height="2.8"/>
	<rect x="84.4" y="98.4" class="st0" width="2.8" height="2.8"/>
	<rect x="120.5" y="94.6" class="st0" width="2.8" height="2.8"/>
	<rect x="113.3" y="94.6" class="st0" width="2.8" height="2.8"/>
	<rect x="109.7" y="94.6" class="st0" width="2.8" height="2.8"/>
	<rect x="106.1" y="94.6" class="st0" width="2.8" height="2.8"/>
	<rect x="102.5" y="94.6" class="st0" width="2.8" height="2.8"/>
	<rect x="95.3" y="94.6" class="st0" width="2.8" height="2.8"/>
	<rect x="91.7" y="94.6" class="st0" width="2.8" height="2.8"/>
	<rect x="88" y="94.6" class="st0" width="2.8" height="2.8"/>
	<rect x="84.4" y="94.6" class="st0" width="2.8" height="2.8"/>
	<rect x="77.2" y="94.6" class="st0" width="2.8" height="2.8"/>
	<rect x="73.6" y="94.6" class="st0" width="2.8" height="2.8"/>
	<rect x="124.2" y="91.2" class="st0" width="2.8" height="2.8"/>
	<rect x="120.5" y="91.2" class="st0" width="2.8" height="2.8"/>
	<rect x="116.9" y="91.2" class="st0" width="2.8" height="2.8"/>
	<rect x="109.7" y="91.2" class="st0" width="2.8" height="2.8"/>
	<rect x="106.1" y="91.2" class="st0" width="2.8" height="2.8"/>
	<rect x="95.3" y="91.2" class="st0" width="2.8" height="2.8"/>
	<rect x="91.7" y="91.2" class="st0" width="2.8" height="2.8"/>
	<rect x="88" y="91.2" class="st0" width="2.8" height="2.8"/>
	<rect x="80.8" y="91.2" class="st0" width="2.8" height="2.8"/>
	<rect x="77.2" y="91.2" class="st0" width="2.8" height="2.8"/>
	<rect x="73.6" y="91.2" class="st0" width="2.8" height="2.8"/>
	<rect x="70" y="91.2" class="st0" width="2.8" height="2.8"/>
	<rect x="127.8" y="87.4" class="st0" width="2.8" height="2.8"/>
	<rect x="124.2" y="87.4" class="st0" width="2.8" height="2.8"/>
	<rect x="120.5" y="87.4" class="st0" width="2.8" height="2.8"/>
	<rect x="116.9" y="87.4" class="st0" width="2.8" height="2.8"/>
	<rect x="113.3" y="87.4" class="st0" width="2.8" height="2.8"/>
	<rect x="98.9" y="87.4" class="st0" width="2.8" height="2.8"/>
	<rect x="95.3" y="87.4" class="st0" width="2.8" height="2.8"/>
	<rect x="91.7" y="87.4" class="st0" width="2.8" height="2.8"/>
	<rect x="88" y="87.4" class="st0" width="2.8" height="2.8"/>
	<rect x="84.4" y="87.4" class="st0" width="2.8" height="2.8"/>
	<rect x="80.8" y="87.4" class="st0" width="2.8" height="2.8"/>
	<rect x="77.2" y="87.4" class="st0" width="2.8" height="2.8"/>
	<rect x="73.6" y="87.4" class="st0" width="2.8" height="2.8"/>
	<rect x="70" y="87.4" class="st0" width="2.8" height="2.8"/>
	<rect x="62.8" y="87.4" class="st0" width="2.8" height="2.8"/>
	<rect x="135" y="83.7" class="st0" width="2.8" height="2.8"/>
	<rect x="131.4" y="83.7" class="st0" width="2.8" height="2.8"/>
	<rect x="124.2" y="83.7" class="st0" width="2.8" height="2.8"/>
	<rect x="120.5" y="83.7" class="st0" width="2.8" height="2.8"/>
	<rect x="116.9" y="83.7" class="st0" width="2.8" height="2.8"/>
	<rect x="113.3" y="83.7" class="st0" width="2.8" height="2.8"/>
	<rect x="106.1" y="83.7" class="st0" width="2.8" height="2.8"/>
	<rect x="102.5" y="83.7" class="st0" width="2.8" height="2.8"/>
	<rect x="98.9" y="83.7" class="st0" width="2.8" height="2.8"/>
	<rect x="95.3" y="83.7" class="st0" width="2.8" height="2.8"/>
	<rect x="91.7" y="83.7" class="st0" width="2.8" height="2.8"/>
	<rect x="88" y="83.7" class="st0" width="2.8" height="2.8"/>
	<rect x="84.4" y="83.7" class="st0" width="2.8" height="2.8"/>
	<rect x="80.8" y="83.7" class="st0" width="2.8" height="2.8"/>
	<rect x="77.2" y="83.7" class="st0" width="2.8" height="2.8"/>
	<rect x="66.4" y="83.7" class="st0" width="2.8" height="2.8"/>
	<rect x="62.8" y="83.7" class="st0" width="2.8" height="2.8"/>
	<rect x="138.6" y="79.9" class="st0" width="2.8" height="2.8"/>
	<rect x="135" y="79.9" class="st0" width="2.8" height="2.8"/>
	<rect x="131.4" y="79.9" class="st0" width="2.8" height="2.8"/>
	<rect x="127.8" y="79.9" class="st0" width="2.8" height="2.8"/>
	<rect x="120.5" y="79.9" class="st0" width="2.8" height="2.8"/>
	<rect x="116.9" y="79.9" class="st0" width="2.8" height="2.8"/>
	<rect x="106.1" y="79.9" class="st0" width="2.8" height="2.8"/>
	<rect x="102.5" y="79.9" class="st0" width="2.8" height="2.8"/>
	<rect x="98.9" y="79.9" class="st0" width="2.8" height="2.8"/>
	<rect x="95.3" y="79.9" class="st0" width="2.8" height="2.8"/>
	<rect x="91.7" y="79.9" class="st0" width="2.8" height="2.8"/>
	<rect x="88" y="79.9" class="st0" width="2.8" height="2.8"/>
	<rect x="84.4" y="79.9" class="st0" width="2.8" height="2.8"/>
	<rect x="80.8" y="79.9" class="st0" width="2.8" height="2.8"/>
	<rect x="73.6" y="79.9" class="st0" width="2.8" height="2.8"/>
	<rect x="70" y="79.9" class="st0" width="2.8" height="2.8"/>
	<rect x="66.4" y="79.9" class="st0" width="2.8" height="2.8"/>
	<rect x="62.8" y="79.9" class="st0" width="2.8" height="2.8"/>
	<rect x="145.8" y="76.5" class="st0" width="2.8" height="2.8"/>
	<rect x="142.2" y="76.5" class="st0" width="2.8" height="2.8"/>
	<rect x="135" y="76.5" class="st0" width="2.8" height="2.8"/>
	<rect x="131.4" y="76.5" class="st0" width="2.8" height="2.8"/>
	<rect x="127.8" y="76.5" class="st0" width="2.8" height="2.8"/>
	<rect x="109.7" y="76.5" class="st0" width="2.8" height="2.8"/>
	<rect x="106.1" y="76.5" class="st0" width="2.8" height="2.8"/>
	<rect x="102.5" y="76.5" class="st0" width="2.8" height="2.8"/>
	<rect x="98.9" y="76.5" class="st0" width="2.8" height="2.8"/>
	<rect x="95.3" y="76.5" class="st0" width="2.8" height="2.8"/>
	<rect x="91.7" y="76.5" class="st0" width="2.8" height="2.8"/>
	<rect x="88" y="76.5" class="st0" width="2.8" height="2.8"/>
	<rect x="84.4" y="76.5" class="st0" width="2.8" height="2.8"/>
	<rect x="77.2" y="76.5" class="st0" width="2.8" height="2.8"/>
	<rect x="73.6" y="76.5" class="st0" width="2.8" height="2.8"/>
	<rect x="70" y="76.5" class="st0" width="2.8" height="2.8"/>
	<rect x="66.4" y="76.5" class="st0" width="2.8" height="2.8"/>
	<rect x="62.8" y="76.5" class="st0" width="2.8" height="2.8"/>
	<rect x="149.4" y="73" class="st0" width="2.8" height="2.8"/>
	<rect x="145.8" y="73" class="st0" width="2.8" height="2.8"/>
	<rect x="142.2" y="73" class="st0" width="2.8" height="2.8"/>
	<rect x="131.4" y="73" class="st0" width="2.8" height="2.8"/>
	<rect x="120.5" y="73" class="st0" width="2.8" height="2.8"/>
	<rect x="116.9" y="73" class="st0" width="2.8" height="2.8"/>
	<rect x="113.3" y="73" class="st0" width="2.8" height="2.8"/>
	<rect x="109.7" y="73" class="st0" width="2.8" height="2.8"/>
	<rect x="106.1" y="73" class="st0" width="2.8" height="2.8"/>
	<rect x="102.5" y="73" class="st0" width="2.8" height="2.8"/>
	<rect x="98.9" y="73" class="st0" width="2.8" height="2.8"/>
	<rect x="95.3" y="73" class="st0" width="2.8" height="2.8"/>
	<rect x="91.7" y="73" class="st0" width="2.8" height="2.8"/>
	<rect x="88" y="73" class="st0" width="2.8" height="2.8"/>
	<rect x="84.4" y="73" class="st0" width="2.8" height="2.8"/>
	<rect x="80.8" y="73" class="st0" width="2.8" height="2.8"/>
	<rect x="77.2" y="73" class="st0" width="2.8" height="2.8"/>
	<rect x="73.6" y="73" class="st0" width="2.8" height="2.8"/>
	<rect x="70" y="73" class="st0" width="2.8" height="2.8"/>
	<rect x="66.4" y="73" class="st0" width="2.8" height="2.8"/>
	<rect x="62.8" y="73" class="st0" width="2.8" height="2.8"/>
	<rect x="149.4" y="69.6" class="st0" width="2.8" height="2.8"/>
	<rect x="145.8" y="69.6" class="st0" width="2.8" height="2.8"/>
	<rect x="138.6" y="69.6" class="st0" width="2.8" height="2.8"/>
	<rect x="124.2" y="69.6" class="st0" width="2.8" height="2.8"/>
	<rect x="120.5" y="69.6" class="st0" width="2.8" height="2.8"/>
	<rect x="116.9" y="69.6" class="st0" width="2.8" height="2.8"/>
	<rect x="113.3" y="69.6" class="st0" width="2.8" height="2.8"/>
	<rect x="109.7" y="69.6" class="st0" width="2.8" height="2.8"/>
	<rect x="106.1" y="69.6" class="st0" width="2.8" height="2.8"/>
	<rect x="102.5" y="69.6" class="st0" width="2.8" height="2.8"/>
	<rect x="98.9" y="69.6" class="st0" width="2.8" height="2.8"/>
	<rect x="95.3" y="69.6" class="st0" width="2.8" height="2.8"/>
	<rect x="91.7" y="69.6" class="st0" width="2.8" height="2.8"/>
	<rect x="88" y="69.6" class="st0" width="2.8" height="2.8"/>
	<rect x="84.4" y="69.6" class="st0" width="2.8" height="2.8"/>
	<rect x="80.8" y="69.6" class="st0" width="2.8" height="2.8"/>
	<rect x="77.2" y="69.6" class="st0" width="2.8" height="2.8"/>
	<rect x="73.6" y="69.6" class="st0" width="2.8" height="2.8"/>
	<rect x="70" y="69.6" class="st0" width="2.8" height="2.8"/>
	<rect x="62.8" y="69.6" class="st0" width="2.8" height="2.8"/>
	<rect x="156.7" y="65.8" class="st0" width="2.8" height="2.8"/>
	<rect x="153.1" y="65.8" class="st0" width="2.8" height="2.8"/>
	<rect x="142.2" y="65.8" class="st0" width="2.8" height="2.8"/>
	<rect x="138.6" y="65.8" class="st0" width="2.8" height="2.8"/>
	<rect x="135" y="65.8" class="st0" width="2.8" height="2.8"/>
	<rect x="131.4" y="65.8" class="st0" width="2.8" height="2.8"/>
	<rect x="127.8" y="65.8" class="st0" width="2.8" height="2.8"/>
	<rect x="124.2" y="65.8" class="st0" width="2.8" height="2.8"/>
	<rect x="120.5" y="65.8" class="st0" width="2.8" height="2.8"/>
	<rect x="116.9" y="65.8" class="st0" width="2.8" height="2.8"/>
	<rect x="113.3" y="65.8" class="st0" width="2.8" height="2.8"/>
	<rect x="109.7" y="65.8" class="st0" width="2.8" height="2.8"/>
	<rect x="106.1" y="65.8" class="st0" width="2.8" height="2.8"/>
	<rect x="102.5" y="65.8" class="st0" width="2.8" height="2.8"/>
	<rect x="91.7" y="65.8" class="st0" width="2.8" height="2.8"/>
	<rect x="88" y="65.8" class="st0" width="2.8" height="2.8"/>
	<rect x="84.4" y="65.8" class="st0" width="2.8" height="2.8"/>
	<rect x="80.8" y="65.8" class="st0" width="2.8" height="2.8"/>
	<rect x="77.2" y="65.8" class="st0" width="2.8" height="2.8"/>
	<rect x="73.6" y="65.8" class="st0" width="2.8" height="2.8"/>
	<rect x="66.4" y="65.8" class="st0" width="2.8" height="2.8"/>
	<rect x="62.8" y="65.8" class="st0" width="2.8" height="2.8"/>
	<rect x="160.3" y="62.4" class="st0" width="2.8" height="2.8"/>
	<rect x="156.7" y="62.4" class="st0" width="2.8" height="2.8"/>
	<rect x="153.1" y="62.4" class="st0" width="2.8" height="2.8"/>
	<rect x="149.4" y="62.4" class="st0" width="2.8" height="2.8"/>
	<rect x="145.8" y="62.4" class="st0" width="2.8" height="2.8"/>
	<rect x="142.2" y="62.4" class="st0" width="2.8" height="2.8"/>
	<rect x="138.6" y="62.4" class="st0" width="2.8" height="2.8"/>
	<rect x="135" y="62.4" class="st0" width="2.8" height="2.8"/>
	<rect x="131.4" y="62.4" class="st0" width="2.8" height="2.8"/>
	<rect x="127.8" y="62.4" class="st0" width="2.8" height="2.8"/>
	<rect x="124.2" y="62.4" class="st0" width="2.8" height="2.8"/>
	<rect x="120.5" y="62.4" class="st0" width="2.8" height="2.8"/>
	<rect x="116.9" y="62.4" class="st0" width="2.8" height="2.8"/>
	<rect x="113.3" y="62.4" class="st0" width="2.8" height="2.8"/>
	<rect x="109.7" y="62.4" class="st0" width="2.8" height="2.8"/>
	<rect x="106.1" y="62.4" class="st0" width="2.8" height="2.8"/>
	<rect x="102.5" y="62.4" class="st0" width="2.8" height="2.8"/>
	<rect x="91.7" y="62.4" class="st0" width="2.8" height="2.8"/>
	<rect x="88" y="62.4" class="st0" width="2.8" height="2.8"/>
	<rect x="84.4" y="62.4" class="st0" width="2.8" height="2.8"/>
	<rect x="80.8" y="62.4" class="st0" width="2.8" height="2.8"/>
	<rect x="77.2" y="62.4" class="st0" width="2.8" height="2.8"/>
	<rect x="70" y="62.4" class="st0" width="2.8" height="2.8"/>
	<rect x="66.4" y="62.4" class="st0" width="2.8" height="2.8"/>
	<rect x="62.8" y="62.4" class="st0" width="2.8" height="2.8"/>
	<rect x="163.9" y="62.4" class="st0" width="2.8" height="2.8"/>
	<rect x="160.3" y="58.6" class="st0" width="2.8" height="2.8"/>
	<rect x="156.7" y="58.6" class="st0" width="2.8" height="2.8"/>
	<rect x="153.1" y="58.6" class="st0" width="2.8" height="2.8"/>
	<rect x="149.4" y="58.6" class="st0" width="2.8" height="2.8"/>
	<rect x="145.8" y="58.6" class="st0" width="2.8" height="2.8"/>
	<rect x="142.2" y="58.6" class="st0" width="2.8" height="2.8"/>
	<rect x="138.6" y="58.6" class="st0" width="2.8" height="2.8"/>
	<rect x="135" y="58.6" class="st0" width="2.8" height="2.8"/>
	<rect x="131.4" y="58.6" class="st0" width="2.8" height="2.8"/>
	<rect x="127.8" y="58.6" class="st0" width="2.8" height="2.8"/>
	<rect x="124.2" y="58.6" class="st0" width="2.8" height="2.8"/>
	<rect x="116.9" y="58.6" class="st0" width="2.8" height="2.8"/>
	<rect x="113.3" y="58.6" class="st0" width="2.8" height="2.8"/>
	<rect x="109.7" y="58.6" class="st0" width="2.8" height="2.8"/>
	<rect x="106.1" y="58.6" class="st0" width="2.8" height="2.8"/>
	<rect x="102.5" y="58.6" class="st0" width="2.8" height="2.8"/>
	<rect x="98.9" y="58.6" class="st0" width="2.8" height="2.8"/>
	<rect x="95.3" y="58.6" class="st0" width="2.8" height="2.8"/>
	<rect x="91.7" y="58.6" class="st0" width="2.8" height="2.8"/>
	<rect x="88" y="58.6" class="st0" width="2.8" height="2.8"/>
	<rect x="84.4" y="58.6" class="st0" width="2.8" height="2.8"/>
	<rect x="80.8" y="58.6" class="st0" width="2.8" height="2.8"/>
	<rect x="77.2" y="58.6" class="st0" width="2.8" height="2.8"/>
	<rect x="73.6" y="58.6" class="st0" width="2.8" height="2.8"/>
	<rect x="70" y="58.6" class="st0" width="2.8" height="2.8"/>
	<rect x="66.4" y="58.6" class="st0" width="2.8" height="2.8"/>
	<rect x="62.8" y="58.6" class="st0" width="2.8" height="2.8"/>
	<rect x="55.4" y="54.9" class="st0" width="2.8" height="2.8"/>
	<rect x="51.8" y="54.9" class="st0" width="2.8" height="2.8"/>
	<rect x="48.2" y="54.9" class="st0" width="2.8" height="2.8"/>
	<rect x="44.5" y="54.9" class="st0" width="2.8" height="2.8"/>
	<rect x="40.9" y="54.9" class="st0" width="2.8" height="2.8"/>
	<rect x="37.3" y="54.9" class="st0" width="2.8" height="2.8"/>
	<rect x="33.7" y="54.9" class="st0" width="2.8" height="2.8"/>
	<rect x="30.1" y="54.9" class="st0" width="2.8" height="2.8"/>
	<rect x="26.5" y="54.9" class="st0" width="2.8" height="2.8"/>
	<rect x="22.9" y="54.9" class="st0" width="2.8" height="2.8"/>
	<rect x="59" y="51.1" class="st0" width="2.8" height="2.8"/>
	<rect x="55.4" y="51.1" class="st0" width="2.8" height="2.8"/>
	<rect x="51.8" y="51.1" class="st0" width="2.8" height="2.8"/>
	<rect x="48.2" y="51.1" class="st0" width="2.8" height="2.8"/>
	<rect x="44.5" y="51.1" class="st0" width="2.8" height="2.8"/>
	<rect x="40.9" y="51.1" class="st0" width="2.8" height="2.8"/>
	<rect x="37.3" y="51.1" class="st0" width="2.8" height="2.8"/>
	<rect x="33.7" y="51.1" class="st0" width="2.8" height="2.8"/>
	<rect x="30.1" y="51.1" class="st0" width="2.8" height="2.8"/>
	<rect x="26.5" y="51.1" class="st0" width="2.8" height="2.8"/>
	<rect x="22.9" y="51.1" class="st0" width="2.8" height="2.8"/>
	<rect x="59" y="47.7" class="st0" width="2.8" height="2.8"/>
	<rect x="55.4" y="47.7" class="st0" width="2.8" height="2.8"/>
	<rect x="51.8" y="47.7" class="st0" width="2.8" height="2.8"/>
	<rect x="48.2" y="47.7" class="st0" width="2.8" height="2.8"/>
	<rect x="44.5" y="47.7" class="st0" width="2.8" height="2.8"/>
	<rect x="40.9" y="47.7" class="st0" width="2.8" height="2.8"/>
	<rect x="30.1" y="47.7" class="st0" width="2.8" height="2.8"/>
	<rect x="26.5" y="47.7" class="st0" width="2.8" height="2.8"/>
	<rect x="22.9" y="47.7" class="st0" width="2.8" height="2.8"/>
	<rect x="59" y="44" class="st0" width="2.8" height="2.8"/>
	<rect x="55.4" y="44" class="st0" width="2.8" height="2.8"/>
	<rect x="51.8" y="44" class="st0" width="2.8" height="2.8"/>
	<rect x="48.2" y="44" class="st0" width="2.8" height="2.8"/>
	<rect x="44.5" y="44" class="st0" width="2.8" height="2.8"/>
	<rect x="40.9" y="44" class="st0" width="2.8" height="2.8"/>
	<rect x="30.1" y="44" class="st0" width="2.8" height="2.8"/>
	<rect x="26.5" y="44" class="st0" width="2.8" height="2.8"/>
	<rect x="59" y="40.2" class="st0" width="2.8" height="2.8"/>
	<rect x="55.4" y="40.2" class="st0" width="2.8" height="2.8"/>
	<rect x="51.8" y="40.2" class="st0" width="2.8" height="2.8"/>
	<rect x="48.2" y="40.2" class="st0" width="2.8" height="2.8"/>
	<rect x="44.5" y="40.2" class="st0" width="2.8" height="2.8"/>
	<rect x="40.9" y="40.2" class="st0" width="2.8" height="2.8"/>
	<rect x="37.3" y="40.2" class="st0" width="2.8" height="2.8"/>
	<rect x="33.7" y="40.2" class="st0" width="2.8" height="2.8"/>
	<rect x="30.1" y="40.2" class="st0" width="2.8" height="2.8"/>
	<rect x="26.5" y="40.2" class="st0" width="2.8" height="2.8"/>
	<rect x="22.9" y="40.2" class="st0" width="2.8" height="2.8"/>
	<rect x="59" y="36.5" class="st0" width="2.8" height="2.8"/>
	<rect x="55.4" y="36.5" class="st0" width="2.8" height="2.8"/>
	<rect x="51.8" y="36.5" class="st0" width="2.8" height="2.8"/>
	<rect x="48.2" y="36.5" class="st0" width="2.8" height="2.8"/>
	<rect x="44.5" y="36.5" class="st0" width="2.8" height="2.8"/>
	<rect x="40.9" y="36.5" class="st0" width="2.8" height="2.8"/>
	<rect x="37.3" y="36.5" class="st0" width="2.8" height="2.8"/>
	<rect x="33.7" y="36.5" class="st0" width="2.8" height="2.8"/>
	<rect x="30.1" y="36.5" class="st0" width="2.8" height="2.8"/>
	<rect x="26.5" y="36.5" class="st0" width="2.8" height="2.8"/>
	<rect x="22.9" y="36.5" class="st0" width="2.8" height="2.8"/>
	<rect x="48.2" y="33" class="st0" width="13.6" height="2.8"/>
	<rect x="44.5" y="33" class="st0" width="2.8" height="2.8"/>
	<rect x="37.3" y="33" class="st0" width="2.8" height="2.8"/>
	<rect x="33.7" y="33" class="st0" width="2.8" height="2.8"/>
	<rect x="30.1" y="33" class="st0" width="2.8" height="2.8"/>
	<rect x="26.5" y="33" class="st0" width="2.8" height="2.8"/>
	<rect x="22.9" y="33" class="st0" width="2.8" height="2.8"/>
	<rect x="59" y="29.3" class="st0" width="2.8" height="2.8"/>
	<rect x="55.4" y="29.3" class="st0" width="2.8" height="2.8"/>
	<rect x="51.8" y="29.3" class="st0" width="2.8" height="2.8"/>
	<rect x="48.2" y="29.3" class="st0" width="2.8" height="2.8"/>
	<rect x="44.5" y="29.3" class="st0" width="2.8" height="2.8"/>
	<rect x="40.9" y="29.3" class="st0" width="2.8" height="2.8"/>
	<rect x="37.3" y="29.3" class="st0" width="2.8" height="2.8"/>
	<rect x="33.7" y="29.3" class="st0" width="2.8" height="2.8"/>
	<rect x="30.1" y="29.3" class="st0" width="2.8" height="2.8"/>
	<rect x="26.5" y="29.3" class="st0" width="2.8" height="2.8"/>
	<rect x="22.9" y="29.3" class="st0" width="2.8" height="2.8"/>
	<rect x="59" y="25.5" class="st0" width="2.8" height="2.8"/>
	<rect x="55.4" y="25.5" class="st0" width="2.8" height="2.8"/>
	<rect x="51.8" y="25.5" class="st0" width="2.8" height="2.8"/>
	<rect x="48.2" y="25.5" class="st0" width="2.8" height="2.8"/>
	<rect x="44.5" y="25.5" class="st0" width="2.8" height="2.8"/>
	<rect x="40.9" y="25.5" class="st0" width="2.8" height="2.8"/>
	<rect x="37.3" y="25.5" class="st0" width="2.8" height="2.8"/>
	<rect x="30.1" y="25.5" class="st0" width="2.8" height="2.8"/>
	<rect x="26.5" y="25.5" class="st0" width="2.8" height="2.8"/>
	<rect x="22.9" y="25.5" class="st0" width="2.8" height="2.8"/>
	<rect x="51.8" y="21.8" class="st0" width="2.8" height="2.8"/>
	<rect x="48.2" y="21.8" class="st0" width="2.8" height="2.8"/>
	<rect x="44.5" y="21.8" class="st0" width="2.8" height="2.8"/>
	<rect x="40.9" y="21.8" class="st0" width="2.8" height="2.8"/>
	<rect x="37.3" y="21.8" class="st0" width="2.8" height="2.8"/>
	<rect x="33.7" y="21.8" class="st0" width="2.8" height="2.8"/>
	<rect x="30.1" y="21.8" class="st0" width="2.8" height="2.8"/>
	<rect x="22.9" y="21.8" class="st0" width="2.8" height="2.8"/>
	<rect x="44.5" y="18.3" class="st0" width="2.8" height="2.8"/>
	<rect x="40.9" y="18.3" class="st0" width="2.8" height="2.8"/>
	<rect x="37.3" y="18.3" class="st0" width="2.8" height="2.8"/>
	<rect x="33.7" y="18.3" class="st0" width="2.8" height="2.8"/>
	<rect x="30.1" y="18.3" class="st0" width="2.8" height="2.8"/>
	<rect x="26.5" y="18.3" class="st0" width="2.8" height="2.8"/>
	<rect x="22.9" y="18.3" class="st0" width="2.8" height="2.8"/>
	<rect x="37.3" y="14.6" class="st0" width="2.8" height="2.8"/>
	<rect x="33.7" y="14.6" class="st0" width="2.8" height="2.8"/>
	<rect x="30.1" y="14.6" class="st0" width="2.8" height="2.8"/>
	<rect x="26.5" y="14.6" class="st0" width="2.8" height="2.8"/>
	<rect x="22.9" y="14.6" class="st0" width="2.8" height="2.8"/>
	<rect x="33.7" y="10.8" class="st0" width="2.8" height="2.8"/>
	<rect x="30.1" y="10.8" class="st0" width="2.8" height="2.8"/>
	<rect x="26.5" y="10.8" class="st0" width="2.8" height="2.8"/>
	<rect x="22.9" y="10.8" class="st0" width="2.8" height="2.8"/>
	<rect x="30.1" y="6.7" class="st0" width="2.8" height="2.8"/>
	<rect x="26.5" y="6.7" class="st0" width="2.8" height="2.8"/>
	<rect x="17.9" y="4.4" class="st0" width="2.8" height="2.8"/>
	<rect x="20.7" class="st0" width="2.8" height="2.8"/>
	<rect x="59" y="83.7" class="st0" width="2.8" height="2.8"/>
	<rect x="59" y="79.9" class="st0" width="2.8" height="2.8"/>
	<rect x="55.4" y="79.9" class="st0" width="2.8" height="2.8"/>
	<rect x="59" y="76.5" class="st0" width="2.8" height="2.8"/>
	<rect x="51.8" y="76.5" class="st0" width="2.8" height="2.8"/>
	<rect x="48.2" y="76.5" class="st0" width="2.8" height="2.8"/>
	<rect x="44.5" y="76.5" class="st0" width="2.8" height="2.8"/>
	<rect x="55.4" y="73" class="st0" width="2.8" height="2.8"/>
	<rect x="51.8" y="73" class="st0" width="2.8" height="2.8"/>
	<rect x="48.2" y="73" class="st0" width="2.8" height="2.8"/>
	<rect x="44.5" y="73" class="st0" width="2.8" height="2.8"/>
	<rect x="40.9" y="73" class="st0" width="2.8" height="2.8"/>
	<rect x="59" y="69.6" class="st0" width="2.8" height="2.8"/>
	<rect x="55.4" y="69.6" class="st0" width="2.8" height="2.8"/>
	<rect x="51.8" y="69.6" class="st0" width="2.8" height="2.8"/>
	<rect x="48.2" y="69.6" class="st0" width="2.8" height="2.8"/>
	<rect x="44.5" y="69.6" class="st0" width="2.8" height="2.8"/>
	<rect x="59" y="65.8" class="st0" width="2.8" height="2.8"/>
	<rect x="55.4" y="65.8" class="st0" width="2.8" height="2.8"/>
	<rect x="51.8" y="65.8" class="st0" width="2.8" height="2.8"/>
	<rect x="48.2" y="65.8" class="st0" width="2.8" height="2.8"/>
	<rect x="40.9" y="65.8" class="st0" width="2.8" height="2.8"/>
	<rect x="37.3" y="65.8" class="st0" width="2.8" height="2.8"/>
	<rect x="59" y="62.4" class="st0" width="2.8" height="2.8"/>
	<rect x="55.4" y="62.4" class="st0" width="2.8" height="2.8"/>
	<rect x="51.8" y="62.4" class="st0" width="2.8" height="2.8"/>
	<rect x="44.5" y="62.4" class="st0" width="2.8" height="2.8"/>
	<rect x="40.9" y="62.4" class="st0" width="2.8" height="2.8"/>
	<rect x="37.3" y="62.4" class="st0" width="2.8" height="2.8"/>
	<rect x="33.7" y="62.4" class="st0" width="2.8" height="2.8"/>
	<rect x="30.1" y="62.4" class="st0" width="2.8" height="2.8"/>
	<rect x="26.5" y="62.4" class="st0" width="2.8" height="2.8"/>
	<rect x="59" y="58.6" class="st0" width="2.8" height="2.8"/>
	<rect x="55.4" y="58.6" class="st0" width="2.8" height="2.8"/>
	<rect x="48.2" y="58.6" class="st0" width="2.8" height="2.8"/>
	<rect x="44.5" y="58.6" class="st0" width="2.8" height="2.8"/>
	<rect x="40.9" y="58.6" class="st0" width="2.8" height="2.8"/>
	<rect x="37.3" y="58.6" class="st0" width="2.8" height="2.8"/>
	<rect x="30.1" y="58.6" class="st0" width="2.8" height="2.8"/>
	<rect x="26.5" y="58.6" class="st0" width="2.8" height="2.8"/>
	<rect x="22.9" y="58.6" class="st0" width="2.8" height="2.8"/>
	<rect x="163.9" y="58.6" class="st0" width="2.8" height="2.8"/>
	<rect x="167.6" y="51.3" class="st0" width="2.8" height="2.8"/>
	<rect x="176.7" y="55.1" class="st0" width="2.8" height="2.8"/>
	<rect x="167.8" y="58.5" class="st0" width="2.8" height="2.8"/>
	<rect x="167.8" y="62.2" class="st0" width="2.8" height="2.8"/>
	<rect x="171.5" y="58.5" class="st0" width="2.8" height="2.8"/>
	<rect x="184.6" y="35.3" class="st0" width="2.8" height="2.8"/>
	<rect x="179.5" y="41.3" class="st0" width="2.8" height="2.8"/>
	<rect x="176.1" y="45.4" class="st0" width="2.8" height="2.8"/>
	<rect x="175" y="51.3" class="st0" width="2.8" height="2.8"/>
	<rect x="180.2" y="48.9" class="st0" width="2.8" height="2.8"/>
	<rect x="176.7" y="59.4" class="st0" width="2.8" height="2.8"/>
	<rect x="186.3" y="51.3" class="st0" width="2.8" height="2.8"/>
	<rect x="186.6" y="41.3" class="st0" width="2.8" height="2.8"/>
	<rect x="188.8" y="58.5" class="st0" width="2.8" height="2.8"/>
	<rect x="190.2" y="48.9" class="st0" width="2.8" height="2.8"/>
	<rect x="8.4" y="54.9" class="st1" width="2.8" height="2.8"/>
	<rect x="12" y="54.9" class="st0" width="2.8" height="2.8"/>
	<rect x="15.7" y="54.9" class="st0" width="2.8" height="2.8"/>
	<rect x="19.3" y="54.9" class="st0" width="2.8" height="2.8"/>
	<rect x="4.8" y="54.9" class="st1" width="2.8" height="2.8"/>
	<rect x="8.4" y="51.1" class="st1" width="2.8" height="2.8"/>
	<rect x="12" y="51.1" class="st0" width="2.8" height="2.8"/>
	<rect x="15.7" y="51.1" class="st0" width="2.8" height="2.8"/>
	<rect x="19.3" y="51.1" class="st0" width="2.8" height="2.8"/>
	<rect x="4.8" y="51.1" class="st1" width="2.8" height="2.8"/>
	<rect x="8.4" y="47.7" class="st1" width="2.8" height="2.8"/>
	<rect x="15.7" y="47.7" class="st0" width="2.8" height="2.8"/>
	<rect x="19.3" y="47.7" class="st0" width="2.8" height="2.8"/>
	<rect x="4.8" y="47.7" class="st1" width="2.8" height="2.8"/>
	<rect x="8.4" y="44" class="st1" width="2.8" height="2.8"/>
	<rect x="12" y="44" class="st0" width="2.8" height="2.8"/>
	<rect x="15.7" y="44" class="st0" width="2.8" height="2.8"/>
	<rect x="19.3" y="44" class="st0" width="2.8" height="2.8"/>
	<rect x="12" y="40.2" class="st0" width="2.8" height="2.8"/>
	<rect x="15.7" y="40.2" class="st0" width="2.8" height="2.8"/>
	<rect x="19.3" y="40.2" class="st0" width="2.8" height="2.8"/>
	<rect x="8.4" y="36.5" class="st1" width="2.8" height="2.8"/>
	<rect x="12" y="36.5" class="st0" width="2.8" height="2.8"/>
	<rect x="15.7" y="36.5" class="st0" width="2.8" height="2.8"/>
	<rect x="19.3" y="36.5" class="st0" width="2.8" height="2.8"/>
	<rect x="8.4" y="33" class="st1" width="2.8" height="2.8"/>
	<rect x="12" y="33" class="st0" width="2.8" height="2.8"/>
	<rect x="19.3" y="33" class="st0" width="2.8" height="2.8"/>
	<rect x="12" y="29.3" class="st0" width="2.8" height="2.8"/>
	<rect x="15.7" y="29.3" class="st0" width="2.8" height="2.8"/>
	<rect x="19.3" y="29.3" class="st0" width="2.8" height="2.8"/>
	<rect x="4.8" y="29.3" class="st1" width="2.8" height="2.8"/>
	<rect x="8.4" y="25.5" class="st1" width="2.8" height="2.8"/>
	<rect x="12" y="25.5" class="st0" width="2.8" height="2.8"/>
	<rect x="15.7" y="25.5" class="st0" width="2.8" height="2.8"/>
	<rect x="19.3" y="25.5" class="st0" width="2.8" height="2.8"/>
	<rect x="4.8" y="25.5" class="st1" width="2.8" height="2.8"/>
	<rect x="12" y="21.8" class="st0" width="2.8" height="2.8"/>
	<rect x="19.3" y="21.8" class="st0" width="2.8" height="2.8"/>
	<rect x="3.4" y="22.3" class="st1" width="2.8" height="2.8"/>
	<rect x="7.6" y="16.5" class="st1" width="2.8" height="2.8"/>
	<rect x="12" y="18.3" class="st0" width="2.8" height="2.8"/>
	<rect x="15.7" y="18.3" class="st0" width="2.8" height="2.8"/>
	<rect x="19.3" y="18.3" class="st0" width="2.8" height="2.8"/>
	<rect x="1.3" y="18.3" class="st1" width="2.8" height="2.8"/>
	<rect x="8.8" y="10.6" class="st1" width="2.8" height="2.8"/>
	<rect y="3.8" class="st1" width="2.8" height="2.8"/>
	<rect x="4.1" y="14.6" class="st1" width="2.8" height="2.8"/>
	<rect x="8.4" y="62.4" class="st1" width="2.8" height="2.8"/>
	<rect x="15.7" y="62.4" class="st0" width="2.8" height="2.8"/>
	<rect x="19.3" y="62.4" class="st0" width="2.8" height="2.8"/>
	<rect x="8.4" y="58.6" class="st1" width="2.8" height="2.8"/>
	<rect x="12" y="58.6" class="st0" width="2.8" height="2.8"/>
	<rect x="15.7" y="58.6" class="st0" width="2.8" height="2.8"/>
	<rect x="19.3" y="58.6" class="st0" width="2.8" height="2.8"/>
	<rect x="4.8" y="58.6" class="st1" width="2.8" height="2.8"/>
	<rect x="17.9" y="10.6" class="st0" width="2.8" height="2.8"/>
	<rect x="95.3" y="62.4" class="st0" width="6.3" height="6.2"/>
	<rect x="33.7" y="44" class="st0" width="6.4" height="6.5"/>
	<rect x="91.7" y="10.8" class="st0" width="2.8" height="10.3"/>
	<rect x="149.4" y="25.5" class="st0" width="6.4" height="6.5"/>
</g>
</svg>
