<?xml version="1.0" encoding="utf-8"?>
<!-- Generator: Adobe Illustrator 21.0.2, SVG Export Plug-In . SVG Version: 6.00 Build 0)  -->
<svg version="1.1" id="_x33__розділ" xmlns="http://www.w3.org/2000/svg" xmlns:xlink="http://www.w3.org/1999/xlink" x="0px"
	 y="0px" viewBox="0 0 177.1 141" style="enable-background:new 0 0 177.1 141;" xml:space="preserve">
<style type="text/css">
	.st0{fill:#FF814D;stroke:#101633;stroke-width:0.5;stroke-miterlimit:10;}
</style>
<g>
	<rect x="111.1" y="131.5" class="st0" width="3.2" height="3.2"/>
	<rect x="111.1" y="127.3" class="st0" width="3.2" height="3.2"/>
	<rect x="111.1" y="123.1" class="st0" width="3.2" height="3.2"/>
	<rect x="111.1" y="44.2" class="st0" width="3.2" height="3.2"/>
	<rect x="111.1" y="48.3" class="st0" width="3.2" height="3.2"/>
	<rect x="111.1" y="52.5" class="st0" width="3.2" height="3.2"/>
	<rect x="111.1" y="56.6" class="st0" width="3.2" height="3.2"/>
	<rect x="111.1" y="60.8" class="st0" width="3.2" height="3.2"/>
	<rect x="111.1" y="64.9" class="st0" width="3.2" height="3.2"/>
	<rect x="111.1" y="69.1" class="st0" width="3.2" height="3.2"/>
	<rect x="111.1" y="73.3" class="st0" width="3.2" height="3.2"/>
	<rect x="111.1" y="77.4" class="st0" width="3.2" height="3.2"/>
	<rect x="111.1" y="85.7" class="st0" width="3.2" height="3.2"/>
	<rect x="111.1" y="89.9" class="st0" width="3.2" height="3.2"/>
	<rect x="111.1" y="97.7" class="st0" width="3.2" height="3.2"/>
	<rect x="111.1" y="106.2" class="st0" width="3.2" height="3.2"/>
	<rect x="111.1" y="110.4" class="st0" width="3.2" height="3.2"/>
	<rect x="111.1" y="118.8" class="st0" width="3.2" height="3.2"/>
	<rect x="115.3" y="131.5" class="st0" width="3.2" height="3.2"/>
	<rect x="115.3" y="127.3" class="st0" width="3.2" height="3.2"/>
	<rect x="115.3" y="123.1" class="st0" width="3.2" height="3.2"/>
	<rect x="119.5" y="102.3" class="st0" width="3.2" height="3.2"/>
	<rect x="115.3" y="106.2" class="st0" width="3.2" height="3.2"/>
	<rect x="115.3" y="110.4" class="st0" width="3.2" height="3.2"/>
	<rect x="115.3" y="118.8" class="st0" width="3.2" height="3.2"/>
	<rect x="119.5" y="131.5" class="st0" width="3.2" height="3.2"/>
	<rect x="119.5" y="127.3" class="st0" width="3.2" height="3.2"/>
	<rect x="119.5" y="123.1" class="st0" width="3.2" height="3.2"/>
	<rect x="119.5" y="106.2" class="st0" width="3.2" height="3.2"/>
	<rect x="119.5" y="110.4" class="st0" width="3.2" height="3.2"/>
	<rect x="119.5" y="118.8" class="st0" width="3.2" height="3.2"/>
	<rect x="123.7" y="131.5" class="st0" width="3.2" height="3.2"/>
	<rect x="123.7" y="127.3" class="st0" width="3.2" height="3.2"/>
	<rect x="123.7" y="123.1" class="st0" width="3.2" height="3.2"/>
	<rect x="123.7" y="97.7" class="st0" width="3.2" height="3.2"/>
	<rect x="123.7" y="101.9" class="st0" width="3.2" height="3.2"/>
	<rect x="123.7" y="106.2" class="st0" width="3.2" height="3.2"/>
	<rect x="123.7" y="110.4" class="st0" width="3.2" height="3.2"/>
	<rect x="123.7" y="118.8" class="st0" width="3.2" height="3.2"/>
	<rect x="127.9" y="131.5" class="st0" width="3.2" height="3.2"/>
	<rect x="127.9" y="127.3" class="st0" width="3.2" height="3.2"/>
	<rect x="127.9" y="123.1" class="st0" width="3.2" height="3.2"/>
	<rect x="127.9" y="97.7" class="st0" width="3.2" height="3.2"/>
	<rect x="127.9" y="101.9" class="st0" width="3.2" height="3.2"/>
	<rect x="127.9" y="106.2" class="st0" width="3.2" height="3.2"/>
	<rect x="127.9" y="110.4" class="st0" width="3.2" height="3.2"/>
	<rect x="127.9" y="118.8" class="st0" width="3.2" height="3.2"/>
	<rect x="132" y="131.5" class="st0" width="3.2" height="3.2"/>
	<rect x="132" y="127.3" class="st0" width="3.2" height="3.2"/>
	<rect x="132" y="123.1" class="st0" width="3.2" height="3.2"/>
	<rect x="132" y="97.7" class="st0" width="3.2" height="3.2"/>
	<rect x="132" y="101.9" class="st0" width="3.2" height="3.2"/>
	<rect x="132" y="106.2" class="st0" width="3.2" height="3.2"/>
	<rect x="132" y="110.4" class="st0" width="3.2" height="3.2"/>
	<rect x="111.1" y="114.6" class="st0" width="19.9" height="3.2"/>
	<rect x="132" y="118.8" class="st0" width="3.2" height="3.2"/>
	<rect x="136.3" y="131.5" class="st0" width="3.2" height="3.2"/>
	<rect x="136.3" y="127.3" class="st0" width="3.2" height="3.2"/>
	<rect x="136.3" y="123.1" class="st0" width="3.2" height="3.2"/>
	<rect x="136.3" y="97.7" class="st0" width="3.2" height="3.2"/>
	<rect x="136.3" y="101.9" class="st0" width="3.2" height="3.2"/>
	<rect x="136.3" y="106.2" class="st0" width="3.2" height="3.2"/>
	<rect x="136.3" y="110.4" class="st0" width="3.2" height="3.2"/>
	<rect x="136.3" y="114.6" class="st0" width="3.2" height="3.2"/>
	<rect x="136.3" y="118.8" class="st0" width="3.2" height="3.2"/>
	<rect x="140.4" y="131.5" class="st0" width="3.2" height="3.2"/>
	<rect x="140.4" y="127.3" class="st0" width="3.2" height="3.2"/>
	<rect x="140.4" y="123.1" class="st0" width="3.2" height="3.2"/>
	<rect x="140.4" y="97.7" class="st0" width="3.2" height="3.2"/>
	<rect x="140.4" y="101.9" class="st0" width="3.2" height="3.2"/>
	<rect x="140.4" y="106.2" class="st0" width="3.2" height="3.2"/>
	<rect x="140.4" y="110.4" class="st0" width="3.2" height="3.2"/>
	<rect x="140.4" y="114.6" class="st0" width="3.2" height="3.2"/>
	<rect x="140.4" y="118.8" class="st0" width="3.2" height="3.2"/>
	<rect x="144.6" y="131.5" class="st0" width="3.2" height="3.2"/>
	<rect x="144.6" y="127.3" class="st0" width="3.2" height="3.2"/>
	<rect x="144.6" y="123.1" class="st0" width="3.2" height="3.2"/>
	<rect x="144.6" y="97.7" class="st0" width="3.2" height="3.2"/>
	<rect x="144.6" y="101.9" class="st0" width="3.2" height="3.2"/>
	<rect x="144.6" y="106.2" class="st0" width="3.2" height="3.2"/>
	<rect x="144.6" y="110.4" class="st0" width="3.2" height="3.2"/>
	<rect x="144.6" y="114.6" class="st0" width="3.2" height="3.2"/>
	<rect x="144.6" y="118.8" class="st0" width="3.2" height="3.2"/>
	<rect x="148.8" y="131.5" class="st0" width="3.2" height="3.2"/>
	<rect x="148.8" y="127.3" class="st0" width="3.2" height="3.2"/>
	<rect x="148.8" y="123.1" class="st0" width="3.2" height="3.2"/>
	<rect x="148.8" y="97.7" class="st0" width="3.2" height="3.2"/>
	<rect x="148.8" y="101.9" class="st0" width="3.2" height="3.2"/>
	<rect x="148.8" y="106.2" class="st0" width="3.2" height="3.2"/>
	<rect x="148.8" y="110.4" class="st0" width="3.2" height="3.2"/>
	<rect x="148.8" y="114.6" class="st0" width="3.2" height="3.2"/>
	<rect x="148.8" y="118.8" class="st0" width="3.2" height="3.2"/>
	<rect x="153" y="131.5" class="st0" width="3.2" height="3.2"/>
	<rect x="153" y="127.3" class="st0" width="3.2" height="3.2"/>
	<rect x="153" y="123.1" class="st0" width="3.2" height="3.2"/>
	<rect x="153" y="97.7" class="st0" width="3.2" height="3.2"/>
	<rect x="153" y="101.9" class="st0" width="3.2" height="3.2"/>
	<rect x="153" y="106.2" class="st0" width="3.2" height="3.2"/>
	<rect x="153" y="110.4" class="st0" width="3.2" height="3.2"/>
	<rect x="153" y="114.6" class="st0" width="3.2" height="3.2"/>
	<rect x="153" y="118.8" class="st0" width="3.2" height="3.2"/>
	<rect x="157.2" y="131.5" class="st0" width="3.2" height="3.2"/>
	<rect x="157.2" y="127.3" class="st0" width="3.2" height="3.2"/>
	<rect x="157.2" y="123.1" class="st0" width="3.2" height="3.2"/>
	<rect x="157.2" y="97.7" class="st0" width="3.2" height="3.2"/>
	<rect x="157.2" y="101.9" class="st0" width="3.2" height="3.2"/>
	<rect x="157.2" y="106.2" class="st0" width="3.2" height="3.2"/>
	<rect x="157.2" y="110.4" class="st0" width="3.2" height="3.2"/>
	<rect x="157.2" y="114.6" class="st0" width="3.2" height="3.2"/>
	<rect x="157.2" y="118.8" class="st0" width="3.2" height="3.2"/>
	<rect x="161.4" y="131.5" class="st0" width="3.2" height="3.2"/>
	<rect x="161.4" y="127.3" class="st0" width="3.2" height="3.2"/>
	<rect x="161.4" y="123.1" class="st0" width="3.2" height="3.2"/>
	<rect x="161.4" y="97.7" class="st0" width="3.2" height="3.2"/>
	<rect x="161.4" y="101.9" class="st0" width="3.2" height="3.2"/>
	<rect x="161.4" y="106.2" class="st0" width="3.2" height="3.2"/>
	<rect x="161.4" y="110.4" class="st0" width="3.2" height="3.2"/>
	<rect x="161.4" y="114.6" class="st0" width="3.2" height="3.2"/>
	<rect x="161.4" y="118.8" class="st0" width="3.2" height="3.2"/>
	<rect x="165.5" y="131.5" class="st0" width="3.2" height="3.2"/>
	<rect x="165.5" y="127.3" class="st0" width="3.2" height="3.2"/>
	<rect x="165.5" y="123.1" class="st0" width="3.2" height="3.2"/>
	<rect x="165.5" y="97.7" class="st0" width="3.2" height="3.2"/>
	<rect x="165.5" y="101.9" class="st0" width="3.2" height="3.2"/>
	<rect x="165.5" y="106.2" class="st0" width="3.2" height="3.2"/>
	<rect x="165.5" y="110.4" class="st0" width="3.2" height="3.2"/>
	<rect x="165.5" y="114.6" class="st0" width="3.2" height="3.2"/>
	<rect x="165.5" y="118.8" class="st0" width="3.2" height="3.2"/>
	<rect x="169.8" y="131.5" class="st0" width="3.2" height="3.2"/>
	<rect x="169.8" y="127.3" class="st0" width="3.2" height="3.2"/>
	<rect x="169.8" y="123.1" class="st0" width="3.2" height="3.2"/>
	<rect x="169.8" y="97.7" class="st0" width="3.2" height="3.2"/>
	<rect x="169.8" y="101.9" class="st0" width="3.2" height="3.2"/>
	<rect x="169.8" y="106.2" class="st0" width="3.2" height="3.2"/>
	<rect x="169.8" y="110.4" class="st0" width="3.2" height="3.2"/>
	<rect x="169.8" y="114.6" class="st0" width="3.2" height="3.2"/>
	<rect x="169.8" y="118.8" class="st0" width="3.2" height="3.2"/>
	<rect x="56.8" y="135.2" class="st0" width="3.2" height="3.2"/>
	<rect x="42.7" y="136.2" class="st0" width="3.2" height="3.2"/>
	<rect x="30" y="116.5" class="st0" width="3.2" height="3.2"/>
	<rect x="32.4" y="99.8" class="st0" width="3.2" height="3.2"/>
	<rect x="48.3" y="101.9" class="st0" width="3.2" height="3.2"/>
	<rect x="16" y="126.3" class="st0" width="3.2" height="3.2"/>
	<rect x="37.9" y="107.2" class="st0" width="3.2" height="3.2"/>
	<rect x="48.3" y="114.6" class="st0" width="3.2" height="3.2"/>
	<rect x="48.3" y="118.8" class="st0" width="3.2" height="3.2"/>
	<rect x="50.8" y="130.5" class="st0" width="3.2" height="3.2"/>
	<rect x="36.3" y="126.9" class="st0" width="3.2" height="3.2"/>
	<rect x="52.4" y="123.1" class="st0" width="3.2" height="3.2"/>
	<rect x="55.1" y="96.5" class="st0" width="3.2" height="3.2"/>
	<rect x="40.7" y="101.4" class="st0" width="3.2" height="3.2"/>
	<rect x="51.1" y="109.3" class="st0" width="3.2" height="3.2"/>
	<rect x="29.2" y="109.1" class="st0" width="3.2" height="3.2"/>
	<rect x="52.4" y="114.6" class="st0" width="3.2" height="3.2"/>
	<rect x="52.4" y="118.8" class="st0" width="3.2" height="3.2"/>
	<rect x="39.8" y="121.5" class="st0" width="3.2" height="3.2"/>
	<rect x="56.7" y="127.3" class="st0" width="3.2" height="3.2"/>
	<rect x="56.7" y="123.1" class="st0" width="3.2" height="3.2"/>
	<rect x="53.3" y="92.2" class="st0" width="3.2" height="3.2"/>
	<rect x="55.1" y="101.1" class="st0" width="3.2" height="3.2"/>
	<rect x="56.7" y="106.2" class="st0" width="3.2" height="3.2"/>
	<rect x="56.7" y="110.4" class="st0" width="3.2" height="3.2"/>
	<rect x="56.7" y="114.6" class="st0" width="3.2" height="3.2"/>
	<rect x="56.7" y="118.8" class="st0" width="3.2" height="3.2"/>
	<rect x="60.8" y="131.5" class="st0" width="3.2" height="3.2"/>
	<rect x="60.8" y="127.3" class="st0" width="3.2" height="3.2"/>
	<rect x="60.8" y="123.1" class="st0" width="3.2" height="3.2"/>
	<rect x="60.4" y="96.7" class="st0" width="3.2" height="3.2"/>
	<rect x="60.8" y="101.9" class="st0" width="3.2" height="3.2"/>
	<rect x="60.8" y="106.2" class="st0" width="3.2" height="3.2"/>
	<rect x="43.1" y="106.2" class="st0" width="3.2" height="3.2"/>
	<rect x="60.8" y="114.6" class="st0" width="3.2" height="3.2"/>
	<rect x="60.8" y="118.8" class="st0" width="3.2" height="3.2"/>
	<rect x="66" y="133.6" class="st0" width="3.2" height="3.2"/>
	<rect x="65" y="127.3" class="st0" width="3.2" height="3.2"/>
	<rect x="65" y="123.1" class="st0" width="3.2" height="3.2"/>
	<rect x="65" y="97.7" class="st0" width="3.2" height="3.2"/>
	<rect x="19.2" y="108.8" class="st0" width="3.2" height="3.2"/>
	<rect x="65" y="106.2" class="st0" width="3.2" height="3.2"/>
	<rect x="65" y="110.4" class="st0" width="3.2" height="3.2"/>
	<rect x="65" y="114.6" class="st0" width="3.2" height="3.2"/>
	<rect x="65" y="118.8" class="st0" width="3.2" height="3.2"/>
	<rect x="69.2" y="131.5" class="st0" width="3.2" height="3.2"/>
	<rect x="69.2" y="127.3" class="st0" width="3.2" height="3.2"/>
	<rect x="69.2" y="123.1" class="st0" width="3.2" height="3.2"/>
	<rect x="69.2" y="97.7" class="st0" width="3.2" height="3.2"/>
	<rect x="69.2" y="101.9" class="st0" width="3.2" height="3.2"/>
	<rect x="69.2" y="106.2" class="st0" width="3.2" height="3.2"/>
	<rect x="44.3" y="114.9" class="st0" width="3.2" height="3.2"/>
	<rect x="69.2" y="114.6" class="st0" width="3.2" height="3.2"/>
	<rect x="69.2" y="118.8" class="st0" width="3.2" height="3.2"/>
	<rect x="73.4" y="131.5" class="st0" width="3.2" height="3.2"/>
	<rect x="73.4" y="127.3" class="st0" width="3.2" height="3.2"/>
	<rect x="73.4" y="123.1" class="st0" width="3.2" height="3.2"/>
	<rect x="73.4" y="96.1" class="st0" width="3.2" height="3.2"/>
	<rect x="73.4" y="101.9" class="st0" width="3.2" height="3.2"/>
	<rect x="73.4" y="106.2" class="st0" width="3.2" height="3.2"/>
	<rect x="73.4" y="110.4" class="st0" width="3.2" height="3.2"/>
	<rect x="73.4" y="114.6" class="st0" width="3.2" height="3.2"/>
	<rect x="73.4" y="118.8" class="st0" width="3.2" height="3.2"/>
	<rect x="77.6" y="131.5" class="st0" width="3.2" height="3.2"/>
	<rect x="77.6" y="127.3" class="st0" width="3.2" height="3.2"/>
	<rect x="77.6" y="123.1" class="st0" width="3.2" height="3.2"/>
	<rect x="77.6" y="97.7" class="st0" width="3.2" height="3.2"/>
	<rect x="77.6" y="101.9" class="st0" width="3.2" height="3.2"/>
	<rect x="77.6" y="106.2" class="st0" width="3.2" height="3.2"/>
	<rect x="77.6" y="110.4" class="st0" width="3.2" height="3.2"/>
	<rect x="77.6" y="114.6" class="st0" width="3.2" height="3.2"/>
	<rect x="77.6" y="118.8" class="st0" width="3.2" height="3.2"/>
	<rect x="81.8" y="131.5" class="st0" width="3.2" height="3.2"/>
	<rect x="81.8" y="127.3" class="st0" width="3.2" height="3.2"/>
	<rect x="81.8" y="118.8" class="st0" width="7.4" height="7.4"/>
	<rect x="81.8" y="97.7" class="st0" width="3.2" height="3.2"/>
	<rect x="81.8" y="101.9" class="st0" width="3.2" height="3.2"/>
	<rect x="81.8" y="106.2" class="st0" width="3.2" height="3.2"/>
	<rect x="81.8" y="110.4" class="st0" width="3.2" height="3.2"/>
	<rect x="81.8" y="114.6" class="st0" width="3.2" height="3.2"/>
	<rect x="85.9" y="131.5" class="st0" width="3.2" height="3.2"/>
	<rect x="85.9" y="127.3" class="st0" width="3.2" height="3.2"/>
	<rect x="85.9" y="97.7" class="st0" width="3.2" height="3.2"/>
	<rect x="85.9" y="101.9" class="st0" width="3.2" height="3.2"/>
	<rect x="85.9" y="106.2" class="st0" width="3.2" height="3.2"/>
	<rect x="85.9" y="110.4" class="st0" width="3.2" height="3.2"/>
	<rect x="85.9" y="114.6" class="st0" width="3.2" height="3.2"/>
	<rect x="90.2" y="131.5" class="st0" width="3.2" height="3.2"/>
	<rect x="90.2" y="127.3" class="st0" width="3.2" height="3.2"/>
	<rect x="90.2" y="123.1" class="st0" width="3.2" height="3.2"/>
	<rect x="90.2" y="106.2" class="st0" width="3.2" height="3.2"/>
	<rect x="90.2" y="110.4" class="st0" width="3.2" height="3.2"/>
	<rect x="90.2" y="114.6" class="st0" width="3.2" height="3.2"/>
	<rect x="90.2" y="118.8" class="st0" width="3.2" height="3.2"/>
	<rect x="94.3" y="131.5" class="st0" width="3.2" height="3.2"/>
	<rect x="94.3" y="127.3" class="st0" width="3.2" height="3.2"/>
	<rect x="94.3" y="123.1" class="st0" width="3.2" height="3.2"/>
	<rect x="90.2" y="102.3" class="st0" width="3.2" height="3.2"/>
	<rect x="94.3" y="106.2" class="st0" width="3.2" height="3.2"/>
	<rect x="94.3" y="110.4" class="st0" width="3.2" height="3.2"/>
	<rect x="94.3" y="114.6" class="st0" width="3.2" height="3.2"/>
	<rect x="94.3" y="118.8" class="st0" width="3.2" height="3.2"/>
	<rect x="98.5" y="131.5" class="st0" width="3.2" height="3.2"/>
	<rect x="98.5" y="127.3" class="st0" width="3.2" height="3.2"/>
	<rect x="98.5" y="123.1" class="st0" width="3.2" height="3.2"/>
	<rect x="98.5" y="97.7" class="st0" width="3.2" height="3.2"/>
	<rect x="98.5" y="106.2" class="st0" width="3.2" height="3.2"/>
	<rect x="98.5" y="110.4" class="st0" width="3.2" height="3.2"/>
	<rect x="98.5" y="114.6" class="st0" width="3.2" height="3.2"/>
	<rect x="98.5" y="118.8" class="st0" width="3.2" height="3.2"/>
	<rect x="102.7" y="131.5" class="st0" width="3.2" height="3.2"/>
	<rect x="102.7" y="127.3" class="st0" width="3.2" height="3.2"/>
	<rect x="102.7" y="123.1" class="st0" width="3.2" height="3.2"/>
	<rect x="102.7" y="97.7" class="st0" width="3.2" height="3.2"/>
	<rect x="102.7" y="106.2" class="st0" width="3.2" height="3.2"/>
	<rect x="102.7" y="110.4" class="st0" width="3.2" height="3.2"/>
	<rect x="102.7" y="114.6" class="st0" width="3.2" height="3.2"/>
	<rect x="102.7" y="118.8" class="st0" width="3.2" height="3.2"/>
	<rect x="106.9" y="131.5" class="st0" width="3.2" height="3.2"/>
	<rect x="106.9" y="127.3" class="st0" width="3.2" height="3.2"/>
	<rect x="106.9" y="123.1" class="st0" width="3.2" height="3.2"/>
	<rect x="106.9" y="97.7" class="st0" width="3.2" height="3.2"/>
	<rect x="106.9" y="106.2" class="st0" width="3.2" height="3.2"/>
	<rect x="106.9" y="110.4" class="st0" width="3.2" height="3.2"/>
	<rect x="106.9" y="118.8" class="st0" width="3.2" height="3.2"/>
	<rect x="111.1" y="40" class="st0" width="3.2" height="3.2"/>
	<rect x="115.3" y="44.2" class="st0" width="3.2" height="3.2"/>
	<rect x="115.3" y="48.3" class="st0" width="3.2" height="3.2"/>
	<rect x="115.3" y="52.5" class="st0" width="3.2" height="3.2"/>
	<rect x="115.3" y="56.6" class="st0" width="3.2" height="3.2"/>
	<rect x="115.3" y="60.8" class="st0" width="3.2" height="3.2"/>
	<rect x="115.3" y="64.9" class="st0" width="3.2" height="3.2"/>
	<rect x="115.3" y="69.1" class="st0" width="3.2" height="3.2"/>
	<rect x="115.3" y="73.3" class="st0" width="3.2" height="3.2"/>
	<rect x="115.3" y="77.4" class="st0" width="3.2" height="3.2"/>
	<rect x="119.5" y="81.6" class="st0" width="3.2" height="3.2"/>
	<rect x="115.3" y="89.9" class="st0" width="3.2" height="3.2"/>
	<rect x="115.3" y="40" class="st0" width="3.2" height="3.2"/>
	<rect x="119.5" y="44.2" class="st0" width="3.2" height="3.2"/>
	<rect x="119.5" y="48.3" class="st0" width="3.2" height="3.2"/>
	<rect x="119.5" y="52.5" class="st0" width="3.2" height="3.2"/>
	<rect x="119.5" y="56.6" class="st0" width="3.2" height="3.2"/>
	<rect x="119.5" y="60.8" class="st0" width="3.2" height="3.2"/>
	<rect x="119.5" y="64.9" class="st0" width="3.2" height="3.2"/>
	<rect x="119.5" y="69.1" class="st0" width="3.2" height="3.2"/>
	<rect x="119.5" y="73.3" class="st0" width="3.2" height="3.2"/>
	<rect x="119.5" y="77.4" class="st0" width="3.2" height="3.2"/>
	<rect x="119.5" y="40" class="st0" width="3.2" height="3.2"/>
	<rect x="123.7" y="44.2" class="st0" width="3.2" height="3.2"/>
	<rect x="123.7" y="48.3" class="st0" width="3.2" height="3.2"/>
	<rect x="123.7" y="52.5" class="st0" width="3.2" height="3.2"/>
	<rect x="123.7" y="56.6" class="st0" width="3.2" height="3.2"/>
	<rect x="123.7" y="60.8" class="st0" width="3.2" height="3.2"/>
	<rect x="123.7" y="64.9" class="st0" width="3.2" height="3.2"/>
	<rect x="123.7" y="69.1" class="st0" width="3.2" height="3.2"/>
	<rect x="123.7" y="73.3" class="st0" width="3.2" height="3.2"/>
	<rect x="123.7" y="77.4" class="st0" width="3.2" height="3.2"/>
	<rect x="123.7" y="81.6" class="st0" width="3.2" height="3.2"/>
	<rect x="123.7" y="85.7" class="st0" width="3.2" height="3.2"/>
	<rect x="123.7" y="89.9" class="st0" width="3.2" height="3.2"/>
	<rect x="123.7" y="40" class="st0" width="3.2" height="3.2"/>
	<rect x="127.9" y="44.2" class="st0" width="3.2" height="3.2"/>
	<rect x="127.9" y="48.3" class="st0" width="3.2" height="3.2"/>
	<rect x="127.9" y="52.5" class="st0" width="3.2" height="3.2"/>
	<rect x="127.9" y="56.6" class="st0" width="3.2" height="3.2"/>
	<rect x="127.9" y="60.8" class="st0" width="3.2" height="3.2"/>
	<rect x="127.9" y="64.9" class="st0" width="3.2" height="3.2"/>
	<rect x="127.9" y="69.1" class="st0" width="3.2" height="3.2"/>
	<rect x="127.9" y="73.3" class="st0" width="3.2" height="3.2"/>
	<rect x="127.9" y="77.4" class="st0" width="3.2" height="3.2"/>
	<rect x="127.9" y="81.6" class="st0" width="3.2" height="3.2"/>
	<rect x="127.9" y="85.7" class="st0" width="3.2" height="3.2"/>
	<rect x="127.9" y="89.9" class="st0" width="3.2" height="3.2"/>
	<rect x="127.9" y="40" class="st0" width="3.2" height="3.2"/>
	<rect x="132" y="44.2" class="st0" width="3.2" height="3.2"/>
	<rect x="132" y="48.3" class="st0" width="3.2" height="3.2"/>
	<rect x="132" y="52.5" class="st0" width="3.2" height="3.2"/>
	<rect x="132" y="56.6" class="st0" width="3.2" height="3.2"/>
	<rect x="132" y="60.8" class="st0" width="3.2" height="3.2"/>
	<rect x="132" y="64.9" class="st0" width="3.2" height="3.2"/>
	<rect x="132" y="69.1" class="st0" width="3.2" height="3.2"/>
	<rect x="132" y="73.3" class="st0" width="3.2" height="3.2"/>
	<rect x="132" y="77.4" class="st0" width="3.2" height="3.2"/>
	<rect x="132" y="81.6" class="st0" width="3.2" height="3.2"/>
	<rect x="132" y="85.7" class="st0" width="3.2" height="3.2"/>
	<rect x="132" y="89.9" class="st0" width="3.2" height="3.2"/>
	<rect x="132" y="40" class="st0" width="3.2" height="3.2"/>
	<rect x="136.3" y="44.2" class="st0" width="3.2" height="3.2"/>
	<rect x="136.3" y="48.3" class="st0" width="3.2" height="3.2"/>
	<rect x="136.3" y="52.5" class="st0" width="3.2" height="3.2"/>
	<rect x="136.3" y="56.6" class="st0" width="3.2" height="3.2"/>
	<rect x="136.3" y="60.8" class="st0" width="3.2" height="3.2"/>
	<rect x="136.3" y="64.9" class="st0" width="3.2" height="3.2"/>
	<rect x="136.3" y="69.1" class="st0" width="3.2" height="3.2"/>
	<rect x="136.3" y="73.3" class="st0" width="3.2" height="3.2"/>
	<rect x="136.3" y="77.4" class="st0" width="3.2" height="3.2"/>
	<rect x="136.3" y="81.6" class="st0" width="3.2" height="3.2"/>
	<rect x="136.3" y="85.7" class="st0" width="3.2" height="3.2"/>
	<rect x="136.3" y="89.9" class="st0" width="3.2" height="3.2"/>
	<rect x="136.3" y="40" class="st0" width="3.2" height="3.2"/>
	<rect x="140.4" y="44.2" class="st0" width="3.2" height="3.2"/>
	<rect x="140.4" y="48.3" class="st0" width="3.2" height="3.2"/>
	<rect x="140.4" y="52.5" class="st0" width="3.2" height="3.2"/>
	<rect x="140.4" y="56.6" class="st0" width="3.2" height="3.2"/>
	<rect x="140.4" y="60.8" class="st0" width="3.2" height="3.2"/>
	<rect x="140.4" y="64.9" class="st0" width="3.2" height="3.2"/>
	<rect x="140.4" y="69.1" class="st0" width="3.2" height="3.2"/>
	<rect x="140.4" y="73.3" class="st0" width="3.2" height="3.2"/>
	<rect x="140.4" y="77.4" class="st0" width="3.2" height="3.2"/>
	<rect x="140.4" y="81.6" class="st0" width="3.2" height="3.2"/>
	<rect x="140.4" y="85.7" class="st0" width="3.2" height="3.2"/>
	<rect x="140.4" y="89.9" class="st0" width="3.2" height="3.2"/>
	<rect x="140.4" y="40" class="st0" width="3.2" height="3.2"/>
	<rect x="144.6" y="44.2" class="st0" width="3.2" height="3.2"/>
	<rect x="144.6" y="48.3" class="st0" width="3.2" height="3.2"/>
	<rect x="144.6" y="52.5" class="st0" width="3.2" height="3.2"/>
	<rect x="144.6" y="56.6" class="st0" width="3.2" height="3.2"/>
	<rect x="144.6" y="60.8" class="st0" width="7.3" height="7.3"/>
	<rect x="144.6" y="69.1" class="st0" width="3.2" height="3.2"/>
	<rect x="144.6" y="73.3" class="st0" width="3.2" height="3.2"/>
	<rect x="144.6" y="77.4" class="st0" width="3.2" height="3.2"/>
	<rect x="144.6" y="81.6" class="st0" width="3.2" height="3.2"/>
	<rect x="144.6" y="85.7" class="st0" width="3.2" height="3.2"/>
	<rect x="144.6" y="89.9" class="st0" width="3.2" height="3.2"/>
	<rect x="144.6" y="40" class="st0" width="3.2" height="3.2"/>
	<rect x="148.8" y="44.2" class="st0" width="3.2" height="3.2"/>
	<rect x="148.8" y="48.3" class="st0" width="3.2" height="3.2"/>
	<rect x="148.8" y="52.5" class="st0" width="3.2" height="3.2"/>
	<rect x="148.8" y="56.6" class="st0" width="3.2" height="3.2"/>
	<rect x="148.8" y="69.1" class="st0" width="3.2" height="3.2"/>
	<rect x="148.8" y="73.3" class="st0" width="3.2" height="3.2"/>
	<rect x="148.8" y="77.4" class="st0" width="3.2" height="3.2"/>
	<rect x="148.8" y="81.6" class="st0" width="3.2" height="3.2"/>
	<rect x="148.8" y="85.7" class="st0" width="3.2" height="3.2"/>
	<rect x="148.8" y="89.9" class="st0" width="3.2" height="3.2"/>
	<rect x="148.8" y="40" class="st0" width="3.2" height="3.2"/>
	<rect x="153" y="44.2" class="st0" width="3.2" height="3.2"/>
	<rect x="153" y="48.3" class="st0" width="3.2" height="3.2"/>
	<rect x="153" y="52.5" class="st0" width="3.2" height="3.2"/>
	<rect x="153" y="56.6" class="st0" width="3.2" height="3.2"/>
	<rect x="153" y="60.8" class="st0" width="3.2" height="3.2"/>
	<rect x="153" y="64.9" class="st0" width="3.2" height="3.2"/>
	<rect x="153" y="69.1" class="st0" width="3.2" height="3.2"/>
	<rect x="153" y="73.3" class="st0" width="3.2" height="3.2"/>
	<rect x="153" y="77.4" class="st0" width="3.2" height="3.2"/>
	<rect x="153" y="81.6" class="st0" width="3.2" height="3.2"/>
	<rect x="153" y="85.7" class="st0" width="3.2" height="3.2"/>
	<rect x="153" y="89.9" class="st0" width="3.2" height="3.2"/>
	<rect x="153" y="40" class="st0" width="3.2" height="3.2"/>
	<rect x="157.2" y="44.2" class="st0" width="3.2" height="3.2"/>
	<rect x="157.2" y="48.3" class="st0" width="3.2" height="3.2"/>
	<rect x="157.2" y="52.5" class="st0" width="3.2" height="3.2"/>
	<rect x="157.2" y="56.6" class="st0" width="3.2" height="3.2"/>
	<rect x="157.2" y="60.8" class="st0" width="3.2" height="3.2"/>
	<rect x="157.2" y="64.9" class="st0" width="3.2" height="3.2"/>
	<rect x="157.2" y="69.1" class="st0" width="3.2" height="3.2"/>
	<rect x="157.2" y="73.3" class="st0" width="3.2" height="3.2"/>
	<rect x="157.2" y="77.4" class="st0" width="3.2" height="3.2"/>
	<rect x="157.2" y="81.6" class="st0" width="3.2" height="3.2"/>
	<rect x="157.2" y="85.7" class="st0" width="3.2" height="3.2"/>
	<rect x="157.2" y="89.9" class="st0" width="3.2" height="3.2"/>
	<rect x="157.2" y="40" class="st0" width="3.2" height="3.2"/>
	<rect x="161.4" y="44.2" class="st0" width="3.2" height="3.2"/>
	<rect x="161.4" y="48.3" class="st0" width="3.2" height="3.2"/>
	<rect x="161.4" y="52.5" class="st0" width="3.2" height="3.2"/>
	<rect x="161.4" y="56.6" class="st0" width="3.2" height="3.2"/>
	<rect x="161.4" y="60.8" class="st0" width="3.2" height="3.2"/>
	<rect x="161.4" y="64.9" class="st0" width="3.2" height="3.2"/>
	<rect x="161.4" y="69.1" class="st0" width="3.2" height="3.2"/>
	<rect x="161.4" y="73.3" class="st0" width="3.2" height="3.2"/>
	<rect x="161.4" y="77.4" class="st0" width="3.2" height="3.2"/>
	<rect x="161.4" y="81.6" class="st0" width="3.2" height="3.2"/>
	<rect x="161.4" y="85.7" class="st0" width="3.2" height="3.2"/>
	<rect x="161.4" y="89.9" class="st0" width="3.2" height="3.2"/>
	<rect x="161.4" y="40" class="st0" width="3.2" height="3.2"/>
	<rect x="165.5" y="44.2" class="st0" width="3.2" height="3.2"/>
	<rect x="165.5" y="52.5" class="st0" width="3.2" height="11.5"/>
	<rect x="165.5" y="64.9" class="st0" width="3.2" height="3.2"/>
	<rect x="165.5" y="69.1" class="st0" width="3.2" height="3.2"/>
	<rect x="165.5" y="73.3" class="st0" width="3.2" height="3.2"/>
	<rect x="165.5" y="77.4" class="st0" width="3.2" height="3.2"/>
	<rect x="165.5" y="81.6" class="st0" width="3.2" height="3.2"/>
	<rect x="165.5" y="85.7" class="st0" width="3.2" height="3.2"/>
	<rect x="165.5" y="89.9" class="st0" width="3.2" height="3.2"/>
	<rect x="165.5" y="40" class="st0" width="3.2" height="3.2"/>
	<rect x="169.8" y="44.2" class="st0" width="3.2" height="3.2"/>
	<rect x="169.8" y="48.3" class="st0" width="3.2" height="3.2"/>
	<rect x="169.8" y="52.5" class="st0" width="3.2" height="3.2"/>
	<rect x="169.8" y="56.6" class="st0" width="3.2" height="3.2"/>
	<rect x="169.8" y="60.8" class="st0" width="3.2" height="3.2"/>
	<rect x="169.8" y="64.9" class="st0" width="3.2" height="3.2"/>
	<rect x="169.8" y="69.1" class="st0" width="3.2" height="3.2"/>
	<rect x="169.8" y="73.3" class="st0" width="3.2" height="3.2"/>
	<rect x="169.8" y="77.4" class="st0" width="3.2" height="3.2"/>
	<rect x="169.8" y="81.6" class="st0" width="3.2" height="3.2"/>
	<rect x="169.8" y="85.7" class="st0" width="3.2" height="3.2"/>
	<rect x="169.8" y="40" class="st0" width="3.2" height="3.2"/>
	<rect x="173.9" y="44.2" class="st0" width="3.2" height="3.2"/>
	<rect x="173.9" y="48.3" class="st0" width="3.2" height="3.2"/>
	<rect x="173.9" y="52.5" class="st0" width="3.2" height="3.2"/>
	<rect x="173.9" y="56.6" class="st0" width="3.2" height="3.2"/>
	<rect x="173.9" y="60.8" class="st0" width="3.2" height="3.2"/>
	<rect x="173.9" y="64.9" class="st0" width="3.2" height="3.2"/>
	<rect x="173.9" y="69.1" class="st0" width="3.2" height="3.2"/>
	<rect x="173.9" y="73.3" class="st0" width="3.2" height="3.2"/>
	<rect x="173.9" y="77.4" class="st0" width="3.2" height="3.2"/>
	<rect x="173.9" y="81.6" class="st0" width="3.2" height="3.2"/>
	<rect x="42.7" y="40" class="st0" width="3.2" height="3.2"/>
	<rect x="36.6" y="59.2" class="st0" width="3.2" height="3.2"/>
	<rect x="40.4" y="52.1" class="st0" width="3.2" height="3.2"/>
	<rect x="13.1" y="45.8" class="st0" width="3.2" height="3.2"/>
	<rect x="42" y="58.2" class="st0" width="3.2" height="3.2"/>
	<rect x="41.4" y="63.3" class="st0" width="3.2" height="3.2"/>
	<rect x="44.3" y="69.1" class="st0" width="3.2" height="3.2"/>
	<rect x="43.6" y="72.9" class="st0" width="3.2" height="3.2"/>
	<rect x="26.3" y="73.3" class="st0" width="3.2" height="3.2"/>
	<rect x="38.2" y="76.8" class="st0" width="3.2" height="3.2"/>
	<rect x="34.2" y="70.7" class="st0" width="3.2" height="3.2"/>
	<rect x="44.3" y="81.6" class="st0" width="3.2" height="3.2"/>
	<rect x="26.3" y="34.8" class="st0" width="3.2" height="3.2"/>
	<rect x="22.1" y="57.2" class="st0" width="3.2" height="3.2"/>
	<rect x="45.2" y="45.8" class="st0" width="3.2" height="3.2"/>
	<rect x="48.4" y="52.5" class="st0" width="3.2" height="3.2"/>
	<rect x="47.3" y="56.6" class="st0" width="3.2" height="3.2"/>
	<rect x="32.6" y="63.3" class="st0" width="3.2" height="3.2"/>
	<rect x="47" y="62.9" class="st0" width="3.2" height="3.2"/>
	<rect x="42" y="5" class="st0" width="3.2" height="3.2"/>
	<rect x="-0.7" y="16.1" class="st0" width="3.2" height="3.2"/>
	<rect x="48.4" y="77.4" class="st0" width="3.2" height="3.2"/>
	<rect x="28.6" y="80.6" class="st0" width="3.2" height="3.2"/>
	<rect x="48.4" y="85.7" class="st0" width="3.2" height="3.2"/>
	<rect x="41.1" y="86.7" class="st0" width="3.2" height="3.2"/>
	<rect x="27.8" y="46.7" class="st0" width="3.2" height="3.2"/>
	<rect x="50.6" y="42.6" class="st0" width="3.2" height="3.2"/>
	<rect x="52.7" y="48.3" class="st0" width="3.2" height="3.2"/>
	<rect x="54.7" y="52.8" class="st0" width="3.2" height="3.2"/>
	<rect x="52.7" y="56.6" class="st0" width="3.2" height="3.2"/>
	<rect x="52.7" y="60.8" class="st0" width="3.2" height="3.2"/>
	<rect x="5.8" y="67.3" class="st0" width="3.2" height="3.2"/>
	<rect x="52.7" y="69.1" class="st0" width="3.2" height="3.2"/>
	<rect x="52.7" y="73.3" class="st0" width="3.2" height="3.2"/>
	<rect x="23.7" class="st0" width="3.2" height="3.2"/>
	<rect x="52.7" y="81.6" class="st0" width="3.2" height="3.2"/>
	<rect x="52.7" y="85.7" class="st0" width="3.2" height="3.2"/>
	<rect x="52.7" y="37.3" class="st0" width="3.2" height="3.2"/>
	<rect x="22.1" y="64" class="st0" width="3.2" height="3.2"/>
	<rect x="24.7" y="16.1" class="st0" width="3.2" height="3.2"/>
	<rect x="57.8" y="46.7" class="st0" width="3.2" height="3.2"/>
	<rect x="56.8" y="56.6" class="st0" width="3.2" height="3.2"/>
	<rect x="14.7" y="65.7" class="st0" width="3.2" height="3.2"/>
	<rect x="56.8" y="64.9" class="st0" width="3.2" height="3.2"/>
	<rect x="46.1" y="90.9" class="st0" width="3.2" height="3.2"/>
	<rect x="56.8" y="73.3" class="st0" width="3.2" height="3.2"/>
	<rect x="56.8" y="77.4" class="st0" width="3.2" height="3.2"/>
	<rect x="39.5" y="91.5" class="st0" width="3.2" height="3.2"/>
	<rect x="56.8" y="85.7" class="st0" width="3.2" height="3.2"/>
	<rect x="56.8" y="40" class="st0" width="3.2" height="3.2"/>
	<rect x="11.9" y="79.6" class="st0" width="3.2" height="3.2"/>
	<rect x="22.1" y="25" class="st0" width="3.2" height="3.2"/>
	<rect x="60.4" y="51.2" class="st0" width="3.2" height="3.2"/>
	<rect x="61" y="56.6" class="st0" width="3.2" height="3.2"/>
	<rect x="61" y="60.8" class="st0" width="3.2" height="3.2"/>
	<rect x="61" y="64.9" class="st0" width="3.2" height="3.2"/>
	<rect x="61" y="69.1" class="st0" width="3.2" height="3.2"/>
	<rect x="61" y="73.3" class="st0" width="3.2" height="3.2"/>
	<rect x="61" y="77.4" class="st0" width="3.2" height="3.2"/>
	<rect x="61" y="81.6" class="st0" width="3.2" height="3.2"/>
	<rect x="61" y="85.7" class="st0" width="3.2" height="3.2"/>
	<rect x="61" y="89.9" class="st0" width="3.2" height="3.2"/>
	<rect x="61.9" y="34.1" class="st0" width="3.2" height="3.2"/>
	<rect x="64.2" y="42.6" class="st0" width="3.2" height="3.2"/>
	<rect x="65.1" y="48.3" class="st0" width="3.2" height="3.2"/>
	<rect x="25.4" y="86.7" class="st0" width="3.2" height="3.2"/>
	<rect x="65.1" y="56.6" class="st0" width="3.2" height="3.2"/>
	<rect x="13.1" y="29.7" class="st0" width="3.2" height="3.2"/>
	<rect x="65.1" y="64.9" class="st0" width="3.2" height="3.2"/>
	<rect x="65.1" y="69.1" class="st0" width="3.2" height="3.2"/>
	<rect x="65.1" y="73.3" class="st0" width="3.2" height="3.2"/>
	<rect x="65.1" y="77.4" class="st0" width="3.2" height="3.2"/>
	<rect x="65.1" y="81.6" class="st0" width="3.2" height="3.2"/>
	<rect x="65.1" y="85.7" class="st0" width="3.2" height="3.2"/>
	<rect x="65.1" y="89.9" class="st0" width="3.2" height="3.2"/>
	<rect x="39.8" y="28.6" class="st0" width="3.2" height="3.2"/>
	<rect x="69.4" y="44.2" class="st0" width="3.2" height="3.2"/>
	<rect x="50.6" y="20.2" class="st0" width="3.2" height="3.2"/>
	<rect x="69.4" y="52.5" class="st0" width="3.2" height="3.2"/>
	<rect x="69.4" y="56.6" class="st0" width="3.2" height="3.2"/>
	<rect x="69.4" y="60.8" class="st0" width="3.2" height="3.2"/>
	<rect x="69.4" y="64.9" class="st0" width="3.2" height="3.2"/>
	<rect x="69.4" y="69.1" class="st0" width="3.2" height="3.2"/>
	<rect x="46.8" y="97.2" class="st0" width="3.2" height="3.2"/>
	<rect x="69.4" y="77.4" class="st0" width="3.2" height="3.2"/>
	<rect x="69.4" y="81.6" class="st0" width="3.2" height="3.2"/>
	<rect x="69.4" y="85.7" class="st0" width="3.2" height="3.2"/>
	<rect x="69.4" y="89.9" class="st0" width="3.2" height="3.2"/>
	<rect x="69.4" y="40" class="st0" width="3.2" height="3.2"/>
	<rect x="66.7" y="23.4" class="st0" width="3.2" height="3.2"/>
	<rect x="73.5" y="48.3" class="st0" width="3.2" height="3.2"/>
	<rect x="73.5" y="52.5" class="st0" width="3.2" height="3.2"/>
	<rect x="73.5" y="56.6" class="st0" width="3.2" height="3.2"/>
	<rect x="73.5" y="60.8" class="st0" width="3.2" height="3.2"/>
	<rect x="73.5" y="64.9" class="st0" width="3.2" height="3.2"/>
	<rect x="73.5" y="69.1" class="st0" width="3.2" height="3.2"/>
	<rect x="73.5" y="73.3" class="st0" width="3.2" height="3.2"/>
	<rect x="73.5" y="77.4" class="st0" width="3.2" height="3.2"/>
	<rect x="73.5" y="81.6" class="st0" width="3.2" height="3.2"/>
	<rect x="73.5" y="85.7" class="st0" width="3.2" height="3.2"/>
	<rect x="73.5" y="89.9" class="st0" width="3.2" height="3.2"/>
	<rect x="75.7" y="42" class="st0" width="3.2" height="3.2"/>
	<rect x="67.8" y="14" class="st0" width="3.2" height="3.2"/>
	<rect x="77.8" y="48.3" class="st0" width="3.2" height="3.2"/>
	<rect x="77.8" y="52.5" class="st0" width="3.2" height="3.2"/>
	<rect x="77.8" y="56.6" class="st0" width="3.2" height="3.2"/>
	<rect x="77.8" y="60.8" class="st0" width="3.2" height="3.2"/>
	<rect x="77.8" y="64.9" class="st0" width="3.2" height="3.2"/>
	<rect x="77.8" y="69.1" class="st0" width="3.2" height="3.2"/>
	<rect x="77.8" y="73.3" class="st0" width="3.2" height="3.2"/>
	<rect x="77.8" y="77.4" class="st0" width="3.2" height="3.2"/>
	<rect x="77.8" y="81.6" class="st0" width="3.2" height="3.2"/>
	<rect x="77.8" y="85.7" class="st0" width="3.2" height="3.2"/>
	<rect x="77.8" y="89.9" class="st0" width="3.2" height="3.2"/>
	<rect x="80.9" y="37.3" class="st0" width="3.2" height="3.2"/>
	<rect x="81.9" y="44.2" class="st0" width="3.2" height="3.2"/>
	<rect x="81.9" y="48.3" class="st0" width="3.2" height="3.2"/>
	<rect x="2.5" y="89.9" class="st0" width="3.2" height="3.2"/>
	<rect x="81.9" y="56.6" class="st0" width="3.2" height="3.2"/>
	<rect x="81.9" y="60.8" class="st0" width="3.2" height="3.2"/>
	<rect x="81.9" y="64.9" class="st0" width="3.2" height="3.2"/>
	<rect x="81.9" y="69.1" class="st0" width="3.2" height="3.2"/>
	<rect x="81.9" y="73.3" class="st0" width="3.2" height="3.2"/>
	<rect x="81.9" y="77.4" class="st0" width="3.2" height="3.2"/>
	<rect x="81.9" y="81.6" class="st0" width="3.2" height="3.2"/>
	<rect x="81.9" y="85.7" class="st0" width="3.2" height="3.2"/>
	<rect x="81.9" y="89.9" class="st0" width="3.2" height="3.2"/>
	<rect x="85.4" y="38.4" class="st0" width="3.2" height="3.2"/>
	<rect x="86.2" y="44.2" class="st0" width="3.2" height="3.2"/>
	<rect x="86.2" y="48.3" class="st0" width="3.2" height="3.2"/>
	<rect x="86.2" y="52.5" class="st0" width="3.2" height="3.2"/>
	<rect x="86.2" y="56.6" class="st0" width="3.2" height="3.2"/>
	<rect x="86.2" y="60.8" class="st0" width="3.2" height="3.2"/>
	<rect x="86.2" y="64.9" class="st0" width="15.7" height="3.2"/>
	<rect x="86.2" y="69.1" class="st0" width="3.2" height="3.2"/>
	<rect x="86.2" y="73.3" class="st0" width="3.2" height="3.2"/>
	<rect x="86.2" y="77.4" class="st0" width="3.2" height="3.2"/>
	<rect x="86.2" y="81.6" class="st0" width="3.2" height="3.2"/>
	<rect x="90.3" y="81.6" class="st0" width="3.2" height="3.2"/>
	<rect x="86.2" y="85.7" class="st0" width="3.2" height="3.2"/>
	<rect x="86.2" y="89.9" class="st0" width="3.2" height="3.2"/>
	<rect x="93.9" y="36.4" class="st0" width="3.2" height="3.2"/>
	<rect x="90.3" y="44.2" class="st0" width="3.2" height="3.2"/>
	<rect x="7.4" y="56" class="st0" width="3.2" height="3.2"/>
	<rect x="90.3" y="52.5" class="st0" width="3.2" height="3.2"/>
	<rect x="90.3" y="56.6" class="st0" width="3.2" height="3.2"/>
	<rect x="90.3" y="60.8" class="st0" width="3.2" height="3.2"/>
	<rect x="90.3" y="69.1" class="st0" width="3.2" height="3.2"/>
	<rect y="41" class="st0" width="3.2" height="3.2"/>
	<rect x="90.3" y="77.4" class="st0" width="3.2" height="3.2"/>
	<rect x="90.3" y="40" class="st0" width="3.2" height="3.2"/>
	<rect x="94.5" y="44.2" class="st0" width="3.2" height="3.2"/>
	<rect x="94.5" y="48.3" class="st0" width="3.2" height="3.2"/>
	<rect x="94.5" y="52.5" class="st0" width="3.2" height="3.2"/>
	<rect x="94.5" y="56.6" class="st0" width="3.2" height="3.2"/>
	<rect x="94.5" y="60.8" class="st0" width="3.2" height="3.2"/>
	<rect x="94.5" y="69.1" class="st0" width="3.2" height="3.2"/>
	<rect x="94.5" y="73.3" class="st0" width="3.2" height="3.2"/>
	<rect x="94.5" y="77.4" class="st0" width="3.2" height="3.2"/>
	<rect x="94.5" y="89.9" class="st0" width="3.2" height="3.2"/>
	<rect x="70.4" y="34.1" class="st0" width="3.2" height="3.2"/>
	<rect x="98.6" y="44.2" class="st0" width="3.2" height="3.2"/>
	<rect x="98.6" y="48.3" class="st0" width="3.2" height="3.2"/>
	<rect x="98.6" y="52.5" class="st0" width="3.2" height="3.2"/>
	<rect x="98.6" y="56.6" class="st0" width="3.2" height="3.2"/>
	<rect x="98.6" y="60.8" class="st0" width="3.2" height="3.2"/>
	<rect x="98.6" y="69.1" class="st0" width="3.2" height="3.2"/>
	<rect x="98.6" y="73.3" class="st0" width="3.2" height="3.2"/>
	<rect x="98.6" y="77.4" class="st0" width="3.2" height="3.2"/>
	<rect x="98.6" y="85.7" class="st0" width="3.2" height="3.2"/>
	<rect x="98.6" y="89.9" class="st0" width="3.2" height="3.2"/>
	<rect x="98.6" y="40" class="st0" width="3.2" height="3.2"/>
	<rect x="102.9" y="44.2" class="st0" width="3.2" height="3.2"/>
	<rect x="102.9" y="48.3" class="st0" width="3.2" height="3.2"/>
	<rect x="102.9" y="52.5" class="st0" width="3.2" height="3.2"/>
	<rect x="102.9" y="56.6" class="st0" width="3.2" height="3.2"/>
	<rect x="102.9" y="60.8" class="st0" width="3.2" height="3.2"/>
	<rect x="102.9" y="64.9" class="st0" width="3.2" height="3.2"/>
	<rect x="102.9" y="69.1" class="st0" width="3.2" height="3.2"/>
	<rect x="102.9" y="73.3" class="st0" width="3.2" height="3.2"/>
	<rect x="102.9" y="77.4" class="st0" width="3.2" height="3.2"/>
	<rect x="102.9" y="85.7" class="st0" width="3.2" height="3.2"/>
	<rect x="102.9" y="89.9" class="st0" width="3.2" height="3.2"/>
	<rect x="102.9" y="40" class="st0" width="3.2" height="3.2"/>
	<rect x="107" y="44.2" class="st0" width="3.2" height="3.2"/>
	<rect x="107" y="48.3" class="st0" width="3.2" height="3.2"/>
	<rect x="107" y="52.5" class="st0" width="3.2" height="3.2"/>
	<rect x="52.7" y="27" class="st0" width="3.2" height="3.2"/>
	<rect x="107" y="60.8" class="st0" width="3.2" height="3.2"/>
	<rect x="107" y="64.9" class="st0" width="3.2" height="3.2"/>
	<rect x="107" y="69.1" class="st0" width="3.2" height="3.2"/>
	<rect x="107" y="73.3" class="st0" width="3.2" height="3.2"/>
	<rect x="107" y="77.4" class="st0" width="3.2" height="3.2"/>
	<rect x="107" y="85.7" class="st0" width="3.2" height="3.2"/>
	<rect x="107" y="89.9" class="st0" width="3.2" height="3.2"/>
	<rect x="111.1" y="93.8" class="st0" width="3.2" height="3.2"/>
	<rect x="115.3" y="93.8" class="st0" width="3.2" height="3.2"/>
	<rect x="94.5" y="93.8" class="st0" width="3.2" height="3.2"/>
	<rect x="98.6" y="93.8" class="st0" width="3.2" height="3.2"/>
	<rect x="102.9" y="93.8" class="st0" width="3.2" height="3.2"/>
	<rect x="107" y="93.8" class="st0" width="3.2" height="3.2"/>
	<rect x="107" y="38" class="st0" width="3.2" height="3.2"/>
	<rect x="21.4" y="95.6" class="st0" width="3.2" height="3.2"/>
	<rect x="11" y="101.4" class="st0" width="3.2" height="3.2"/>
	<rect x="23.8" y="100.6" class="st0" width="3.2" height="3.2"/>
	<rect x="3.4" y="113" class="st0" width="3.2" height="3.2"/>
	<rect x="18.2" y="137.8" class="st0" width="3.2" height="3.2"/>
	<rect x="85.2" y="16.6" class="st0" width="3.2" height="3.2"/>
	<rect x="85.2" y="20.8" class="st0" width="3.2" height="3.2"/>
	<rect x="85.2" y="25" class="st0" width="3.2" height="3.2"/>
	<rect x="85.2" y="29.1" class="st0" width="3.2" height="3.2"/>
	<rect x="85.2" y="33.3" class="st0" width="3.2" height="3.2"/>
	<rect x="89.4" y="16.6" class="st0" width="3.2" height="3.2"/>
	<rect x="89.4" y="20.8" class="st0" width="3.2" height="3.2"/>
	<rect x="89.4" y="25" class="st0" width="3.2" height="3.2"/>
	<rect x="89.4" y="29.1" class="st0" width="3.2" height="3.2"/>
	<rect x="89.4" y="33.3" class="st0" width="3.2" height="3.2"/>
	<rect x="89.4" y="12.5" class="st0" width="3.2" height="3.2"/>
	<rect x="93.7" y="16.6" class="st0" width="3.2" height="3.2"/>
	<rect x="93.7" y="20.8" class="st0" width="3.2" height="3.2"/>
	<rect x="93.7" y="12.5" class="st0" width="3.2" height="3.2"/>
	<rect x="97.8" y="16.6" class="st0" width="3.2" height="3.2"/>
	<rect x="97.8" y="20.8" class="st0" width="3.2" height="3.2"/>
	<rect x="97.8" y="12.5" class="st0" width="3.2" height="3.2"/>
	<rect x="102" y="16.6" class="st0" width="3.2" height="3.2"/>
	<rect x="102" y="20.8" class="st0" width="3.2" height="3.2"/>
	<rect x="102" y="12.5" class="st0" width="3.2" height="3.2"/>
	<rect x="106.1" y="16.6" class="st0" width="3.2" height="3.2"/>
	<rect x="106.1" y="20.8" class="st0" width="3.2" height="3.2"/>
	<rect x="106.1" y="12.5" class="st0" width="3.2" height="3.2"/>
	<rect x="110.4" y="16.6" class="st0" width="3.2" height="3.2"/>
	<rect x="110.4" y="20.8" class="st0" width="3.2" height="3.2"/>
	<rect x="110.4" y="12.5" class="st0" width="3.2" height="3.2"/>
	<rect x="114.5" y="16.6" class="st0" width="3.2" height="3.2"/>
	<rect x="114.5" y="20.8" class="st0" width="3.2" height="3.2"/>
	<rect x="114.5" y="12.5" class="st0" width="3.2" height="3.2"/>
	<rect x="118.7" y="16.6" class="st0" width="3.2" height="3.2"/>
	<rect x="118.7" y="20.8" class="st0" width="3.2" height="3.2"/>
	<rect x="118.7" y="25" class="st0" width="3.2" height="3.2"/>
	<rect x="118.7" y="29.1" class="st0" width="3.2" height="3.2"/>
	<rect x="118.7" y="33.3" class="st0" width="3.2" height="3.2"/>
	<rect x="118.7" y="12.5" class="st0" width="3.2" height="3.2"/>
	<rect x="122.8" y="16.6" class="st0" width="3.2" height="3.2"/>
	<rect x="122.8" y="20.8" class="st0" width="3.2" height="3.2"/>
	<rect x="122.8" y="25" class="st0" width="3.2" height="3.2"/>
	<rect x="122.8" y="29.1" class="st0" width="3.2" height="3.2"/>
	<rect x="122.8" y="33.3" class="st0" width="3.2" height="3.2"/>
</g>
</svg>
