<?xml version="1.0" encoding="utf-8"?>
<!-- Generator: Adobe Illustrator 21.0.2, SVG Export Plug-In . SVG Version: 6.00 Build 0)  -->
<svg version="1.1" id="Isolation_Mode" xmlns="http://www.w3.org/2000/svg" xmlns:xlink="http://www.w3.org/1999/xlink" x="0px"
	 y="0px" viewBox="0 0 1366 41.6" style="enable-background:new 0 0 1366 41.6;" xml:space="preserve">
<style type="text/css">
	.st0{fill:#101633;}
</style>
<g>
	<rect x="1282.4" y="8.6" class="st0" width="5.4" height="5.4"/>
	<rect x="1282.4" y="1.3" class="st0" width="5.4" height="5.4"/>
	<rect x="1275.1" y="1.3" class="st0" width="5.4" height="5.4"/>
	<rect x="1267.9" y="8.6" class="st0" width="5.4" height="5.4"/>
	<rect x="1260.6" y="8.6" class="st0" width="5.4" height="5.4"/>
	<rect x="1260.6" y="1.3" class="st0" width="5.4" height="5.4"/>
	<rect x="1305.4" y="17.1" class="st0" width="2.7" height="2.7"/>
	<rect x="1305.4" y="9.8" class="st0" width="2.7" height="2.7"/>
	<rect x="1305.8" y="3" class="st0" width="1.8" height="1.8"/>
	<rect x="1253.8" y="9" class="st0" width="4.5" height="4.5"/>
	<rect x="1253.3" y="1.3" class="st0" width="5.4" height="5.4"/>
	<rect x="1297.2" y="8.9" class="st0" width="4.5" height="4.5"/>
	<rect x="1297.2" y="1.6" class="st0" width="4.5" height="4.5"/>
	<rect x="1247" y="9.5" class="st0" width="3.6" height="3.6"/>
	<rect x="1240.2" y="17.2" class="st0" width="2.7" height="2.7"/>
	<rect x="1240.2" y="9.9" class="st0" width="2.7" height="2.7"/>
	<rect x="1240.6" y="3.1" class="st0" width="1.8" height="1.8"/>
	<rect x="1229.4" y="1.9" class="st0" width="5.4" height="5.4"/>
	<rect x="1229.4" y="9.1" class="st0" width="5.4" height="5.4"/>
	<rect x="1290.3" y="8.9" class="st0" width="4.5" height="4.5"/>
	<rect x="1222.4" y="8.9" class="st0" width="4.5" height="4.5"/>
	<rect x="1222.4" y="1.6" class="st0" width="4.5" height="4.5"/>
	<rect x="1215.4" y="9.1" class="st0" width="4.5" height="4.5"/>
	<rect x="1207.7" y="8.6" class="st0" width="5.4" height="5.4"/>
	<rect x="1207.7" y="1.4" class="st0" width="5.4" height="5.4"/>
	<rect x="1200.4" y="8.6" class="st0" width="5.4" height="5.4"/>
	<rect x="1193.1" y="8.6" class="st0" width="5.4" height="5.4"/>
	<rect x="1192.7" y="0.9" class="st0" width="6.4" height="6.4"/>
	<rect x="1178.4" y="8.3" class="st0" width="5.4" height="5.4"/>
	<rect x="1178.4" y="1" class="st0" width="5.4" height="5.4"/>
	<rect x="1171.1" y="8.3" class="st0" width="5.4" height="5.4"/>
	<rect x="1170.7" y="0.6" class="st0" width="6.4" height="6.4"/>
	<rect x="1163.9" y="8.3" class="st0" width="5.4" height="5.4"/>
	<rect x="1134.8" y="7.3" class="st0" width="5.4" height="5.4"/>
	<rect x="1127.1" y="6.8" class="st0" width="6.4" height="6.4"/>
	<rect x="1127.1" y="-0.4" class="st0" width="6.4" height="6.4"/>
	<rect x="1120.3" y="7.3" class="st0" width="5.4" height="5.4"/>
	<rect x="1119.8" y="-0.4" class="st0" width="6.4" height="6.4"/>
	<rect x="1113" y="0" class="st0" width="5.4" height="5.4"/>
	<rect x="1105.8" y="7.3" class="st0" width="5.4" height="5.4"/>
	<rect x="1105.3" y="-0.4" class="st0" width="6.4" height="6.4"/>
	<rect x="1098" y="6.8" class="st0" width="6.4" height="6.4"/>
	<rect x="1090.8" y="6.8" class="st0" width="6.4" height="6.4"/>
	<rect x="1084" y="7.3" class="st0" width="5.4" height="5.4"/>
	<rect x="1084" y="0" class="st0" width="5.4" height="5.4"/>
	<rect x="1076.7" y="7.3" class="st0" width="5.4" height="5.4"/>
	<rect x="1069.4" y="14.6" class="st0" width="5.4" height="5.4"/>
	<rect x="1069.4" y="7.3" class="st0" width="5.4" height="5.4"/>
	<rect x="1069.4" y="0" class="st0" width="5.4" height="5.4"/>
	<rect x="1062.2" y="14.6" class="st0" width="5.4" height="5.4"/>
	<rect x="1061.7" y="-0.4" class="st0" width="6.4" height="6.4"/>
	<rect x="1054.9" y="14.6" class="st0" width="5.4" height="5.4"/>
	<rect x="1054.9" y="7.3" class="st0" width="5.4" height="5.4"/>
	<rect x="1047.7" y="14.6" class="st0" width="5.4" height="5.4"/>
	<rect x="1047.2" y="6.8" class="st0" width="6.4" height="6.4"/>
	<rect x="1047.7" y="0" class="st0" width="5.4" height="5.4"/>
	<rect x="1040.4" y="14.6" class="st0" width="5.4" height="5.4"/>
	<rect x="1040.4" y="7.3" class="st0" width="5.4" height="5.4"/>
	<rect x="1040.4" y="0" class="st0" width="5.4" height="5.4"/>
	<rect x="1355.7" y="7.9" class="st0" width="5.4" height="5.4"/>
	<rect x="1355.7" y="0.7" class="st0" width="5.4" height="5.4"/>
	<rect x="1033.1" y="7.3" class="st0" width="5.4" height="5.4"/>
	<rect x="1033.1" y="0" class="st0" width="5.4" height="5.4"/>
	<rect x="1348" y="7.5" class="st0" width="6.4" height="6.4"/>
	<rect x="1348" y="0.2" class="st0" width="6.4" height="6.4"/>
	<rect x="1025.4" y="6.8" class="st0" width="6.4" height="6.4"/>
	<rect x="1340.8" y="7.5" class="st0" width="6.4" height="6.4"/>
	<rect x="1341.2" y="0.7" class="st0" width="5.4" height="5.4"/>
	<rect x="1018.6" y="7.3" class="st0" width="5.4" height="5.4"/>
	<rect x="1018.2" y="-0.4" class="st0" width="6.4" height="6.4"/>
	<rect x="1334" y="7.9" class="st0" width="5.4" height="5.4"/>
	<rect x="1011.4" y="7.3" class="st0" width="5.4" height="5.4"/>
	<rect x="1326.7" y="7.9" class="st0" width="5.4" height="5.4"/>
	<rect x="1326.2" y="0.2" class="st0" width="6.4" height="6.4"/>
	<rect x="1004.1" y="7.3" class="st0" width="5.4" height="5.4"/>
	<rect x="1003.6" y="-0.4" class="st0" width="6.4" height="6.4"/>
	<rect x="1319.4" y="7.9" class="st0" width="5.4" height="5.4"/>
	<rect x="996.8" y="7.3" class="st0" width="5.4" height="5.4"/>
	<rect x="1311.7" y="7.5" class="st0" width="6.4" height="6.4"/>
	<rect x="1311.7" y="0.2" class="st0" width="6.4" height="6.4"/>
	<path class="st0" d="M1361.2,20.1v-4.9h-5.4v4.9h-1.8v-4.9h-5.4v4.9h-9.1v-4.9h-5.4v4.9h-1.8v-4.9h-5.4v4.9h-9.1v-4.9h-5.4v4.9
		h-10.4v-3.9h-4.5v3.9h-2.3v-3.9h-4.5v3.9h-3.4v-3.3h-3.6v3.3h-2.7v-4.3h-5.4v4.3h-1.8v-4.3h-5.4v4.3h-1.8v-4.3h-5.4v4.3h-2.3v-3.8
		h-4.5v3.8h-3.2v-3.3h-3.6v3.3h-12.6v-3.3h-4.5v3.3h-3v-3.9h-4.5v3.9h-2.5v-3.8h-4.5v3.8h-2.3v-4.2h-5.4v4.2h-1.8v-4.2h-5.4v4.2
		h-1.8v-4.2h-5.4v4.2h-4.3v-3.3h-3.6v3.3h-1.4v-4.5h-5.4v4.5h-1.8v-4.5h-5.4v4.5h-1.4v-5h-6.4v5h-1.4v-5.5h-5.4v5.5h-1.8v-5.5h-5.4
		v5.5h-1.8v-5.5h-5.4v5.5h-1.8v-5.5h-5.4v5.5h-1.8v-5.5h-5.4v5.5h-1.4v-6h-6.4v6h-0.9v-6h-6.4v6h-0.9v-6h-6.4v6h-1.4v-5.5h-5.4v5.5
		h-1.4v-6h-6.4v6h-1.4v-5.5h-5.4v5.5h-1.4v-6h-6.4v6H1039v-6h-6.4v6h-0.9v-6h-6.4v6h-0.9v-6h-6.4v6h-1.4v-5.5h-5.4v5.5h-1.4v-6h-6.4
		v6h-1.4v-5.5h-5.4v5.5H995v-5.5h-5.4v5.5h-2.3v-5.5h-5.4v5.5H848.9v-5.7h-5.4v5.7h-1.8v-5.7h-5.4v5.7h-1.8v-5.7h-5.4v5.7h-1.8v-5.7
		h-5.4v5.7h-9.1v-5.7h-5.4v5.7h-1.8v-5.7h-5.4v5.7h-9.1v-5.7h-5.4v5.7h-1.8v-5.7h-5.4v5.7H769v-5.7h-5.4v5.7h-10.4v-4.8h-4.5v4.8
		H731V15h-5.4v5.1h-1.8V15h-5.4v5.1h-1.8V15h-5.4v5.1h-26.2V16h-4.5v4.1h-16.1V15h-5.4v5.1H657V15h-5.4v5.1h-1.8V15h-5.4v5.1h-9.3
		v-5.4h-5.4v5.4h-1.8v-5.4h-5.4v5.4h-1.4v-5.9h-6.4v5.9h-1.4v-5.4h-5.4v5.4h-1.8v-5.4h-5.4v5.4h-1.8v-5.4h-5.4v5.4h-1.8v-5.4h-5.4
		v5.4h-1.8v-5.4h-5.4v5.4h-1.4v-5.9h-6.4v5.9H570v-5.9h-6.4v5.9h-0.9v-5.9h-6.4v5.9h-1.4v-5.4h-5.4v5.4h-1.4v-5.9h-6.4v5.9h-1.4
		v-5.4h-5.4v5.4h-1.4v-5.9h-6.4v5.9h-16v-5.4h-5.4v5.4h-1.8v-5.4h-5.4v5.4h-2.3v-5.4h-5.4v5.4h-1.8v-5.4h-5.4v5.4h-1.4v-5.8H476v5.8
		h-1.4v-5.4h-5.4v5.4h-1.8v-5.4h-5.4v5.4h-1.8v-5.4h-5.4v5.4h-1.8v-5.4h-5.4v5.4h-1.8v-5.4h-5.4v5.4h-1.4v-5.8h-6.4v5.8h-0.9v-5.8
		h-6.4v5.8h-0.9v-5.8h-6.4v5.8h-1.6v-5.7h-5.4v5.7H409v-5.7h-5.4v5.7h-1.4v-6.2h-6.4v6.2h-1.4v-5.7H389v5.7h-1.4v-6.2h-6.4v6.2h-1.4
		v-5.7h-5.4v5.7h-1.4v-6.2h-6.4v6.2h-1.4v-5.7h-5.4v5.7h-1.8v-5.7h-5.4v5.7h-1.8v-5.7h-5.4v5.7h-1.8v-5.7h-5.4v5.7h-1.8v-5.7h-5.4
		v5.7h-9.1v-5.7h-5.4v5.7h-1.8v-5.7h-5.4v5.7H300v-5.7h-5.4v5.7h-1.8v-5.7h-5.4v5.7h-9.1v-5.7h-5.4v5.7h-99.1v5.3h-5.4v-5.3h-1.8
		v5.3H161v-5.3h-1.8v5.3h-5.4v-5.3h-9.3v5.7H139v-5.7h-1.8v5.7h-5.4v-5.7h-1.4v6.1H124v-6.1h-1.4v5.7h-5.4v-5.7h-9.1v5.7h-5.4v-5.7
		h-1.8v5.7h-5.4v-5.7h-1.8v5.7h-5.4v-5.7h-1.4v6.1h-6.4v-6.1h-0.9v6.1h-6.4v-6.1h-0.9v6.1h-6.4v-6.1h-1.4v5.8h-5.4v-5.8h-1.4v6.2
		h-6.4v-6.2H50v5.8h-5.4v-5.8h-1.4v6.2h-6.4v-6.2H0v32h1366v-32H1361.2z M22.8,20.4h5.4v5.4h-5.4V20.4z M8.3,20.4h5.4v5.4H8.3V20.4z
		 M6.5,33.1H1v-5.4h5.4V33.1z M6.5,25.9H1v-5.4h5.4V25.9z M13.7,40.4H8.3V35h5.4V40.4z M14.2,33.6H7.8v-6.4h6.4V33.6z M21,33.1h-5.4
		v-5.4H21V33.1z M21,25.9h-5.4v-5.4H21V25.9z M28.7,40.9h-6.4v-6.4h6.4V40.9z M28.7,33.6h-6.4v-6.4h6.4V33.6z M35.5,40.4h-5.4V35
		h5.4V40.4z M35.5,25.9h-5.4v-5.4h5.4V25.9z M42.8,33.1h-5.4v-5.4h5.4V33.1z M50,40.4h-5.4V35H50V40.4z M50,33.1h-5.4v-5.4H50V33.1z
		 M57.3,40.4h-5.4V35h5.4V40.4z M57.8,33.6h-6.4v-6.4h6.4V33.6z M66.4,27.6h5.4V33h-5.4V27.6z M65,33.5h-6.4v-6.4H65V33.5z
		 M72.3,40.7h-6.4v-6.4h6.4V40.7z M79.1,40.3h-5.4v-5.4h5.4V40.3z M86.4,33h-5.4v-5.4h5.4V33z M94.1,33.5h-6.4v-6.4h6.4V33.5z
		 M100.9,33h-5.4v-5.4h5.4V33z M129.9,33h-5.4v-5.4h5.4V33z M131.7,27.6h5.4V33h-5.4V27.6z M137.6,40.7h-6.4v-6.4h6.4V40.7z
		 M144.5,40.3H139v-5.4h5.4V40.3z M144.5,33H139v-5.4h5.4V33z M149.5,24.5h-3.6v-3.6h3.6V24.5z M159.2,32.7h-5.4v-5.4h5.4V32.7z
		 M161,27.3h5.4v5.4H161V27.3z M166.9,40.4h-6.4v-6.4h6.4V40.4z M173.7,40h-5.4v-5.4h5.4V40z M173.7,32.7h-5.4v-5.4h5.4V32.7z
		 M1319.4,20.1h5.4v6.1h-5.4V20.1z M952.8,20.4h5.4v5.9h-5.4V20.4z M931,20.4h5.4v5.9H931V20.4z M879.8,20.6h5.4v6.1h-5.4V20.6z
		 M243.9,21.3h3.6v3.6h-3.6V21.3z M214.4,20.8h4.5v4.5h-4.5V20.8z M214.4,28.1h4.5v4.5h-4.5V28.1z M190.5,20.3h4.5v4.5h-4.5V20.3z
		 M180.5,32.6H176V28h4.5V32.6z M180.5,25.3H176v-4.5h4.5V25.3z M187.5,40H183v-4.5h4.5V40z M187.5,32.7H183v-4.5h4.5V32.7z
		 M187.5,25.5H183v-4.5h4.5V25.5z M195.5,39.8H190v-5.4h5.4V39.8z M195.5,32.5H190v-5.4h5.4V32.5z M203.1,38.5h-1.8v-1.8h1.8V38.5z
		 M203.5,31.7h-2.7V29h2.7V31.7z M203.5,24.4h-2.7v-2.7h2.7V24.4z M211.3,39.4h-3.6v-3.6h3.6V39.4z M211.3,32.2h-3.6v-3.6h3.6V32.2z
		 M211.3,24.9h-3.6v-3.6h3.6V24.9z M219.4,40.3H214v-5.4h5.4V40.3z M226.7,40.3h-5.4v-5.4h5.4V40.3z M226.7,33.1h-5.4v-5.4h5.4V33.1
		z M226.7,25.8h-5.4v-5.4h5.4V25.8z M233.9,33.1h-5.4v-5.4h5.4V33.1z M241.2,40.3h-5.4v-5.4h5.4V40.3z M241.2,33.1h-5.4v-5.4h5.4
		V33.1z M241.2,25.8h-5.4v-5.4h5.4V25.8z M248.5,40.3H243v-5.4h5.4V40.3z M248.5,33.1H243v-5.4h5.4V33.1z M255.5,40h-4.5v-4.5h4.5
		V40z M255.5,32.7h-4.5v-4.5h4.5V32.7z M255.5,25.5h-4.5v-4.5h4.5V25.5z M262.4,32.7h-4.5v-4.5h4.5V32.7z M262.4,25.5h-4.5v-5.1h4.5
		V25.5z M856.2,33.9h-5.4v-5.4h5.4V33.9z M856.2,26.7h-5.4v-6.1h5.4V26.7z M863.4,41.2H858v-5.4h5.4V41.2z M863.9,27.1h-6.4v-6.5
		h6.4V27.1z M870.7,26.7h-5.4v-6.1h5.4V26.7z M878,41.2h-5.4v-5.4h5.4V41.2z M878.4,34.4h-6.4V28h6.4V34.4z M878.4,27.1h-6.4v-6.5
		h6.4V27.1z M885.7,41.6h-6.4v-6.4h6.4V41.6z M885.7,34.4h-6.4V28h6.4V34.4z M892.9,27.1h-6.4v-6.5h6.4V27.1z M899.8,41.2h-5.4v-5.4
		h5.4V41.2z M899.8,33.9h-5.4v-5.4h5.4V33.9z M899.8,26.7h-5.4v-6.1h5.4V26.7z M907,33.9h-5.4v-5.4h5.4V33.9z M907,26.7h-5.4v-6.1
		h5.4V26.7z M914.7,33.6h-5.4v-5.4h5.4V33.6z M915.1,26.8h-6.4v-6.4h6.4V26.8z M921.9,40.8h-5.4v-5.4h5.4V40.8z M922.4,34H916v-6.4
		h6.4V34z M922.4,26.8H916v-6.4h6.4V26.8z M929.2,33.6h-5.4v-5.4h5.4V33.6z M929.7,26.8h-6.4v-6.4h6.4V26.8z M936.9,41.3h-6.4v-6.4
		h6.4V41.3z M936.9,34h-6.4v-6.4h6.4V34z M943.7,40.8h-5.4v-5.4h5.4V40.8z M943.7,33.6h-5.4v-5.4h5.4V33.6z M943.7,26.3h-5.4v-5.9
		h5.4V26.3z M951,33.6h-5.4v-5.4h5.4V33.6z M951,26.3h-5.4v-5.9h5.4V26.3z M958.7,41.3h-6.4v-6.4h6.4V41.3z M958.7,34h-6.4v-6.4h6.4
		V34z M965.5,26.3h-5.4v-5.9h5.4V26.3z M972.8,33.6h-5.4v-5.4h5.4V33.6z M973.2,26.8h-6.4v-6.4h6.4V26.8z M980,26.3h-5.4v-5.9h5.4
		V26.3z M1325.3,41.2h-6.4v-6.4h6.4V41.2z M1325.3,33.9h-6.4v-6.4h6.4V33.9z M1346.7,33.5h-5.4V28h5.4V33.5z M1346.7,26.2h-5.4v-6.1
		h5.4V26.2z"/>
	<rect x="733.8" y="15.9" class="st0" width="3.6" height="3.6"/>
	<rect x="732.9" y="7.8" class="st0" width="5.4" height="5.4"/>
	<rect x="732.9" y="0.5" class="st0" width="5.4" height="5.4"/>
	<rect x="725.6" y="7.8" class="st0" width="5.4" height="5.4"/>
	<rect x="725.6" y="0.5" class="st0" width="5.4" height="5.4"/>
	<rect x="718.3" y="7.8" class="st0" width="5.4" height="5.4"/>
	<rect x="711.1" y="7.8" class="st0" width="5.4" height="5.4"/>
	<rect x="711.1" y="0.5" class="st0" width="5.4" height="5.4"/>
	<rect x="756.8" y="16.2" class="st0" width="2.7" height="2.7"/>
	<rect x="756.8" y="9" class="st0" width="2.7" height="2.7"/>
	<rect x="757.2" y="2.2" class="st0" width="1.8" height="1.8"/>
	<rect x="704.3" y="15.5" class="st0" width="4.5" height="4.5"/>
	<rect x="704.3" y="8.2" class="st0" width="4.5" height="4.5"/>
	<rect x="703.8" y="0.5" class="st0" width="5.4" height="5.4"/>
	<rect x="748.6" y="8.1" class="st0" width="4.5" height="4.5"/>
	<rect x="748.6" y="0.8" class="st0" width="4.5" height="4.5"/>
	<rect x="697.5" y="15.9" class="st0" width="3.6" height="3.6"/>
	<rect x="697.5" y="8.7" class="st0" width="3.6" height="3.6"/>
	<rect x="690.6" y="16.4" class="st0" width="2.7" height="2.7"/>
	<rect x="690.6" y="9.1" class="st0" width="2.7" height="2.7"/>
	<rect x="679.9" y="1" class="st0" width="5.4" height="5.4"/>
	<rect x="679.9" y="8.3" class="st0" width="5.4" height="5.4"/>
	<rect x="740.8" y="15.3" class="st0" width="4.5" height="4.5"/>
	<rect x="740.8" y="8.1" class="st0" width="4.5" height="4.5"/>
	<rect x="672.8" y="15.3" class="st0" width="4.5" height="4.5"/>
	<rect x="672.8" y="8.1" class="st0" width="4.5" height="4.5"/>
	<rect x="672.8" y="0.8" class="st0" width="4.5" height="4.5"/>
	<rect x="666.5" y="15.4" class="st0" width="4.5" height="4.5"/>
	<rect x="666.5" y="8.2" class="st0" width="4.5" height="4.5"/>
	<rect x="658.8" y="7.7" class="st0" width="5.4" height="5.4"/>
	<rect x="658.8" y="0.5" class="st0" width="5.4" height="5.4"/>
	<rect x="651.5" y="7.7" class="st0" width="5.4" height="5.4"/>
	<rect x="651.1" class="st0" width="6.4" height="6.4"/>
	<rect x="644.3" y="7.7" class="st0" width="5.4" height="5.4"/>
	<rect x="643.8" class="st0" width="6.4" height="6.4"/>
	<rect x="636.3" y="15.9" class="st0" width="3.6" height="3.6"/>
	<rect x="629.5" y="7.4" class="st0" width="5.4" height="5.4"/>
	<rect x="629.5" y="0.1" class="st0" width="5.4" height="5.4"/>
	<rect x="622.2" y="7.4" class="st0" width="5.4" height="5.4"/>
	<rect x="615" y="7.4" class="st0" width="5.4" height="5.4"/>
	<rect x="585.9" y="7.4" class="st0" width="5.4" height="5.4"/>
	<rect x="578.2" y="6.9" class="st0" width="6.4" height="6.4"/>
	<rect x="571.4" y="7.4" class="st0" width="5.4" height="5.4"/>
	<rect x="564.1" y="0.1" class="st0" width="5.4" height="5.4"/>
	<rect x="556.9" y="7.4" class="st0" width="5.4" height="5.4"/>
	<rect x="549.2" y="6.9" class="st0" width="6.4" height="6.4"/>
	<rect x="541.9" y="6.9" class="st0" width="6.4" height="6.4"/>
	<rect x="542.4" y="0.1" class="st0" width="5.4" height="5.4"/>
	<rect x="535.1" y="7.4" class="st0" width="5.4" height="5.4"/>
	<rect x="535.1" y="0.1" class="st0" width="5.4" height="5.4"/>
	<rect x="527.8" y="7.4" class="st0" width="5.4" height="5.4"/>
	<rect x="520.6" y="14.7" class="st0" width="5.4" height="5.4"/>
	<rect x="520.6" y="7.4" class="st0" width="5.4" height="5.4"/>
	<rect x="520.6" y="0.1" class="st0" width="5.4" height="5.4"/>
	<rect x="836.2" y="7.1" class="st0" width="5.4" height="5.4"/>
	<rect x="513.3" y="14.7" class="st0" width="5.4" height="5.4"/>
	<rect x="512.9" y="6.9" class="st0" width="6.4" height="6.4"/>
	<rect x="828.9" y="7.1" class="st0" width="5.4" height="5.4"/>
	<rect x="821.7" y="7.1" class="st0" width="5.4" height="5.4"/>
	<rect x="814.4" y="7.1" class="st0" width="5.4" height="5.4"/>
	<rect x="807.2" y="7.1" class="st0" width="5.4" height="5.4"/>
	<rect x="785.4" y="7.1" class="st0" width="5.4" height="5.4"/>
	<rect x="778.1" y="7.1" class="st0" width="5.4" height="5.4"/>
	<rect x="770.8" y="7.1" class="st0" width="5.4" height="5.4"/>
	<rect x="763.1" y="6.7" class="st0" width="6.4" height="6.4"/>
	<rect x="266" y="16.2" class="st0" width="2.7" height="2.7"/>
	<rect x="266" y="9" class="st0" width="2.7" height="2.7"/>
	<rect x="266.4" y="2.2" class="st0" width="1.8" height="1.8"/>
	<rect x="410.8" y="7.1" class="st0" width="5.4" height="5.4"/>
	<rect x="395.8" y="6.6" class="st0" width="6.4" height="6.4"/>
	<rect x="388.5" y="6.6" class="st0" width="6.4" height="6.4"/>
	<rect x="381.3" y="6.6" class="st0" width="6.4" height="6.4"/>
	<rect x="359.9" y="7.1" class="st0" width="5.4" height="5.4"/>
	<rect x="352.2" y="6.6" class="st0" width="6.4" height="6.4"/>
	<rect x="345.4" y="7.1" class="st0" width="5.4" height="5.4"/>
	<rect x="338.2" y="7.1" class="st0" width="5.4" height="5.4"/>
	<rect x="330.9" y="7.1" class="st0" width="5.4" height="5.4"/>
	<rect x="323.6" y="7.1" class="st0" width="5.4" height="5.4"/>
	<rect x="316.4" y="7.1" class="st0" width="5.4" height="5.4"/>
	<rect x="308.7" y="6.6" class="st0" width="6.4" height="6.4"/>
	<rect x="301.4" y="6.6" class="st0" width="6.4" height="6.4"/>
	<rect x="294.6" y="7.1" class="st0" width="5.4" height="5.4"/>
	<rect x="287.3" y="7.1" class="st0" width="5.4" height="5.4"/>
	<rect x="280.1" y="7.1" class="st0" width="5.4" height="5.4"/>
	<rect x="272.3" y="6.6" class="st0" width="6.4" height="6.4"/>
	<rect x="505.9" y="7.5" class="st0" width="5.4" height="5.4"/>
	<rect x="505.9" y="0.2" class="st0" width="5.4" height="5.4"/>
	<rect x="476.4" y="7.5" class="st0" width="5.4" height="5.4"/>
	<rect x="476.4" y="0.2" class="st0" width="5.4" height="5.4"/>
	<rect x="468.7" y="7" class="st0" width="6.4" height="6.4"/>
	<rect x="461.4" y="7" class="st0" width="6.4" height="6.4"/>
	<rect x="454.6" y="7.5" class="st0" width="5.4" height="5.4"/>
	<rect x="454.6" y="0.2" class="st0" width="5.4" height="5.4"/>
	<rect x="447.4" y="7.5" class="st0" width="5.4" height="5.4"/>
	<rect x="439.6" y="7" class="st0" width="6.4" height="6.4"/>
	<rect x="432.8" y="7.5" class="st0" width="5.4" height="5.4"/>
	<rect x="425.1" y="7" class="st0" width="6.4" height="6.4"/>
	<rect x="425.6" y="0.2" class="st0" width="5.4" height="5.4"/>
	<rect x="418.3" y="7.5" class="st0" width="5.4" height="5.4"/>
</g>
</svg>
