<?xml version="1.0" encoding="utf-8"?>
<!-- Generator: Adobe Illustrator 21.0.2, SVG Export Plug-In . SVG Version: 6.00 Build 0)  -->
<svg version="1.1" id="Isolation_Mode" xmlns="http://www.w3.org/2000/svg" xmlns:xlink="http://www.w3.org/1999/xlink" x="0px"
	 y="0px" viewBox="0 0 1366 35.3" style="enable-background:new 0 0 1366 35.3;" xml:space="preserve">
<style type="text/css">
	.st0{fill:#101633;}
	.st1{fill:#FFFFFF;}
</style>
<rect x="367.9" y="8.5" class="st0" width="1.8" height="1.8"/>
<rect x="389.6" y="0.9" class="st0" width="1.8" height="1.8"/>
<rect x="381.9" y="0.5" class="st0" width="2.7" height="2.7"/>
<rect x="375.1" y="0.9" class="st0" width="1.8" height="1.8"/>
<rect x="367.9" y="15.7" class="st0" width="1.8" height="1.8"/>
<rect x="389.6" y="8.2" class="st0" width="1.8" height="1.8"/>
<rect x="382.4" y="8.2" class="st0" width="1.8" height="1.8"/>
<rect x="375.1" y="8.2" class="st0" width="1.8" height="1.8"/>
<rect x="367.9" y="23" class="st0" width="1.8" height="1.8"/>
<rect x="389.6" y="15.5" class="st0" width="1.8" height="1.8"/>
<rect x="382.4" y="15.5" class="st0" width="1.8" height="1.8"/>
<rect x="375.1" y="15.5" class="st0" width="1.8" height="1.8"/>
<rect x="389.6" y="22.7" class="st0" width="1.8" height="1.8"/>
<rect x="382.4" y="22.7" class="st0" width="1.8" height="1.8"/>
<rect x="375.1" y="22.7" class="st0" width="1.8" height="1.8"/>
<rect x="477" y="14.9" class="st0" width="1.8" height="1.8"/>
<rect x="469.7" y="14.9" class="st0" width="1.8" height="1.8"/>
<rect x="462.5" y="14.9" class="st0" width="1.8" height="1.8"/>
<rect x="477" y="22.2" class="st0" width="1.8" height="1.8"/>
<rect x="469.7" y="22.2" class="st0" width="1.8" height="1.8"/>
<rect x="462.9" y="22.6" class="st0" width="0.9" height="0.9"/>
<rect x="397.9" y="1.6" class="st0" width="1.8" height="1.8"/>
<rect x="369.3" y="2.1" class="st0" width="0.9" height="0.9"/>
<rect x="398.4" y="9.3" class="st0" width="0.9" height="0.9"/>
<rect x="80.7" y="1" class="st0" width="3.6" height="3.6"/>
<rect x="79.8" y="7.4" class="st0" width="5.4" height="5.4"/>
<rect x="87.1" y="0.1" class="st0" width="5.4" height="5.4"/>
<rect x="87.1" y="7.4" class="st0" width="5.4" height="5.4"/>
<rect x="94.4" y="0.1" class="st0" width="5.4" height="5.4"/>
<rect x="94.4" y="7.4" class="st0" width="5.4" height="5.4"/>
<rect x="101.6" y="0.1" class="st0" width="5.4" height="5.4"/>
<rect x="101.6" y="7.4" class="st0" width="5.4" height="5.4"/>
<rect x="59.6" y="1.6" class="st0" width="2.7" height="2.7"/>
<rect x="59.6" y="8.9" class="st0" width="2.7" height="2.7"/>
<rect x="109.3" y="0.6" class="st0" width="4.5" height="4.5"/>
<rect x="109.3" y="7.8" class="st0" width="4.5" height="4.5"/>
<rect x="65.9" y="0.1" class="st0" width="4.5" height="5.1"/>
<rect x="65.9" y="8" class="st0" width="4.5" height="4.5"/>
<rect x="117" y="1" class="st0" width="3.6" height="3.6"/>
<rect x="117" y="8.3" class="st0" width="3.6" height="3.6"/>
<rect x="124.8" y="1.5" class="st0" width="2.7" height="2.7"/>
<rect x="124.8" y="8.7" class="st0" width="2.7" height="2.7"/>
<rect x="132.8" y="6.8" class="st0" width="5.4" height="5.4"/>
<rect x="133.3" y="0" class="st0" width="4.5" height="4.5"/>
<rect x="72.8" y="0.7" class="st0" width="4.5" height="4.5"/>
<rect x="72.8" y="8" class="st0" width="4.5" height="4.5"/>
<rect x="140.8" y="0.7" class="st0" width="4.5" height="4.5"/>
<rect x="140.8" y="8" class="st0" width="4.5" height="4.5"/>
<rect x="147.8" y="0.5" class="st0" width="4.5" height="4.5"/>
<rect x="147.8" y="7.8" class="st0" width="4.5" height="4.5"/>
<rect x="154.6" y="0.1" class="st0" width="5.4" height="5.4"/>
<rect x="154.6" y="7.3" class="st0" width="5.4" height="5.4"/>
<rect x="161.8" y="0.1" class="st0" width="5.4" height="5.4"/>
<rect x="161.8" y="7.3" class="st0" width="5.4" height="5.4"/>
<rect x="293.9" y="22.3" class="st0" width="5.4" height="5.4"/>
<rect x="169.1" y="0.1" class="st0" width="5.4" height="5.4"/>
<rect x="169.1" y="7.3" class="st0" width="5.4" height="5.4"/>
<rect x="301.1" y="22.3" class="st0" width="5.4" height="5.4"/>
<rect x="178.8" y="1" class="st0" width="3.6" height="3.6"/>
<path class="st0" d="M179.1,10.1"/>
<rect x="183.8" y="0.1" class="st0" width="5.4" height="5.8"/>
<rect x="183.8" y="7.7" class="st0" width="5.4" height="5.4"/>
<rect x="315.4" y="22.2" class="st0" width="6.4" height="6.4"/>
<rect x="191.1" y="0.1" class="st0" width="5.4" height="5.8"/>
<rect x="191.1" y="7.7" class="st0" width="5.4" height="5.4"/>
<rect x="197.9" y="-0.1" class="st0" width="6.4" height="6.4"/>
<rect x="198.4" y="7.7" class="st0" width="5.4" height="5.4"/>
<rect x="205.6" y="0.1" class="st0" width="5.4" height="5.8"/>
<rect x="212.9" y="0.1" class="st0" width="5.4" height="5.8"/>
<rect x="220.2" y="0.1" class="st0" width="5.4" height="5.8"/>
<rect x="227.4" y="0.1" class="st0" width="5.4" height="5.8"/>
<rect x="227.4" y="7.7" class="st0" width="5.4" height="5.4"/>
<rect x="234.7" y="0.1" class="st0" width="5.4" height="5.8"/>
<rect x="234.2" y="7.2" class="st0" width="6.4" height="6.4"/>
<rect x="241.5" y="-0.1" class="st0" width="6.4" height="6.4"/>
<rect x="241.9" y="7.7" class="st0" width="5.4" height="5.4"/>
<rect x="248.7" y="-0.1" class="st0" width="6.4" height="6.4"/>
<rect x="256" y="-0.1" class="st0" width="6.4" height="6.4"/>
<rect x="256.5" y="7.7" class="st0" width="5.4" height="5.4"/>
<rect x="263.7" y="0.1" class="st0" width="5.4" height="5.8"/>
<rect x="263.3" y="7.2" class="st0" width="6.4" height="6.4"/>
<rect x="270.5" y="-0.1" class="st0" width="6.4" height="6.4"/>
<rect x="270.5" y="7.2" class="st0" width="6.4" height="6.4"/>
<rect x="278.2" y="0.1" class="st0" width="5.4" height="5.8"/>
<rect x="278.2" y="7.7" class="st0" width="5.4" height="5.4"/>
<rect x="285.1" y="-0.1" class="st0" width="6.4" height="6.4"/>
<rect x="285.5" y="7.7" class="st0" width="5.4" height="5.4"/>
<rect x="292.8" y="0.4" class="st0" width="5.4" height="5.4"/>
<rect x="292.8" y="7.7" class="st0" width="5.4" height="5.4"/>
<rect x="292.8" y="14.9" class="st0" width="5.4" height="5.4"/>
<rect x="300" y="0.4" class="st0" width="5.4" height="5.4"/>
<rect x="299.6" y="14.5" class="st0" width="6.4" height="6.4"/>
<rect x="307.3" y="0.4" class="st0" width="5.4" height="5.4"/>
<rect x="307.3" y="7.7" class="st0" width="5.4" height="5.4"/>
<rect x="314.6" y="0.4" class="st0" width="5.4" height="5.4"/>
<rect x="314.1" y="7.2" class="st0" width="6.4" height="6.4"/>
<rect x="314.6" y="14.9" class="st0" width="5.4" height="5.4"/>
<rect x="-0.8" y="8" class="st0" width="5.4" height="5.4"/>
<rect x="321.8" y="0.4" class="st0" width="5.4" height="5.4"/>
<rect x="6.5" y="0.1" class="st0" width="5.4" height="6.1"/>
<rect x="6.5" y="8" class="st0" width="5.4" height="5.4"/>
<rect x="13.7" y="0.1" class="st0" width="5.4" height="6.1"/>
<rect x="13.3" y="7.6" class="st0" width="6.4" height="6.4"/>
<rect x="20.6" y="7.6" class="st0" width="6.4" height="6.4"/>
<rect x="28.3" y="0.1" class="st0" width="5.4" height="6.1"/>
<rect x="28.3" y="8" class="st0" width="5.4" height="5.4"/>
<rect x="35.5" y="0.1" class="st0" width="5.4" height="6.1"/>
<rect x="35.5" y="8" class="st0" width="5.4" height="5.4"/>
<rect x="42.8" y="8" class="st0" width="5.4" height="5.4"/>
<rect x="50.1" y="0.1" class="st0" width="5.4" height="6.1"/>
<rect x="49.6" y="7.6" class="st0" width="6.4" height="6.4"/>
<rect x="372.7" y="-0.1" class="st0" width="5.4" height="5.9"/>
<rect x="380.4" y="-0.1" class="st0" width="5.4" height="5.9"/>
<rect x="387.6" y="-0.1" class="st0" width="5.4" height="5.9"/>
<rect x="394.4" y="-0.1" class="st0" width="6.4" height="6.4"/>
<rect x="394.9" y="7.7" class="st0" width="5.4" height="5.4"/>
<rect x="394.9" y="14.9" class="st0" width="5.4" height="5.4"/>
<rect x="394.4" y="21.7" class="st0" width="6.4" height="6.4"/>
<rect x="402.2" y="-0.1" class="st0" width="5.4" height="5.9"/>
<rect x="401.7" y="7.2" class="st0" width="6.4" height="6.4"/>
<rect x="409.4" y="-0.1" class="st0" width="5.4" height="5.9"/>
<rect x="409" y="7.2" class="st0" width="6.4" height="6.4"/>
<rect x="409" y="14.5" class="st0" width="6.4" height="6.4"/>
<rect x="416.7" y="-0.1" class="st0" width="5.4" height="5.9"/>
<rect x="416.7" y="7.7" class="st0" width="5.4" height="5.4"/>
<rect x="416.7" y="14.9" class="st0" width="5.4" height="5.4"/>
<rect x="423.9" y="-0.1" class="st0" width="5.4" height="5.9"/>
<rect x="423.9" y="7.7" class="st0" width="5.4" height="5.4"/>
<rect x="423.9" y="14.9" class="st0" width="5.4" height="5.4"/>
<rect x="431.2" y="-0.1" class="st0" width="5.4" height="5.9"/>
<rect x="430.8" y="7.2" class="st0" width="6.4" height="6.4"/>
<rect x="430.8" y="14.5" class="st0" width="6.4" height="6.4"/>
<rect x="438" y="-0.1" class="st0" width="6.4" height="6.4"/>
<rect x="438.5" y="7.7" class="st0" width="5.4" height="5.4"/>
<rect x="438" y="14.5" class="st0" width="6.4" height="6.4"/>
<rect x="445.3" y="-0.1" class="st0" width="6.4" height="6.4"/>
<rect x="445.3" y="7.2" class="st0" width="6.4" height="6.4"/>
<rect x="445.7" y="14.9" class="st0" width="5.4" height="5.4"/>
<rect x="452.5" y="-0.1" class="st0" width="6.4" height="6.4"/>
<rect x="630.3" y="1" class="st0" width="3.6" height="3.6"/>
<rect x="629.4" y="7.4" class="st0" width="5.4" height="5.4"/>
<rect x="629.4" y="14.6" class="st0" width="5.4" height="5.4"/>
<rect x="636.6" y="0.1" class="st0" width="5.4" height="5.4"/>
<rect x="636.6" y="7.4" class="st0" width="5.4" height="5.4"/>
<rect x="643.9" y="0.1" class="st0" width="5.4" height="5.4"/>
<rect x="643.9" y="7.4" class="st0" width="5.4" height="5.4"/>
<rect x="643.9" y="14.6" class="st0" width="5.4" height="5.4"/>
<rect x="651.2" y="0.1" class="st0" width="5.4" height="5.4"/>
<rect x="651.2" y="7.4" class="st0" width="5.4" height="5.4"/>
<rect x="651.2" y="14.6" class="st0" width="5.4" height="5.4"/>
<rect x="608.2" y="1.6" class="st0" width="2.7" height="2.7"/>
<rect x="608.2" y="8.9" class="st0" width="2.7" height="2.7"/>
<rect x="608.6" y="16.6" class="st0" width="1.8" height="1.8"/>
<rect x="658.9" y="0.5" class="st0" width="4.5" height="4.5"/>
<rect x="658.9" y="7.8" class="st0" width="4.5" height="4.5"/>
<rect x="658.4" y="14.6" class="st0" width="5.4" height="5.4"/>
<rect x="614.5" y="0.1" class="st0" width="4.5" height="5.1"/>
<rect x="614.5" y="8" class="st0" width="4.5" height="4.5"/>
<rect x="614.5" y="15.2" class="st0" width="4.5" height="4.5"/>
<rect x="666.6" y="1" class="st0" width="3.6" height="3.6"/>
<rect x="666.6" y="8.3" class="st0" width="3.6" height="3.6"/>
<rect x="666.6" y="15.5" class="st0" width="3.6" height="3.6"/>
<rect x="674.3" y="1.5" class="st0" width="2.7" height="2.7"/>
<rect x="674.3" y="8.7" class="st0" width="2.7" height="2.7"/>
<rect x="674.8" y="16.4" class="st0" width="1.8" height="1.8"/>
<rect x="682.4" y="14.1" class="st0" width="5.4" height="5.4"/>
<rect x="682.4" y="6.8" class="st0" width="5.4" height="5.4"/>
<rect x="682.8" class="st0" width="4.5" height="4.5"/>
<rect x="622.4" y="0.7" class="st0" width="4.5" height="4.5"/>
<rect x="622.4" y="8" class="st0" width="4.5" height="4.5"/>
<rect x="622.4" y="15.2" class="st0" width="4.5" height="4.5"/>
<rect x="690.3" y="0.7" class="st0" width="4.5" height="4.5"/>
<rect x="690.3" y="8" class="st0" width="4.5" height="4.5"/>
<rect x="690.3" y="15.2" class="st0" width="4.5" height="4.5"/>
<rect x="696.6" y="0.6" class="st0" width="4.5" height="4.5"/>
<rect x="696.6" y="7.9" class="st0" width="4.5" height="4.5"/>
<rect x="727.7" y="1" class="st0" width="3.6" height="3.6"/>
<path class="st0" d="M728,10.1"/>
<path class="st0" d="M728,17.4"/>
<rect x="732.7" y="0.1" class="st0" width="5.4" height="5.8"/>
<rect x="732.7" y="15" class="st0" width="5.4" height="5.4"/>
<rect x="740" y="0.1" class="st0" width="5.4" height="5.8"/>
<rect x="740" y="7.7" class="st0" width="5.4" height="5.4"/>
<rect x="746.8" y="0" class="st0" width="6.4" height="6.4"/>
<rect x="747.2" y="7.7" class="st0" width="5.4" height="5.4"/>
<rect x="460.7" y="0.1" class="st0" width="5.4" height="6.1"/>
<rect x="460.7" y="8" class="st0" width="5.4" height="5.4"/>
<rect x="467.9" y="0.1" class="st0" width="5.4" height="6.1"/>
<rect x="467.9" y="8" class="st0" width="5.4" height="5.4"/>
<rect x="474.7" y="0.1" class="st0" width="6.4" height="6.5"/>
<rect x="482.4" y="0.1" class="st0" width="5.4" height="6.1"/>
<rect x="482" y="7.6" class="st0" width="6.4" height="6.4"/>
<rect x="489.2" y="0.1" class="st0" width="6.4" height="6.5"/>
<rect x="489.2" y="7.6" class="st0" width="6.4" height="6.4"/>
<rect x="497" y="0.1" class="st0" width="5.4" height="6.1"/>
<rect x="503.8" y="0.1" class="st0" width="6.4" height="6.5"/>
<rect x="511.5" y="0.1" class="st0" width="5.4" height="6.1"/>
<rect x="511.5" y="8" class="st0" width="5.4" height="5.4"/>
<rect x="518.8" y="0.1" class="st0" width="5.4" height="6.1"/>
<rect x="518.3" y="7.6" class="st0" width="6.4" height="6.4"/>
<rect x="526" y="0.1" class="st0" width="5.4" height="6.1"/>
<rect x="526" y="8" class="st0" width="5.4" height="5.4"/>
<rect x="533.3" y="0.1" class="st0" width="5.4" height="6.1"/>
<rect x="540.5" y="0.1" class="st0" width="5.4" height="6.1"/>
<rect x="540.5" y="8" class="st0" width="5.4" height="5.4"/>
<rect x="555.1" y="0.1" class="st0" width="5.4" height="6.1"/>
<rect x="555.1" y="8" class="st0" width="5.4" height="5.4"/>
<path class="st0" d="M772.5,26.1"/>
<rect x="1120.1" y="1" class="st0" width="3.6" height="3.6"/>
<rect x="1119.2" y="7.4" class="st0" width="5.4" height="5.4"/>
<rect x="1119.2" y="14.6" class="st0" width="5.4" height="5.4"/>
<rect x="1126.5" y="0.1" class="st0" width="5.4" height="5.4"/>
<rect x="1126.5" y="7.4" class="st0" width="5.4" height="5.4"/>
<rect x="1126.5" y="14.6" class="st0" width="5.4" height="5.4"/>
<rect x="1126.5" y="21.9" class="st0" width="5.4" height="5.4"/>
<rect x="1133.7" y="0.1" class="st0" width="5.4" height="5.4"/>
<rect x="1133.7" y="14.6" class="st0" width="5.4" height="5.4"/>
<rect x="1133.7" y="21.9" class="st0" width="5.4" height="5.4"/>
<rect x="1141" y="0.1" class="st0" width="5.4" height="5.4"/>
<rect x="1141" y="7.4" class="st0" width="5.4" height="5.4"/>
<rect x="1141" y="14.6" class="st0" width="5.4" height="5.4"/>
<rect x="1099" y="1.6" class="st0" width="2.7" height="2.7"/>
<rect x="1099" y="8.9" class="st0" width="2.7" height="2.7"/>
<rect x="1099.4" y="16.6" class="st0" width="1.8" height="1.8"/>
<rect x="1099.4" y="23.9" class="st0" width="1.8" height="1.8"/>
<rect x="1148.7" y="0.6" class="st0" width="4.5" height="4.5"/>
<rect x="1148.7" y="7.8" class="st0" width="4.5" height="4.5"/>
<rect x="1148.2" y="14.6" class="st0" width="5.4" height="5.4"/>
<rect x="1148.2" y="21.9" class="st0" width="5.4" height="5.4"/>
<rect x="1105.3" y="0.1" class="st0" width="4.5" height="5.1"/>
<rect x="1105.3" y="8" class="st0" width="4.5" height="4.5"/>
<rect x="1105.3" y="15.2" class="st0" width="4.5" height="4.5"/>
<rect x="1104.9" y="22" class="st0" width="5.4" height="5.4"/>
<rect x="1156.4" y="1" class="st0" width="3.6" height="3.6"/>
<rect x="1156.4" y="8.3" class="st0" width="3.6" height="3.6"/>
<rect x="1156.4" y="15.5" class="st0" width="3.6" height="3.6"/>
<rect x="1156.4" y="22.8" class="st0" width="3.6" height="3.6"/>
<rect x="1164.1" y="1.5" class="st0" width="2.7" height="2.7"/>
<rect x="1164.1" y="8.7" class="st0" width="2.7" height="2.7"/>
<rect x="1164.6" y="16.5" class="st0" width="1.8" height="1.8"/>
<rect x="1164.1" y="23.3" class="st0" width="2.7" height="2.7"/>
<rect x="1172.6" y="21.8" class="st0" width="4.5" height="4.5"/>
<rect x="1172.2" y="14.1" class="st0" width="5.4" height="5.4"/>
<rect x="1172.2" y="6.8" class="st0" width="5.4" height="5.4"/>
<rect x="1172.6" y="0" class="st0" width="4.5" height="4.5"/>
<rect x="1112.2" y="0.7" class="st0" width="4.5" height="4.5"/>
<rect x="1112.2" y="8" class="st0" width="4.5" height="4.5"/>
<rect x="1112.2" y="15.2" class="st0" width="4.5" height="4.5"/>
<rect x="1180.1" y="0.7" class="st0" width="4.5" height="4.5"/>
<rect x="1180.1" y="8" class="st0" width="4.5" height="4.5"/>
<rect x="1180.1" y="15.2" class="st0" width="4.5" height="4.5"/>
<rect x="1179.7" y="22" class="st0" width="5.4" height="5.4"/>
<rect x="1187.1" y="0.5" class="st0" width="4.5" height="4.5"/>
<rect x="1187.1" y="7.8" class="st0" width="4.5" height="4.5"/>
<rect x="1193.9" y="0.1" class="st0" width="5.4" height="5.4"/>
<rect x="1193.9" y="7.3" class="st0" width="5.4" height="5.4"/>
<rect x="1193.9" y="14.6" class="st0" width="5.4" height="5.4"/>
<rect x="1193.9" y="21.9" class="st0" width="5.4" height="5.4"/>
<rect x="1201.2" y="0.1" class="st0" width="5.4" height="5.4"/>
<rect x="1201.2" y="7.3" class="st0" width="5.4" height="5.4"/>
<rect x="1200.7" y="14.1" class="st0" width="6.4" height="6.4"/>
<rect x="1333.2" y="22.3" class="st0" width="5.4" height="5.4"/>
<rect x="1208.5" y="0.1" class="st0" width="5.4" height="5.4"/>
<rect x="1208.5" y="7.3" class="st0" width="5.4" height="5.4"/>
<rect x="1340.5" y="22.3" class="st0" width="5.4" height="5.4"/>
<rect x="1218.2" y="1" class="st0" width="3.6" height="3.6"/>
<path class="st0" d="M1218.4,10.1"/>
<path class="st0" d="M1218.4,17.3"/>
<path class="st0" d="M1218.4,24.6"/>
<path class="st0" d="M1218.4,31.8"/>
<rect x="1347.5" y="22.2" class="st0" width="6.4" height="6.4"/>
<rect x="1223.2" y="0.1" class="st0" width="5.4" height="5.8"/>
<rect x="1223.2" y="7.7" class="st0" width="5.4" height="5.4"/>
<rect x="1223.2" y="14.9" class="st0" width="5.4" height="5.4"/>
<rect x="1354.8" y="22.2" class="st0" width="6.4" height="6.4"/>
<rect x="1230.5" y="0.1" class="st0" width="5.4" height="5.8"/>
<rect x="1230.5" y="7.7" class="st0" width="5.4" height="5.4"/>
<rect x="1230" y="14.5" class="st0" width="6.4" height="6.4"/>
<rect x="1230" y="21.7" class="st0" width="6.4" height="6.4"/>
<rect x="1362.1" y="22.2" class="st0" width="6.4" height="6.4"/>
<rect x="1237.3" y="-0.1" class="st0" width="6.4" height="6.4"/>
<rect x="1237.7" y="7.7" class="st0" width="5.4" height="5.4"/>
<rect x="1237.3" y="21.7" class="st0" width="6.4" height="6.4"/>
<rect x="1245" y="0.1" class="st0" width="5.4" height="5.8"/>
<rect x="1252.3" y="0.1" class="st0" width="5.4" height="5.8"/>
<rect x="1259.5" y="0.1" class="st0" width="5.4" height="5.8"/>
<rect x="951.4" y="0.1" class="st0" width="5.4" height="6.1"/>
<rect x="951.4" y="8" class="st0" width="5.4" height="5.4"/>
<rect x="958.7" y="0.1" class="st0" width="5.4" height="6.1"/>
<rect x="958.7" y="8" class="st0" width="5.4" height="5.4"/>
<rect x="965.5" y="0.1" class="st0" width="6.4" height="6.5"/>
<rect x="966" y="22.5" class="st0" width="5.4" height="5.4"/>
<rect x="973.2" y="0.1" class="st0" width="5.4" height="6.1"/>
<rect x="972.8" y="7.6" class="st0" width="6.4" height="6.4"/>
<rect x="972.8" y="14.8" class="st0" width="6.4" height="6.4"/>
<rect x="973.2" y="29.8" class="st0" width="5.4" height="5.4"/>
<rect x="980" y="0.1" class="st0" width="6.4" height="6.5"/>
<rect x="980" y="7.6" class="st0" width="6.4" height="6.4"/>
<rect x="980.5" y="15.3" class="st0" width="5.4" height="5.4"/>
<rect x="980.5" y="22.5" class="st0" width="5.4" height="5.4"/>
<rect x="987.8" y="0.1" class="st0" width="5.4" height="6.1"/>
<rect x="987.8" y="15.3" class="st0" width="5.4" height="5.4"/>
<rect x="987.8" y="22.5" class="st0" width="5.4" height="5.4"/>
<rect x="994.6" y="0.1" class="st0" width="6.4" height="6.5"/>
<rect x="995" y="15.3" class="st0" width="5.4" height="5.4"/>
<rect x="995" y="22.5" class="st0" width="5.4" height="5.4"/>
<rect x="1002.3" y="0.1" class="st0" width="5.4" height="6.1"/>
<rect x="1002.3" y="8" class="st0" width="5.4" height="5.4"/>
<rect x="1009.5" y="0.1" class="st0" width="5.4" height="6.1"/>
<rect x="1009.1" y="7.6" class="st0" width="6.4" height="6.4"/>
<rect x="1009.5" y="15.3" class="st0" width="5.4" height="5.4"/>
<rect x="1009.5" y="22.5" class="st0" width="5.4" height="5.4"/>
<rect x="1332.1" y="0.4" class="st0" width="5.4" height="5.4"/>
<rect x="1332.1" y="7.7" class="st0" width="5.4" height="5.4"/>
<rect x="1332.1" y="14.9" class="st0" width="5.4" height="5.4"/>
<rect x="1016.8" y="0.1" class="st0" width="5.4" height="6.1"/>
<rect x="1016.8" y="8" class="st0" width="5.4" height="5.4"/>
<rect x="1016.8" y="15.3" class="st0" width="5.4" height="5.4"/>
<rect x="1339.4" y="0.4" class="st0" width="5.4" height="5.4"/>
<rect x="1339" y="7.2" class="st0" width="6.4" height="6.4"/>
<rect x="1339" y="14.5" class="st0" width="6.4" height="6.4"/>
<rect x="1024.1" y="0.1" class="st0" width="5.4" height="6.1"/>
<rect x="1024.1" y="8" class="st0" width="5.4" height="5.4"/>
<rect x="1346.7" y="0.4" class="st0" width="5.4" height="5.4"/>
<rect x="1346.7" y="7.7" class="st0" width="5.4" height="5.4"/>
<rect x="1031.3" y="0.1" class="st0" width="5.4" height="6.1"/>
<rect x="1031.3" y="8" class="st0" width="5.4" height="5.4"/>
<rect x="1353.9" y="0.4" class="st0" width="5.4" height="5.4"/>
<rect x="1353.5" y="7.2" class="st0" width="6.4" height="6.4"/>
<rect x="1353.9" y="14.9" class="st0" width="5.4" height="5.4"/>
<rect x="1038.6" y="8" class="st0" width="5.4" height="5.4"/>
<rect x="1038.6" y="15.3" class="st0" width="5.4" height="5.4"/>
<rect x="1361.2" y="0.4" class="st0" width="5.4" height="5.4"/>
<rect x="1361.2" y="7.7" class="st0" width="5.4" height="5.4"/>
<rect x="1361.2" y="14.9" class="st0" width="5.4" height="5.4"/>
<rect x="1045.9" y="0.1" class="st0" width="5.4" height="6.1"/>
<rect x="1045.9" y="8" class="st0" width="5.4" height="5.4"/>
<rect x="1045.9" y="15.3" class="st0" width="5.4" height="5.4"/>
<rect x="1045.9" y="22.5" class="st0" width="5.4" height="5.4"/>
<rect x="1053.1" y="0.1" class="st0" width="5.4" height="6.1"/>
<rect x="1052.7" y="7.6" class="st0" width="6.4" height="6.4"/>
<rect x="1052.7" y="14.8" class="st0" width="6.4" height="6.4"/>
<rect x="1059.9" y="7.6" class="st0" width="6.4" height="6.4"/>
<rect x="1060.4" y="15.3" class="st0" width="5.4" height="5.4"/>
<rect x="1067.6" y="0.1" class="st0" width="5.4" height="6.1"/>
<rect x="1067.2" y="14.8" class="st0" width="6.4" height="6.4"/>
<rect x="1074.9" y="0.1" class="st0" width="5.4" height="6.1"/>
<rect x="1074.9" y="8" class="st0" width="5.4" height="5.4"/>
<rect x="1074.4" y="14.8" class="st0" width="6.4" height="6.4"/>
<rect x="1074.9" y="22.5" class="st0" width="5.4" height="5.4"/>
<rect x="1082.2" y="8" class="st0" width="5.4" height="5.4"/>
<rect x="1089.4" y="0.1" class="st0" width="5.4" height="6.1"/>
<rect x="1089" y="7.6" class="st0" width="6.4" height="6.4"/>
<rect x="1089" y="14.8" class="st0" width="6.4" height="6.4"/>
<rect x="1089.4" y="22.5" class="st0" width="5.4" height="5.4"/>
<path class="st0" d="M1255.7,26"/>
<path class="st0" d="M1263,26"/>
<rect x="878.5" y="-5.8" class="st1" width="5.4" height="5.9"/>
<rect x="885.4" y="-0.1" class="st0" width="6.4" height="6.4"/>
<rect x="885.8" y="7.7" class="st0" width="5.4" height="5.4"/>
<rect x="893.1" y="-0.1" class="st0" width="5.4" height="5.9"/>
<rect x="892.6" y="7.2" class="st0" width="6.4" height="6.4"/>
<rect x="900.3" y="-0.1" class="st0" width="5.4" height="5.9"/>
<rect x="899.9" y="7.2" class="st0" width="6.4" height="6.4"/>
<rect x="899.9" y="14.5" class="st0" width="6.4" height="6.4"/>
<rect x="907.6" y="-0.1" class="st0" width="5.4" height="5.9"/>
<rect x="907.6" y="7.7" class="st0" width="5.4" height="5.4"/>
<rect x="907.6" y="14.9" class="st0" width="5.4" height="5.4"/>
<rect x="907.6" y="22.2" class="st0" width="5.4" height="5.4"/>
<rect x="914.9" y="-0.1" class="st0" width="5.4" height="5.9"/>
<rect x="914.9" y="7.7" class="st0" width="5.4" height="5.4"/>
<rect x="914.9" y="14.9" class="st0" width="5.4" height="5.4"/>
<rect x="914.9" y="22.2" class="st0" width="5.4" height="5.4"/>
<rect x="922.1" y="-0.1" class="st0" width="5.4" height="5.9"/>
<rect x="921.7" y="7.2" class="st0" width="6.4" height="6.4"/>
<rect x="922.1" y="22.2" class="st0" width="5.4" height="5.4"/>
<rect x="928.9" y="-0.1" class="st0" width="6.4" height="6.4"/>
<rect x="929.4" y="7.7" class="st0" width="5.4" height="5.4"/>
<rect x="936.2" y="-0.1" class="st0" width="6.4" height="6.4"/>
<rect x="943.5" y="-0.1" class="st0" width="6.4" height="6.4"/>
<rect x="943.9" y="7.7" class="st0" width="5.4" height="5.4"/>
</svg>
