<?xml version="1.0" encoding="utf-8"?>
<!-- Generator: Adobe Illustrator 21.0.2, SVG Export Plug-In . SVG Version: 6.00 Build 0)  -->
<svg version="1.1" id="Isolation_Mode" xmlns="http://www.w3.org/2000/svg" xmlns:xlink="http://www.w3.org/1999/xlink" x="0px"
	 y="0px" viewBox="0 0 1366 68.9" style="enable-background:new 0 0 1366 68.9;" xml:space="preserve">
<style type="text/css">
	.st0{fill:#101633;}
	.st1{fill:#FFFFFF;}
</style>
<g>
	<g>
		<rect x="390" y="27.3" class="st0" width="1.8" height="1.8"/>
		<rect x="382.3" y="26.8" class="st0" width="2.7" height="2.7"/>
		<rect x="375" y="26.8" class="st0" width="2.7" height="2.7"/>
		<rect x="368.2" y="42.1" class="st0" width="1.8" height="1.8"/>
		<rect x="390" y="34.6" class="st0" width="1.8" height="1.8"/>
		<rect x="382.3" y="34.1" class="st0" width="2.7" height="2.7"/>
		<rect x="375.5" y="34.6" class="st0" width="1.8" height="1.8"/>
		<rect x="368.2" y="49.4" class="st0" width="1.8" height="1.8"/>
		<rect x="390" y="41.8" class="st0" width="1.8" height="1.8"/>
		<rect x="382.7" y="41.8" class="st0" width="1.8" height="1.8"/>
		<rect x="375.5" y="41.8" class="st0" width="1.8" height="1.8"/>
		<rect x="368.2" y="56.6" class="st0" width="1.8" height="1.8"/>
		<rect x="390" y="49.1" class="st0" width="1.8" height="1.8"/>
		<rect x="382.7" y="49.1" class="st0" width="1.8" height="1.8"/>
		<rect x="375.5" y="49.1" class="st0" width="1.8" height="1.8"/>
		<rect x="390" y="56.3" class="st0" width="1.8" height="1.8"/>
		<rect x="382.7" y="56.3" class="st0" width="1.8" height="1.8"/>
		<rect x="375.5" y="56.3" class="st0" width="1.8" height="1.8"/>
		<rect x="477.4" y="48.5" class="st0" width="1.8" height="1.8"/>
		<rect x="470.1" y="48.5" class="st0" width="1.8" height="1.8"/>
		<rect x="462.8" y="48.5" class="st0" width="1.8" height="1.8"/>
		<rect x="477.4" y="55.8" class="st0" width="1.8" height="1.8"/>
		<rect x="470.1" y="55.8" class="st0" width="1.8" height="1.8"/>
		<rect x="463.3" y="56.2" class="st0" width="0.9" height="0.9"/>
		<rect x="398.3" y="28" class="st0" width="1.8" height="1.8"/>
		<rect x="369.7" y="28.4" class="st0" width="0.9" height="0.9"/>
		<rect x="362.4" y="28.4" class="st0" width="0.9" height="0.9"/>
		<rect x="398.3" y="35.2" class="st0" width="1.8" height="1.8"/>
		<rect x="369.7" y="35.7" class="st0" width="0.9" height="0.9"/>
		<rect x="362.4" y="30.8" class="st1" width="0.9" height="0.9"/>
		<rect x="398.7" y="43" class="st0" width="0.9" height="0.9"/>
		<rect x="81.1" y="34.6" class="st0" width="3.6" height="3.6"/>
		<rect x="80.2" y="41" class="st0" width="5.4" height="5.4"/>
		<rect x="87.4" y="33.7" class="st0" width="5.4" height="5.4"/>
		<rect x="87.4" y="41" class="st0" width="5.4" height="5.4"/>
		<rect x="94.7" y="33.7" class="st0" width="5.4" height="5.4"/>
		<rect x="94.7" y="41" class="st0" width="5.4" height="5.4"/>
		<rect x="102" y="33.7" class="st0" width="5.4" height="5.4"/>
		<rect x="102" y="41" class="st0" width="5.4" height="5.4"/>
		<rect x="59.9" y="35.2" class="st0" width="2.7" height="2.7"/>
		<rect x="59.9" y="42.5" class="st0" width="2.7" height="2.7"/>
		<rect x="109.7" y="34.2" class="st0" width="4.5" height="4.5"/>
		<rect x="109.7" y="41.4" class="st0" width="4.5" height="4.5"/>
		<rect x="66.3" y="33.7" class="st0" width="4.5" height="5.1"/>
		<rect x="66.3" y="41.6" class="st0" width="4.5" height="4.5"/>
		<rect x="117.4" y="34.6" class="st0" width="3.6" height="3.6"/>
		<rect x="117.4" y="41.9" class="st0" width="3.6" height="3.6"/>
		<rect x="125.1" y="35.1" class="st0" width="2.7" height="2.7"/>
		<rect x="125.1" y="42.4" class="st0" width="2.7" height="2.7"/>
		<rect x="133.2" y="40.4" class="st0" width="5.4" height="5.4"/>
		<rect x="133.6" y="33.6" class="st0" width="4.5" height="4.5"/>
		<rect x="73.2" y="34.3" class="st0" width="4.5" height="4.5"/>
		<rect x="73.2" y="41.6" class="st0" width="4.5" height="4.5"/>
		<rect x="141.1" y="34.3" class="st0" width="4.5" height="4.5"/>
		<rect x="141.1" y="41.6" class="st0" width="4.5" height="4.5"/>
		<rect x="148.1" y="34.1" class="st0" width="4.5" height="4.5"/>
		<rect x="148.1" y="41.4" class="st0" width="4.5" height="4.5"/>
		<rect x="154.9" y="33.7" class="st0" width="5.4" height="5.4"/>
		<rect x="154.9" y="41" class="st0" width="5.4" height="5.4"/>
		<rect x="162.2" y="33.7" class="st0" width="5.4" height="5.4"/>
		<rect x="162.2" y="41" class="st0" width="5.4" height="5.4"/>
		<rect x="294.2" y="55.9" class="st0" width="5.4" height="5.4"/>
		<rect x="169.4" y="33.7" class="st0" width="5.4" height="5.4"/>
		<rect x="169.4" y="41" class="st0" width="5.4" height="5.4"/>
		<rect x="301.5" y="55.9" class="st0" width="5.4" height="5.4"/>
		<rect x="179.2" y="34.6" class="st0" width="3.6" height="3.6"/>
		<path class="st0" d="M179.4,43.7"/>
		<rect x="184.2" y="33.7" class="st0" width="5.4" height="5.8"/>
		<rect x="184.2" y="41.3" class="st0" width="5.4" height="5.4"/>
		<rect x="315.8" y="55.8" class="st0" width="6.4" height="6.4"/>
		<rect x="191.5" y="33.7" class="st0" width="5.4" height="5.8"/>
		<rect x="191.5" y="41.3" class="st0" width="5.4" height="5.4"/>
		<rect x="198.3" y="33.6" class="st0" width="6.4" height="6.4"/>
		<rect x="198.7" y="41.3" class="st0" width="5.4" height="5.4"/>
		<rect x="206" y="33.7" class="st0" width="5.4" height="5.8"/>
		<rect x="213.2" y="33.7" class="st0" width="5.4" height="5.8"/>
		<rect x="220.5" y="33.7" class="st0" width="5.4" height="5.8"/>
		<rect x="227.8" y="33.7" class="st0" width="5.4" height="5.8"/>
		<rect x="227.8" y="41.3" class="st0" width="5.4" height="5.4"/>
		<rect x="235" y="33.7" class="st0" width="5.4" height="5.8"/>
		<rect x="234.6" y="40.8" class="st0" width="6.4" height="6.4"/>
		<rect x="241.8" y="33.6" class="st0" width="6.4" height="6.4"/>
		<rect x="242.3" y="41.3" class="st0" width="5.4" height="5.4"/>
		<rect x="249.1" y="33.6" class="st0" width="6.4" height="6.4"/>
		<rect x="256.4" y="33.6" class="st0" width="6.4" height="6.4"/>
		<rect x="256.8" y="41.3" class="st0" width="5.4" height="5.4"/>
		<rect x="264.1" y="33.7" class="st0" width="5.4" height="5.8"/>
		<rect x="263.6" y="40.8" class="st0" width="6.4" height="6.4"/>
		<rect x="270.9" y="33.6" class="st0" width="6.4" height="6.4"/>
		<rect x="270.9" y="40.8" class="st0" width="6.4" height="6.4"/>
		<rect x="278.6" y="33.7" class="st0" width="5.4" height="5.8"/>
		<rect x="278.6" y="41.3" class="st0" width="5.4" height="5.4"/>
		<rect x="285.4" y="33.6" class="st0" width="6.4" height="6.4"/>
		<rect x="285.9" y="41.3" class="st0" width="5.4" height="5.4"/>
		<rect x="293.1" y="34" class="st0" width="5.4" height="5.4"/>
		<rect x="293.1" y="41.3" class="st0" width="5.4" height="5.4"/>
		<rect x="293.1" y="48.5" class="st0" width="5.4" height="5.4"/>
		<rect x="300.4" y="34" class="st0" width="5.4" height="5.4"/>
		<rect x="299.9" y="48.1" class="st0" width="6.4" height="6.4"/>
		<rect x="307.7" y="34" class="st0" width="5.4" height="5.4"/>
		<rect x="307.7" y="41.3" class="st0" width="5.4" height="5.4"/>
		<rect x="314.9" y="34" class="st0" width="5.4" height="5.4"/>
		<rect x="314.5" y="40.8" class="st0" width="6.4" height="6.4"/>
		<rect x="314.9" y="48.5" class="st0" width="5.4" height="5.4"/>
		<rect x="-0.4" y="41.6" class="st0" width="5.4" height="5.4"/>
		<rect x="322.2" y="34" class="st0" width="5.4" height="5.4"/>
		<rect x="6.8" y="33.8" class="st0" width="5.4" height="6.1"/>
		<rect x="6.8" y="41.6" class="st0" width="5.4" height="5.4"/>
		<rect x="329" y="27.5" class="st1" width="6.4" height="6.4"/>
		<rect x="14.1" y="33.8" class="st0" width="5.4" height="6.1"/>
		<rect x="13.6" y="41.2" class="st0" width="6.4" height="6.4"/>
		<rect x="336.3" y="27.5" class="st1" width="6.4" height="6.4"/>
		<rect x="20.9" y="41.2" class="st0" width="6.4" height="6.4"/>
		<rect x="343.5" y="27.5" class="st1" width="6.4" height="6.4"/>
		<rect x="28.6" y="33.8" class="st0" width="5.4" height="6.1"/>
		<rect x="28.6" y="41.6" class="st0" width="5.4" height="5.4"/>
		<rect x="351.2" y="28" class="st1" width="5.4" height="5.9"/>
		<rect x="35.9" y="33.8" class="st0" width="5.4" height="6.1"/>
		<rect x="35.9" y="41.6" class="st0" width="5.4" height="5.4"/>
		<rect x="358" y="27.5" class="st1" width="6.4" height="6.4"/>
		<rect x="43.2" y="41.6" class="st0" width="5.4" height="5.4"/>
		<rect x="365.8" y="28" class="st1" width="5.4" height="5.9"/>
		<rect x="50.4" y="33.8" class="st0" width="5.4" height="6.1"/>
		<rect x="50" y="41.2" class="st0" width="6.4" height="6.4"/>
		<rect x="373" y="33.6" class="st0" width="5.4" height="5.9"/>
		<rect x="380.7" y="33.6" class="st0" width="5.4" height="5.9"/>
		<rect x="388" y="33.6" class="st0" width="5.4" height="5.9"/>
		<rect x="394.8" y="33.6" class="st0" width="6.4" height="6.4"/>
		<rect x="395.3" y="41.3" class="st0" width="5.4" height="5.4"/>
		<rect x="395.3" y="48.5" class="st0" width="5.4" height="5.4"/>
		<rect x="394.8" y="55.4" class="st0" width="6.4" height="6.4"/>
		<rect x="402.5" y="33.6" class="st0" width="5.4" height="5.9"/>
		<rect x="402.1" y="40.8" class="st0" width="6.4" height="6.4"/>
		<rect x="409.8" y="33.6" class="st0" width="5.4" height="5.9"/>
		<rect x="409.3" y="40.8" class="st0" width="6.4" height="6.4"/>
		<rect x="409.3" y="48.1" class="st0" width="6.4" height="6.4"/>
		<rect x="417" y="33.6" class="st0" width="5.4" height="5.9"/>
		<rect x="417" y="41.3" class="st0" width="5.4" height="5.4"/>
		<rect x="417" y="48.5" class="st0" width="5.4" height="5.4"/>
		<rect x="424.3" y="33.6" class="st0" width="5.4" height="5.9"/>
		<rect x="424.3" y="41.3" class="st0" width="5.4" height="5.4"/>
		<rect x="424.3" y="48.5" class="st0" width="5.4" height="5.4"/>
		<rect x="431.6" y="33.6" class="st0" width="5.4" height="5.9"/>
		<rect x="431.1" y="40.8" class="st0" width="6.4" height="6.4"/>
		<rect x="431.1" y="48.1" class="st0" width="6.4" height="6.4"/>
		<rect x="438.4" y="33.6" class="st0" width="6.4" height="6.4"/>
		<rect x="438.8" y="41.3" class="st0" width="5.4" height="5.4"/>
		<rect x="438.4" y="48.1" class="st0" width="6.4" height="6.4"/>
		<rect x="445.6" y="33.6" class="st0" width="6.4" height="6.4"/>
		<rect x="445.6" y="40.8" class="st0" width="6.4" height="6.4"/>
		<rect x="446.1" y="48.5" class="st0" width="5.4" height="5.4"/>
		<rect x="452.9" y="33.6" class="st0" width="6.4" height="6.4"/>
		<rect x="630.6" y="34.6" class="st0" width="3.6" height="3.6"/>
		<rect x="629.7" y="41" class="st0" width="5.4" height="5.4"/>
		<rect x="629.7" y="48.2" class="st0" width="5.4" height="5.4"/>
		<rect x="637" y="33.7" class="st0" width="5.4" height="5.4"/>
		<rect x="637" y="41" class="st0" width="5.4" height="5.4"/>
		<rect x="644.3" y="33.7" class="st0" width="5.4" height="5.4"/>
		<rect x="644.3" y="41" class="st0" width="5.4" height="5.4"/>
		<rect x="644.3" y="48.2" class="st0" width="5.4" height="5.4"/>
		<rect x="651.5" y="33.7" class="st0" width="5.4" height="5.4"/>
		<rect x="651.5" y="41" class="st0" width="5.4" height="5.4"/>
		<rect x="651.5" y="48.2" class="st0" width="5.4" height="5.4"/>
		<rect x="608.5" y="35.2" class="st0" width="2.7" height="2.7"/>
		<rect x="608.5" y="42.5" class="st0" width="2.7" height="2.7"/>
		<rect x="609" y="50.2" class="st0" width="1.8" height="1.8"/>
		<rect x="659.2" y="34.2" class="st0" width="4.5" height="4.5"/>
		<rect x="659.2" y="41.4" class="st0" width="4.5" height="4.5"/>
		<rect x="658.8" y="48.2" class="st0" width="5.4" height="5.4"/>
		<rect x="614.9" y="33.7" class="st0" width="4.5" height="5.1"/>
		<rect x="614.9" y="41.6" class="st0" width="4.5" height="4.5"/>
		<rect x="614.9" y="48.8" class="st0" width="4.5" height="4.5"/>
		<rect x="666.9" y="34.6" class="st0" width="3.6" height="3.6"/>
		<rect x="666.9" y="41.9" class="st0" width="3.6" height="3.6"/>
		<rect x="666.9" y="49.1" class="st0" width="3.6" height="3.6"/>
		<rect x="674.7" y="35.1" class="st0" width="2.7" height="2.7"/>
		<rect x="674.7" y="42.3" class="st0" width="2.7" height="2.7"/>
		<rect x="675.1" y="50.1" class="st0" width="1.8" height="1.8"/>
		<rect x="682.7" y="47.7" class="st0" width="5.4" height="5.4"/>
		<rect x="682.7" y="40.4" class="st0" width="5.4" height="5.4"/>
		<rect x="683.2" y="33.6" class="st0" width="4.5" height="4.5"/>
		<rect x="622.7" y="34.3" class="st0" width="4.5" height="4.5"/>
		<rect x="622.7" y="41.6" class="st0" width="4.5" height="4.5"/>
		<rect x="622.7" y="48.8" class="st0" width="4.5" height="4.5"/>
		<rect x="690.7" y="34.3" class="st0" width="4.5" height="4.5"/>
		<rect x="690.7" y="41.6" class="st0" width="4.5" height="4.5"/>
		<rect x="690.7" y="48.8" class="st0" width="4.5" height="4.5"/>
		<rect x="697" y="34.2" class="st0" width="4.5" height="4.5"/>
		<rect x="697" y="41.5" class="st0" width="4.5" height="4.5"/>
		<rect x="718.3" y="28.6" class="st1" width="5.4" height="5.4"/>
		<rect x="718.3" y="21.3" class="st1" width="5.4" height="5.4"/>
		<rect x="711.1" y="28.6" class="st1" width="5.4" height="5.4"/>
		<rect x="711.1" y="21.3" class="st1" width="5.4" height="5.4"/>
		<rect x="703.8" y="28.6" class="st1" width="5.4" height="5.4"/>
		<rect x="703.8" y="21.3" class="st1" width="5.4" height="5.4"/>
		<rect x="728.1" y="34.7" class="st0" width="3.6" height="3.6"/>
		<path class="st0" d="M728.3,43.7"/>
		<path class="st0" d="M728.3,51"/>
		<rect x="733.1" y="33.8" class="st0" width="5.4" height="5.8"/>
		<rect x="727.6" y="28.3" class="st1" width="5.4" height="5.4"/>
		<rect x="733.1" y="48.6" class="st0" width="5.4" height="5.4"/>
		<rect x="740.3" y="33.8" class="st0" width="5.4" height="5.8"/>
		<rect x="740.3" y="41.3" class="st0" width="5.4" height="5.4"/>
		<rect x="747.2" y="33.6" class="st0" width="6.4" height="6.4"/>
		<rect x="747.6" y="41.3" class="st0" width="5.4" height="5.4"/>
		<rect x="754.9" y="28" class="st1" width="5.4" height="5.8"/>
		<rect x="762.1" y="28" class="st1" width="5.4" height="5.8"/>
		<rect x="769.4" y="28" class="st1" width="5.4" height="5.8"/>
		<rect x="776.7" y="27.8" class="st1" width="5.4" height="5.8"/>
		<rect x="461" y="33.7" class="st0" width="5.4" height="6.1"/>
		<rect x="461" y="41.6" class="st0" width="5.4" height="5.4"/>
		<rect x="783.9" y="27.8" class="st1" width="5.4" height="5.8"/>
		<rect x="468.3" y="33.7" class="st0" width="5.4" height="6.1"/>
		<rect x="468.3" y="41.6" class="st0" width="5.4" height="5.4"/>
		<rect x="790.7" y="27.3" class="st1" width="6.4" height="6.4"/>
		<rect x="475.1" y="33.7" class="st0" width="6.4" height="6.5"/>
		<rect x="798" y="27.3" class="st1" width="6.4" height="6.4"/>
		<rect x="482.8" y="33.7" class="st0" width="5.4" height="6.1"/>
		<rect x="482.3" y="41.2" class="st0" width="6.4" height="6.4"/>
		<rect x="805.3" y="27.3" class="st1" width="6.4" height="6.4"/>
		<rect x="489.6" y="33.7" class="st0" width="6.4" height="6.5"/>
		<rect x="489.6" y="41.2" class="st0" width="6.4" height="6.4"/>
		<rect x="813" y="27.8" class="st1" width="5.4" height="5.8"/>
		<rect x="497.3" y="33.7" class="st0" width="5.4" height="6.1"/>
		<rect x="819.8" y="27.3" class="st1" width="6.4" height="6.4"/>
		<rect x="504.1" y="33.7" class="st0" width="6.4" height="6.5"/>
		<rect x="827.5" y="27.8" class="st1" width="5.4" height="5.8"/>
		<rect x="511.8" y="33.7" class="st0" width="5.4" height="6.1"/>
		<rect x="511.8" y="41.6" class="st0" width="5.4" height="5.4"/>
		<rect x="834.3" y="27.3" class="st1" width="6.4" height="6.4"/>
		<rect x="519.1" y="33.7" class="st0" width="5.4" height="6.1"/>
		<rect x="518.7" y="41.2" class="st0" width="6.4" height="6.4"/>
		<rect x="842" y="27.8" class="st1" width="5.4" height="5.4"/>
		<rect x="526.4" y="33.7" class="st0" width="5.4" height="6.1"/>
		<rect x="526.4" y="41.6" class="st0" width="5.4" height="5.4"/>
		<rect x="849.3" y="27.8" class="st1" width="5.4" height="5.4"/>
		<rect x="533.6" y="33.7" class="st0" width="5.4" height="6.1"/>
		<rect x="540.9" y="33.7" class="st0" width="5.4" height="6.1"/>
		<rect x="540.9" y="41.6" class="st0" width="5.4" height="5.4"/>
		<rect x="555.4" y="33.7" class="st0" width="5.4" height="6.1"/>
		<rect x="555.4" y="41.6" class="st0" width="5.4" height="5.4"/>
		<rect x="562.7" y="27.7" class="st1" width="5.4" height="6.1"/>
		<rect x="577.2" y="27.7" class="st1" width="5.4" height="6.1"/>
		<rect x="584.5" y="27.7" class="st1" width="5.4" height="6.1"/>
		<rect x="599" y="27.7" class="st1" width="5.4" height="6.1"/>
		<path class="st0" d="M772.8,59.7"/>
		<rect x="1120.5" y="34.6" class="st0" width="3.6" height="3.6"/>
		<rect x="1119.6" y="41" class="st0" width="5.4" height="5.4"/>
		<rect x="1119.6" y="48.3" class="st0" width="5.4" height="5.4"/>
		<rect x="1126.8" y="33.7" class="st0" width="5.4" height="5.4"/>
		<rect x="1126.8" y="41" class="st0" width="5.4" height="5.4"/>
		<rect x="1126.8" y="48.3" class="st0" width="5.4" height="5.4"/>
		<rect x="1126.8" y="55.5" class="st0" width="5.4" height="5.4"/>
		<rect x="1134.1" y="33.7" class="st0" width="5.4" height="5.4"/>
		<rect x="1134.1" y="48.3" class="st0" width="5.4" height="5.4"/>
		<rect x="1134.1" y="55.5" class="st0" width="5.4" height="5.4"/>
		<rect x="1141.3" y="33.7" class="st0" width="5.4" height="5.4"/>
		<rect x="1141.3" y="41" class="st0" width="5.4" height="5.4"/>
		<rect x="1141.3" y="48.3" class="st0" width="5.4" height="5.4"/>
		<rect x="1099.3" y="35.2" class="st0" width="2.7" height="2.7"/>
		<rect x="1099.3" y="42.5" class="st0" width="2.7" height="2.7"/>
		<rect x="1099.8" y="50.2" class="st0" width="1.8" height="1.8"/>
		<rect x="1099.8" y="57.5" class="st0" width="1.8" height="1.8"/>
		<rect x="1149.1" y="34.2" class="st0" width="4.5" height="4.5"/>
		<rect x="1149.1" y="41.4" class="st0" width="4.5" height="4.5"/>
		<rect x="1148.6" y="48.3" class="st0" width="5.4" height="5.4"/>
		<rect x="1148.6" y="55.5" class="st0" width="5.4" height="5.4"/>
		<rect x="1105.7" y="33.7" class="st0" width="4.5" height="5.1"/>
		<rect x="1105.7" y="41.6" class="st0" width="4.5" height="4.5"/>
		<rect x="1105.7" y="48.9" class="st0" width="4.5" height="4.5"/>
		<rect x="1105.2" y="55.7" class="st0" width="5.4" height="5.4"/>
		<rect x="1156.8" y="34.6" class="st0" width="3.6" height="3.6"/>
		<rect x="1156.8" y="41.9" class="st0" width="3.6" height="3.6"/>
		<rect x="1156.8" y="49.2" class="st0" width="3.6" height="3.6"/>
		<rect x="1156.8" y="56.4" class="st0" width="3.6" height="3.6"/>
		<rect x="1164.5" y="35.1" class="st0" width="2.7" height="2.7"/>
		<rect x="1164.5" y="42.4" class="st0" width="2.7" height="2.7"/>
		<rect x="1164.9" y="50.1" class="st0" width="1.8" height="1.8"/>
		<rect x="1164.5" y="56.9" class="st0" width="2.7" height="2.7"/>
		<rect x="1173" y="55.4" class="st0" width="4.5" height="4.5"/>
		<rect x="1172.5" y="47.7" class="st0" width="5.4" height="5.4"/>
		<rect x="1172.5" y="40.4" class="st0" width="5.4" height="5.4"/>
		<rect x="1173" y="33.6" class="st0" width="4.5" height="4.5"/>
		<rect x="1112.6" y="34.3" class="st0" width="4.5" height="4.5"/>
		<rect x="1112.6" y="41.6" class="st0" width="4.5" height="4.5"/>
		<rect x="1112.6" y="48.9" class="st0" width="4.5" height="4.5"/>
		<rect x="1180.5" y="34.3" class="st0" width="4.5" height="4.5"/>
		<rect x="1180.5" y="41.6" class="st0" width="4.5" height="4.5"/>
		<rect x="1180.5" y="48.9" class="st0" width="4.5" height="4.5"/>
		<rect x="1180" y="55.7" class="st0" width="5.4" height="5.4"/>
		<rect x="1187.5" y="34.1" class="st0" width="4.5" height="4.5"/>
		<rect x="1187.5" y="41.4" class="st0" width="4.5" height="4.5"/>
		<rect x="1194.3" y="33.7" class="st0" width="5.4" height="5.4"/>
		<rect x="1194.3" y="41" class="st0" width="5.4" height="5.4"/>
		<rect x="1194.3" y="48.2" class="st0" width="5.4" height="5.4"/>
		<rect x="1194.3" y="55.5" class="st0" width="5.4" height="5.4"/>
		<rect x="1201.6" y="33.7" class="st0" width="5.4" height="5.4"/>
		<rect x="1201.6" y="41" class="st0" width="5.4" height="5.4"/>
		<rect x="1201.1" y="47.8" class="st0" width="6.4" height="6.4"/>
		<rect x="1333.6" y="55.9" class="st0" width="5.4" height="5.4"/>
		<rect x="1208.8" y="33.7" class="st0" width="5.4" height="5.4"/>
		<rect x="1208.8" y="41" class="st0" width="5.4" height="5.4"/>
		<rect x="1340.9" y="55.9" class="st0" width="5.4" height="5.4"/>
		<rect x="1218.6" y="34.6" class="st0" width="3.6" height="3.6"/>
		<path class="st0" d="M1218.8,43.7"/>
		<path class="st0" d="M1218.8,50.9"/>
		<path class="st0" d="M1218.8,58.2"/>
		<path class="st0" d="M1218.8,65.5"/>
		<rect x="1347.9" y="55.8" class="st0" width="6.4" height="6.4"/>
		<rect x="1223.6" y="33.7" class="st0" width="5.4" height="5.8"/>
		<rect x="1223.6" y="41.3" class="st0" width="5.4" height="5.4"/>
		<rect x="1223.6" y="48.5" class="st0" width="5.4" height="5.4"/>
		<rect x="1355.2" y="55.8" class="st0" width="6.4" height="6.4"/>
		<rect x="1230.8" y="33.7" class="st0" width="5.4" height="5.8"/>
		<rect x="1230.8" y="41.3" class="st0" width="5.4" height="5.4"/>
		<rect x="1230.4" y="48.1" class="st0" width="6.4" height="6.4"/>
		<rect x="1230.4" y="55.4" class="st0" width="6.4" height="6.4"/>
		<rect x="1362.4" y="55.8" class="st0" width="6.4" height="6.4"/>
		<rect x="1237.6" y="33.6" class="st0" width="6.4" height="6.4"/>
		<rect x="1238.1" y="41.3" class="st0" width="5.4" height="5.4"/>
		<rect x="1237.6" y="55.4" class="st0" width="6.4" height="6.4"/>
		<rect x="1245.4" y="33.7" class="st0" width="5.4" height="5.8"/>
		<rect x="1252.6" y="33.7" class="st0" width="5.4" height="5.8"/>
		<rect x="1259.9" y="33.7" class="st0" width="5.4" height="5.8"/>
		<rect x="951.8" y="33.8" class="st0" width="5.4" height="6.1"/>
		<rect x="951.8" y="41.6" class="st0" width="5.4" height="5.4"/>
		<rect x="959.1" y="33.8" class="st0" width="5.4" height="6.1"/>
		<rect x="959.1" y="41.6" class="st0" width="5.4" height="5.4"/>
		<rect x="965.9" y="33.8" class="st0" width="6.4" height="6.5"/>
		<rect x="966.3" y="56.2" class="st0" width="5.4" height="5.4"/>
		<rect x="973.6" y="33.8" class="st0" width="5.4" height="6.1"/>
		<rect x="973.1" y="41.2" class="st0" width="6.4" height="6.4"/>
		<rect x="973.1" y="48.5" class="st0" width="6.4" height="6.4"/>
		<rect x="973.6" y="63.4" class="st0" width="5.4" height="5.4"/>
		<rect x="980.4" y="33.8" class="st0" width="6.4" height="6.5"/>
		<rect x="980.4" y="41.2" class="st0" width="6.4" height="6.4"/>
		<rect x="980.9" y="48.9" class="st0" width="5.4" height="5.4"/>
		<rect x="980.9" y="56.2" class="st0" width="5.4" height="5.4"/>
		<rect x="988.1" y="33.8" class="st0" width="5.4" height="6.1"/>
		<rect x="988.1" y="48.9" class="st0" width="5.4" height="5.4"/>
		<rect x="988.1" y="56.2" class="st0" width="5.4" height="5.4"/>
		<rect x="994.9" y="33.8" class="st0" width="6.4" height="6.5"/>
		<rect x="995.4" y="48.9" class="st0" width="5.4" height="5.4"/>
		<rect x="995.4" y="56.2" class="st0" width="5.4" height="5.4"/>
		<rect x="1002.6" y="33.8" class="st0" width="5.4" height="6.1"/>
		<rect x="1002.6" y="41.6" class="st0" width="5.4" height="5.4"/>
		<rect x="1009.9" y="33.8" class="st0" width="5.4" height="6.1"/>
		<rect x="1009.4" y="41.2" class="st0" width="6.4" height="6.4"/>
		<rect x="1009.9" y="48.9" class="st0" width="5.4" height="5.4"/>
		<rect x="1009.9" y="56.2" class="st0" width="5.4" height="5.4"/>
		<rect x="1332.5" y="34" class="st0" width="5.4" height="5.4"/>
		<rect x="1332.5" y="41.3" class="st0" width="5.4" height="5.4"/>
		<rect x="1332.5" y="48.5" class="st0" width="5.4" height="5.4"/>
		<rect x="1017.2" y="33.8" class="st0" width="5.4" height="6.1"/>
		<rect x="1017.2" y="41.6" class="st0" width="5.4" height="5.4"/>
		<rect x="1017.2" y="48.9" class="st0" width="5.4" height="5.4"/>
		<rect x="1339.8" y="34" class="st0" width="5.4" height="5.4"/>
		<rect x="1339.3" y="40.8" class="st0" width="6.4" height="6.4"/>
		<rect x="1339.3" y="48.1" class="st0" width="6.4" height="6.4"/>
		<rect x="1024.4" y="33.8" class="st0" width="5.4" height="6.1"/>
		<rect x="1024.4" y="41.6" class="st0" width="5.4" height="5.4"/>
		<rect x="1347" y="34" class="st0" width="5.4" height="5.4"/>
		<rect x="1347" y="41.3" class="st0" width="5.4" height="5.4"/>
		<rect x="1031.7" y="33.8" class="st0" width="5.4" height="6.1"/>
		<rect x="1031.7" y="41.6" class="st0" width="5.4" height="5.4"/>
		<rect x="1354.3" y="34" class="st0" width="5.4" height="5.4"/>
		<rect x="1353.8" y="40.8" class="st0" width="6.4" height="6.4"/>
		<rect x="1354.3" y="48.5" class="st0" width="5.4" height="5.4"/>
		<rect x="1038.9" y="41.6" class="st0" width="5.4" height="5.4"/>
		<rect x="1038.9" y="48.9" class="st0" width="5.4" height="5.4"/>
		<rect x="1361.6" y="34" class="st0" width="5.4" height="5.4"/>
		<rect x="1361.6" y="41.3" class="st0" width="5.4" height="5.4"/>
		<rect x="1361.6" y="48.5" class="st0" width="5.4" height="5.4"/>
		<rect x="1046.2" y="33.8" class="st0" width="5.4" height="6.1"/>
		<rect x="1046.2" y="41.6" class="st0" width="5.4" height="5.4"/>
		<rect x="1046.2" y="48.9" class="st0" width="5.4" height="5.4"/>
		<rect x="1046.2" y="56.2" class="st0" width="5.4" height="5.4"/>
		<rect x="1053.5" y="33.8" class="st0" width="5.4" height="6.1"/>
		<rect x="1053" y="41.2" class="st0" width="6.4" height="6.4"/>
		<rect x="1053" y="48.5" class="st0" width="6.4" height="6.4"/>
		<rect x="1060.3" y="41.2" class="st0" width="6.4" height="6.4"/>
		<rect x="1060.7" y="48.9" class="st0" width="5.4" height="5.4"/>
		<rect x="1068" y="33.8" class="st0" width="5.4" height="6.1"/>
		<rect x="1067.5" y="48.5" class="st0" width="6.4" height="6.4"/>
		<rect x="1075.3" y="33.8" class="st0" width="5.4" height="6.1"/>
		<rect x="1075.3" y="41.6" class="st0" width="5.4" height="5.4"/>
		<rect x="1074.8" y="48.5" class="st0" width="6.4" height="6.4"/>
		<rect x="1075.3" y="56.2" class="st0" width="5.4" height="5.4"/>
		<rect x="1082.5" y="41.6" class="st0" width="5.4" height="5.4"/>
		<rect x="1089.8" y="33.8" class="st0" width="5.4" height="6.1"/>
		<rect x="1089.3" y="41.2" class="st0" width="6.4" height="6.4"/>
		<rect x="1089.3" y="48.5" class="st0" width="6.4" height="6.4"/>
		<rect x="1089.8" y="56.2" class="st0" width="5.4" height="5.4"/>
		<path class="st0" d="M1256.1,59.6"/>
		<path class="st0" d="M1263.3,59.6"/>
		<rect x="856.7" y="27.9" class="st1" width="5.4" height="5.9"/>
		<rect x="863.9" y="27.9" class="st1" width="5.4" height="5.9"/>
		<rect x="871.6" y="27.9" class="st1" width="5.4" height="5.9"/>
		<rect x="878.9" y="27.9" class="st1" width="5.4" height="5.9"/>
		<rect x="885.7" y="33.6" class="st0" width="6.4" height="6.4"/>
		<rect x="886.2" y="41.3" class="st0" width="5.4" height="5.4"/>
		<rect x="893.4" y="33.6" class="st0" width="5.4" height="5.9"/>
		<rect x="893" y="40.8" class="st0" width="6.4" height="6.4"/>
		<rect x="900.7" y="33.6" class="st0" width="5.4" height="5.9"/>
		<rect x="900.2" y="40.8" class="st0" width="6.4" height="6.4"/>
		<rect x="900.2" y="48.1" class="st0" width="6.4" height="6.4"/>
		<rect x="908" y="33.6" class="st0" width="5.4" height="5.9"/>
		<rect x="908" y="41.3" class="st0" width="5.4" height="5.4"/>
		<rect x="908" y="48.5" class="st0" width="5.4" height="5.4"/>
		<rect x="908" y="55.8" class="st0" width="5.4" height="5.4"/>
		<rect x="915.2" y="33.6" class="st0" width="5.4" height="5.9"/>
		<rect x="915.2" y="41.3" class="st0" width="5.4" height="5.4"/>
		<rect x="915.2" y="48.5" class="st0" width="5.4" height="5.4"/>
		<rect x="915.2" y="55.8" class="st0" width="5.4" height="5.4"/>
		<rect x="922.5" y="33.6" class="st0" width="5.4" height="5.9"/>
		<rect x="922" y="40.8" class="st0" width="6.4" height="6.4"/>
		<rect x="922.5" y="55.8" class="st0" width="5.4" height="5.4"/>
		<rect x="929.3" y="33.6" class="st0" width="6.4" height="6.4"/>
		<rect x="929.7" y="41.3" class="st0" width="5.4" height="5.4"/>
		<rect x="936.6" y="33.6" class="st0" width="6.4" height="6.4"/>
		<rect x="943.8" y="33.6" class="st0" width="6.4" height="6.4"/>
		<rect x="944.3" y="41.3" class="st0" width="5.4" height="5.4"/>
		<rect x="1267.2" y="27.9" class="st1" width="5.4" height="5.4"/>
		<rect x="1274" y="27.4" class="st1" width="6.4" height="6.4"/>
		<rect x="1281.2" y="27.4" class="st1" width="6.4" height="6.4"/>
		<rect x="1289" y="27.9" class="st1" width="5.4" height="5.4"/>
		<rect x="1296.2" y="27.9" class="st1" width="5.4" height="5.4"/>
		<rect x="1303" y="27.4" class="st1" width="6.4" height="6.4"/>
		<rect x="1310.7" y="27.9" class="st1" width="5.4" height="5.4"/>
		<rect x="1317.6" y="27.4" class="st1" width="6.4" height="6.4"/>
		<rect x="1325.3" y="27.9" class="st1" width="5.4" height="5.4"/>
		<rect x="0.4" y="17.8" class="st0" width="1366" height="16"/>
	</g>
	<rect x="360.5" y="30.8" class="st1" width="2.7" height="2.7"/>
	<rect x="353.2" y="30.8" class="st1" width="2.7" height="2.7"/>
	<rect x="360.9" y="24" class="st1" width="1.8" height="1.8"/>
	<rect x="353.7" y="24" class="st1" width="1.8" height="1.8"/>
	<rect x="360.9" y="16.7" class="st1" width="1.8" height="1.8"/>
	<rect x="353.7" y="16.7" class="st1" width="1.8" height="1.8"/>
	<rect x="398.3" y="28.4" class="st0" width="1.8" height="1.8"/>
	<rect x="391.5" y="28.9" class="st0" width="0.9" height="0.9"/>
	<rect x="384.2" y="28.9" class="st0" width="0.9" height="0.9"/>
	<rect x="376.9" y="28.9" class="st0" width="0.9" height="0.9"/>
	<rect x="369.7" y="28.9" class="st0" width="0.9" height="0.9"/>
	<rect x="362.4" y="28.9" class="st0" width="0.9" height="0.9"/>
	<rect x="330.8" y="13.4" class="st1" width="5.4" height="5.4"/>
	<rect x="338" y="13.4" class="st1" width="5.4" height="5.4"/>
	<rect x="345.3" y="13.4" class="st1" width="5.4" height="5.4"/>
	<rect x="329.4" y="28.4" class="st1" width="5.4" height="5.4"/>
	<rect x="329.4" y="21.2" class="st1" width="5.4" height="5.4"/>
	<rect x="336.3" y="28" class="st1" width="6.4" height="6.4"/>
	<rect x="336.3" y="20.7" class="st1" width="6.4" height="6.4"/>
	<rect x="344" y="28.4" class="st1" width="5.4" height="5.4"/>
	<rect x="343.5" y="20.7" class="st1" width="6.4" height="6.4"/>
	<rect x="351.2" y="28.4" class="st1" width="5.4" height="5.4"/>
	<rect x="351.2" y="21.2" class="st1" width="5.4" height="5.4"/>
	<rect x="358.5" y="28.4" class="st1" width="5.4" height="5.4"/>
	<rect x="358" y="20.7" class="st1" width="6.4" height="6.4"/>
	<rect x="365.8" y="28.4" class="st1" width="5.4" height="5.4"/>
	<rect x="365.8" y="21.2" class="st1" width="5.4" height="5.4"/>
	<rect x="822.2" y="14.5" class="st1" width="3.6" height="3.6"/>
	<rect x="822.2" y="7.2" class="st1" width="3.6" height="3.6"/>
	<rect x="828.6" y="13.6" class="st1" width="5.4" height="5.4"/>
	<rect x="718.3" y="21.8" class="st1" width="5.4" height="5.4"/>
	<rect x="718.3" y="14.5" class="st1" width="5.4" height="5.4"/>
	<rect x="717.9" y="6.8" class="st1" width="6.4" height="6.4"/>
	<rect x="718.3" class="st1" width="5.4" height="5.4"/>
	<rect x="835.9" y="13.6" class="st1" width="5.4" height="5.4"/>
	<rect x="835.4" y="5.9" class="st1" width="6.4" height="6.4"/>
	<rect x="710.6" y="21.3" class="st1" width="6.4" height="6.4"/>
	<rect x="711.1" y="14.5" class="st1" width="5.4" height="5.4"/>
	<rect x="711.1" y="7.3" class="st1" width="5.4" height="5.4"/>
	<rect x="843.1" y="13.6" class="st1" width="5.4" height="5.4"/>
	<rect x="843.1" y="6.3" class="st1" width="5.4" height="5.4"/>
	<rect x="703.4" y="21.3" class="st1" width="6.4" height="6.4"/>
	<rect x="703.8" y="14.5" class="st1" width="5.4" height="5.4"/>
	<rect x="705.6" y="9.1" class="st1" width="1.8" height="1.8"/>
	<path class="st1" d="M706.5,2.7"/>
	<rect x="850.4" y="13.6" class="st1" width="5.4" height="5.4"/>
	<rect x="849.9" y="5.9" class="st1" width="6.4" height="6.4"/>
	<rect x="776.7" y="28.2" class="st1" width="5.4" height="5.4"/>
	<rect x="783.5" y="27.8" class="st1" width="6.4" height="6.4"/>
	<rect x="783.5" y="20.5" class="st1" width="6.4" height="6.4"/>
	<rect x="791.2" y="28.2" class="st1" width="5.4" height="5.4"/>
	<rect x="790.7" y="20.5" class="st1" width="6.4" height="6.4"/>
	<rect x="798.4" y="21" class="st1" width="5.4" height="5.4"/>
	<rect x="805.7" y="28.2" class="st1" width="5.4" height="5.4"/>
	<rect x="805.3" y="20.5" class="st1" width="6.4" height="6.4"/>
	<rect x="812.5" y="27.8" class="st1" width="6.4" height="6.4"/>
	<rect x="819.8" y="27.8" class="st1" width="6.4" height="6.4"/>
	<rect x="820.2" y="21" class="st1" width="5.4" height="5.4"/>
	<rect x="827.5" y="28.2" class="st1" width="5.4" height="5.4"/>
	<rect x="827.5" y="21" class="st1" width="5.4" height="5.4"/>
	<rect x="834.8" y="28.2" class="st1" width="5.4" height="5.4"/>
	<rect x="834.8" y="21" class="st1" width="5.4" height="5.4"/>
	<rect x="842" y="28.2" class="st1" width="5.4" height="5.4"/>
	<rect x="842" y="21" class="st1" width="5.4" height="5.4"/>
	<rect x="848.8" y="27.8" class="st1" width="6.4" height="6.4"/>
	<rect x="848.8" y="20.5" class="st1" width="6.4" height="6.4"/>
	<rect x="562.2" y="27.7" class="st1" width="6.4" height="6.4"/>
	<rect x="562.2" y="20.4" class="st1" width="6.4" height="6.4"/>
	<rect x="562.7" y="13.6" class="st1" width="5.4" height="5.4"/>
	<rect x="569.5" y="27.7" class="st1" width="6.4" height="6.4"/>
	<rect x="569.9" y="20.9" class="st1" width="5.4" height="5.4"/>
	<rect x="577.2" y="28.1" class="st1" width="5.4" height="5.4"/>
	<rect x="576.8" y="20.4" class="st1" width="6.4" height="6.4"/>
	<rect x="584.5" y="28.1" class="st1" width="5.4" height="5.4"/>
	<rect x="584" y="20.4" class="st1" width="6.4" height="6.4"/>
	<rect x="584.5" y="13.6" class="st1" width="5.4" height="5.4"/>
	<rect x="591.7" y="28.1" class="st1" width="5.4" height="5.4"/>
	<rect x="591.7" y="13.6" class="st1" width="5.4" height="5.4"/>
	<rect x="598.5" y="27.7" class="st1" width="6.4" height="6.4"/>
	<rect x="598.5" y="20.4" class="st1" width="6.4" height="6.4"/>
	<rect x="599" y="13.6" class="st1" width="5.4" height="5.4"/>
	<rect x="598.5" y="5.9" class="st1" width="6.4" height="6.4"/>
	<rect x="779.2" y="14.4" class="st1" width="1.8" height="1.8"/>
	<rect x="791.9" y="12.6" class="st1" width="5.4" height="5.4"/>
	<rect x="800.1" y="13.5" class="st1" width="3.6" height="3.6"/>
	<rect x="807.8" y="14" class="st1" width="2.7" height="2.7"/>
	<rect x="856.7" y="28.3" class="st1" width="5.4" height="5.4"/>
	<rect x="856.7" y="21" class="st1" width="5.4" height="5.4"/>
	<rect x="1267.2" y="28.3" class="st1" width="5.4" height="5.4"/>
	<rect x="1266.7" y="20.6" class="st1" width="6.4" height="6.4"/>
	<rect x="1281.2" y="27.9" class="st1" width="6.4" height="6.4"/>
	<rect x="1289" y="28.3" class="st1" width="5.4" height="5.4"/>
	<rect x="1289" y="21.1" class="st1" width="5.4" height="5.4"/>
	<rect x="1296.2" y="21.1" class="st1" width="5.4" height="5.4"/>
	<rect x="1303" y="27.9" class="st1" width="6.4" height="6.4"/>
	<rect x="1303.5" y="21.1" class="st1" width="5.4" height="5.4"/>
	<rect x="1310.3" y="27.9" class="st1" width="6.4" height="6.4"/>
	<rect x="1318" y="28.3" class="st1" width="5.4" height="5.4"/>
	<rect x="1318" y="21.1" class="st1" width="5.4" height="5.4"/>
</g>
</svg>
