<?xml version="1.0" encoding="utf-8"?>
<!-- Generator: Adobe Illustrator 21.0.2, SVG Export Plug-In . SVG Version: 6.00 Build 0)  -->
<svg version="1.1" id="_x31__екран" xmlns="http://www.w3.org/2000/svg" xmlns:xlink="http://www.w3.org/1999/xlink" x="0px"
	 y="0px" viewBox="0 0 16.7 16" style="enable-background:new 0 0 16.7 16;" xml:space="preserve">
<style type="text/css">
	.st0{fill:#4ABEC7;}
</style>
<g>
	<path class="st0" d="M12.6,5c-1.9,0-2.8,1-3.2,1.8v0h0c0,0,0,0,0,0V5.2H5.8c0,1,0,10.8,0,10.8h3.6v-6c0-0.3,0-0.6,0.1-0.9
		c0.3-0.6,0.8-1.3,1.8-1.3c1.3,0,1.8,1,1.8,2.4V16h3.6V9.8C16.7,6.5,15,5,12.6,5z"/>
	<path class="st0" d="M2,0C0.8,0,0,0.8,0,1.9c0,1,0.8,1.9,2,1.9h0c1.3,0,2-0.8,2-1.9C4,0.8,3.3,0,2,0z"/>
	<rect x="0.2" y="5.2" class="st0" width="3.6" height="10.8"/>
</g>
</svg>
