<?xml version="1.0" encoding="utf-8"?>
<!-- Generator: Adobe Illustrator 21.0.2, SVG Export Plug-In . SVG Version: 6.00 Build 0)  -->
<svg version="1.1" id="_x31__екран" xmlns="http://www.w3.org/2000/svg" xmlns:xlink="http://www.w3.org/1999/xlink" x="0px"
	 y="0px" viewBox="0 0 252.2 103.5" style="enable-background:new 0 0 252.2 103.5;" xml:space="preserve">
<style type="text/css">
	.st0{fill:#FFFFFF;}
	.st1{fill:#349C6F;}
	.st2{fill:#FF814D;}
	.st3{fill:#49BEC7;}
	.st4{fill:#0B478F;}
</style>
<g>
	<g>
		<path class="st0" d="M7.7,0.1L0.2,20.8h5l1.6-5.1h7.7l1.6,5.1h5L13.5,0.1H7.7z M7.8,12.3c1.3-4.2,2.1-6.7,2.3-7.5
			c0.2-0.9,0.4-1.5,0.5-1.9c0.1,0.4,0.3,1,0.5,1.9c0.2,0.8,1,3.4,2.3,7.6H7.8z"/>
		<path class="st0" d="M34.4,17.5c-1.6,0-2.7-0.6-3.5-1.9c-0.8-1.2-1.2-3-1.2-5.3c0-4.7,1.5-7,4.6-7c0.8,0,1.6,0.3,2.3,0.9
			c0.7,0.6,1.1,1.4,1.5,2.5l4.6-1c-0.7-2-1.7-3.5-3.1-4.5c-1.4-1-3.2-1.5-5.3-1.5c-6.4,0-9.6,3.5-9.6,10.6c0,3.5,0.8,6.2,2.5,8
			c1.7,1.8,4.1,2.7,7.3,2.7c4.3,0,7.2-2.2,8.7-6.5l-4.6-0.8C37.6,16.3,36.3,17.5,34.4,17.5z"/>
		<path class="st0" d="M53.9,0.1l-7.5,20.7h5l1.6-5.1h7.7l1.6,5.1h5L59.7,0.1H53.9z M54,12.3c1.3-4.2,2.1-6.7,2.3-7.5
			c0.2-0.9,0.4-1.5,0.5-1.9c0.1,0.4,0.3,1,0.5,1.9c0.2,0.8,1,3.4,2.3,7.6H54z"/>
		<path class="st0" d="M86.4,18.1c1.7-1.8,2.6-4.4,2.6-7.8c0-3.4-0.9-6-2.8-7.7c-1.8-1.7-4.6-2.5-8.3-2.5h-6.1v20.7H79
			C82.2,20.8,84.6,19.9,86.4,18.1z M76.8,17.3V3.6h1c2.1,0,3.7,0.5,4.7,1.6c1,1.1,1.4,2.8,1.4,5.1c0,4.7-1.8,7-5.4,7H76.8z"/>
		<polygon class="st0" points="112.1,17.3 100,17.3 100,12.1 110.3,12.1 110.3,8.6 100,8.6 100,3.6 111.4,3.6 111.4,0.1 95,0.1 
			95,20.8 112.1,20.8 		"/>
		<path class="st0" d="M121.2,7.5c0-1,0-2-0.1-3.1L121,2.9c0.5,2.4,1,4.1,1.3,5.2l2.1,7.2h3.7l2.1-7.2c0.2-0.5,0.6-2.3,1.3-5.2
			c-0.2,2-0.3,3.5-0.3,4.6v13.3h3.8V0.1h-5.7l-2.3,7.7c-0.2,0.8-0.5,1.9-0.7,3.5c-0.3-1.9-0.5-3.1-0.6-3.5l-2.3-7.7h-5.9v20.7h3.7
			V7.5z"/>
		<polygon class="st0" points="149.3,8.8 144.2,0.1 139,0.1 146.8,12.3 146.8,20.8 151.8,20.8 151.8,12.3 159.7,0.1 154.4,0.1 		"/>
		<path class="st0" d="M10.6,41c-3,0-5.2,0.9-6.8,2.7c-1.6,1.8-2.4,4.4-2.4,7.9c0,3.5,0.8,6.2,2.4,8c1.6,1.8,3.9,2.7,6.8,2.7
			c3,0,5.2-0.9,6.8-2.7c1.6-1.8,2.4-4.5,2.4-8c0-3.5-0.8-6.2-2.4-7.9C15.8,41.9,13.5,41,10.6,41z M13.7,57c-0.7,1.2-1.7,1.8-3.1,1.8
			c-1.4,0-2.4-0.6-3.1-1.8c-0.7-1.2-1-3-1-5.3c0-4.7,1.4-7,4.1-7c2.7,0,4.1,2.3,4.1,7C14.7,54,14.3,55.8,13.7,57z"/>
		<polygon class="st0" points="26.1,62.1 31.1,62.1 31.1,54.3 41.6,54.3 41.6,50.8 31.1,50.8 31.1,44.9 42,44.9 42,41.4 26.1,41.4 
					"/>
		<path class="st0" d="M83.7,51.2c1.5-0.3,2.7-0.8,3.4-1.6c0.7-0.8,1.1-1.8,1.1-3c0-1.7-0.6-3-1.9-3.9c-1.3-0.9-3.1-1.3-5.6-1.3
			h-8.9v20.7h9.9c2.5,0,4.4-0.5,5.8-1.6c1.4-1,2.1-2.5,2.1-4.3c0-1.4-0.5-2.5-1.5-3.4C87.1,51.9,85.6,51.4,83.7,51.2z M76.9,44.7
			h3.5c1.9,0,2.8,0.8,2.8,2.5c0,1.6-0.9,2.4-2.8,2.4h-3.6V44.7z M81.2,58.7h-4.3V53h4.2c1.1,0,2,0.2,2.6,0.7
			c0.6,0.5,0.9,1.2,0.9,2.1C84.6,57.7,83.5,58.7,81.2,58.7z"/>
		<path class="st0" d="M102.8,62.4c2.9,0,5-0.7,6.4-2.1c1.4-1.4,2.1-3.6,2.1-6.5V41.4h-5v12.4c0,1.8-0.3,3.1-0.8,3.9
			s-1.4,1.2-2.6,1.2c-1.1,0-2-0.4-2.4-1.1c-0.5-0.7-0.7-2-0.7-3.8V41.4h-5V54c0,2.9,0.6,5,1.9,6.4C98,61.7,100,62.4,102.8,62.4z"/>
		<path class="st0" d="M119.7,60.9c1.7,1,3.8,1.5,6.5,1.5c2.9,0,5.2-0.6,6.9-1.7c1.7-1.1,2.5-2.7,2.5-4.6c0-1-0.3-2-0.8-2.8
			c-0.5-0.8-1.4-1.5-2.5-2.1c-1.1-0.6-2.8-1.1-4.9-1.6c-1.6-0.4-2.7-0.7-3.2-0.9c-0.5-0.2-0.9-0.5-1.2-0.8c-0.3-0.3-0.5-0.8-0.5-1.3
			c0-0.8,0.3-1.3,0.9-1.7c0.6-0.4,1.5-0.6,2.7-0.6c2.1,0,3.4,0.9,3.9,2.8l4.8-0.4c-0.4-1.9-1.3-3.3-2.8-4.2
			c-1.4-0.9-3.4-1.4-5.9-1.4c-2.6,0-4.7,0.5-6.3,1.6c-1.6,1-2.4,2.5-2.4,4.2c0,0.8,0.2,1.6,0.5,2.2c0.3,0.7,0.8,1.2,1.4,1.7
			c0.6,0.5,1.4,0.9,2.4,1.3c1,0.4,2.7,0.9,5.1,1.4c1.2,0.3,2.1,0.6,2.8,1.1c0.6,0.5,0.9,1,0.9,1.7c0,0.9-0.4,1.6-1.1,2
			c-0.7,0.4-1.8,0.6-3.3,0.6c-1.4,0-2.6-0.3-3.4-0.8c-0.8-0.6-1.4-1.3-1.6-2.3l-4.8,0.6C116.9,58.4,118,59.8,119.7,60.9z"/>
		<polygon class="st0" points="141.6,58.6 141.6,62.1 157.1,62.1 157.1,58.6 151.8,58.6 151.8,44.9 157.1,44.9 157.1,41.4 
			141.6,41.4 141.6,44.9 146.8,44.9 146.8,58.6 		"/>
		<path class="st0" d="M176.2,51.7c0,1.3,0.2,3.2,0.5,5.6L170,41.4h-5.7v20.7h4.4V52c0-1-0.2-2.9-0.5-5.4l6.5,15.5h5.9V41.4h-4.4
			V51.7z"/>
		<polygon class="st0" points="204.6,58.6 192.5,58.6 192.5,53.3 202.8,53.3 202.8,49.8 192.5,49.8 192.5,44.9 203.9,44.9 
			203.9,41.4 187.5,41.4 187.5,62.1 204.6,62.1 		"/>
		<path class="st0" d="M225.7,51.2c-1.1-0.6-2.8-1.1-4.9-1.6c-1.6-0.4-2.7-0.7-3.2-0.9c-0.5-0.2-0.9-0.5-1.2-0.8
			c-0.3-0.3-0.5-0.8-0.5-1.3c0-0.8,0.3-1.3,0.9-1.7c0.6-0.4,1.5-0.6,2.7-0.6c2.1,0,3.4,0.9,3.9,2.8l4.8-0.4
			c-0.4-1.9-1.3-3.3-2.8-4.2c-1.4-0.9-3.4-1.4-5.9-1.4c-2.6,0-4.7,0.5-6.3,1.6c-1.6,1-2.4,2.5-2.4,4.2c0,0.8,0.2,1.6,0.5,2.2
			c0.3,0.7,0.8,1.2,1.4,1.7c0.6,0.5,1.4,0.9,2.4,1.3c1,0.4,2.7,0.9,5.1,1.4c1.2,0.3,2.1,0.6,2.8,1.1c0.6,0.5,0.9,1,0.9,1.7
			c0,0.9-0.4,1.6-1.1,2c-0.7,0.4-1.8,0.6-3.3,0.6c-1.4,0-2.6-0.3-3.4-0.8c-0.8-0.6-1.4-1.3-1.6-2.3l-4.8,0.6
			c0.5,1.9,1.5,3.4,3.2,4.4c1.7,1,3.8,1.5,6.5,1.5c2.9,0,5.2-0.6,6.9-1.7c1.7-1.1,2.5-2.7,2.5-4.6c0-1-0.3-2-0.8-2.8
			C227.7,52.5,226.9,51.8,225.7,51.2z"/>
		<path class="st0" d="M242.9,59c-1.4,0-2.6-0.3-3.4-0.8c-0.8-0.6-1.4-1.3-1.6-2.3l-4.8,0.6c0.5,1.9,1.5,3.4,3.2,4.4
			c1.7,1,3.8,1.5,6.5,1.5c2.9,0,5.2-0.6,6.9-1.7c1.7-1.1,2.5-2.7,2.5-4.6c0-1-0.3-2-0.8-2.8c-0.5-0.8-1.4-1.5-2.5-2.1
			c-1.1-0.6-2.8-1.1-4.9-1.6c-1.6-0.4-2.7-0.7-3.2-0.9c-0.5-0.2-0.9-0.5-1.2-0.8c-0.3-0.3-0.5-0.8-0.5-1.3c0-0.8,0.3-1.3,0.9-1.7
			c0.6-0.4,1.5-0.6,2.7-0.6c2.1,0,3.4,0.9,3.9,2.8l4.8-0.4c-0.4-1.9-1.3-3.3-2.8-4.2c-1.4-0.9-3.4-1.4-5.9-1.4
			c-2.6,0-4.7,0.5-6.3,1.6c-1.6,1-2.4,2.5-2.4,4.2c0,0.8,0.2,1.6,0.5,2.2c0.3,0.7,0.8,1.2,1.4,1.7c0.6,0.5,1.4,0.9,2.4,1.3
			c1,0.4,2.7,0.9,5.1,1.4c1.2,0.3,2.1,0.6,2.8,1.1c0.6,0.5,0.9,1,0.9,1.7c0,0.9-0.4,1.6-1.1,2C245.5,58.8,244.4,59,242.9,59z"/>
		<polygon class="st0" points="2.8,86.3 8.1,86.3 8.1,100 2.8,100 2.8,103.5 18.3,103.5 18.3,100 13.1,100 13.1,86.3 18.3,86.3 
			18.3,82.8 2.8,82.8 		"/>
		<path class="st0" d="M37.5,93.1c0,1.3,0.2,3.2,0.5,5.6l-6.7-15.9h-5.7v20.7h4.4V93.5c0-1-0.2-2.9-0.5-5.4l6.5,15.5h5.9V82.8h-4.4
			V93.1z"/>
		<path class="st0" d="M60.6,93.1c0,1.3,0.2,3.2,0.5,5.6l-6.7-15.9h-5.7v20.7h4.4V93.5c0-1-0.2-2.9-0.5-5.4l6.5,15.5h5.9V82.8h-4.4
			V93.1z"/>
		<path class="st0" d="M80,82.5c-3,0-5.2,0.9-6.8,2.7c-1.6,1.8-2.4,4.4-2.4,7.9s0.8,6.2,2.4,8c1.6,1.8,3.9,2.7,6.8,2.7
			s5.2-0.9,6.8-2.7c1.6-1.8,2.4-4.5,2.4-8s-0.8-6.2-2.4-7.9C85.2,83.4,82.9,82.5,80,82.5z M83,98.5c-0.7,1.2-1.7,1.8-3.1,1.8
			s-2.4-0.6-3.1-1.8s-1-3-1-5.3c0-4.7,1.4-7,4.1-7c2.7,0,4.1,2.3,4.1,7C84.1,95.5,83.7,97.2,83,98.5z"/>
		<path class="st0" d="M104.3,94.7l-0.9,2.8l-0.4,1.3c-0.5-1.8-0.9-3.2-1.3-4.1l-3.9-11.9h-5.2l7.9,20.7h5.1l7.8-20.7h-5.2
			L104.3,94.7z"/>
		<path class="st0" d="M123.3,82.8l-7.5,20.7h5l1.6-5.1h7.7l1.6,5.1h5l-7.5-20.7H123.3z M123.4,95.1c1.3-4.2,2.1-6.7,2.3-7.5
			c0.2-0.9,0.4-1.5,0.5-1.9c0.1,0.4,0.3,1,0.5,1.9c0.2,0.8,1,3.4,2.3,7.6H123.4z"/>
		<polygon class="st0" points="140,86.3 146.8,86.3 146.8,103.5 151.8,103.5 151.8,86.3 158.7,86.3 158.7,82.8 140,82.8 		"/>
		<polygon class="st0" points="164.7,86.3 170,86.3 170,100 164.7,100 164.7,103.5 180.2,103.5 180.2,100 174.9,100 174.9,86.3 
			180.2,86.3 180.2,82.8 164.7,82.8 		"/>
		<path class="st0" d="M195.6,82.5c-3,0-5.2,0.9-6.8,2.7c-1.6,1.8-2.4,4.4-2.4,7.9s0.8,6.2,2.4,8c1.6,1.8,3.9,2.7,6.8,2.7
			c3,0,5.2-0.9,6.8-2.7c1.6-1.8,2.4-4.5,2.4-8s-0.8-6.2-2.4-7.9C200.8,83.4,198.5,82.5,195.6,82.5z M198.7,98.5
			c-0.7,1.2-1.7,1.8-3.1,1.8c-1.4,0-2.4-0.6-3.1-1.8c-0.7-1.2-1-3-1-5.3c0-4.7,1.4-7,4.1-7c2.7,0,4.1,2.3,4.1,7
			C199.7,95.5,199.3,97.2,198.7,98.5z"/>
		<path class="st0" d="M223.5,93.1c0,1.3,0.2,3.2,0.5,5.6l-6.7-15.9h-5.7v20.7h4.4V93.5c0-1-0.2-2.9-0.5-5.4l6.5,15.5h5.9V82.8h-4.4
			V93.1z"/>
		<path class="st0" d="M248.9,92.6c-1.1-0.6-2.8-1.1-4.9-1.6c-1.6-0.4-2.7-0.7-3.2-0.9c-0.5-0.2-0.9-0.5-1.2-0.8
			c-0.3-0.3-0.5-0.8-0.5-1.3c0-0.8,0.3-1.3,0.9-1.7c0.6-0.4,1.5-0.6,2.7-0.6c2.1,0,3.4,0.9,3.9,2.8l4.8-0.4
			c-0.4-1.9-1.3-3.3-2.8-4.2c-1.4-0.9-3.4-1.4-5.9-1.4c-2.6,0-4.7,0.5-6.3,1.6c-1.6,1-2.4,2.5-2.4,4.2c0,0.8,0.2,1.6,0.5,2.2
			c0.3,0.7,0.8,1.2,1.4,1.7c0.6,0.5,1.4,0.9,2.4,1.3c1,0.4,2.7,0.9,5.1,1.4c1.2,0.3,2.1,0.6,2.8,1.1c0.6,0.5,0.9,1,0.9,1.7
			c0,0.9-0.4,1.6-1.1,2c-0.7,0.4-1.8,0.6-3.3,0.6c-1.4,0-2.6-0.3-3.4-0.8c-0.8-0.6-1.4-1.3-1.6-2.3l-4.8,0.6
			c0.5,1.9,1.5,3.4,3.2,4.4s3.8,1.5,6.5,1.5c2.9,0,5.2-0.6,6.9-1.7c1.7-1.1,2.5-2.7,2.5-4.6c0-1-0.3-2-0.8-2.8
			C250.8,93.9,250,93.2,248.9,92.6z"/>
	</g>
	<g>
		<rect x="167" y="5.8" class="st1" width="10.9" height="10"/>
		<rect x="190.1" y="5.8" class="st2" width="10.9" height="10"/>
		<rect x="213.2" y="5.8" class="st3" width="10.9" height="10"/>
		<rect x="236.3" y="5.8" class="st4" width="10.9" height="10"/>
		<rect x="51.4" y="47.5" class="st2" width="10.9" height="10"/>
	</g>
</g>
</svg>
