<?xml version="1.0" encoding="utf-8"?>
<!-- Generator: Adobe Illustrator 21.0.2, SVG Export Plug-In . SVG Version: 6.00 Build 0)  -->
<svg version="1.1" id="елеенти_по_сторінці_2"
	 xmlns="http://www.w3.org/2000/svg" xmlns:xlink="http://www.w3.org/1999/xlink" x="0px" y="0px" viewBox="0 0 790 128.1"
	 style="enable-background:new 0 0 790 128.1;" xml:space="preserve">
<style type="text/css">
	.st0{fill:#FF814D;}
</style>
<rect x="239.9" y="1.1" class="st0" width="3.6" height="3.6"/>
<rect x="239" y="7.4" class="st0" width="5.4" height="5.4"/>
<rect x="239" y="14.7" class="st0" width="5.4" height="5.4"/>
<rect x="239" y="22" class="st0" width="5.4" height="5.4"/>
<rect x="239" y="29.2" class="st0" width="5.4" height="5.4"/>
<rect x="239" y="36.5" class="st0" width="5.4" height="5.4"/>
<rect x="241.2" y="46" class="st0" width="0.9" height="0.9"/>
<path class="st0" d="M241.7,53.7"/>
<path class="st0" d="M241.7,61"/>
<path class="st0" d="M241.7,68.3"/>
<path class="st0" d="M241.7,75.5"/>
<path class="st0" d="M241.7,82.8"/>
<path class="st0" d="M241.7,90"/>
<path class="st0" d="M241.7,97.3"/>
<rect x="246.2" y="0.2" class="st0" width="5.4" height="5.4"/>
<rect x="246.2" y="7.4" class="st0" width="5.4" height="5.4"/>
<rect x="246.2" y="14.7" class="st0" width="5.4" height="5.4"/>
<rect x="246.2" y="22" class="st0" width="5.4" height="5.4"/>
<rect x="246.2" y="29.2" class="st0" width="5.4" height="5.4"/>
<rect x="246.2" y="36.5" class="st0" width="5.4" height="5.4"/>
<rect x="246.2" y="43.7" class="st0" width="5.4" height="5.4"/>
<rect x="246.2" y="51" class="st0" width="5.4" height="5.4"/>
<rect x="246.2" y="58.3" class="st0" width="5.4" height="5.4"/>
<rect x="246.2" y="65.5" class="st0" width="5.4" height="5.4"/>
<path class="st0" d="M249,75.5"/>
<path class="st0" d="M249,82.8"/>
<path class="st0" d="M249,90"/>
<path class="st0" d="M249,97.3"/>
<rect x="253.5" y="0.2" class="st0" width="5.4" height="5.4"/>
<rect x="253.5" y="7.4" class="st0" width="5.4" height="5.4"/>
<rect x="253.5" y="14.7" class="st0" width="5.4" height="5.4"/>
<rect x="253.5" y="22" class="st0" width="5.4" height="5.4"/>
<rect x="253.5" y="29.2" class="st0" width="5.4" height="5.4"/>
<rect x="253.5" y="36.5" class="st0" width="5.4" height="5.4"/>
<rect x="253" y="43.3" class="st0" width="6.4" height="6.4"/>
<rect x="253.5" y="51" class="st0" width="5.4" height="5.4"/>
<rect x="253.5" y="58.3" class="st0" width="5.4" height="5.4"/>
<rect x="253.5" y="65.5" class="st0" width="5.4" height="5.4"/>
<rect x="253.5" y="72.8" class="st0" width="5.4" height="5.4"/>
<rect x="253.5" y="80.1" class="st0" width="5.4" height="5.4"/>
<rect x="254.4" y="88.2" class="st0" width="3.6" height="3.6"/>
<rect x="255.3" y="96.4" class="st0" width="1.8" height="1.8"/>
<rect x="260.8" y="0.2" class="st0" width="5.4" height="5.4"/>
<rect x="260.8" y="7.4" class="st0" width="5.4" height="5.4"/>
<rect x="260.8" y="14.7" class="st0" width="5.4" height="5.4"/>
<rect x="260.3" y="21.5" class="st0" width="6.4" height="6.4"/>
<rect x="260.8" y="29.2" class="st0" width="5.4" height="5.4"/>
<rect x="260.8" y="36.5" class="st0" width="5.4" height="5.4"/>
<rect x="260.3" y="43.3" class="st0" width="6.4" height="6.4"/>
<rect x="260.3" y="50.5" class="st0" width="6.4" height="6.4"/>
<rect x="260.8" y="58.3" class="st0" width="5.4" height="5.4"/>
<rect x="260.8" y="65.5" class="st0" width="5.4" height="5.4"/>
<rect x="260.8" y="72.8" class="st0" width="5.4" height="5.4"/>
<rect x="260.8" y="80.1" class="st0" width="5.4" height="5.4"/>
<rect x="260.8" y="87.3" class="st0" width="5.4" height="5.4"/>
<rect x="262.6" y="103.7" class="st0" width="1.8" height="1.8"/>
<rect x="190.4" y="1.7" class="st0" width="2.7" height="2.7"/>
<rect x="190.4" y="8.9" class="st0" width="2.7" height="2.7"/>
<rect x="190.9" y="16.6" class="st0" width="1.8" height="1.8"/>
<rect x="190.9" y="23.9" class="st0" width="1.8" height="1.8"/>
<rect x="190.9" y="31.2" class="st0" width="1.8" height="1.8"/>
<rect x="198.1" y="74.2" class="st0" width="1.8" height="1.8"/>
<rect x="198.6" y="81.9" class="st0" width="0.9" height="0.9"/>
<rect x="205.4" y="74.2" class="st0" width="1.8" height="1.8"/>
<rect x="204.9" y="81" class="st0" width="2.7" height="2.7"/>
<rect x="205.4" y="88.7" class="st0" width="1.8" height="1.8"/>
<rect x="268.5" y="0.6" class="st0" width="4.5" height="4.5"/>
<rect x="268.5" y="7.9" class="st0" width="4.5" height="4.5"/>
<rect x="268" y="14.7" class="st0" width="5.4" height="5.4"/>
<rect x="268" y="22" class="st0" width="5.4" height="5.4"/>
<rect x="268" y="29.2" class="st0" width="5.4" height="5.4"/>
<rect x="268" y="36.5" class="st0" width="5.4" height="5.4"/>
<rect x="268" y="43.7" class="st0" width="5.4" height="5.4"/>
<rect x="268" y="51" class="st0" width="5.4" height="5.4"/>
<rect x="268" y="58.3" class="st0" width="5.4" height="5.4"/>
<rect x="268" y="65.5" class="st0" width="5.4" height="5.4"/>
<rect x="268" y="72.8" class="st0" width="5.4" height="5.4"/>
<rect x="268" y="80.1" class="st0" width="5.4" height="5.4"/>
<rect x="268" y="87.3" class="st0" width="5.4" height="5.4"/>
<rect x="268" y="94.6" class="st0" width="5.4" height="5.4"/>
<rect x="268" y="101.8" class="st0" width="5.4" height="5.4"/>
<rect x="196.8" y="0.8" class="st0" width="4.5" height="4.5"/>
<rect x="196.8" y="8" class="st0" width="4.5" height="4.5"/>
<rect x="196.8" y="15.3" class="st0" width="4.5" height="4.5"/>
<rect x="196.3" y="22.1" class="st0" width="5.4" height="5.4"/>
<rect x="197.2" y="30.3" class="st0" width="3.6" height="3.6"/>
<rect x="198.1" y="38.4" class="st0" width="1.8" height="1.8"/>
<rect x="198.1" y="45.7" class="st0" width="1.8" height="1.8"/>
<rect x="198.1" y="53" class="st0" width="1.8" height="1.8"/>
<rect x="198.1" y="60.2" class="st0" width="1.8" height="1.8"/>
<rect x="198.1" y="67.5" class="st0" width="1.8" height="1.8"/>
<rect x="276.2" y="1.1" class="st0" width="3.6" height="3.6"/>
<rect x="276.2" y="8.3" class="st0" width="3.6" height="3.6"/>
<rect x="276.2" y="15.6" class="st0" width="3.6" height="3.6"/>
<rect x="276.2" y="22.9" class="st0" width="3.6" height="3.6"/>
<rect x="276.2" y="30.1" class="st0" width="3.6" height="3.6"/>
<rect x="276.2" y="37.4" class="st0" width="3.6" height="3.6"/>
<rect x="276.2" y="44.6" class="st0" width="3.6" height="3.6"/>
<rect x="276.6" y="52.4" class="st0" width="2.7" height="2.7"/>
<rect x="276.6" y="59.6" class="st0" width="2.7" height="2.7"/>
<rect x="275.3" y="65.5" class="st0" width="5.4" height="5.4"/>
<rect x="276.6" y="74.2" class="st0" width="2.7" height="2.7"/>
<rect x="276.6" y="81.4" class="st0" width="2.7" height="2.7"/>
<rect x="276.6" y="88.7" class="st0" width="2.7" height="2.7"/>
<rect x="276.2" y="95.5" class="st0" width="3.6" height="3.6"/>
<rect x="276.6" y="103.2" class="st0" width="2.7" height="2.7"/>
<rect x="204.9" y="1.7" class="st0" width="2.7" height="2.7"/>
<rect x="204.9" y="8.9" class="st0" width="2.7" height="2.7"/>
<rect x="204.9" y="16.2" class="st0" width="2.7" height="2.7"/>
<rect x="204.9" y="23.5" class="st0" width="2.7" height="2.7"/>
<rect x="204.9" y="30.7" class="st0" width="2.7" height="2.7"/>
<rect x="204.9" y="38" class="st0" width="2.7" height="2.7"/>
<rect x="204.5" y="44.8" class="st0" width="3.6" height="3.6"/>
<rect x="204.5" y="52" class="st0" width="3.6" height="3.6"/>
<rect x="204.5" y="59.3" class="st0" width="3.6" height="3.6"/>
<rect x="204.9" y="67" class="st0" width="2.7" height="2.7"/>
<rect x="283.9" y="1.5" class="st0" width="2.7" height="2.7"/>
<rect x="283.9" y="8.8" class="st0" width="2.7" height="2.7"/>
<rect x="284.4" y="16.5" class="st0" width="1.8" height="1.8"/>
<rect x="283.9" y="23.3" class="st0" width="2.7" height="2.7"/>
<rect x="283.9" y="30.6" class="st0" width="2.7" height="2.7"/>
<rect x="284.4" y="38.3" class="st0" width="1.8" height="1.8"/>
<rect x="284.4" y="45.6" class="st0" width="1.8" height="1.8"/>
<rect x="284.4" y="52.8" class="st0" width="1.8" height="1.8"/>
<rect x="283" y="58.7" class="st0" width="4.5" height="4.5"/>
<rect x="282.5" y="65.5" class="st0" width="5.4" height="5.4"/>
<rect x="282.5" y="72.8" class="st0" width="5.4" height="5.4"/>
<rect x="283" y="80.5" class="st0" width="4.5" height="4.5"/>
<rect x="283.9" y="88.7" class="st0" width="2.7" height="2.7"/>
<rect x="283.9" y="95.9" class="st0" width="2.7" height="2.7"/>
<rect x="284.4" y="103.7" class="st0" width="1.8" height="1.8"/>
<rect x="327.5" y="80.9" class="st0" width="2.7" height="2.7"/>
<rect x="327.5" y="73.6" class="st0" width="2.7" height="2.7"/>
<rect x="327.9" y="66.8" class="st0" width="1.8" height="1.8"/>
<rect x="327.5" y="59.1" class="st0" width="2.7" height="2.7"/>
<rect x="327.5" y="51.8" class="st0" width="2.7" height="2.7"/>
<rect x="327.9" y="45" class="st0" width="1.8" height="1.8"/>
<rect x="327.9" y="37.7" class="st0" width="1.8" height="1.8"/>
<rect x="327.9" y="30.5" class="st0" width="1.8" height="1.8"/>
<rect x="326.6" y="21.9" class="st0" width="4.5" height="4.5"/>
<rect x="326.1" y="14.1" class="st0" width="5.4" height="5.4"/>
<rect x="326.1" y="6.9" class="st0" width="5.4" height="5.4"/>
<rect x="326.6" y="0.1" class="st0" width="4.5" height="4.5"/>
<rect x="212.6" y="2.1" class="st0" width="1.8" height="1.8"/>
<rect x="212.2" y="8.9" class="st0" width="2.7" height="2.7"/>
<rect x="212.2" y="16.2" class="st0" width="2.7" height="2.7"/>
<rect x="212.2" y="23.5" class="st0" width="2.7" height="2.7"/>
<rect x="212.2" y="30.7" class="st0" width="2.7" height="2.7"/>
<rect x="212.2" y="38" class="st0" width="2.7" height="2.7"/>
<rect x="212.6" y="45.7" class="st0" width="1.8" height="1.8"/>
<rect x="212.2" y="52.5" class="st0" width="2.7" height="2.7"/>
<rect x="212.2" y="59.8" class="st0" width="2.7" height="2.7"/>
<rect x="212.2" y="67" class="st0" width="2.7" height="2.7"/>
<rect x="335.4" y="74.2" class="st0" width="1.8" height="1.8"/>
<rect x="335.9" y="81.9" class="st0" width="0.9" height="0.9"/>
<rect x="342.7" y="74.2" class="st0" width="1.8" height="1.8"/>
<rect x="342.2" y="81" class="st0" width="2.7" height="2.7"/>
<rect x="342.7" y="88.7" class="st0" width="1.8" height="1.8"/>
<rect x="334.1" y="0.8" class="st0" width="4.5" height="4.5"/>
<rect x="334.1" y="8" class="st0" width="4.5" height="4.5"/>
<rect x="334.1" y="15.3" class="st0" width="4.5" height="4.5"/>
<rect x="333.6" y="22.1" class="st0" width="5.4" height="5.4"/>
<rect x="334.5" y="30.3" class="st0" width="3.6" height="3.6"/>
<rect x="335.4" y="38.4" class="st0" width="1.8" height="1.8"/>
<rect x="335.4" y="45.7" class="st0" width="1.8" height="1.8"/>
<rect x="335.4" y="53" class="st0" width="1.8" height="1.8"/>
<rect x="335.4" y="60.2" class="st0" width="1.8" height="1.8"/>
<rect x="335.4" y="67.5" class="st0" width="1.8" height="1.8"/>
<rect x="342.2" y="1.7" class="st0" width="2.7" height="2.7"/>
<rect x="342.2" y="8.9" class="st0" width="2.7" height="2.7"/>
<rect x="342.2" y="16.2" class="st0" width="2.7" height="2.7"/>
<rect x="342.2" y="23.5" class="st0" width="2.7" height="2.7"/>
<rect x="342.2" y="30.7" class="st0" width="2.7" height="2.7"/>
<rect x="342.2" y="38" class="st0" width="2.7" height="2.7"/>
<rect x="341.8" y="44.8" class="st0" width="3.6" height="3.6"/>
<rect x="341.8" y="52" class="st0" width="3.6" height="3.6"/>
<rect x="341.8" y="59.3" class="st0" width="3.6" height="3.6"/>
<rect x="342.2" y="67" class="st0" width="2.7" height="2.7"/>
<rect x="349.5" y="8.9" class="st0" width="2.7" height="2.7"/>
<rect x="349.5" y="16.2" class="st0" width="2.7" height="2.7"/>
<rect x="349.5" y="23.5" class="st0" width="2.7" height="2.7"/>
<rect x="349.5" y="30.7" class="st0" width="2.7" height="2.7"/>
<rect x="349.5" y="38" class="st0" width="2.7" height="2.7"/>
<rect x="349.9" y="45.7" class="st0" width="1.8" height="1.8"/>
<rect x="349.5" y="52.5" class="st0" width="2.7" height="2.7"/>
<rect x="349.5" y="59.8" class="st0" width="2.7" height="2.7"/>
<rect x="349.5" y="67" class="st0" width="2.7" height="2.7"/>
<rect x="36.8" y="2.2" class="st0" width="1.8" height="1.8"/>
<rect x="29" y="1.7" class="st0" width="2.7" height="2.7"/>
<rect x="21.8" y="1.7" class="st0" width="2.7" height="2.7"/>
<rect x="15" y="2.2" class="st0" width="1.8" height="1.8"/>
<rect x="7.3" y="1.7" class="st0" width="2.7" height="2.7"/>
<rect y="1.7" class="st0" width="2.7" height="2.7"/>
<rect x="36.8" y="9.4" class="st0" width="1.8" height="1.8"/>
<rect x="29" y="9" class="st0" width="2.7" height="2.7"/>
<rect x="22.2" y="9.4" class="st0" width="1.8" height="1.8"/>
<rect x="15" y="9.4" class="st0" width="1.8" height="1.8"/>
<rect x="7.7" y="9.4" class="st0" width="1.8" height="1.8"/>
<rect x="0.5" y="9.4" class="st0" width="1.8" height="1.8"/>
<rect x="36.8" y="16.7" class="st0" width="1.8" height="1.8"/>
<rect x="29.5" y="16.7" class="st0" width="1.8" height="1.8"/>
<rect x="22.2" y="16.7" class="st0" width="1.8" height="1.8"/>
<rect x="15" y="16.7" class="st0" width="1.8" height="1.8"/>
<rect x="7.7" y="16.7" class="st0" width="1.8" height="1.8"/>
<rect x="0.5" y="16.7" class="st0" width="1.8" height="1.8"/>
<rect x="36.8" y="24" class="st0" width="1.8" height="1.8"/>
<rect x="29.5" y="24" class="st0" width="1.8" height="1.8"/>
<rect x="22.2" y="24" class="st0" width="1.8" height="1.8"/>
<rect x="15" y="24" class="st0" width="1.8" height="1.8"/>
<rect x="7.7" y="24" class="st0" width="1.8" height="1.8"/>
<rect x="0.5" y="24" class="st0" width="1.8" height="1.8"/>
<rect x="36.8" y="31.2" class="st0" width="1.8" height="1.8"/>
<rect x="29.5" y="31.2" class="st0" width="1.8" height="1.8"/>
<rect x="22.2" y="31.2" class="st0" width="1.8" height="1.8"/>
<rect x="15" y="31.2" class="st0" width="1.8" height="1.8"/>
<rect x="7.7" y="31.2" class="st0" width="1.8" height="1.8"/>
<rect x="0.5" y="31.2" class="st0" width="1.8" height="1.8"/>
<rect x="36.8" y="38.5" class="st0" width="1.8" height="1.8"/>
<rect x="29.5" y="38.5" class="st0" width="1.8" height="1.8"/>
<rect x="22.2" y="38.5" class="st0" width="1.8" height="1.8"/>
<rect x="15" y="38.5" class="st0" width="1.8" height="1.8"/>
<rect x="8.2" y="38.9" class="st0" width="0.9" height="0.9"/>
<rect x="0.9" y="38.9" class="st0" width="0.9" height="0.9"/>
<rect x="36.8" y="45.8" class="st0" width="1.8" height="1.8"/>
<rect x="29.5" y="45.8" class="st0" width="1.8" height="1.8"/>
<rect x="22.7" y="46.2" class="st0" width="0.9" height="0.9"/>
<rect x="15.4" y="46.2" class="st0" width="0.9" height="0.9"/>
<rect x="8.2" y="46.2" class="st0" width="0.9" height="0.9"/>
<rect x="0.9" y="46.2" class="st0" width="0.9" height="0.9"/>
<rect x="36.8" y="53" class="st0" width="1.8" height="1.8"/>
<rect x="30" y="53.5" class="st0" width="0.9" height="0.9"/>
<rect x="22.7" y="53.5" class="st0" width="0.9" height="0.9"/>
<rect x="15.4" y="53.5" class="st0" width="0.9" height="0.9"/>
<rect x="8.2" y="53.5" class="st0" width="0.9" height="0.9"/>
<rect x="0.9" y="53.5" class="st0" width="0.9" height="0.9"/>
<rect x="313.4" y="46.4" class="st0" width="1.8" height="1.8"/>
<rect x="36.8" y="60.3" class="st0" width="1.8" height="1.8"/>
<rect x="30" y="60.7" class="st0" width="0.9" height="0.9"/>
<rect x="22.7" y="60.7" class="st0" width="0.9" height="0.9"/>
<rect x="15.4" y="60.7" class="st0" width="0.9" height="0.9"/>
<rect x="8.2" y="60.7" class="st0" width="0.9" height="0.9"/>
<rect x="0.9" y="60.7" class="st0" width="0.9" height="0.9"/>
<rect x="36.8" y="67.5" class="st0" width="1.8" height="1.8"/>
<rect x="30" y="68" class="st0" width="0.9" height="0.9"/>
<rect x="22.7" y="68" class="st0" width="0.9" height="0.9"/>
<rect x="15.4" y="68" class="st0" width="0.9" height="0.9"/>
<rect x="8.2" y="68" class="st0" width="0.9" height="0.9"/>
<rect x="0.9" y="68" class="st0" width="0.9" height="0.9"/>
<rect x="37.2" y="75.3" class="st0" width="0.9" height="0.9"/>
<rect x="30" y="75.3" class="st0" width="0.9" height="0.9"/>
<rect x="22.7" y="75.3" class="st0" width="0.9" height="0.9"/>
<rect x="15.4" y="75.3" class="st0" width="0.9" height="0.9"/>
<rect x="8.2" y="75.3" class="st0" width="0.9" height="0.9"/>
<rect x="0.9" y="75.3" class="st0" width="0.9" height="0.9"/>
<rect x="403.4" y="56.9" class="st0" width="2.7" height="2.7"/>
<path class="st0" d="M394.2,47.3"/>
<path class="st0" d="M401.5,47.3"/>
<rect x="604.1" y="23.3" class="st0" width="3.6" height="3.6"/>
<rect x="604.1" y="30.5" class="st0" width="3.6" height="3.6"/>
<rect x="604.1" y="37.8" class="st0" width="3.6" height="3.6"/>
<rect x="603.6" y="44.6" class="st0" width="4.5" height="4.5"/>
<rect x="478.9" y="0.6" class="st0" width="4.5" height="4.5"/>
<rect x="478.9" y="7.8" class="st0" width="4.5" height="4.5"/>
<rect x="478.4" y="21.9" class="st0" width="5.4" height="5.4"/>
<rect x="478.4" y="36.4" class="st0" width="5.4" height="5.4"/>
<rect x="478.4" y="43.7" class="st0" width="5.4" height="5.4"/>
<rect x="478.9" y="51.4" class="st0" width="4.5" height="4.5"/>
<rect x="479.3" y="59.1" class="st0" width="3.6" height="3.6"/>
<rect x="478.9" y="65.9" class="st0" width="4.5" height="4.5"/>
<rect x="479.3" y="73.7" class="st0" width="3.6" height="3.6"/>
<rect x="479.3" y="80.9" class="st0" width="3.6" height="3.6"/>
<rect x="478.9" y="87.7" class="st0" width="4.5" height="4.5"/>
<rect x="478.9" y="95" class="st0" width="4.5" height="4.5"/>
<rect x="610.4" y="22.4" class="st0" width="5.4" height="5.4"/>
<rect x="610.4" y="36.9" class="st0" width="5.4" height="5.4"/>
<rect x="610.4" y="44.2" class="st0" width="5.4" height="5.4"/>
<rect x="485.7" y="0.1" class="st0" width="5.4" height="5.4"/>
<rect x="485.7" y="7.4" class="st0" width="5.4" height="5.4"/>
<rect x="485.7" y="14.7" class="st0" width="5.4" height="5.4"/>
<rect x="485.7" y="21.9" class="st0" width="5.4" height="5.4"/>
<rect x="485.2" y="28.7" class="st0" width="6.4" height="6.4"/>
<rect x="485.7" y="36.4" class="st0" width="5.4" height="5.4"/>
<rect x="485.7" y="43.7" class="st0" width="5.4" height="5.4"/>
<rect x="485.7" y="51" class="st0" width="5.4" height="5.4"/>
<rect x="485.7" y="58.2" class="st0" width="5.4" height="5.4"/>
<rect x="486.1" y="65.9" class="st0" width="4.5" height="4.5"/>
<rect x="486.1" y="73.2" class="st0" width="4.5" height="4.5"/>
<rect x="486.6" y="80.9" class="st0" width="3.6" height="3.6"/>
<rect x="487" y="88.6" class="st0" width="2.7" height="2.7"/>
<rect x="487" y="95.9" class="st0" width="2.7" height="2.7"/>
<rect x="487.5" y="109.8" class="st0" width="1.8" height="1.8"/>
<rect x="617.7" y="22.4" class="st0" width="5.4" height="5.4"/>
<rect x="617.2" y="29.2" class="st0" width="6.4" height="6.4"/>
<rect x="617.7" y="36.9" class="st0" width="5.4" height="5.4"/>
<rect x="492.9" y="0.1" class="st0" width="5.4" height="5.4"/>
<rect x="492.9" y="7.4" class="st0" width="5.4" height="5.4"/>
<rect x="492.5" y="14.2" class="st0" width="6.4" height="6.4"/>
<rect x="492.9" y="21.9" class="st0" width="5.4" height="5.4"/>
<rect x="492.9" y="29.2" class="st0" width="5.4" height="5.4"/>
<rect x="492.9" y="36.4" class="st0" width="5.4" height="5.4"/>
<rect x="494.7" y="45.5" class="st0" width="1.8" height="1.8"/>
<rect x="494.3" y="52.3" class="st0" width="2.7" height="2.7"/>
<rect x="494.3" y="59.6" class="st0" width="2.7" height="2.7"/>
<rect x="493.4" y="65.9" class="st0" width="4.5" height="4.5"/>
<rect x="494.3" y="74.1" class="st0" width="2.7" height="2.7"/>
<rect x="494.3" y="81.4" class="st0" width="2.7" height="2.7"/>
<rect x="495.2" y="89.5" class="st0" width="0.9" height="0.9"/>
<rect x="494.7" y="96.4" class="st0" width="1.8" height="1.8"/>
<rect x="494.7" y="109.8" class="st0" width="1.8" height="1.8"/>
<rect x="625" y="22.4" class="st0" width="5.4" height="5.4"/>
<rect x="625" y="29.6" class="st0" width="5.4" height="5.4"/>
<rect x="625" y="36.9" class="st0" width="5.4" height="5.4"/>
<rect x="500.2" y="0.1" class="st0" width="5.4" height="5.4"/>
<rect x="500.2" y="7.4" class="st0" width="5.4" height="5.4"/>
<rect x="499.7" y="14.2" class="st0" width="6.4" height="6.4"/>
<rect x="500.2" y="21.9" class="st0" width="5.4" height="5.4"/>
<rect x="502" y="31" class="st0" width="1.8" height="1.8"/>
<path class="st0" d="M502.9,39.2"/>
<path class="st0" d="M502.9,46.4"/>
<rect x="501.1" y="51.9" class="st0" width="3.6" height="3.6"/>
<rect x="500.6" y="58.7" class="st0" width="4.5" height="4.5"/>
<rect x="501.1" y="66.4" class="st0" width="3.6" height="3.6"/>
<rect x="501.5" y="74.1" class="st0" width="2.7" height="2.7"/>
<rect x="502" y="81.8" class="st0" width="1.8" height="1.8"/>
<rect x="502" y="89.1" class="st0" width="1.8" height="1.8"/>
<rect x="501.5" y="95.9" class="st0" width="2.7" height="2.7"/>
<rect x="502" y="109.8" class="st0" width="1.8" height="1.8"/>
<rect x="632.2" y="22.4" class="st0" width="5.4" height="5.4"/>
<rect x="631.8" y="29.2" class="st0" width="6.4" height="6.4"/>
<rect x="631.8" y="36.4" class="st0" width="6.4" height="6.4"/>
<rect x="631.8" y="43.7" class="st0" width="6.4" height="6.4"/>
<rect x="508.4" y="1" class="st0" width="3.6" height="3.6"/>
<path class="st0" d="M510.2,10.1"/>
<path class="st0" d="M510.2,17.4"/>
<path class="st0" d="M510.2,24.6"/>
<path class="st0" d="M510.2,31.9"/>
<path class="st0" d="M510.2,39.2"/>
<path class="st0" d="M510.2,46.4"/>
<path class="st0" d="M510.2,53.7"/>
<rect x="508.4" y="59.1" class="st0" width="3.6" height="3.6"/>
<rect x="508.8" y="66.8" class="st0" width="2.7" height="2.7"/>
<rect x="509.3" y="74.6" class="st0" width="1.8" height="1.8"/>
<rect x="509.3" y="81.8" class="st0" width="1.8" height="1.8"/>
<rect x="509.3" y="89.1" class="st0" width="1.8" height="1.8"/>
<rect x="509.7" y="96.8" class="st0" width="0.9" height="0.9"/>
<path class="st0" d="M510.2,110.7"/>
<rect x="639.3" y="22.2" class="st0" width="6.4" height="6.4"/>
<rect x="639.3" y="36.8" class="st0" width="6.4" height="6.4"/>
<rect x="514.9" y="0.5" class="st0" width="5.4" height="5.4"/>
<rect x="514.9" y="7.7" class="st0" width="5.4" height="5.4"/>
<rect x="514.9" y="15" class="st0" width="5.4" height="5.4"/>
<rect x="514.5" y="29" class="st0" width="6.4" height="6.4"/>
<rect x="514.9" y="36.8" class="st0" width="5.4" height="5.4"/>
<rect x="514.5" y="43.6" class="st0" width="6.4" height="6.4"/>
<rect x="514.9" y="51.3" class="st0" width="5.4" height="5.4"/>
<rect x="646.5" y="22.2" class="st0" width="6.4" height="6.4"/>
<rect x="646.5" y="29.5" class="st0" width="6.4" height="6.4"/>
<rect x="646.5" y="36.8" class="st0" width="6.4" height="6.4"/>
<rect x="647" y="44.5" class="st0" width="5.4" height="5.4"/>
<rect x="522.2" y="0.5" class="st0" width="5.4" height="5.4"/>
<rect x="522.2" y="7.7" class="st0" width="5.4" height="5.4"/>
<rect x="521.7" y="14.5" class="st0" width="6.4" height="6.4"/>
<rect x="521.7" y="21.8" class="st0" width="6.4" height="6.4"/>
<rect x="521.7" y="29" class="st0" width="6.4" height="6.4"/>
<rect x="522.2" y="36.8" class="st0" width="5.4" height="5.4"/>
<rect x="522.2" y="44" class="st0" width="5.4" height="5.4"/>
<rect x="653.8" y="22.2" class="st0" width="6.4" height="6.4"/>
<rect x="654.2" y="30" class="st0" width="5.4" height="5.4"/>
<rect x="654.2" y="37.2" class="st0" width="5.4" height="5.4"/>
<rect x="653.8" y="44" class="st0" width="6.4" height="6.4"/>
<rect x="529" class="st0" width="6.4" height="6.4"/>
<rect x="529.5" y="7.7" class="st0" width="5.4" height="5.4"/>
<rect x="529" y="21.8" class="st0" width="6.4" height="6.4"/>
<rect x="529.5" y="29.5" class="st0" width="5.4" height="5.4"/>
<rect x="529.5" y="44" class="st0" width="5.4" height="5.4"/>
<rect x="661.5" y="22.7" class="st0" width="5.4" height="5.4"/>
<rect x="661.5" y="30" class="st0" width="5.4" height="5.4"/>
<rect x="661.5" y="37.2" class="st0" width="5.4" height="5.4"/>
<rect x="536.7" y="0.5" class="st0" width="5.4" height="5.4"/>
<rect x="668.8" y="22.7" class="st0" width="5.4" height="5.4"/>
<rect x="668.8" y="30" class="st0" width="5.4" height="5.4"/>
<rect x="668.3" y="36.8" class="st0" width="6.4" height="6.4"/>
<rect x="544" y="0.5" class="st0" width="5.4" height="5.4"/>
<rect x="676" y="22.7" class="st0" width="5.4" height="5.4"/>
<rect x="551.2" y="0.5" class="st0" width="5.4" height="5.4"/>
<rect x="558.5" y="0.5" class="st0" width="5.4" height="5.4"/>
<rect x="558.5" y="7.7" class="st0" width="5.4" height="5.4"/>
<rect x="42.9" y="0.8" class="st0" width="5.4" height="5.4"/>
<rect x="42.9" y="8.1" class="st0" width="5.4" height="5.4"/>
<rect x="42.9" y="15.3" class="st0" width="5.4" height="5.4"/>
<rect x="42.9" y="29.9" class="st0" width="5.4" height="5.4"/>
<rect x="565.8" y="0.5" class="st0" width="5.4" height="5.4"/>
<rect x="565.3" y="7.3" class="st0" width="6.4" height="6.4"/>
<rect x="565.3" y="14.5" class="st0" width="6.4" height="6.4"/>
<rect x="50.2" y="0.8" class="st0" width="5.4" height="5.4"/>
<rect x="50.2" y="8.1" class="st0" width="5.4" height="5.4"/>
<rect x="50.2" y="15.3" class="st0" width="5.4" height="5.4"/>
<rect x="50.2" y="22.6" class="st0" width="5.4" height="5.4"/>
<rect x="50.2" y="29.9" class="st0" width="5.4" height="5.4"/>
<rect x="572.6" class="st0" width="6.4" height="6.4"/>
<rect x="573" y="7.7" class="st0" width="5.4" height="5.4"/>
<rect x="572.6" y="14.5" class="st0" width="6.4" height="6.4"/>
<rect x="57" y="0.4" class="st0" width="6.4" height="6.4"/>
<rect x="57" y="7.6" class="st0" width="6.4" height="6.4"/>
<rect x="57.4" y="22.6" class="st0" width="5.4" height="5.4"/>
<rect x="579.8" class="st0" width="6.4" height="6.4"/>
<rect x="580.3" y="15" class="st0" width="5.4" height="5.4"/>
<rect x="64.7" y="0.8" class="st0" width="5.4" height="5.4"/>
<rect x="64.2" y="7.6" class="st0" width="6.4" height="6.4"/>
<rect x="64.2" y="14.9" class="st0" width="6.4" height="6.4"/>
<rect x="64.2" y="22.1" class="st0" width="6.4" height="6.4"/>
<rect x="64.7" y="29.9" class="st0" width="5.4" height="5.4"/>
<rect x="587.1" class="st0" width="6.4" height="6.4"/>
<rect x="587.6" y="7.7" class="st0" width="5.4" height="5.4"/>
<rect x="587.1" y="14.5" class="st0" width="6.4" height="6.4"/>
<rect x="71.5" y="0.4" class="st0" width="6.4" height="6.4"/>
<rect x="71.5" y="7.6" class="st0" width="6.4" height="6.4"/>
<rect x="71.9" y="15.3" class="st0" width="5.4" height="5.4"/>
<rect x="71.9" y="22.6" class="st0" width="5.4" height="5.4"/>
<rect x="594.8" y="0.5" class="st0" width="5.4" height="5.4"/>
<rect x="594.4" y="7.3" class="st0" width="6.4" height="6.4"/>
<rect x="79.2" y="0.8" class="st0" width="5.4" height="5.4"/>
<rect x="79.2" y="15.3" class="st0" width="5.4" height="5.4"/>
<rect x="79.2" y="22.6" class="st0" width="5.4" height="5.4"/>
<rect x="79.2" y="29.9" class="st0" width="5.4" height="5.4"/>
<rect x="601.6" class="st0" width="6.4" height="6.4"/>
<rect x="601.6" y="7.3" class="st0" width="6.4" height="6.4"/>
<rect x="602.1" y="15" class="st0" width="5.4" height="5.4"/>
<rect x="86" y="0.4" class="st0" width="6.4" height="6.4"/>
<rect x="86.5" y="15.3" class="st0" width="5.4" height="5.4"/>
<rect x="86.5" y="22.6" class="st0" width="5.4" height="5.4"/>
<rect x="609.3" y="0.5" class="st0" width="5.4" height="5.4"/>
<rect x="609.3" y="7.7" class="st0" width="5.4" height="5.4"/>
<rect x="609.3" y="15" class="st0" width="5.4" height="5.4"/>
<rect x="93.7" y="0.8" class="st0" width="5.4" height="5.4"/>
<rect x="93.7" y="8.1" class="st0" width="5.4" height="5.4"/>
<rect x="616.2" class="st0" width="6.4" height="6.4"/>
<rect x="616.6" y="7.7" class="st0" width="5.4" height="5.4"/>
<rect x="616.6" y="15" class="st0" width="5.4" height="5.4"/>
<rect x="101" y="0.8" class="st0" width="5.4" height="5.4"/>
<rect x="100.5" y="7.6" class="st0" width="6.4" height="6.4"/>
<rect x="101" y="15.3" class="st0" width="5.4" height="5.4"/>
<rect x="101" y="22.6" class="st0" width="5.4" height="5.4"/>
<rect x="623.9" y="0.5" class="st0" width="5.4" height="5.4"/>
<rect x="623.9" y="7.7" class="st0" width="5.4" height="5.4"/>
<rect x="623.9" y="15" class="st0" width="5.4" height="5.4"/>
<rect x="108.3" y="0.8" class="st0" width="5.4" height="5.4"/>
<rect x="108.3" y="8.1" class="st0" width="5.4" height="5.4"/>
<rect x="108.3" y="15.3" class="st0" width="5.4" height="5.4"/>
<rect x="108.3" y="22.6" class="st0" width="5.4" height="5.4"/>
<rect x="631.1" y="0.5" class="st0" width="5.4" height="5.4"/>
<rect x="630.7" y="7.3" class="st0" width="6.4" height="6.4"/>
<rect x="630.7" y="14.5" class="st0" width="6.4" height="6.4"/>
<rect x="115.5" y="0.8" class="st0" width="5.4" height="5.4"/>
<rect x="115.5" y="8.1" class="st0" width="5.4" height="5.4"/>
<rect x="638.4" y="0.5" class="st0" width="5.4" height="5.4"/>
<rect x="638.4" y="7.7" class="st0" width="5.4" height="5.4"/>
<rect x="122.8" y="0.8" class="st0" width="5.4" height="5.4"/>
<rect x="122.8" y="8.1" class="st0" width="5.4" height="5.4"/>
<rect x="122.8" y="15.3" class="st0" width="5.4" height="5.4"/>
<rect x="645.7" y="0.5" class="st0" width="5.4" height="5.4"/>
<rect x="645.2" y="7.3" class="st0" width="6.4" height="6.4"/>
<rect x="645.7" y="15" class="st0" width="5.4" height="5.4"/>
<rect x="130" y="8.1" class="st0" width="5.4" height="5.4"/>
<rect x="130" y="15.3" class="st0" width="5.4" height="5.4"/>
<rect x="652.9" y="0.5" class="st0" width="5.4" height="5.4"/>
<rect x="652.9" y="7.7" class="st0" width="5.4" height="5.4"/>
<rect x="652.9" y="15" class="st0" width="5.4" height="5.4"/>
<rect x="137.3" y="0.8" class="st0" width="5.4" height="5.4"/>
<rect x="137.3" y="8.1" class="st0" width="5.4" height="5.4"/>
<rect x="137.3" y="15.3" class="st0" width="5.4" height="5.4"/>
<rect x="137.3" y="22.6" class="st0" width="5.4" height="5.4"/>
<rect x="659.7" class="st0" width="6.4" height="6.4"/>
<rect x="660.2" y="7.7" class="st0" width="5.4" height="5.4"/>
<rect x="660.2" y="15" class="st0" width="5.4" height="5.4"/>
<rect x="144.6" y="0.8" class="st0" width="5.4" height="5.4"/>
<rect x="144.1" y="7.6" class="st0" width="6.4" height="6.4"/>
<rect x="144.1" y="14.9" class="st0" width="6.4" height="6.4"/>
<rect x="144.6" y="22.6" class="st0" width="5.4" height="5.4"/>
<rect x="667" class="st0" width="6.4" height="6.4"/>
<rect x="667" y="7.3" class="st0" width="6.4" height="6.4"/>
<rect x="667" y="14.5" class="st0" width="6.4" height="6.4"/>
<rect x="151.4" y="7.6" class="st0" width="6.4" height="6.4"/>
<rect x="151.8" y="15.3" class="st0" width="5.4" height="5.4"/>
<rect x="674.2" class="st0" width="6.4" height="6.4"/>
<rect x="674.7" y="7.7" class="st0" width="5.4" height="5.4"/>
<rect x="674.2" y="14.5" class="st0" width="6.4" height="6.4"/>
<rect x="159.1" y="0.8" class="st0" width="5.4" height="5.4"/>
<rect x="159.1" y="8.1" class="st0" width="5.4" height="5.4"/>
<rect x="158.6" y="14.9" class="st0" width="6.4" height="6.4"/>
<rect x="682" y="0.5" class="st0" width="5.4" height="5.4"/>
<rect x="682" y="7.7" class="st0" width="5.4" height="5.4"/>
<rect x="682" y="15" class="st0" width="5.4" height="5.4"/>
<rect x="166.3" y="0.8" class="st0" width="5.4" height="5.4"/>
<rect x="166.3" y="8.1" class="st0" width="5.4" height="5.4"/>
<rect x="165.9" y="14.9" class="st0" width="6.4" height="6.4"/>
<rect x="166.3" y="22.6" class="st0" width="5.4" height="5.4"/>
<rect x="688.8" class="st0" width="6.4" height="6.4"/>
<rect x="689.2" y="7.7" class="st0" width="5.4" height="5.4"/>
<rect x="688.8" y="14.5" class="st0" width="6.4" height="6.4"/>
<rect x="173.6" y="8.1" class="st0" width="5.4" height="5.4"/>
<rect x="173.6" y="22.6" class="st0" width="5.4" height="5.4"/>
<rect x="696.5" y="0.5" class="st0" width="5.4" height="5.4"/>
<rect x="696.5" y="7.7" class="st0" width="5.4" height="5.4"/>
<rect x="696.5" y="15" class="st0" width="5.4" height="5.4"/>
<rect x="180.9" y="0.8" class="st0" width="5.4" height="5.4"/>
<rect x="180.4" y="7.6" class="st0" width="6.4" height="6.4"/>
<rect x="180.4" y="14.9" class="st0" width="6.4" height="6.4"/>
<rect x="180.9" y="22.6" class="st0" width="5.4" height="5.4"/>
<rect x="180.4" y="29.4" class="st0" width="6.4" height="6.4"/>
<rect x="703.8" y="0.5" class="st0" width="5.4" height="5.4"/>
<rect x="711.5" y="0.5" class="st0" width="5.4" height="5.4"/>
<rect x="718.7" y="0.5" class="st0" width="5.4" height="5.4"/>
<rect x="725.5" class="st0" width="6.4" height="6.4"/>
<rect x="726" y="7.7" class="st0" width="5.4" height="5.4"/>
<rect x="726" y="15" class="st0" width="5.4" height="5.4"/>
<rect x="725.5" y="21.8" class="st0" width="6.4" height="6.4"/>
<rect x="733.3" y="0.5" class="st0" width="5.4" height="5.4"/>
<rect x="732.8" y="7.3" class="st0" width="6.4" height="6.4"/>
<rect x="740.5" y="0.5" class="st0" width="5.4" height="5.4"/>
<rect x="740.1" y="7.3" class="st0" width="6.4" height="6.4"/>
<rect x="740.1" y="14.5" class="st0" width="6.4" height="6.4"/>
<rect x="740.5" y="22.2" class="st0" width="5.4" height="5.4"/>
<rect x="740.1" y="29" class="st0" width="6.4" height="6.4"/>
<rect x="740.1" y="43.6" class="st0" width="6.4" height="6.4"/>
<rect x="740.5" y="51.3" class="st0" width="5.4" height="5.4"/>
<rect x="747.8" y="0.5" class="st0" width="5.4" height="5.4"/>
<rect x="747.8" y="7.7" class="st0" width="5.4" height="5.4"/>
<rect x="747.8" y="15" class="st0" width="5.4" height="5.4"/>
<rect x="747.8" y="22.2" class="st0" width="5.4" height="5.4"/>
<rect x="747.8" y="29.5" class="st0" width="5.4" height="5.4"/>
<rect x="747.3" y="36.3" class="st0" width="6.4" height="6.4"/>
<rect x="747.3" y="43.6" class="st0" width="6.4" height="6.4"/>
<rect x="755" y="0.5" class="st0" width="5.4" height="5.4"/>
<rect x="755" y="7.7" class="st0" width="5.4" height="5.4"/>
<rect x="755" y="15" class="st0" width="5.4" height="5.4"/>
<rect x="755" y="22.2" class="st0" width="5.4" height="5.4"/>
<rect x="755" y="29.5" class="st0" width="5.4" height="5.4"/>
<rect x="755" y="36.8" class="st0" width="5.4" height="5.4"/>
<rect x="755" y="44" class="st0" width="5.4" height="5.4"/>
<rect x="755" y="51.3" class="st0" width="5.4" height="5.4"/>
<rect x="762.3" y="0.5" class="st0" width="5.4" height="5.4"/>
<rect x="761.8" y="7.3" class="st0" width="6.4" height="6.4"/>
<rect x="761.8" y="14.5" class="st0" width="6.4" height="6.4"/>
<rect x="762.3" y="22.2" class="st0" width="5.4" height="5.4"/>
<rect x="769.1" class="st0" width="6.4" height="6.4"/>
<rect x="769.6" y="7.7" class="st0" width="5.4" height="5.4"/>
<rect x="769.1" y="14.5" class="st0" width="6.4" height="6.4"/>
<rect x="769.1" y="21.8" class="st0" width="6.4" height="6.4"/>
<rect x="769.1" y="29" class="st0" width="6.4" height="6.4"/>
<rect x="769.6" y="36.8" class="st0" width="5.4" height="5.4"/>
<rect x="769.6" y="44" class="st0" width="5.4" height="5.4"/>
<rect x="769.6" y="51.3" class="st0" width="5.4" height="5.4"/>
<rect x="776.4" class="st0" width="6.4" height="6.4"/>
<rect x="776.4" y="7.3" class="st0" width="6.4" height="6.4"/>
<rect x="776.8" y="15" class="st0" width="5.4" height="5.4"/>
<rect x="776.8" y="22.2" class="st0" width="5.4" height="5.4"/>
<rect x="776.4" y="29" class="st0" width="6.4" height="6.4"/>
<rect x="776.4" y="43.6" class="st0" width="6.4" height="6.4"/>
<rect x="776.8" y="51.3" class="st0" width="5.4" height="5.4"/>
<rect x="783.6" class="st0" width="6.4" height="6.4"/>
<rect x="784.1" y="7.7" class="st0" width="5.4" height="5.4"/>
<path class="st0" d="M547.4,26.1"/>
<path class="st0" d="M554.7,26.1"/>
<rect x="561" y="25.2" class="st0" width="1.8" height="1.8"/>
<rect x="568.3" y="32.4" class="st0" width="1.8" height="1.8"/>
<rect x="567.8" y="39.2" class="st0" width="2.7" height="2.7"/>
<rect x="567.8" y="46.5" class="st0" width="2.7" height="2.7"/>
<rect x="568.3" y="54.2" class="st0" width="1.8" height="1.8"/>
<rect x="568.3" y="61.5" class="st0" width="1.8" height="1.8"/>
<rect x="568.3" y="68.7" class="st0" width="1.8" height="1.8"/>
<rect x="575.6" y="111.7" class="st0" width="1.8" height="1.8"/>
<rect x="576" y="119.5" class="st0" width="0.9" height="0.9"/>
<rect x="582.8" y="111.7" class="st0" width="1.8" height="1.8"/>
<rect x="582.4" y="118.5" class="st0" width="2.7" height="2.7"/>
<rect x="582.8" y="126.3" class="st0" width="1.8" height="1.8"/>
<rect x="573.7" y="23.3" class="st0" width="5.4" height="5.4"/>
<rect x="573.7" y="30.6" class="st0" width="5.4" height="5.4"/>
<rect x="574.2" y="38.3" class="st0" width="4.5" height="4.5"/>
<rect x="574.2" y="45.6" class="st0" width="4.5" height="4.5"/>
<rect x="574.2" y="52.8" class="st0" width="4.5" height="4.5"/>
<rect x="573.7" y="59.6" class="st0" width="5.4" height="5.4"/>
<rect x="574.6" y="67.8" class="st0" width="3.6" height="3.6"/>
<rect x="575.6" y="76" class="st0" width="1.8" height="1.8"/>
<rect x="575.6" y="83.3" class="st0" width="1.8" height="1.8"/>
<rect x="575.6" y="90.5" class="st0" width="1.8" height="1.8"/>
<rect x="575.6" y="97.8" class="st0" width="1.8" height="1.8"/>
<rect x="575.6" y="105" class="st0" width="1.8" height="1.8"/>
<rect x="581.9" y="24.2" class="st0" width="3.6" height="3.6"/>
<rect x="582.4" y="32" class="st0" width="2.7" height="2.7"/>
<rect x="582.4" y="39.2" class="st0" width="2.7" height="2.7"/>
<rect x="582.4" y="46.5" class="st0" width="2.7" height="2.7"/>
<rect x="582.4" y="53.7" class="st0" width="2.7" height="2.7"/>
<rect x="582.4" y="61" class="st0" width="2.7" height="2.7"/>
<rect x="582.4" y="68.3" class="st0" width="2.7" height="2.7"/>
<rect x="582.4" y="75.5" class="st0" width="2.7" height="2.7"/>
<rect x="581.9" y="82.3" class="st0" width="3.6" height="3.6"/>
<rect x="581.9" y="89.6" class="st0" width="3.6" height="3.6"/>
<rect x="581.9" y="96.9" class="st0" width="3.6" height="3.6"/>
<rect x="582.4" y="104.6" class="st0" width="2.7" height="2.7"/>
<rect x="589.6" y="24.7" class="st0" width="2.7" height="2.7"/>
<rect x="590.1" y="32.4" class="st0" width="1.8" height="1.8"/>
<rect x="590.1" y="39.7" class="st0" width="1.8" height="1.8"/>
<rect x="589.6" y="46.5" class="st0" width="2.7" height="2.7"/>
<rect x="589.6" y="53.7" class="st0" width="2.7" height="2.7"/>
<rect x="589.6" y="61" class="st0" width="2.7" height="2.7"/>
<rect x="589.6" y="68.3" class="st0" width="2.7" height="2.7"/>
<rect x="589.6" y="75.5" class="st0" width="2.7" height="2.7"/>
<rect x="590.1" y="83.3" class="st0" width="1.8" height="1.8"/>
<rect x="589.6" y="90.1" class="st0" width="2.7" height="2.7"/>
<rect x="589.6" y="97.3" class="st0" width="2.7" height="2.7"/>
<rect x="589.6" y="104.6" class="st0" width="2.7" height="2.7"/>
<rect x="474.5" y="2.3" class="st0" width="1.8" height="1.8"/>
<rect x="466.8" y="1.8" class="st0" width="2.7" height="2.7"/>
<rect x="459.5" y="1.8" class="st0" width="2.7" height="2.7"/>
<rect x="452.7" y="2.3" class="st0" width="1.8" height="1.8"/>
<rect x="445" y="1.8" class="st0" width="2.7" height="2.7"/>
<rect x="437.7" y="1.8" class="st0" width="2.7" height="2.7"/>
<rect x="474.5" y="9.5" class="st0" width="1.8" height="1.8"/>
<rect x="466.8" y="9.1" class="st0" width="2.7" height="2.7"/>
<rect x="460" y="9.5" class="st0" width="1.8" height="1.8"/>
<rect x="452.7" y="9.5" class="st0" width="1.8" height="1.8"/>
<rect x="445.4" y="9.5" class="st0" width="1.8" height="1.8"/>
<rect x="438.2" y="9.5" class="st0" width="1.8" height="1.8"/>
<rect x="474.5" y="16.8" class="st0" width="1.8" height="1.8"/>
<rect x="467.2" y="16.8" class="st0" width="1.8" height="1.8"/>
<rect x="460" y="16.8" class="st0" width="1.8" height="1.8"/>
<rect x="452.7" y="16.8" class="st0" width="1.8" height="1.8"/>
<rect x="445.4" y="16.8" class="st0" width="1.8" height="1.8"/>
<rect x="438.2" y="16.8" class="st0" width="1.8" height="1.8"/>
<rect x="474.5" y="24" class="st0" width="1.8" height="1.8"/>
<rect x="467.2" y="24" class="st0" width="1.8" height="1.8"/>
<rect x="460" y="24" class="st0" width="1.8" height="1.8"/>
<rect x="452.7" y="24" class="st0" width="1.8" height="1.8"/>
<rect x="445.4" y="24" class="st0" width="1.8" height="1.8"/>
<rect x="438.2" y="24" class="st0" width="1.8" height="1.8"/>
<rect x="474.5" y="31.3" class="st0" width="1.8" height="1.8"/>
<rect x="467.2" y="31.3" class="st0" width="1.8" height="1.8"/>
<rect x="460" y="31.3" class="st0" width="1.8" height="1.8"/>
<rect x="452.7" y="31.3" class="st0" width="1.8" height="1.8"/>
<rect x="445.4" y="31.3" class="st0" width="1.8" height="1.8"/>
<rect x="438.2" y="31.3" class="st0" width="1.8" height="1.8"/>
<rect x="474.5" y="38.6" class="st0" width="1.8" height="1.8"/>
<rect x="467.2" y="38.6" class="st0" width="1.8" height="1.8"/>
<rect x="460" y="38.6" class="st0" width="1.8" height="1.8"/>
<rect x="452.7" y="38.6" class="st0" width="1.8" height="1.8"/>
<rect x="445.9" y="39" class="st0" width="0.9" height="0.9"/>
<rect x="438.6" y="39" class="st0" width="0.9" height="0.9"/>
<rect x="474.5" y="45.8" class="st0" width="1.8" height="1.8"/>
<rect x="467.2" y="45.8" class="st0" width="1.8" height="1.8"/>
<rect x="460.4" y="46.3" class="st0" width="0.9" height="0.9"/>
<rect x="453.2" y="46.3" class="st0" width="0.9" height="0.9"/>
<rect x="445.9" y="46.3" class="st0" width="0.9" height="0.9"/>
<rect x="438.6" y="46.3" class="st0" width="0.9" height="0.9"/>
<rect x="474.5" y="53.1" class="st0" width="1.8" height="1.8"/>
<rect x="467.7" y="53.5" class="st0" width="0.9" height="0.9"/>
<rect x="460.4" y="53.5" class="st0" width="0.9" height="0.9"/>
<rect x="453.2" y="53.5" class="st0" width="0.9" height="0.9"/>
<rect x="445.9" y="53.5" class="st0" width="0.9" height="0.9"/>
<rect x="438.6" y="53.5" class="st0" width="0.9" height="0.9"/>
<rect x="474.5" y="60.4" class="st0" width="1.8" height="1.8"/>
<rect x="467.7" y="60.8" class="st0" width="0.9" height="0.9"/>
<rect x="460.4" y="60.8" class="st0" width="0.9" height="0.9"/>
<rect x="453.2" y="60.8" class="st0" width="0.9" height="0.9"/>
<rect x="445.9" y="60.8" class="st0" width="0.9" height="0.9"/>
<rect x="438.6" y="60.8" class="st0" width="0.9" height="0.9"/>
<rect x="474.5" y="67.6" class="st0" width="1.8" height="1.8"/>
<rect x="467.7" y="68.1" class="st0" width="0.9" height="0.9"/>
<rect x="460.4" y="68.1" class="st0" width="0.9" height="0.9"/>
<rect x="453.2" y="68.1" class="st0" width="0.9" height="0.9"/>
<rect x="445.9" y="68.1" class="st0" width="0.9" height="0.9"/>
<rect x="438.6" y="68.1" class="st0" width="0.9" height="0.9"/>
<rect x="467.7" y="75.3" class="st0" width="0.9" height="0.9"/>
<rect x="460.4" y="75.3" class="st0" width="0.9" height="0.9"/>
<rect x="453.2" y="75.3" class="st0" width="0.9" height="0.9"/>
<rect x="445.9" y="75.3" class="st0" width="0.9" height="0.9"/>
<rect x="438.6" y="75.3" class="st0" width="0.9" height="0.9"/>
<rect x="413.3" y="19" class="st0" width="1.8" height="1.8"/>
<rect x="399.1" y="31.2" class="st0" width="1.8" height="1.8"/>
<rect x="383.3" y="2" class="st0" width="1.8" height="1.8"/>
<rect x="376" y="2" class="st0" width="1.8" height="1.8"/>
<rect x="368.8" y="2" class="st0" width="1.8" height="1.8"/>
<rect x="361.5" y="2" class="st0" width="1.8" height="1.8"/>
<rect x="354.3" y="2" class="st0" width="1.8" height="1.8"/>
<rect x="383.3" y="9.3" class="st0" width="1.8" height="1.8"/>
<rect x="376" y="9.3" class="st0" width="1.8" height="1.8"/>
<rect x="368.8" y="9.3" class="st0" width="1.8" height="1.8"/>
<rect x="361.5" y="9.3" class="st0" width="1.8" height="1.8"/>
<rect x="354.3" y="9.3" class="st0" width="1.8" height="1.8"/>
<rect x="383.3" y="16.6" class="st0" width="1.8" height="1.8"/>
<rect x="376" y="16.6" class="st0" width="1.8" height="1.8"/>
<rect x="368.8" y="16.6" class="st0" width="1.8" height="1.8"/>
<rect x="362" y="17" class="st0" width="0.9" height="0.9"/>
<rect x="354.7" y="17" class="st0" width="0.9" height="0.9"/>
<rect x="383.3" y="23.8" class="st0" width="1.8" height="1.8"/>
<rect x="376.5" y="24.3" class="st0" width="0.9" height="0.9"/>
<rect x="369.2" y="24.3" class="st0" width="0.9" height="0.9"/>
<rect x="362" y="24.3" class="st0" width="0.9" height="0.9"/>
<rect x="354.7" y="24.3" class="st0" width="0.9" height="0.9"/>
<rect x="383.8" y="31.5" class="st0" width="0.9" height="0.9"/>
<rect x="376.5" y="31.5" class="st0" width="0.9" height="0.9"/>
<rect x="369.2" y="31.5" class="st0" width="0.9" height="0.9"/>
<rect x="362" y="31.5" class="st0" width="0.9" height="0.9"/>
<rect x="354.7" y="31.5" class="st0" width="0.9" height="0.9"/>
<rect x="383.8" y="38.8" class="st0" width="0.9" height="0.9"/>
<rect x="376.5" y="38.8" class="st0" width="0.9" height="0.9"/>
<rect x="369.2" y="38.8" class="st0" width="0.9" height="0.9"/>
<rect x="362" y="38.8" class="st0" width="0.9" height="0.9"/>
<rect x="354.7" y="38.8" class="st0" width="0.9" height="0.9"/>
<rect x="383.8" y="46.1" class="st0" width="0.9" height="0.9"/>
<rect x="376.5" y="46.1" class="st0" width="0.9" height="0.9"/>
<rect x="369.2" y="46.1" class="st0" width="0.9" height="0.9"/>
<rect x="362" y="46.1" class="st0" width="0.9" height="0.9"/>
<rect x="354.7" y="46.1" class="st0" width="0.9" height="0.9"/>
<rect x="383.8" y="53.3" class="st0" width="0.9" height="0.9"/>
<rect x="376.5" y="53.3" class="st0" width="0.9" height="0.9"/>
<rect x="369.2" y="53.3" class="st0" width="0.9" height="0.9"/>
<rect x="362" y="53.3" class="st0" width="0.9" height="0.9"/>
<rect x="354.7" y="53.3" class="st0" width="0.9" height="0.9"/>
</svg>
