<?xml version="1.0" encoding="utf-8"?>
<!-- Generator: Adobe Illustrator 21.0.2, SVG Export Plug-In . SVG Version: 6.00 Build 0)  -->
<svg version="1.1" id="_x31__екран" xmlns="http://www.w3.org/2000/svg" xmlns:xlink="http://www.w3.org/1999/xlink" x="0px"
	 y="0px" viewBox="0 0 16 12.1" style="enable-background:new 0 0 16 12.1;" xml:space="preserve">
<style type="text/css">
	.st0{fill:#4ABEC7;}
	.st1{fill:#101633;}
</style>
<g>
	<path class="st0" d="M15.8,2.6c0,0-0.2-1.2-0.6-1.7c-0.6-0.7-1.3-0.7-1.6-0.7C11.4,0,8,0,8,0l0,0c0,0-3.4,0-5.6,0.2
		c-0.3,0-1,0.1-1.6,0.7C0.3,1.4,0.2,2.6,0.2,2.6S0,4,0,5.4v1.3c0,1.4,0.2,2.8,0.2,2.8s0.2,1.2,0.6,1.7c0.6,0.7,1.4,0.7,1.8,0.7
		C3.8,12.1,8,12.1,8,12.1s3.4,0,5.6-0.2c0.3,0,1-0.1,1.6-0.7c0.5-0.5,0.6-1.7,0.6-1.7S16,8.1,16,6.7V5.4C16,4,15.8,2.6,15.8,2.6"/>
	<polygon class="st1" points="5.4,3.1 5.4,9.1 10.6,6.1 	"/>
</g>
</svg>
